G04*
G04 #@! TF.GenerationSoftware,Altium Limited,Altium Designer,18.1.6 (161)*
G04*
G04 Layer_Color=8421504*
%FSLAX25Y25*%
%MOIN*%
G70*
G01*
G75*
%ADD17C,0.00100*%
G04:AMPARAMS|DCode=18|XSize=39.37mil|YSize=80.71mil|CornerRadius=1.97mil|HoleSize=0mil|Usage=FLASHONLY|Rotation=180.000|XOffset=0mil|YOffset=0mil|HoleType=Round|Shape=RoundedRectangle|*
%AMROUNDEDRECTD18*
21,1,0.03937,0.07677,0,0,180.0*
21,1,0.03543,0.08071,0,0,180.0*
1,1,0.00394,-0.01772,0.03839*
1,1,0.00394,0.01772,0.03839*
1,1,0.00394,0.01772,-0.03839*
1,1,0.00394,-0.01772,-0.03839*
%
%ADD18ROUNDEDRECTD18*%
G04:AMPARAMS|DCode=19|XSize=127.95mil|YSize=80.71mil|CornerRadius=2.02mil|HoleSize=0mil|Usage=FLASHONLY|Rotation=180.000|XOffset=0mil|YOffset=0mil|HoleType=Round|Shape=RoundedRectangle|*
%AMROUNDEDRECTD19*
21,1,0.12795,0.07667,0,0,180.0*
21,1,0.12392,0.08071,0,0,180.0*
1,1,0.00404,-0.06196,0.03834*
1,1,0.00404,0.06196,0.03834*
1,1,0.00404,0.06196,-0.03834*
1,1,0.00404,-0.06196,-0.03834*
%
%ADD19ROUNDEDRECTD19*%
%ADD20R,0.03150X0.03150*%
%ADD21R,0.03937X0.05512*%
%ADD22R,0.04134X0.04134*%
%ADD23R,0.01100X0.05800*%
%ADD24R,0.05800X0.01100*%
%ADD25R,0.05512X0.03937*%
%ADD26R,0.09449X0.02992*%
%ADD27O,0.08661X0.02362*%
%ADD28R,0.03543X0.03150*%
%ADD29R,0.04134X0.04134*%
D17*
X0Y0D02*
Y175000D01*
X393000D01*
Y0D02*
Y175000D01*
X0Y0D02*
X393000D01*
D18*
X137945Y9630D02*
D03*
X147000D02*
D03*
X156055D02*
D03*
X195945Y139880D02*
D03*
X205000D02*
D03*
X214055D02*
D03*
D19*
X147000Y34630D02*
D03*
X205000Y164880D02*
D03*
D20*
X183299Y29000D02*
D03*
X177000D02*
D03*
X243150Y158777D02*
D03*
X236850D02*
D03*
D21*
X176234Y18803D02*
D03*
X183714D02*
D03*
X281260Y73882D02*
D03*
X288740D02*
D03*
X236260Y149230D02*
D03*
X243740D02*
D03*
D22*
X127000Y25102D02*
D03*
Y19000D02*
D03*
X167000Y25102D02*
D03*
Y19000D02*
D03*
X225000Y149230D02*
D03*
Y155333D02*
D03*
X304800Y85898D02*
D03*
Y92000D02*
D03*
X185000Y149230D02*
D03*
Y155333D02*
D03*
D23*
X224764Y111907D02*
D03*
X222795D02*
D03*
X220827D02*
D03*
X218858D02*
D03*
X216890D02*
D03*
X214921D02*
D03*
X212953D02*
D03*
X210984D02*
D03*
X209016D02*
D03*
X207047D02*
D03*
X205079D02*
D03*
X203110D02*
D03*
X201142D02*
D03*
X199173D02*
D03*
X197205D02*
D03*
X195236D02*
D03*
Y67707D02*
D03*
X197205D02*
D03*
X199173D02*
D03*
X201142D02*
D03*
X203110D02*
D03*
X205079D02*
D03*
X207047D02*
D03*
X209016D02*
D03*
X210984D02*
D03*
X212953D02*
D03*
X214921D02*
D03*
X216890D02*
D03*
X218858D02*
D03*
X220827D02*
D03*
X222795D02*
D03*
X224764D02*
D03*
D24*
X187900Y104570D02*
D03*
Y102602D02*
D03*
Y100633D02*
D03*
Y98665D02*
D03*
Y96696D02*
D03*
Y94728D02*
D03*
Y92759D02*
D03*
Y90791D02*
D03*
Y88822D02*
D03*
Y86854D02*
D03*
Y84885D02*
D03*
Y82917D02*
D03*
Y80948D02*
D03*
Y78980D02*
D03*
Y77011D02*
D03*
Y75043D02*
D03*
X232100D02*
D03*
Y77011D02*
D03*
Y78980D02*
D03*
Y80948D02*
D03*
Y82917D02*
D03*
Y84885D02*
D03*
Y86854D02*
D03*
Y88822D02*
D03*
Y90791D02*
D03*
Y92759D02*
D03*
Y94728D02*
D03*
Y96696D02*
D03*
Y98665D02*
D03*
Y100633D02*
D03*
Y102602D02*
D03*
Y104570D02*
D03*
D25*
X110000Y132994D02*
D03*
Y125514D02*
D03*
D26*
X277323Y102641D02*
D03*
X292677D02*
D03*
X277323Y97641D02*
D03*
X292677D02*
D03*
X277323Y92641D02*
D03*
X292677D02*
D03*
X277323Y87641D02*
D03*
X292677D02*
D03*
X277323Y82641D02*
D03*
X292677D02*
D03*
D27*
X161521Y120035D02*
D03*
Y125035D02*
D03*
Y130035D02*
D03*
Y135035D02*
D03*
X142623Y120035D02*
D03*
Y125035D02*
D03*
Y130035D02*
D03*
Y135035D02*
D03*
D28*
X128937Y129254D02*
D03*
X121063Y125514D02*
D03*
Y132994D02*
D03*
D29*
X220898Y121749D02*
D03*
X227000D02*
D03*
X211279Y128571D02*
D03*
X205177D02*
D03*
X213150Y51734D02*
D03*
X207047D02*
D03*
M02*
