G04*
G04 #@! TF.GenerationSoftware,Altium Limited,Altium Designer,18.1.6 (161)*
G04*
G04 Layer_Color=16711935*
%FSLAX25Y25*%
%MOIN*%
G70*
G01*
G75*
%ADD17C,0.00100*%
%ADD32R,0.04150X0.04150*%
%ADD33R,0.04937X0.06512*%
%ADD41R,0.05134X0.05134*%
%ADD42C,0.09661*%
%ADD43C,0.01000*%
%ADD44C,0.04000*%
%ADD45C,0.06000*%
%ADD58R,0.08480X0.05724*%
%ADD59R,0.08480X0.07299*%
%ADD60R,0.08874X0.09268*%
%ADD61R,0.06315X0.02575*%
G04:AMPARAMS|DCode=62|XSize=20mil|YSize=29mil|CornerRadius=7.5mil|HoleSize=0mil|Usage=FLASHONLY|Rotation=270.000|XOffset=0mil|YOffset=0mil|HoleType=Round|Shape=RoundedRectangle|*
%AMROUNDEDRECTD62*
21,1,0.02000,0.01400,0,0,270.0*
21,1,0.00500,0.02900,0,0,270.0*
1,1,0.01500,-0.00700,-0.00250*
1,1,0.01500,-0.00700,0.00250*
1,1,0.01500,0.00700,0.00250*
1,1,0.01500,0.00700,-0.00250*
%
%ADD62ROUNDEDRECTD62*%
%ADD63O,0.08087X0.02378*%
D17*
X0Y0D02*
Y175000D01*
X393000D01*
Y0D02*
Y175000D01*
X0Y0D02*
X393000D01*
D32*
X338000Y66146D02*
D03*
X331701D02*
D03*
Y73174D02*
D03*
X338000D02*
D03*
D33*
X351110D02*
D03*
X358591D02*
D03*
X351110Y63587D02*
D03*
X358591D02*
D03*
X267165Y74000D02*
D03*
X259685D02*
D03*
X271740Y55657D02*
D03*
X264260D02*
D03*
D41*
X265638Y63745D02*
D03*
X271740D02*
D03*
X305157Y106052D02*
D03*
X299055D02*
D03*
X312935D02*
D03*
X319037D02*
D03*
D42*
X39252Y53720D02*
D03*
Y65531D02*
D03*
Y77342D02*
D03*
Y89153D02*
D03*
Y100965D02*
D03*
Y112776D02*
D03*
Y124587D02*
D03*
X60905Y59626D02*
D03*
Y71437D02*
D03*
Y83248D02*
D03*
Y95059D02*
D03*
Y106870D02*
D03*
Y118681D02*
D03*
X70748Y53720D02*
D03*
Y65531D02*
D03*
Y77342D02*
D03*
Y89153D02*
D03*
Y100965D02*
D03*
Y112776D02*
D03*
Y124587D02*
D03*
X49095Y118681D02*
D03*
Y106870D02*
D03*
Y95059D02*
D03*
Y83248D02*
D03*
Y71437D02*
D03*
Y59626D02*
D03*
D43*
X13661Y153130D02*
D03*
Y25177D02*
D03*
D44*
X270000Y92641D02*
D03*
X260000Y87759D02*
D03*
X258000Y82641D02*
D03*
X270000Y97641D02*
D03*
X247709Y82917D02*
D03*
X250374Y100633D02*
D03*
X244783Y106380D02*
D03*
X270000Y102602D02*
D03*
X240500Y95803D02*
D03*
X205000Y73731D02*
D03*
X214110Y122259D02*
D03*
X235000Y121249D02*
D03*
X150000Y129824D02*
D03*
X153000Y125000D02*
D03*
X147000Y20000D02*
D03*
Y24000D02*
D03*
X369000Y100000D02*
D03*
X330000Y89336D02*
D03*
X303000Y79099D02*
D03*
X212953Y39803D02*
D03*
X167000Y14000D02*
D03*
X196000Y51000D02*
D03*
X190000Y56000D02*
D03*
X129000Y54000D02*
D03*
X184500Y58000D02*
D03*
X223570Y80000D02*
D03*
X223000Y75472D02*
D03*
X218315Y83248D02*
D03*
X223178Y87000D02*
D03*
X218315Y90791D02*
D03*
X241075Y86000D02*
D03*
X225000Y96696D02*
D03*
X240000Y79099D02*
D03*
X253091Y75043D02*
D03*
X115000Y75472D02*
D03*
X114371Y83248D02*
D03*
X114315Y89153D02*
D03*
X122241Y87759D02*
D03*
Y92759D02*
D03*
X120000Y100000D02*
D03*
X116670Y108839D02*
D03*
X125000Y105137D02*
D03*
X134925Y100965D02*
D03*
X123235Y68863D02*
D03*
X249031Y72211D02*
D03*
X229758Y55657D02*
D03*
D45*
X95000Y20000D02*
D03*
X166965Y150000D02*
D03*
D58*
X387266Y98347D02*
D03*
Y91654D02*
D03*
D59*
Y111142D02*
D03*
Y78858D02*
D03*
D60*
X378014Y107205D02*
D03*
Y82795D02*
D03*
D61*
X376734Y100118D02*
D03*
Y97559D02*
D03*
Y95000D02*
D03*
Y92441D02*
D03*
Y89882D02*
D03*
D62*
X25000Y81750D02*
D03*
Y83750D02*
D03*
D63*
X294614Y63745D02*
D03*
Y66304D02*
D03*
Y68863D02*
D03*
Y71422D02*
D03*
Y73981D02*
D03*
Y76540D02*
D03*
Y79099D02*
D03*
Y81658D02*
D03*
Y84217D02*
D03*
Y86776D02*
D03*
Y89336D02*
D03*
Y91895D02*
D03*
Y94454D02*
D03*
Y97013D02*
D03*
X321386Y63745D02*
D03*
Y66304D02*
D03*
Y68863D02*
D03*
Y71422D02*
D03*
Y73981D02*
D03*
Y76540D02*
D03*
Y79099D02*
D03*
Y81658D02*
D03*
Y84217D02*
D03*
Y86776D02*
D03*
Y89336D02*
D03*
Y91895D02*
D03*
Y94454D02*
D03*
Y97013D02*
D03*
M02*
