G04*
G04 #@! TF.GenerationSoftware,Altium Limited,Altium Designer,18.1.6 (161)*
G04*
G04 Layer_Physical_Order=1*
G04 Layer_Color=255*
%FSLAX25Y25*%
%MOIN*%
G70*
G01*
G75*
%ADD16C,0.01000*%
%ADD17C,0.00100*%
G04:AMPARAMS|DCode=18|XSize=39.37mil|YSize=80.71mil|CornerRadius=1.97mil|HoleSize=0mil|Usage=FLASHONLY|Rotation=180.000|XOffset=0mil|YOffset=0mil|HoleType=Round|Shape=RoundedRectangle|*
%AMROUNDEDRECTD18*
21,1,0.03937,0.07677,0,0,180.0*
21,1,0.03543,0.08071,0,0,180.0*
1,1,0.00394,-0.01772,0.03839*
1,1,0.00394,0.01772,0.03839*
1,1,0.00394,0.01772,-0.03839*
1,1,0.00394,-0.01772,-0.03839*
%
%ADD18ROUNDEDRECTD18*%
G04:AMPARAMS|DCode=19|XSize=127.95mil|YSize=80.71mil|CornerRadius=2.02mil|HoleSize=0mil|Usage=FLASHONLY|Rotation=180.000|XOffset=0mil|YOffset=0mil|HoleType=Round|Shape=RoundedRectangle|*
%AMROUNDEDRECTD19*
21,1,0.12795,0.07667,0,0,180.0*
21,1,0.12392,0.08071,0,0,180.0*
1,1,0.00404,-0.06196,0.03834*
1,1,0.00404,0.06196,0.03834*
1,1,0.00404,0.06196,-0.03834*
1,1,0.00404,-0.06196,-0.03834*
%
%ADD19ROUNDEDRECTD19*%
%ADD20R,0.03150X0.03150*%
%ADD21R,0.03937X0.05512*%
%ADD22R,0.04134X0.04134*%
%ADD23R,0.01100X0.05800*%
%ADD24R,0.05800X0.01100*%
%ADD25R,0.05512X0.03937*%
%ADD26R,0.09449X0.02992*%
%ADD27O,0.08661X0.02362*%
%ADD28R,0.03543X0.03150*%
%ADD29R,0.04134X0.04134*%
%ADD46C,0.02000*%
%ADD47C,0.04000*%
%ADD48C,0.08661*%
%ADD49C,0.03000*%
%ADD50C,0.05000*%
G36*
X252500Y125500D02*
X214177D01*
X213946Y125904D01*
Y129652D01*
X214848Y130554D01*
X215091Y130918D01*
X215177Y131347D01*
X215177Y131348D01*
Y135229D01*
X215827D01*
X216138Y135291D01*
X216401Y135467D01*
X216577Y135730D01*
X216639Y136041D01*
Y138248D01*
X222443D01*
X223067Y138373D01*
X223596Y138726D01*
X226153Y141284D01*
X226507Y141813D01*
X226631Y142437D01*
Y146563D01*
X227667D01*
Y147599D01*
X233691D01*
Y145874D01*
X238828D01*
Y152586D01*
X233691D01*
Y150861D01*
X227667D01*
Y151766D01*
X227667Y151897D01*
X227984Y152266D01*
X228067D01*
Y154832D01*
X221933D01*
Y152266D01*
X222016D01*
X222333Y151897D01*
X222333Y151766D01*
Y146563D01*
X223369D01*
Y143113D01*
X221767Y141511D01*
X216639D01*
Y143718D01*
X216577Y144029D01*
X216401Y144293D01*
X216138Y144469D01*
X215827Y144531D01*
X212283D01*
X211973Y144469D01*
X211709Y144293D01*
X211533Y144029D01*
X211471Y143718D01*
Y136041D01*
X211533Y135730D01*
X211709Y135467D01*
X211973Y135291D01*
X212283Y135229D01*
X212934D01*
Y131812D01*
X212360Y131238D01*
X208744D01*
X208612Y131238D01*
X208244Y131556D01*
Y131638D01*
X205677D01*
Y128571D01*
X205177D01*
Y128071D01*
X202110D01*
X202110Y125504D01*
X201612Y125500D01*
X176000D01*
Y146608D01*
X182333D01*
Y146563D01*
X183369D01*
Y144151D01*
X183493Y143527D01*
X183846Y142998D01*
X188118Y138726D01*
X188647Y138373D01*
X189272Y138248D01*
X193361D01*
Y136041D01*
X193423Y135730D01*
X193599Y135467D01*
X193862Y135291D01*
X194173Y135229D01*
X197716D01*
X198027Y135291D01*
X198291Y135467D01*
X198467Y135730D01*
X198529Y136041D01*
Y143718D01*
X198467Y144029D01*
X198291Y144293D01*
X198027Y144469D01*
X197716Y144531D01*
X194173D01*
X193862Y144469D01*
X193599Y144293D01*
X193423Y144029D01*
X193361Y143718D01*
Y141511D01*
X189947D01*
X186631Y144827D01*
Y146563D01*
X187667D01*
Y151766D01*
X187667Y151897D01*
X187984Y152266D01*
X188067D01*
Y154832D01*
X181933D01*
Y152352D01*
X181933Y152266D01*
X181723Y151853D01*
X176000D01*
Y172000D01*
X252500D01*
Y125500D01*
D02*
G37*
G36*
X390000Y145000D02*
Y5000D01*
X158858Y5000D01*
X158579Y5478D01*
X158581Y5500D01*
X158639Y5791D01*
Y7725D01*
X162356D01*
X162980Y7849D01*
X163510Y8202D01*
X167207Y11900D01*
X167819Y12022D01*
X168514Y12486D01*
X168978Y13181D01*
X169141Y14000D01*
X168978Y14819D01*
X168631Y15338D01*
Y16333D01*
X169667D01*
Y17369D01*
X173665D01*
Y15447D01*
X178803D01*
Y22159D01*
X173665D01*
Y20631D01*
X169667D01*
Y21535D01*
X169667Y21667D01*
X169984Y22035D01*
X170067D01*
Y24602D01*
X163933D01*
Y22035D01*
X164016D01*
X164333Y21667D01*
X164333Y21535D01*
Y16333D01*
X165369D01*
Y15338D01*
X165022Y14819D01*
X164900Y14207D01*
X161680Y10987D01*
X158639D01*
Y13468D01*
X158577Y13779D01*
X158401Y14043D01*
X158138Y14219D01*
X157827Y14281D01*
X154283D01*
X153973Y14219D01*
X153709Y14043D01*
X153533Y13779D01*
X153471Y13468D01*
Y5791D01*
X153529Y5500D01*
X153531Y5478D01*
X153252Y5000D01*
X150238D01*
X149934Y5500D01*
X149992Y5791D01*
Y9130D01*
X147000D01*
X144008D01*
Y5791D01*
X144066Y5500D01*
X143762Y5000D01*
X140747D01*
X140469Y5478D01*
X140471Y5500D01*
X140529Y5791D01*
Y9339D01*
X140567Y9630D01*
X140529Y9921D01*
Y13468D01*
X140467Y13779D01*
X140291Y14043D01*
X140027Y14219D01*
X139716Y14281D01*
X136173D01*
X135862Y14219D01*
X135599Y14043D01*
X135423Y13779D01*
X135361Y13468D01*
Y12252D01*
X131055D01*
X128631Y14676D01*
Y16333D01*
X129667D01*
Y21535D01*
X129667Y21667D01*
X129984Y22035D01*
X130067D01*
Y24602D01*
X123933D01*
Y22035D01*
X124016D01*
X124333Y21667D01*
X124333Y21535D01*
Y16333D01*
X125369D01*
Y14000D01*
X125493Y13376D01*
X125847Y12846D01*
X125979Y12714D01*
X125787Y12252D01*
X106456D01*
X98039Y20670D01*
X98020Y20809D01*
X97708Y21563D01*
X97211Y22211D01*
X96563Y22708D01*
X95809Y23020D01*
X95000Y23127D01*
Y52878D01*
X127224D01*
X127486Y52486D01*
X128181Y52022D01*
X129000Y51859D01*
X129463Y51951D01*
X129989Y51425D01*
X129989Y51425D01*
X130352Y51182D01*
X130782Y51097D01*
X130782Y51097D01*
X192045D01*
X192045Y51097D01*
X192474Y51182D01*
X192838Y51425D01*
X193800Y52387D01*
X194188Y52068D01*
X194022Y51819D01*
X193859Y51000D01*
X194022Y50181D01*
X194486Y49486D01*
X195181Y49022D01*
X196000Y48859D01*
X196819Y49022D01*
X197514Y49486D01*
X197978Y50181D01*
X198141Y51000D01*
X198049Y51463D01*
X205872Y59286D01*
X205872Y59286D01*
X206115Y59649D01*
X206200Y60079D01*
X206200Y60079D01*
Y64207D01*
X207466D01*
Y63807D01*
X208516D01*
Y67707D01*
Y71607D01*
X208137D01*
X208083Y71875D01*
X207840Y72239D01*
X207840Y72239D01*
X207010Y73069D01*
X207141Y73731D01*
X206978Y74550D01*
X206514Y75245D01*
X205819Y75709D01*
X205000Y75872D01*
X204181Y75709D01*
X203486Y75245D01*
X203022Y74550D01*
X202859Y73731D01*
X203022Y72912D01*
X203486Y72217D01*
X204181Y71753D01*
X204413Y71707D01*
X204363Y71207D01*
X194086D01*
Y71096D01*
X193624Y70905D01*
X191098Y73431D01*
X191289Y73893D01*
X191400D01*
Y75861D01*
Y79798D01*
Y83735D01*
Y87672D01*
Y91609D01*
Y95546D01*
Y99483D01*
Y104572D01*
X191900Y104779D01*
X194870Y101809D01*
X194870Y101809D01*
X195234Y101566D01*
X195663Y101480D01*
X211636D01*
X211636Y101480D01*
X212065Y101566D01*
X212429Y101809D01*
X217364Y106745D01*
X217364Y106745D01*
X217607Y107108D01*
X217693Y107538D01*
Y108407D01*
X225914D01*
Y115407D01*
X214074D01*
Y120089D01*
X214110Y120118D01*
X214929Y120281D01*
X215624Y120745D01*
X215886Y121138D01*
X218231D01*
Y119082D01*
X223433D01*
X223565Y119082D01*
X223933Y118765D01*
Y118683D01*
X226500D01*
Y121749D01*
X227000D01*
Y122249D01*
X230067D01*
X230067Y124816D01*
X230553Y124850D01*
X252500D01*
X252959Y125041D01*
X253149Y125500D01*
Y145000D01*
X390000D01*
D02*
G37*
G36*
X175350Y145000D02*
Y125500D01*
X175541Y125041D01*
X176000Y124850D01*
X201612D01*
X201614Y124852D01*
X201617Y124851D01*
X202116Y124855D01*
X202342Y124951D01*
X202569Y125045D01*
X202570Y125048D01*
X202573Y125049D01*
X202665Y125277D01*
X202759Y125504D01*
Y125904D01*
X205926D01*
Y115407D01*
X194086D01*
Y108735D01*
X193586Y108528D01*
X193501Y108614D01*
X193137Y108857D01*
X192708Y108942D01*
X192708Y108942D01*
X176463D01*
X171222Y114183D01*
Y131935D01*
X171136Y132365D01*
X170893Y132729D01*
X170893Y132729D01*
X167793Y135828D01*
X167429Y136072D01*
X167000Y136157D01*
X167000Y136157D01*
X166063D01*
X165954Y136319D01*
X165365Y136713D01*
X164670Y136851D01*
X158371D01*
X157676Y136713D01*
X157087Y136319D01*
X156693Y135730D01*
X156555Y135035D01*
X156693Y134341D01*
X157087Y133751D01*
X157676Y133358D01*
X158371Y133219D01*
X164670D01*
X165365Y133358D01*
X165954Y133751D01*
X166063Y133914D01*
X166535D01*
X168978Y131471D01*
Y120261D01*
X168517Y120070D01*
X167758Y120828D01*
X167394Y121072D01*
X166965Y121157D01*
X166964Y121157D01*
X166063D01*
X165954Y121319D01*
X165365Y121713D01*
X164670Y121851D01*
X158371D01*
X157676Y121713D01*
X157087Y121319D01*
X156693Y120730D01*
X156555Y120035D01*
X156693Y119341D01*
X157087Y118751D01*
X157676Y118358D01*
X158371Y118219D01*
X164670D01*
X165365Y118358D01*
X165954Y118751D01*
X166024Y118856D01*
X166528Y118886D01*
X167378Y118035D01*
Y113056D01*
X167378Y113056D01*
X167464Y112627D01*
X167707Y112263D01*
X174543Y105427D01*
X174543Y105427D01*
X174907Y105184D01*
X175336Y105099D01*
X175336Y105099D01*
X184400D01*
Y101452D01*
Y97515D01*
Y93578D01*
Y89944D01*
X147532D01*
X136975Y100502D01*
X137067Y100965D01*
X136904Y101784D01*
X136440Y102479D01*
X135745Y102943D01*
X134925Y103106D01*
X134463Y103014D01*
X115953Y121523D01*
X115589Y121767D01*
X115160Y121852D01*
X115160Y121852D01*
X95000D01*
Y124392D01*
X106644D01*
Y122945D01*
X113356D01*
Y124392D01*
X118691D01*
Y123339D01*
X123435D01*
Y127688D01*
X123391D01*
X123200Y128150D01*
X125703Y130654D01*
X126165Y130463D01*
Y129754D01*
X128937D01*
X131709D01*
Y130095D01*
X132171Y130287D01*
X137716Y124741D01*
X137796Y124340D01*
X138189Y123751D01*
X138778Y123358D01*
X139473Y123219D01*
X145773D01*
X146468Y123358D01*
X147057Y123751D01*
X147450Y124340D01*
X147589Y125035D01*
X147450Y125730D01*
X147057Y126320D01*
X146468Y126713D01*
X145773Y126851D01*
X139473D01*
X138893Y126736D01*
X137216Y128414D01*
X137423Y128914D01*
X138081D01*
X138189Y128751D01*
X138778Y128358D01*
X139473Y128219D01*
X145773D01*
X146468Y128358D01*
X147057Y128751D01*
X147446Y129334D01*
X147476Y129340D01*
X147958Y129327D01*
X148022Y129004D01*
X148486Y128310D01*
X149181Y127846D01*
X150000Y127683D01*
X150819Y127846D01*
X151514Y128310D01*
X151918Y128914D01*
X156978D01*
X157087Y128751D01*
X157676Y128358D01*
X158371Y128219D01*
X164670D01*
X165365Y128358D01*
X165954Y128751D01*
X166348Y129341D01*
X166486Y130035D01*
X166348Y130730D01*
X165954Y131319D01*
X165365Y131713D01*
X164670Y131851D01*
X158371D01*
X157676Y131713D01*
X157087Y131319D01*
X156978Y131157D01*
X151635D01*
X151514Y131338D01*
X150819Y131802D01*
X150000Y131965D01*
X149181Y131802D01*
X148486Y131338D01*
X148022Y130643D01*
X148000Y130532D01*
X147490D01*
X147450Y130730D01*
X147057Y131319D01*
X146468Y131713D01*
X145773Y131851D01*
X139473D01*
X138778Y131713D01*
X138189Y131319D01*
X138081Y131157D01*
X137301D01*
X132671Y135787D01*
X132307Y136030D01*
X131878Y136115D01*
X131878Y136115D01*
X123063D01*
X123063Y136115D01*
X122634Y136030D01*
X122270Y135787D01*
X122270Y135787D01*
X121652Y135169D01*
X118691D01*
Y134115D01*
X113356D01*
Y135562D01*
X106644D01*
Y134096D01*
X106315Y134030D01*
X105951Y133787D01*
X105951Y133787D01*
X103954Y131790D01*
X95000D01*
Y143740D01*
Y145000D01*
X175350D01*
D02*
G37*
G36*
X194086Y67270D02*
Y64207D01*
X195006D01*
X195197Y63745D01*
X193325Y61873D01*
X131811D01*
X125284Y68400D01*
X125376Y68863D01*
X125213Y69682D01*
X124749Y70377D01*
X124055Y70841D01*
X123235Y71004D01*
X122772Y70912D01*
X122109Y71575D01*
X122300Y72037D01*
X189319D01*
X194086Y67270D01*
D02*
G37*
G36*
X121186Y69326D02*
X121094Y68863D01*
X121257Y68044D01*
X121721Y67349D01*
X122416Y66885D01*
X123235Y66722D01*
X123698Y66814D01*
X130654Y59858D01*
X130654Y59858D01*
X131018Y59615D01*
X131447Y59530D01*
X131876Y59615D01*
X131898Y59630D01*
X182462D01*
X182729Y59130D01*
X182522Y58819D01*
X182359Y58000D01*
X182522Y57181D01*
X182986Y56486D01*
X183681Y56022D01*
X184500Y55859D01*
X185319Y56022D01*
X186014Y56486D01*
X186478Y57181D01*
X186641Y58000D01*
X186666Y58030D01*
X188358D01*
X188510Y57530D01*
X188486Y57514D01*
X188022Y56819D01*
X187859Y56000D01*
X188022Y55181D01*
X188486Y54486D01*
X189181Y54022D01*
X190000Y53859D01*
X190819Y54022D01*
X191514Y54486D01*
X191776Y54878D01*
X192466D01*
X192657Y54417D01*
X191580Y53340D01*
X131473D01*
X131097Y53778D01*
X131141Y54000D01*
X130978Y54819D01*
X130514Y55514D01*
X129819Y55978D01*
X129000Y56141D01*
X128181Y55978D01*
X127486Y55514D01*
X127224Y55122D01*
X95000D01*
Y70315D01*
X120197D01*
X121186Y69326D01*
D02*
G37*
%LPC*%
G36*
X211196Y169939D02*
X205500D01*
Y165380D01*
X212421D01*
Y168713D01*
X212328Y169182D01*
X212062Y169580D01*
X211665Y169845D01*
X211196Y169939D01*
D02*
G37*
G36*
X204500D02*
X198804D01*
X198335Y169845D01*
X197938Y169580D01*
X197672Y169182D01*
X197579Y168713D01*
Y165380D01*
X204500D01*
Y169939D01*
D02*
G37*
G36*
X212421Y164380D02*
X205500D01*
Y159821D01*
X211196D01*
X211665Y159914D01*
X212062Y160180D01*
X212328Y160577D01*
X212421Y161046D01*
Y164380D01*
D02*
G37*
G36*
X204500D02*
X197579D01*
Y161046D01*
X197672Y160577D01*
X197938Y160180D01*
X198335Y159914D01*
X198804Y159821D01*
X204500D01*
Y164380D01*
D02*
G37*
G36*
X239425Y161352D02*
X237350D01*
Y159277D01*
X239425D01*
Y161352D01*
D02*
G37*
G36*
X236350D02*
X234276D01*
Y159277D01*
X236350D01*
Y161352D01*
D02*
G37*
G36*
X239425Y158277D02*
X237350D01*
Y156202D01*
X239425D01*
Y158277D01*
D02*
G37*
G36*
X236350D02*
X234276D01*
Y156202D01*
X236350D01*
Y158277D01*
D02*
G37*
G36*
X228067Y158399D02*
X225500D01*
Y155833D01*
X228067D01*
Y158399D01*
D02*
G37*
G36*
X224500D02*
X221933D01*
Y155833D01*
X224500D01*
Y158399D01*
D02*
G37*
G36*
X188067D02*
X185500D01*
Y155833D01*
X188067D01*
Y158399D01*
D02*
G37*
G36*
X184500D02*
X181933D01*
Y155833D01*
X184500D01*
Y158399D01*
D02*
G37*
G36*
X245324Y160952D02*
X240975D01*
Y156603D01*
X242109D01*
Y152586D01*
X241172D01*
Y145874D01*
X246309D01*
Y152586D01*
X245372D01*
Y158187D01*
X245324Y158424D01*
Y160952D01*
D02*
G37*
G36*
X206772Y144939D02*
X205500D01*
Y140380D01*
X207992D01*
Y143718D01*
X207899Y144185D01*
X207634Y144581D01*
X207239Y144846D01*
X206772Y144939D01*
D02*
G37*
G36*
X204500D02*
X203228D01*
X202761Y144846D01*
X202365Y144581D01*
X202101Y144185D01*
X202008Y143718D01*
Y140380D01*
X204500D01*
Y144939D01*
D02*
G37*
G36*
X207992Y139380D02*
X205500D01*
Y134821D01*
X206772D01*
X207239Y134914D01*
X207634Y135178D01*
X207899Y135574D01*
X207992Y136041D01*
Y139380D01*
D02*
G37*
G36*
X204500D02*
X202008D01*
Y136041D01*
X202101Y135574D01*
X202365Y135178D01*
X202761Y134914D01*
X203228Y134821D01*
X204500D01*
Y139380D01*
D02*
G37*
G36*
X204677Y131638D02*
X202110D01*
Y129071D01*
X204677D01*
Y131638D01*
D02*
G37*
G36*
X235500Y123699D02*
Y121749D01*
X237450D01*
X237355Y122225D01*
X236802Y123052D01*
X235976Y123604D01*
X235500Y123699D01*
D02*
G37*
G36*
X234500D02*
X234025Y123604D01*
X233198Y123052D01*
X232645Y122225D01*
X232551Y121749D01*
X234500D01*
Y123699D01*
D02*
G37*
G36*
X237450Y120749D02*
X235500D01*
Y118800D01*
X235976Y118895D01*
X236802Y119447D01*
X237355Y120274D01*
X237450Y120749D01*
D02*
G37*
G36*
X234500D02*
X232551D01*
X232645Y120274D01*
X233198Y119447D01*
X234025Y118895D01*
X234500Y118800D01*
Y120749D01*
D02*
G37*
G36*
X230067Y121249D02*
X227500D01*
Y118683D01*
X230067D01*
Y121249D01*
D02*
G37*
G36*
X244783Y108521D02*
X243964Y108358D01*
X243269Y107894D01*
X242805Y107199D01*
X242642Y106380D01*
X242695Y106115D01*
X242329Y105692D01*
X235600D01*
Y105720D01*
X228600D01*
Y101452D01*
Y97818D01*
X226776D01*
X226514Y98210D01*
X225819Y98675D01*
X225000Y98838D01*
X224181Y98675D01*
X223486Y98210D01*
X223022Y97516D01*
X222859Y96696D01*
X223022Y95877D01*
X223486Y95182D01*
X224181Y94718D01*
X225000Y94555D01*
X225819Y94718D01*
X226514Y95182D01*
X226776Y95575D01*
X228600D01*
Y91913D01*
X220091D01*
X219829Y92305D01*
X219134Y92769D01*
X218315Y92932D01*
X217496Y92769D01*
X216801Y92305D01*
X216337Y91610D01*
X216174Y90791D01*
X216337Y89972D01*
X216801Y89277D01*
X217496Y88813D01*
X218315Y88650D01*
X219134Y88813D01*
X219829Y89277D01*
X220091Y89669D01*
X223032D01*
X223269Y89169D01*
X223236Y89130D01*
X223178Y89141D01*
X222358Y88978D01*
X221664Y88514D01*
X221199Y87819D01*
X221037Y87000D01*
X221199Y86181D01*
X221664Y85486D01*
X222303Y85059D01*
X222374Y84960D01*
X222499Y84484D01*
X222414Y84370D01*
X220091D01*
X219829Y84762D01*
X219134Y85226D01*
X218315Y85389D01*
X217496Y85226D01*
X216801Y84762D01*
X216337Y84067D01*
X216174Y83248D01*
X216337Y82429D01*
X216801Y81734D01*
X217496Y81270D01*
X218315Y81107D01*
X219134Y81270D01*
X219829Y81734D01*
X220091Y82126D01*
X222072D01*
X222224Y81626D01*
X222056Y81514D01*
X221591Y80819D01*
X221428Y80000D01*
X221591Y79181D01*
X222056Y78486D01*
X222691Y78062D01*
X222703Y77821D01*
X222638Y77542D01*
X222181Y77451D01*
X221486Y76986D01*
X221022Y76292D01*
X220859Y75472D01*
X221022Y74653D01*
X221486Y73958D01*
X222181Y73494D01*
X222511Y73428D01*
X222586Y73309D01*
X222661Y72889D01*
X222002Y72230D01*
X221759Y71866D01*
X221674Y71437D01*
X221272Y71207D01*
X210566D01*
Y71607D01*
X209516D01*
Y67707D01*
Y63807D01*
X209863D01*
Y60651D01*
X209863Y60651D01*
X209948Y60222D01*
X210191Y59858D01*
X212028Y58021D01*
Y54401D01*
X210614D01*
X210483Y54401D01*
X210114Y54718D01*
Y54801D01*
X207547D01*
Y51734D01*
Y48667D01*
X210114D01*
Y48750D01*
X210483Y49067D01*
X210614Y49067D01*
X212028D01*
Y41711D01*
X211439Y41317D01*
X210975Y40622D01*
X210812Y39803D01*
X210975Y38984D01*
X211439Y38289D01*
X212133Y37825D01*
X212953Y37662D01*
X213772Y37825D01*
X214467Y38289D01*
X214931Y38984D01*
X215094Y39803D01*
X214931Y40622D01*
X214467Y41317D01*
X214271Y41448D01*
Y49067D01*
X215816D01*
Y50612D01*
X266592D01*
X266592Y50612D01*
X267021Y50698D01*
X267385Y50941D01*
X286970Y70526D01*
X291309D01*
Y74864D01*
X293470Y77026D01*
X293470Y77026D01*
X293713Y77390D01*
X293799Y77819D01*
Y80545D01*
X298002D01*
Y81520D01*
X301223D01*
X301374Y81020D01*
X301198Y80902D01*
X300645Y80075D01*
X300551Y79599D01*
X305450D01*
X305355Y80075D01*
X304802Y80902D01*
X303976Y81454D01*
X303000Y81648D01*
X302805Y81609D01*
X302559Y82070D01*
X303719Y83231D01*
X307467D01*
Y88433D01*
X307467Y88565D01*
X307785Y88933D01*
X307867D01*
Y91500D01*
X301733D01*
Y88933D01*
X301816D01*
X302133Y88565D01*
X302133Y88433D01*
Y84817D01*
X301079Y83763D01*
X298002D01*
Y84737D01*
X298224Y85145D01*
X298402D01*
Y87141D01*
X292677D01*
Y88141D01*
X298402D01*
Y89645D01*
X298402Y90137D01*
X298402Y90637D01*
Y92141D01*
X292677D01*
X286953D01*
Y90637D01*
X286953Y90145D01*
X286953Y89645D01*
Y87950D01*
X286819Y87884D01*
X286453Y87753D01*
X285775Y88033D01*
X285000Y88135D01*
X284225Y88033D01*
X283503Y87734D01*
X283147Y87461D01*
X282647Y87708D01*
Y89737D01*
X271998D01*
Y88881D01*
X261776D01*
X261514Y89273D01*
X260819Y89738D01*
X260000Y89901D01*
X259181Y89738D01*
X258486Y89273D01*
X258022Y88579D01*
X257859Y87759D01*
X258022Y86940D01*
X258486Y86245D01*
X259181Y85781D01*
X260000Y85618D01*
X260819Y85781D01*
X261514Y86245D01*
X261776Y86638D01*
X271998D01*
Y85545D01*
X281680D01*
X282010Y85169D01*
X282006Y85141D01*
X282010Y85113D01*
X281680Y84737D01*
X271998D01*
Y83763D01*
X259776D01*
X259514Y84155D01*
X258819Y84619D01*
X258000Y84782D01*
X257181Y84619D01*
X256486Y84155D01*
X256022Y83461D01*
X255859Y82641D01*
X256022Y81822D01*
X256486Y81127D01*
X257181Y80663D01*
X258000Y80500D01*
X258819Y80663D01*
X259514Y81127D01*
X259776Y81520D01*
X271998D01*
Y80545D01*
X276201D01*
Y77819D01*
X276201Y77819D01*
X276287Y77390D01*
X276530Y77026D01*
X278691Y74864D01*
Y70526D01*
X283145D01*
X283336Y70064D01*
X266128Y52856D01*
X215816D01*
Y54401D01*
X214271D01*
Y58486D01*
X214271Y58486D01*
X214186Y58915D01*
X213943Y59279D01*
X213943Y59279D01*
X212106Y61116D01*
Y64207D01*
X223642D01*
Y60651D01*
X223642Y60651D01*
X223728Y60222D01*
X223971Y59858D01*
X227709Y56120D01*
X227617Y55657D01*
X227780Y54838D01*
X228244Y54143D01*
X228938Y53679D01*
X229758Y53516D01*
X230577Y53679D01*
X231272Y54143D01*
X231736Y54838D01*
X231899Y55657D01*
X231736Y56477D01*
X231272Y57171D01*
X230577Y57635D01*
X229758Y57798D01*
X229295Y57706D01*
X225885Y61116D01*
Y64207D01*
X225914D01*
Y71090D01*
X247255D01*
X247517Y70697D01*
X248212Y70233D01*
X249031Y70070D01*
X249851Y70233D01*
X250546Y70697D01*
X251010Y71392D01*
X251173Y72211D01*
X251010Y73031D01*
X250905Y73187D01*
X251167Y73695D01*
X251459Y73705D01*
X251576Y73529D01*
X252271Y73065D01*
X253091Y72902D01*
X253910Y73065D01*
X254605Y73529D01*
X255069Y74224D01*
X255232Y75043D01*
X255069Y75862D01*
X254605Y76557D01*
X253910Y77021D01*
X253091Y77184D01*
X252271Y77021D01*
X251576Y76557D01*
X251314Y76164D01*
X235600D01*
Y77858D01*
X238303D01*
X238486Y77585D01*
X239181Y77121D01*
X240000Y76958D01*
X240819Y77121D01*
X241514Y77585D01*
X241978Y78280D01*
X242141Y79099D01*
X241978Y79919D01*
X241514Y80613D01*
X240819Y81077D01*
X240000Y81240D01*
X239181Y81077D01*
X238486Y80613D01*
X238144Y80101D01*
X235600D01*
Y81795D01*
X245933D01*
X246195Y81403D01*
X246890Y80939D01*
X247709Y80776D01*
X248529Y80939D01*
X249223Y81403D01*
X249687Y82098D01*
X249850Y82917D01*
X249687Y83736D01*
X249223Y84431D01*
X248529Y84895D01*
X247709Y85058D01*
X246890Y84895D01*
X246195Y84431D01*
X245933Y84039D01*
X242751D01*
X242624Y84539D01*
X243053Y85181D01*
X243216Y86000D01*
X243053Y86819D01*
X242589Y87514D01*
X241894Y87978D01*
X241075Y88141D01*
X240255Y87978D01*
X240227Y87959D01*
X240146Y87976D01*
X235600D01*
Y91520D01*
X268224D01*
X268486Y91127D01*
X269181Y90663D01*
X270000Y90500D01*
X270819Y90663D01*
X271498Y91117D01*
X271593Y91099D01*
X271998Y90952D01*
Y90545D01*
X282647D01*
Y94737D01*
X271998D01*
Y94330D01*
X271593Y94184D01*
X271498Y94166D01*
X270819Y94620D01*
X270000Y94782D01*
X269181Y94620D01*
X268486Y94155D01*
X268224Y93763D01*
X242127D01*
X241975Y94263D01*
X242014Y94289D01*
X242479Y94984D01*
X242642Y95803D01*
X242479Y96623D01*
X242197Y97043D01*
X242465Y97543D01*
X246870D01*
X247566Y96848D01*
X247566Y96848D01*
X247930Y96605D01*
X248359Y96520D01*
X248359Y96520D01*
X268224D01*
X268486Y96127D01*
X269181Y95663D01*
X270000Y95500D01*
X270819Y95663D01*
X271498Y96117D01*
X271593Y96099D01*
X271998Y95952D01*
Y95545D01*
X282647D01*
Y97575D01*
X283147Y97821D01*
X283503Y97548D01*
X284225Y97249D01*
X285000Y97147D01*
X285775Y97249D01*
X286497Y97548D01*
X286853Y97821D01*
X287353Y97575D01*
Y95637D01*
X287353Y95545D01*
X287130Y95137D01*
X286953D01*
Y93141D01*
X292677D01*
X298402D01*
Y95137D01*
X298224D01*
X298002Y95545D01*
X298002Y95637D01*
Y99737D01*
X288320D01*
X287990Y100113D01*
X287994Y100141D01*
X287990Y100169D01*
X288320Y100545D01*
X298002D01*
Y104737D01*
X287353D01*
Y102708D01*
X286853Y102461D01*
X286497Y102734D01*
X285775Y103033D01*
X285000Y103135D01*
X284225Y103033D01*
X283503Y102734D01*
X283147Y102461D01*
X282647Y102708D01*
Y104737D01*
X271998D01*
Y104291D01*
X271593Y104145D01*
X271498Y104126D01*
X270819Y104580D01*
X270000Y104743D01*
X269181Y104580D01*
X268486Y104116D01*
X268224Y103724D01*
X254996D01*
X253926Y104793D01*
X253563Y105036D01*
X253133Y105122D01*
X253133Y105122D01*
X247867D01*
X247867Y105122D01*
X247437Y105036D01*
X247074Y104793D01*
X247074Y104793D01*
X246004Y103724D01*
X244963D01*
X244726Y104224D01*
X244745Y104246D01*
X244783Y104239D01*
X245603Y104402D01*
X246298Y104866D01*
X246762Y105560D01*
X246925Y106380D01*
X246762Y107199D01*
X246298Y107894D01*
X245603Y108358D01*
X244783Y108521D01*
D02*
G37*
G36*
X369500Y102450D02*
Y100500D01*
X371449D01*
X371355Y100976D01*
X370802Y101802D01*
X369975Y102355D01*
X369500Y102450D01*
D02*
G37*
G36*
X368500D02*
X368024Y102355D01*
X367198Y101802D01*
X366645Y100976D01*
X366550Y100500D01*
X368500D01*
Y102450D01*
D02*
G37*
G36*
X371449Y99500D02*
X369500D01*
Y97550D01*
X369975Y97645D01*
X370802Y98198D01*
X371355Y99024D01*
X371449Y99500D01*
D02*
G37*
G36*
X368500D02*
X366550D01*
X366645Y99024D01*
X367198Y98198D01*
X368024Y97645D01*
X368500Y97550D01*
Y99500D01*
D02*
G37*
G36*
X307867Y95067D02*
X305300D01*
Y92500D01*
X307867D01*
Y95067D01*
D02*
G37*
G36*
X304300D02*
X301733D01*
Y92500D01*
X304300D01*
Y95067D01*
D02*
G37*
G36*
X330500Y91785D02*
Y89836D01*
X332450D01*
X332355Y90311D01*
X331802Y91138D01*
X330976Y91690D01*
X330500Y91785D01*
D02*
G37*
G36*
X329500D02*
X329025Y91690D01*
X328198Y91138D01*
X327645Y90311D01*
X327551Y89836D01*
X329500D01*
Y91785D01*
D02*
G37*
G36*
X332450Y88836D02*
X330500D01*
Y86886D01*
X330976Y86980D01*
X331802Y87533D01*
X332355Y88360D01*
X332450Y88836D01*
D02*
G37*
G36*
X329500D02*
X327551D01*
X327645Y88360D01*
X328198Y87533D01*
X329025Y86980D01*
X329500Y86886D01*
Y88836D01*
D02*
G37*
G36*
X305450Y78599D02*
X303500D01*
Y76650D01*
X303976Y76744D01*
X304802Y77297D01*
X305355Y78124D01*
X305450Y78599D01*
D02*
G37*
G36*
X302500D02*
X300551D01*
X300645Y78124D01*
X301198Y77297D01*
X302025Y76744D01*
X302500Y76650D01*
Y78599D01*
D02*
G37*
G36*
X206547Y54801D02*
X203980D01*
Y52234D01*
X206547D01*
Y54801D01*
D02*
G37*
G36*
Y51234D02*
X203980D01*
Y48667D01*
X206547D01*
Y51234D01*
D02*
G37*
G36*
X153196Y39689D02*
X147500D01*
Y35130D01*
X154421D01*
Y38464D01*
X154328Y38932D01*
X154062Y39330D01*
X153665Y39596D01*
X153196Y39689D01*
D02*
G37*
G36*
X146500D02*
X140804D01*
X140335Y39596D01*
X139938Y39330D01*
X139672Y38932D01*
X139579Y38464D01*
Y35130D01*
X146500D01*
Y39689D01*
D02*
G37*
G36*
X154421Y34130D02*
X147500D01*
Y29571D01*
X153196D01*
X153665Y29664D01*
X154062Y29930D01*
X154328Y30327D01*
X154421Y30796D01*
Y34130D01*
D02*
G37*
G36*
X146500D02*
X139579D01*
Y30796D01*
X139672Y30327D01*
X139938Y29930D01*
X140335Y29664D01*
X140804Y29571D01*
X146500D01*
Y34130D01*
D02*
G37*
G36*
X179575Y31575D02*
X177500D01*
Y29500D01*
X179575D01*
Y31575D01*
D02*
G37*
G36*
X176500D02*
X174425D01*
Y29500D01*
X176500D01*
Y31575D01*
D02*
G37*
G36*
X179575Y28500D02*
X177500D01*
Y26425D01*
X179575D01*
Y28500D01*
D02*
G37*
G36*
X176500D02*
X174425D01*
Y26425D01*
X176500D01*
Y28500D01*
D02*
G37*
G36*
X170067Y28169D02*
X167500D01*
Y25602D01*
X170067D01*
Y28169D01*
D02*
G37*
G36*
X166500D02*
X163933D01*
Y25602D01*
X166500D01*
Y28169D01*
D02*
G37*
G36*
X130067D02*
X127500D01*
Y25602D01*
X130067D01*
Y28169D01*
D02*
G37*
G36*
X126500D02*
X123933D01*
Y25602D01*
X126500D01*
Y28169D01*
D02*
G37*
G36*
X147500Y26449D02*
Y24500D01*
X149450D01*
X149355Y24975D01*
X148802Y25802D01*
X147976Y26355D01*
X147500Y26449D01*
D02*
G37*
G36*
X146500D02*
X146025Y26355D01*
X145198Y25802D01*
X144645Y24975D01*
X144551Y24500D01*
X146500D01*
Y26449D01*
D02*
G37*
G36*
X149450Y23500D02*
X144551D01*
X144645Y23024D01*
X145198Y22198D01*
Y21802D01*
X144645Y20976D01*
X144551Y20500D01*
X149450D01*
X149355Y20976D01*
X148802Y21802D01*
Y22198D01*
X149355Y23024D01*
X149450Y23500D01*
D02*
G37*
G36*
Y19500D02*
X147500D01*
Y17550D01*
X147976Y17645D01*
X148802Y18198D01*
X149355Y19025D01*
X149450Y19500D01*
D02*
G37*
G36*
X146500D02*
X144551D01*
X144645Y19025D01*
X145198Y18198D01*
X146025Y17645D01*
X146500Y17550D01*
Y19500D01*
D02*
G37*
G36*
X185474Y31175D02*
X181124D01*
Y26825D01*
X182083D01*
Y22159D01*
X181146D01*
Y15447D01*
X186283D01*
Y22159D01*
X185346D01*
Y26825D01*
X185474D01*
Y31175D01*
D02*
G37*
G36*
X148772Y14689D02*
X147500D01*
Y10130D01*
X149992D01*
Y13468D01*
X149899Y13936D01*
X149635Y14331D01*
X149239Y14596D01*
X148772Y14689D01*
D02*
G37*
G36*
X146500D02*
X145228D01*
X144761Y14596D01*
X144366Y14331D01*
X144101Y13936D01*
X144008Y13468D01*
Y10130D01*
X146500D01*
Y14689D01*
D02*
G37*
G36*
X145773Y136851D02*
X139473D01*
X138778Y136713D01*
X138189Y136319D01*
X137796Y135730D01*
X137657Y135035D01*
X137796Y134341D01*
X138189Y133751D01*
X138778Y133358D01*
X139473Y133219D01*
X145773D01*
X146468Y133358D01*
X147057Y133751D01*
X147450Y134341D01*
X147589Y135035D01*
X147450Y135730D01*
X147057Y136319D01*
X146468Y136713D01*
X145773Y136851D01*
D02*
G37*
G36*
X131709Y128754D02*
X129437D01*
Y126679D01*
X131709D01*
Y128754D01*
D02*
G37*
G36*
X128437D02*
X126165D01*
Y126679D01*
X128437D01*
Y128754D01*
D02*
G37*
G36*
X164670Y127259D02*
X162021D01*
Y125535D01*
X166795D01*
X166725Y125886D01*
X166243Y126608D01*
X165521Y127090D01*
X164670Y127259D01*
D02*
G37*
G36*
X161021D02*
X158371D01*
X157520Y127090D01*
X156799Y126608D01*
X156316Y125886D01*
X156247Y125535D01*
X161021D01*
Y127259D01*
D02*
G37*
G36*
X153500Y127450D02*
Y125500D01*
X155449D01*
X155355Y125976D01*
X154802Y126802D01*
X153975Y127355D01*
X153500Y127450D01*
D02*
G37*
G36*
X152500D02*
X152024Y127355D01*
X151198Y126802D01*
X150645Y125976D01*
X150550Y125500D01*
X152500D01*
Y127450D01*
D02*
G37*
G36*
X166795Y124535D02*
X162021D01*
Y122812D01*
X164670D01*
X165521Y122981D01*
X166243Y123463D01*
X166725Y124184D01*
X166795Y124535D01*
D02*
G37*
G36*
X161021D02*
X156247D01*
X156316Y124184D01*
X156799Y123463D01*
X157520Y122981D01*
X158371Y122812D01*
X161021D01*
Y124535D01*
D02*
G37*
G36*
X155449Y124500D02*
X153500D01*
Y122550D01*
X153975Y122645D01*
X154802Y123198D01*
X155355Y124024D01*
X155449Y124500D01*
D02*
G37*
G36*
X152500D02*
X150550D01*
X150645Y124024D01*
X151198Y123198D01*
X152024Y122645D01*
X152500Y122550D01*
Y124500D01*
D02*
G37*
G36*
X145773Y122259D02*
X143123D01*
Y120535D01*
X147897D01*
X147827Y120886D01*
X147345Y121608D01*
X146624Y122090D01*
X145773Y122259D01*
D02*
G37*
G36*
X142123D02*
X139473D01*
X138622Y122090D01*
X137901Y121608D01*
X137419Y120886D01*
X137349Y120535D01*
X142123D01*
Y122259D01*
D02*
G37*
G36*
X147897Y119535D02*
X143123D01*
Y117812D01*
X145773D01*
X146624Y117981D01*
X147345Y118463D01*
X147827Y119184D01*
X147897Y119535D01*
D02*
G37*
G36*
X142123D02*
X137349D01*
X137419Y119184D01*
X137901Y118463D01*
X138622Y117981D01*
X139473Y117812D01*
X142123D01*
Y119535D01*
D02*
G37*
%LPD*%
D16*
X219902Y122259D02*
X220898Y123255D01*
X39252Y112776D02*
Y116519D01*
X78066Y155333D01*
X55475Y113250D02*
Y122233D01*
X49095Y106870D02*
X55475Y113250D01*
X70748Y124587D02*
X74604Y120730D01*
X115160D01*
X134925Y100965D01*
X170100Y113719D02*
Y131935D01*
Y113719D02*
X175998Y107820D01*
X192708D01*
X196326Y104202D01*
X210973D01*
X195663Y102602D02*
X211636D01*
X192045Y106220D02*
X195663Y102602D01*
X175336Y106220D02*
X192045D01*
X168500Y113056D02*
X175336Y106220D01*
X211636Y102602D02*
X216571Y107538D01*
Y111588D01*
X216890Y111907D01*
X214921Y108150D02*
Y111907D01*
X210973Y104202D02*
X214921Y108150D01*
X197205Y64166D02*
Y67707D01*
X193790Y60751D02*
X197205Y64166D01*
X131547Y60751D02*
X193790D01*
X131447Y60651D02*
X131547Y60751D01*
X185651Y59151D02*
X194453D01*
X198855Y63554D01*
Y67388D01*
X199173Y67707D01*
X201142Y63578D02*
Y67707D01*
X193564Y56000D02*
X201142Y63578D01*
X190000Y56000D02*
X193564D01*
X129000Y54000D02*
X130782Y52218D01*
X192045D01*
X203110Y63284D01*
X196000Y51000D02*
X205079Y60079D01*
Y67707D01*
X270000Y92641D02*
X277087D01*
X232218D02*
X270000D01*
X260000Y87759D02*
X277205D01*
X258000Y82641D02*
X276772D01*
X277047Y82917D01*
X277087Y92641D02*
X277205Y92759D01*
X232100D02*
X232218Y92641D01*
X270000Y97641D02*
X277087D01*
X248359D02*
X270000D01*
X232100Y82917D02*
X247709D01*
X250374Y100633D02*
X250571D01*
X232100D02*
X250374D01*
X232100Y102602D02*
X246468D01*
X242974Y104570D02*
X244783Y106380D01*
X270000Y102602D02*
X277047D01*
X254532D02*
X270000D01*
X239425Y94728D02*
X240500Y95803D01*
X232100Y98665D02*
X247335D01*
X189784Y73159D02*
X195236Y67707D01*
X117314Y73159D02*
X189784D01*
X115000Y75472D02*
X117314Y73159D01*
X184500Y58000D02*
X185651Y59151D01*
X203110Y63284D02*
Y67707D01*
X121063Y132994D02*
X123063Y134994D01*
X131878D01*
X136836Y130035D01*
X142623D01*
X139008Y125035D02*
X142623D01*
X131050Y132994D02*
X139008Y125035D01*
X126457Y132994D02*
X131050D01*
X121063Y125514D02*
Y127600D01*
X126457Y132994D01*
X214110Y122259D02*
X219902D01*
X212953Y111907D02*
Y121102D01*
X214110Y122259D01*
X214055Y131347D02*
Y139880D01*
X211279Y128571D02*
X214055Y131347D01*
X210984Y128277D02*
X211279Y128571D01*
X210984Y111907D02*
Y128277D01*
X205177Y128571D02*
X207047Y126701D01*
Y111907D02*
Y126701D01*
X213150Y51734D02*
X266592D01*
X288740Y73882D01*
X224764Y60651D02*
X229758Y55657D01*
X224764Y60651D02*
Y67707D01*
X150212Y130035D02*
X161521D01*
X150000Y129824D02*
X150212Y130035D01*
X122576Y75043D02*
X187900D01*
X126457Y77011D02*
X187900D01*
X131020Y78980D02*
X187900D01*
X134052Y80948D02*
X187900D01*
X136687Y82917D02*
X187900D01*
X140623Y84885D02*
X187900D01*
X143283Y86854D02*
X187900D01*
X125000Y105137D02*
X143283Y86854D01*
X147068Y88822D02*
X187900D01*
X134925Y100965D02*
X147068Y88822D01*
X138155Y120035D02*
X142623D01*
X128937Y129254D02*
X138155Y120035D01*
X168500Y113056D02*
Y118500D01*
X166965Y120035D02*
X168500Y118500D01*
X161521Y120035D02*
X166965D01*
X167000Y135035D02*
X170100Y131935D01*
X161521Y135035D02*
X167000D01*
X213150Y40000D02*
Y51734D01*
X212953Y39803D02*
X213150Y40000D01*
X78066Y155333D02*
X185000D01*
X49095Y118681D02*
X63407Y132994D01*
X91414Y130668D02*
X104418D01*
X89088Y132994D02*
X91414Y130668D01*
X63407Y132994D02*
X89088D01*
X104418Y130668D02*
X106744Y132994D01*
X64066Y130824D02*
X88430D01*
X55475Y122233D02*
X64066Y130824D01*
X88430D02*
X93740Y125514D01*
X111456Y118681D02*
X125000Y105137D01*
X60905Y118681D02*
X111456D01*
X110000Y125514D02*
X121063D01*
X110000Y132994D02*
X121063D01*
X82279Y54000D02*
X129000D01*
X205000Y73493D02*
X207047Y71446D01*
Y67707D02*
Y71446D01*
X210984Y60651D02*
Y67707D01*
Y60651D02*
X213150Y58486D01*
Y51734D02*
Y58486D01*
X70748Y65531D02*
X82279Y54000D01*
X223570Y80000D02*
X224518Y80948D01*
X225000D01*
X223000Y75472D02*
X223461D01*
X225000Y77011D01*
X218315Y83248D02*
X223363D01*
X225000Y84885D01*
X223178Y87000D02*
X225000Y88822D01*
X218315Y90791D02*
X232100D01*
Y94728D02*
X239425D01*
X241000Y86000D02*
X241075D01*
X235500Y86854D02*
X240146D01*
X247335Y98665D02*
X248359Y97641D01*
X277047Y82917D02*
X277323Y82641D01*
X277087Y97641D02*
X277205Y97759D01*
X277047Y102602D02*
X277205Y102759D01*
X277323Y102641D01*
X277205Y97759D02*
X277323Y97641D01*
X277205Y92759D02*
X277323Y92641D01*
X277205Y87759D02*
X277323Y87641D01*
Y77819D02*
X281260Y73882D01*
X277323Y77819D02*
Y82641D01*
X292677Y77819D02*
Y82641D01*
X288740Y73882D02*
X292677Y77819D01*
X301544Y82641D02*
X304800Y85898D01*
X292677Y82641D02*
X301544D01*
X225000Y88822D02*
X228700D01*
X232100D01*
X225000Y80948D02*
X228700D01*
X232100D01*
X225000Y96696D02*
X232100D01*
X225000Y77011D02*
X232100D01*
X225000Y84885D02*
X232100D01*
Y75043D02*
X253091D01*
X223570Y72211D02*
X248257D01*
X249031Y72986D01*
X232100Y78980D02*
X239425D01*
X232100Y86854D02*
X235500D01*
X246468Y102602D02*
X247867Y104000D01*
X232100Y104570D02*
X242974D01*
X247867Y104000D02*
X253133D01*
X113130Y77342D02*
X115000Y75472D01*
X114371Y83248D02*
X122576Y75043D01*
X60905Y83248D02*
X114371D01*
X114315Y89153D02*
X126457Y77011D01*
X70748Y89153D02*
X114315D01*
X122241Y87759D02*
X131020Y78980D01*
X122241Y92759D02*
X134052Y80948D01*
X114941Y95059D02*
X122241Y87759D01*
X60905Y95059D02*
X114941D01*
X120000Y99603D02*
X136687Y82917D01*
X114035Y100965D02*
X122241Y92759D01*
X70748Y100965D02*
X114035D01*
X120000Y99603D02*
Y100000D01*
X113130Y106870D02*
X120000Y100000D01*
X60905Y106870D02*
X113130D01*
X116670Y108839D02*
X140623Y84885D01*
X112733Y112776D02*
X116670Y108839D01*
X123235Y68863D02*
X131447Y60651D01*
X120661Y71437D02*
X123235Y68863D01*
X60905Y71437D02*
X120661D01*
X70748Y77342D02*
X113130D01*
X60905Y71437D02*
X62371Y69971D01*
X197155Y67757D02*
X197205Y67707D01*
X70748Y112776D02*
X112733D01*
X222795Y71437D02*
X223570Y72211D01*
X222795Y67707D02*
Y71437D01*
X249031Y72211D02*
Y72986D01*
X253133Y104000D02*
X254532Y102602D01*
X93740Y125514D02*
X110000D01*
X106744Y132994D02*
X110000D01*
X209016Y111907D02*
X210984D01*
D17*
X0Y0D02*
Y175000D01*
X393000D01*
Y0D02*
Y175000D01*
X0Y0D02*
X393000D01*
D18*
X137945Y9630D02*
D03*
X147000D02*
D03*
X156055D02*
D03*
X195945Y139880D02*
D03*
X205000D02*
D03*
X214055D02*
D03*
D19*
X147000Y34630D02*
D03*
X205000Y164880D02*
D03*
D20*
X183299Y29000D02*
D03*
X177000D02*
D03*
X243150Y158777D02*
D03*
X236850D02*
D03*
D21*
X176234Y18803D02*
D03*
X183714D02*
D03*
X281260Y73882D02*
D03*
X288740D02*
D03*
X236260Y149230D02*
D03*
X243740D02*
D03*
D22*
X127000Y25102D02*
D03*
Y19000D02*
D03*
X167000Y25102D02*
D03*
Y19000D02*
D03*
X225000Y149230D02*
D03*
Y155333D02*
D03*
X304800Y85898D02*
D03*
Y92000D02*
D03*
X185000Y149230D02*
D03*
Y155333D02*
D03*
D23*
X224764Y111907D02*
D03*
X222795D02*
D03*
X220827D02*
D03*
X218858D02*
D03*
X216890D02*
D03*
X214921D02*
D03*
X212953D02*
D03*
X210984D02*
D03*
X209016D02*
D03*
X207047D02*
D03*
X205079D02*
D03*
X203110D02*
D03*
X201142D02*
D03*
X199173D02*
D03*
X197205D02*
D03*
X195236D02*
D03*
Y67707D02*
D03*
X197205D02*
D03*
X199173D02*
D03*
X201142D02*
D03*
X203110D02*
D03*
X205079D02*
D03*
X207047D02*
D03*
X209016D02*
D03*
X210984D02*
D03*
X212953D02*
D03*
X214921D02*
D03*
X216890D02*
D03*
X218858D02*
D03*
X220827D02*
D03*
X222795D02*
D03*
X224764D02*
D03*
D24*
X187900Y104570D02*
D03*
Y102602D02*
D03*
Y100633D02*
D03*
Y98665D02*
D03*
Y96696D02*
D03*
Y94728D02*
D03*
Y92759D02*
D03*
Y90791D02*
D03*
Y88822D02*
D03*
Y86854D02*
D03*
Y84885D02*
D03*
Y82917D02*
D03*
Y80948D02*
D03*
Y78980D02*
D03*
Y77011D02*
D03*
Y75043D02*
D03*
X232100D02*
D03*
Y77011D02*
D03*
Y78980D02*
D03*
Y80948D02*
D03*
Y82917D02*
D03*
Y84885D02*
D03*
Y86854D02*
D03*
Y88822D02*
D03*
Y90791D02*
D03*
Y92759D02*
D03*
Y94728D02*
D03*
Y96696D02*
D03*
Y98665D02*
D03*
Y100633D02*
D03*
Y102602D02*
D03*
Y104570D02*
D03*
D25*
X110000Y132994D02*
D03*
Y125514D02*
D03*
D26*
X277323Y102641D02*
D03*
X292677D02*
D03*
X277323Y97641D02*
D03*
X292677D02*
D03*
X277323Y92641D02*
D03*
X292677D02*
D03*
X277323Y87641D02*
D03*
X292677D02*
D03*
X277323Y82641D02*
D03*
X292677D02*
D03*
D27*
X161521Y120035D02*
D03*
Y125035D02*
D03*
Y130035D02*
D03*
Y135035D02*
D03*
X142623Y120035D02*
D03*
Y125035D02*
D03*
Y130035D02*
D03*
Y135035D02*
D03*
D28*
X128937Y129254D02*
D03*
X121063Y125514D02*
D03*
Y132994D02*
D03*
D29*
X220898Y121749D02*
D03*
X227000D02*
D03*
X211279Y128571D02*
D03*
X205177D02*
D03*
X213150Y51734D02*
D03*
X207047D02*
D03*
D46*
X156002Y9356D02*
X162356D01*
X127000Y14000D02*
Y19000D01*
Y14000D02*
X131370Y9630D01*
X176037Y19000D02*
X176234Y18803D01*
X162356Y9356D02*
X167000Y14000D01*
Y19000D01*
X176037D01*
X183714Y18803D02*
Y28585D01*
X183299Y29000D02*
X183714Y28585D01*
X243150Y158777D02*
X243740Y158187D01*
Y149230D02*
Y158187D01*
X225000Y149230D02*
X236260D01*
X225000Y142437D02*
Y149230D01*
X222443Y139880D02*
X225000Y142437D01*
X214055Y139880D02*
X222443D01*
X185000Y144151D02*
Y149230D01*
Y144151D02*
X189272Y139880D01*
X195945D01*
D47*
X67870Y25102D02*
X127000D01*
X39252Y53720D02*
X67870Y25102D01*
X167735Y149230D02*
X185000D01*
X166965Y150000D02*
X167735Y149230D01*
X131370Y9630D02*
X137945D01*
X105370D02*
X131370D01*
X95000Y20000D02*
X105370Y9630D01*
D48*
X39252Y53720D02*
D03*
Y65531D02*
D03*
Y77342D02*
D03*
Y89153D02*
D03*
Y100965D02*
D03*
Y112776D02*
D03*
Y124587D02*
D03*
X60905Y59626D02*
D03*
Y71437D02*
D03*
Y83248D02*
D03*
Y95059D02*
D03*
Y106870D02*
D03*
Y118681D02*
D03*
X70748Y53720D02*
D03*
Y65531D02*
D03*
Y77342D02*
D03*
Y89153D02*
D03*
Y100965D02*
D03*
Y112776D02*
D03*
Y124587D02*
D03*
X49095Y118681D02*
D03*
Y106870D02*
D03*
Y95059D02*
D03*
Y83248D02*
D03*
Y71437D02*
D03*
Y59626D02*
D03*
D49*
X270000Y92641D02*
D03*
X260000Y87759D02*
D03*
X258000Y82641D02*
D03*
X270000Y97641D02*
D03*
X247709Y82917D02*
D03*
X250374Y100633D02*
D03*
X244783Y106380D02*
D03*
X270000Y102602D02*
D03*
X240500Y95803D02*
D03*
X205000Y73731D02*
D03*
X214110Y122259D02*
D03*
X235000Y121249D02*
D03*
X150000Y129824D02*
D03*
X153000Y125000D02*
D03*
X147000Y20000D02*
D03*
Y24000D02*
D03*
X369000Y100000D02*
D03*
X330000Y89336D02*
D03*
X303000Y79099D02*
D03*
X212953Y39803D02*
D03*
X167000Y14000D02*
D03*
X196000Y51000D02*
D03*
X190000Y56000D02*
D03*
X129000Y54000D02*
D03*
X184500Y58000D02*
D03*
X223570Y80000D02*
D03*
X223000Y75472D02*
D03*
X218315Y83248D02*
D03*
X223178Y87000D02*
D03*
X218315Y90791D02*
D03*
X241075Y86000D02*
D03*
X225000Y96696D02*
D03*
X240000Y79099D02*
D03*
X253091Y75043D02*
D03*
X115000Y75472D02*
D03*
X114371Y83248D02*
D03*
X114315Y89153D02*
D03*
X122241Y87759D02*
D03*
Y92759D02*
D03*
X120000Y100000D02*
D03*
X116670Y108839D02*
D03*
X125000Y105137D02*
D03*
X134925Y100965D02*
D03*
X123235Y68863D02*
D03*
X249031Y72211D02*
D03*
X229758Y55657D02*
D03*
D50*
X95000Y20000D02*
D03*
X166965Y150000D02*
D03*
M02*
