G04*
G04 #@! TF.GenerationSoftware,Altium Limited,Altium Designer,18.1.6 (161)*
G04*
G04 Layer_Color=32896*
%FSLAX25Y25*%
%MOIN*%
G70*
G01*
G75*
%ADD10C,0.00984*%
%ADD11C,0.00394*%
%ADD13C,0.00787*%
%ADD16C,0.01000*%
%ADD17C,0.00100*%
%ADD64C,0.02362*%
D10*
X372809Y89867D02*
G03*
X372809Y89867I-492J0D01*
G01*
X295106Y60891D02*
G03*
X295106Y60891I-492J0D01*
G01*
D11*
X329142Y63391D02*
G03*
X329142Y63391I-197J0D01*
G01*
Y70418D02*
G03*
X329142Y70418I-197J0D01*
G01*
X373000Y77500D02*
X375000D01*
X373000D02*
Y79000D01*
Y111000D02*
Y112500D01*
X375000D01*
X382500Y75500D02*
Y77500D01*
X381000D02*
X382500D01*
X381000Y112500D02*
X382500D01*
Y114500D01*
D13*
X354654Y70812D02*
X355047D01*
X354654Y75536D02*
X355047D01*
X354654Y61225D02*
X355047D01*
X354654Y65950D02*
X355047D01*
X263228Y76362D02*
X263622D01*
X263228Y71638D02*
X263622D01*
X267803Y58020D02*
X268197D01*
X267803Y53295D02*
X268197D01*
X299732Y59710D02*
Y101048D01*
X316268Y59710D02*
Y101048D01*
X299732Y59710D02*
X316268D01*
X299732Y101048D02*
X316268D01*
D16*
X202000Y75544D02*
X201333Y76210D01*
X200001D01*
X199334Y75544D01*
Y74877D01*
X200001Y74211D01*
X200667D01*
X200001D01*
X199334Y73544D01*
Y72878D01*
X200001Y72211D01*
X201333D01*
X202000Y72878D01*
X195335Y76210D02*
X196668Y75544D01*
X198001Y74211D01*
Y72878D01*
X197335Y72211D01*
X196002D01*
X195335Y72878D01*
Y73544D01*
X196002Y74211D01*
X198001D01*
X220001Y98058D02*
X221000Y97558D01*
X222000Y96559D01*
Y95559D01*
X221500Y95059D01*
X220500D01*
X220001Y95559D01*
Y96059D01*
X220500Y96559D01*
X222000D01*
X219001Y97558D02*
X218501Y98058D01*
X217501D01*
X217002Y97558D01*
Y95559D01*
X217501Y95059D01*
X218501D01*
X219001Y95559D01*
Y97558D01*
X212001Y92999D02*
X214000D01*
Y91500D01*
X213000Y91999D01*
X212501D01*
X212001Y91500D01*
Y90500D01*
X212501Y90000D01*
X213500D01*
X214000Y90500D01*
X211001Y92999D02*
X209002D01*
Y92499D01*
X211001Y90500D01*
Y90000D01*
X218001Y88140D02*
X220000D01*
Y86641D01*
X219000Y87141D01*
X218500D01*
X218001Y86641D01*
Y85641D01*
X218500Y85141D01*
X219500D01*
X220000Y85641D01*
X215002Y88140D02*
X216001Y87641D01*
X217001Y86641D01*
Y85641D01*
X216501Y85141D01*
X215501D01*
X215002Y85641D01*
Y86141D01*
X215501Y86641D01*
X217001D01*
X211001Y84999D02*
X213000D01*
Y83499D01*
X212000Y83999D01*
X211501D01*
X211001Y83499D01*
Y82500D01*
X211501Y82000D01*
X212500D01*
X213000Y82500D01*
X208502Y82000D02*
Y84999D01*
X210001Y83499D01*
X208002D01*
X218001Y80342D02*
X220000D01*
Y78842D01*
X219000Y79342D01*
X218500D01*
X218001Y78842D01*
Y77842D01*
X218500Y77342D01*
X219500D01*
X220000Y77842D01*
X215002Y77342D02*
X217001D01*
X215002Y79342D01*
Y79842D01*
X215501Y80342D01*
X216501D01*
X217001Y79842D01*
X218001Y74711D02*
X218500Y75210D01*
X219500D01*
X220000Y74711D01*
Y74211D01*
X219500Y73711D01*
X218500D01*
X218001Y73211D01*
Y72711D01*
X218500Y72211D01*
X219500D01*
X220000Y72711D01*
X215002Y75210D02*
X217001D01*
Y72211D01*
X215002D01*
X217001Y73711D02*
X216001D01*
X214002Y74711D02*
X213502Y75210D01*
X212502D01*
X212003Y74711D01*
Y72711D01*
X212502Y72211D01*
X213502D01*
X214002Y72711D01*
Y74711D01*
X340000Y61655D02*
Y55657D01*
X337001D01*
X336001Y56657D01*
Y60656D01*
X337001Y61655D01*
X340000D01*
X330003Y60656D02*
X331003Y61655D01*
X333002D01*
X334002Y60656D01*
Y59656D01*
X333002Y58656D01*
X331003D01*
X330003Y57657D01*
Y56657D01*
X331003Y55657D01*
X333002D01*
X334002Y56657D01*
X328004Y55657D02*
X326005D01*
X327004D01*
Y61655D01*
X328004Y60656D01*
X25400Y93700D02*
X21401D01*
X23401D01*
Y87702D01*
X19402D02*
X17403D01*
X18402D01*
Y93700D01*
X19402Y92700D01*
X271740Y45000D02*
Y50998D01*
X268741D01*
X267741Y49998D01*
Y47999D01*
X268741Y46999D01*
X271740D01*
X269741D02*
X267741Y45000D01*
X265742D02*
X263743D01*
X264742D01*
Y50998D01*
X265742Y49998D01*
X271740Y79099D02*
Y85097D01*
X268741D01*
X267741Y84098D01*
Y82098D01*
X268741Y81099D01*
X271740D01*
X269741D02*
X267741Y79099D01*
X261743D02*
X265742D01*
X261743Y83098D01*
Y84098D01*
X262743Y85097D01*
X264742D01*
X265742Y84098D01*
X360000Y53720D02*
Y59719D01*
X357001D01*
X356001Y58719D01*
Y56719D01*
X357001Y55720D01*
X360000D01*
X358001D02*
X356001Y53720D01*
X354002Y58719D02*
X353002Y59719D01*
X351003D01*
X350003Y58719D01*
Y57719D01*
X351003Y56719D01*
X352003D01*
X351003D01*
X350003Y55720D01*
Y54720D01*
X351003Y53720D01*
X353002D01*
X354002Y54720D01*
X360600Y80041D02*
Y86039D01*
X357601D01*
X356601Y85039D01*
Y83040D01*
X357601Y82040D01*
X360600D01*
X358601D02*
X356601Y80041D01*
X351603D02*
Y86039D01*
X354602Y83040D01*
X350603D01*
X255686Y64998D02*
X256686Y65998D01*
X258685D01*
X259685Y64998D01*
Y61000D01*
X258685Y60000D01*
X256686D01*
X255686Y61000D01*
X253687Y60000D02*
X251688D01*
X252687D01*
Y65998D01*
X253687Y64998D01*
X303301Y117339D02*
X304301Y118339D01*
X306300D01*
X307300Y117339D01*
Y113341D01*
X306300Y112341D01*
X304301D01*
X303301Y113341D01*
X301302Y117339D02*
X300302Y118339D01*
X298303D01*
X297303Y117339D01*
Y116340D01*
X298303Y115340D01*
X299303D01*
X298303D01*
X297303Y114340D01*
Y113341D01*
X298303Y112341D01*
X300302D01*
X301302Y113341D01*
X317201Y117339D02*
X318201Y118339D01*
X320200D01*
X321200Y117339D01*
Y113341D01*
X320200Y112341D01*
X318201D01*
X317201Y113341D01*
X311203Y112341D02*
X315202D01*
X311203Y116340D01*
Y117339D01*
X312203Y118339D01*
X314202D01*
X315202Y117339D01*
X305000Y52488D02*
Y57486D01*
X306000Y58486D01*
X307999D01*
X308999Y57486D01*
Y52488D01*
X310998Y58486D02*
X312997D01*
X311998D01*
Y52488D01*
X310998Y53488D01*
X358002Y102381D02*
Y104380D01*
Y103381D01*
X363000D01*
X364000Y104380D01*
Y105380D01*
X363000Y106380D01*
X364000Y100382D02*
Y98382D01*
Y99382D01*
X358002D01*
X359002Y100382D01*
X345000Y85998D02*
Y80000D01*
X342001D01*
X341001Y81000D01*
Y84998D01*
X342001Y85998D01*
X345000D01*
X335003Y84998D02*
X336003Y85998D01*
X338002D01*
X339002Y84998D01*
Y83999D01*
X338002Y82999D01*
X336003D01*
X335003Y81999D01*
Y81000D01*
X336003Y80000D01*
X338002D01*
X339002Y81000D01*
X329005Y80000D02*
X333004D01*
X329005Y83999D01*
Y84998D01*
X330005Y85998D01*
X332004D01*
X333004Y84998D01*
D17*
X0Y0D02*
Y175000D01*
X393000D01*
Y0D02*
Y175000D01*
X0Y0D02*
X393000D01*
D64*
X304850Y63647D02*
G03*
X304850Y63647I-1181J0D01*
G01*
M02*
