G04*
G04 #@! TF.GenerationSoftware,Altium Limited,Altium Designer,18.1.6 (161)*
G04*
G04 Layer_Color=2752767*
%FSLAX25Y25*%
%MOIN*%
G70*
G01*
G75*
%ADD17C,0.00100*%
%ADD65C,0.00200*%
%ADD66C,0.00267*%
D17*
X0Y0D02*
Y175000D01*
X393000D01*
Y0D02*
Y175000D01*
X0Y0D02*
X393000D01*
D65*
X38452Y52921D02*
Y54520D01*
X40052D01*
Y52921D01*
X38452D01*
Y64732D02*
Y66331D01*
X40052D01*
Y64732D01*
X38452D01*
Y76543D02*
Y78142D01*
X40052D01*
Y76543D01*
X38452D01*
Y88354D02*
Y89954D01*
X40052D01*
Y88354D01*
X38452D01*
Y100165D02*
Y101765D01*
X40052D01*
Y100165D01*
X38452D01*
Y111976D02*
Y113576D01*
X40052D01*
Y111976D01*
X38452D01*
Y123787D02*
Y125387D01*
X40052D01*
Y123787D01*
X38452D01*
X60106Y58826D02*
Y60426D01*
X61705D01*
Y58826D01*
X60106D01*
Y70637D02*
Y72237D01*
X61705D01*
Y70637D01*
X60106D01*
Y82448D02*
Y84048D01*
X61705D01*
Y82448D01*
X60106D01*
Y94259D02*
Y95859D01*
X61705D01*
Y94259D01*
X60106D01*
Y106070D02*
Y107670D01*
X61705D01*
Y106070D01*
X60106D01*
Y117881D02*
Y119481D01*
X61705D01*
Y117881D01*
X60106D01*
X69948Y52921D02*
Y54520D01*
X71548D01*
Y52921D01*
X69948D01*
Y64732D02*
Y66331D01*
X71548D01*
Y64732D01*
X69948D01*
Y76543D02*
Y78142D01*
X71548D01*
Y76543D01*
X69948D01*
Y88354D02*
Y89954D01*
X71548D01*
Y88354D01*
X69948D01*
Y100165D02*
Y101765D01*
X71548D01*
Y100165D01*
X69948D01*
Y111976D02*
Y113576D01*
X71548D01*
Y111976D01*
X69948D01*
Y123787D02*
Y125387D01*
X71548D01*
Y123787D01*
X69948D01*
X48294Y117881D02*
Y119481D01*
X49894D01*
Y117881D01*
X48294D01*
Y106070D02*
Y107670D01*
X49894D01*
Y106070D01*
X48294D01*
Y94259D02*
Y95859D01*
X49894D01*
Y94259D01*
X48294D01*
Y82448D02*
Y84048D01*
X49894D01*
Y82448D01*
X48294D01*
Y70637D02*
Y72237D01*
X49894D01*
Y70637D01*
X48294D01*
Y58826D02*
Y60426D01*
X49894D01*
Y58826D01*
X48294D01*
X285000Y84341D02*
X284200Y85941D01*
X285800D01*
X285000Y84341D01*
Y99341D02*
X284200Y100941D01*
X285800D01*
X285000Y99341D01*
X270000Y91841D02*
X270400Y92241D01*
X270800D01*
X270400Y92641D01*
X270800Y93041D01*
X270400D01*
X270000Y93441D01*
X269600Y93041D01*
X269200D01*
X269600Y92641D01*
X269200Y92241D01*
X269600D01*
X270000Y91841D01*
X260000Y86959D02*
X260400Y87359D01*
X260800D01*
X260400Y87759D01*
X260800Y88159D01*
X260400D01*
X260000Y88559D01*
X259600Y88159D01*
X259200D01*
X259600Y87759D01*
X259200Y87359D01*
X259600D01*
X260000Y86959D01*
X258000Y81841D02*
X258400Y82241D01*
X258800D01*
X258400Y82641D01*
X258800Y83041D01*
X258400D01*
X258000Y83441D01*
X257600Y83041D01*
X257200D01*
X257600Y82641D01*
X257200Y82241D01*
X257600D01*
X258000Y81841D01*
X270000Y96841D02*
X270400Y97241D01*
X270800D01*
X270400Y97641D01*
X270800Y98041D01*
X270400D01*
X270000Y98441D01*
X269600Y98041D01*
X269200D01*
X269600Y97641D01*
X269200Y97241D01*
X269600D01*
X270000Y96841D01*
X247709Y82117D02*
X248109Y82517D01*
X248509D01*
X248109Y82917D01*
X248509Y83317D01*
X248109D01*
X247709Y83717D01*
X247309Y83317D01*
X246909D01*
X247309Y82917D01*
X246909Y82517D01*
X247309D01*
X247709Y82117D01*
X250374Y99833D02*
X250774Y100233D01*
X251174D01*
X250774Y100633D01*
X251174Y101033D01*
X250774D01*
X250374Y101433D01*
X249974Y101033D01*
X249574D01*
X249974Y100633D01*
X249574Y100233D01*
X249974D01*
X250374Y99833D01*
X244783Y105580D02*
X245183Y105980D01*
X245584D01*
X245183Y106380D01*
X245584Y106780D01*
X245183D01*
X244783Y107180D01*
X244384Y106780D01*
X243984D01*
X244384Y106380D01*
X243984Y105980D01*
X244384D01*
X244783Y105580D01*
X270000Y101802D02*
X270400Y102202D01*
X270800D01*
X270400Y102602D01*
X270800Y103002D01*
X270400D01*
X270000Y103402D01*
X269600Y103002D01*
X269200D01*
X269600Y102602D01*
X269200Y102202D01*
X269600D01*
X270000Y101802D01*
X240500Y95003D02*
X240900Y95403D01*
X241300D01*
X240900Y95803D01*
X241300Y96203D01*
X240900D01*
X240500Y96603D01*
X240100Y96203D01*
X239700D01*
X240100Y95803D01*
X239700Y95403D01*
X240100D01*
X240500Y95003D01*
X205000Y72931D02*
X205400Y73331D01*
X205800D01*
X205400Y73731D01*
X205800Y74131D01*
X205400D01*
X205000Y74531D01*
X204600Y74131D01*
X204200D01*
X204600Y73731D01*
X204200Y73331D01*
X204600D01*
X205000Y72931D01*
X214110Y121459D02*
X214510Y121859D01*
X214910D01*
X214510Y122259D01*
X214910Y122659D01*
X214510D01*
X214110Y123059D01*
X213710Y122659D01*
X213310D01*
X213710Y122259D01*
X213310Y121859D01*
X213710D01*
X214110Y121459D01*
X235000Y120449D02*
X235400Y120850D01*
X235800D01*
X235400Y121249D01*
X235800Y121650D01*
X235400D01*
X235000Y122049D01*
X234600Y121650D01*
X234200D01*
X234600Y121249D01*
X234200Y120850D01*
X234600D01*
X235000Y120449D01*
X150000Y129024D02*
X150400Y129424D01*
X150800D01*
X150400Y129824D01*
X150800Y130224D01*
X150400D01*
X150000Y130624D01*
X149600Y130224D01*
X149200D01*
X149600Y129824D01*
X149200Y129424D01*
X149600D01*
X150000Y129024D01*
X153000Y124200D02*
X153400Y124600D01*
X153800D01*
X153400Y125000D01*
X153800Y125400D01*
X153400D01*
X153000Y125800D01*
X152600Y125400D01*
X152200D01*
X152600Y125000D01*
X152200Y124600D01*
X152600D01*
X153000Y124200D01*
X147000Y19200D02*
X147400Y19600D01*
X147800D01*
X147400Y20000D01*
X147800Y20400D01*
X147400D01*
X147000Y20800D01*
X146600Y20400D01*
X146200D01*
X146600Y20000D01*
X146200Y19600D01*
X146600D01*
X147000Y19200D01*
Y23200D02*
X147400Y23600D01*
X147800D01*
X147400Y24000D01*
X147800Y24400D01*
X147400D01*
X147000Y24800D01*
X146600Y24400D01*
X146200D01*
X146600Y24000D01*
X146200Y23600D01*
X146600D01*
X147000Y23200D01*
X369000Y99200D02*
X369400Y99600D01*
X369800D01*
X369400Y100000D01*
X369800Y100400D01*
X369400D01*
X369000Y100800D01*
X368600Y100400D01*
X368200D01*
X368600Y100000D01*
X368200Y99600D01*
X368600D01*
X369000Y99200D01*
X330000Y88535D02*
X330400Y88936D01*
X330800D01*
X330400Y89336D01*
X330800Y89736D01*
X330400D01*
X330000Y90136D01*
X329600Y89736D01*
X329200D01*
X329600Y89336D01*
X329200Y88936D01*
X329600D01*
X330000Y88535D01*
X303000Y78299D02*
X303400Y78699D01*
X303800D01*
X303400Y79099D01*
X303800Y79499D01*
X303400D01*
X303000Y79899D01*
X302600Y79499D01*
X302200D01*
X302600Y79099D01*
X302200Y78699D01*
X302600D01*
X303000Y78299D01*
X212953Y39003D02*
X213353Y39403D01*
X213753D01*
X213353Y39803D01*
X213753Y40203D01*
X213353D01*
X212953Y40603D01*
X212553Y40203D01*
X212153D01*
X212553Y39803D01*
X212153Y39403D01*
X212553D01*
X212953Y39003D01*
X167000Y13200D02*
X167400Y13600D01*
X167800D01*
X167400Y14000D01*
X167800Y14400D01*
X167400D01*
X167000Y14800D01*
X166600Y14400D01*
X166200D01*
X166600Y14000D01*
X166200Y13600D01*
X166600D01*
X167000Y13200D01*
X94200Y19200D02*
X94600Y20000D01*
X94200Y20800D01*
X95000Y20400D01*
X95800Y20800D01*
X95400Y20000D01*
X95800Y19200D01*
X95000Y19600D01*
X94200Y19200D01*
X166165Y149200D02*
X166565Y150000D01*
X166165Y150800D01*
X166965Y150400D01*
X167765Y150800D01*
X167365Y150000D01*
X167765Y149200D01*
X166965Y149600D01*
X166165Y149200D01*
X196000Y50200D02*
X196400Y50600D01*
X196800D01*
X196400Y51000D01*
X196800Y51400D01*
X196400D01*
X196000Y51800D01*
X195600Y51400D01*
X195200D01*
X195600Y51000D01*
X195200Y50600D01*
X195600D01*
X196000Y50200D01*
X190000Y55200D02*
X190400Y55600D01*
X190800D01*
X190400Y56000D01*
X190800Y56400D01*
X190400D01*
X190000Y56800D01*
X189600Y56400D01*
X189200D01*
X189600Y56000D01*
X189200Y55600D01*
X189600D01*
X190000Y55200D01*
X129000Y53200D02*
X129400Y53600D01*
X129800D01*
X129400Y54000D01*
X129800Y54400D01*
X129400D01*
X129000Y54800D01*
X128600Y54400D01*
X128200D01*
X128600Y54000D01*
X128200Y53600D01*
X128600D01*
X129000Y53200D01*
X184500Y57200D02*
X184900Y57600D01*
X185300D01*
X184900Y58000D01*
X185300Y58400D01*
X184900D01*
X184500Y58800D01*
X184100Y58400D01*
X183700D01*
X184100Y58000D01*
X183700Y57600D01*
X184100D01*
X184500Y57200D01*
X223570Y79200D02*
X223970Y79600D01*
X224370D01*
X223970Y80000D01*
X224370Y80400D01*
X223970D01*
X223570Y80800D01*
X223170Y80400D01*
X222770D01*
X223170Y80000D01*
X222770Y79600D01*
X223170D01*
X223570Y79200D01*
X223000Y74673D02*
X223400Y75072D01*
X223800D01*
X223400Y75472D01*
X223800Y75872D01*
X223400D01*
X223000Y76272D01*
X222600Y75872D01*
X222200D01*
X222600Y75472D01*
X222200Y75072D01*
X222600D01*
X223000Y74673D01*
X218315Y82448D02*
X218715Y82848D01*
X219115D01*
X218715Y83248D01*
X219115Y83648D01*
X218715D01*
X218315Y84048D01*
X217915Y83648D01*
X217515D01*
X217915Y83248D01*
X217515Y82848D01*
X217915D01*
X218315Y82448D01*
X223178Y86200D02*
X223578Y86600D01*
X223978D01*
X223578Y87000D01*
X223978Y87400D01*
X223578D01*
X223178Y87800D01*
X222778Y87400D01*
X222378D01*
X222778Y87000D01*
X222378Y86600D01*
X222778D01*
X223178Y86200D01*
X218315Y89991D02*
X218715Y90391D01*
X219115D01*
X218715Y90791D01*
X219115Y91191D01*
X218715D01*
X218315Y91591D01*
X217915Y91191D01*
X217515D01*
X217915Y90791D01*
X217515Y90391D01*
X217915D01*
X218315Y89991D01*
X241075Y85200D02*
X241475Y85600D01*
X241875D01*
X241475Y86000D01*
X241875Y86400D01*
X241475D01*
X241075Y86800D01*
X240675Y86400D01*
X240275D01*
X240675Y86000D01*
X240275Y85600D01*
X240675D01*
X241075Y85200D01*
X225000Y95896D02*
X225400Y96296D01*
X225800D01*
X225400Y96696D01*
X225800Y97096D01*
X225400D01*
X225000Y97496D01*
X224600Y97096D01*
X224200D01*
X224600Y96696D01*
X224200Y96296D01*
X224600D01*
X225000Y95896D01*
X240000Y78299D02*
X240400Y78699D01*
X240800D01*
X240400Y79099D01*
X240800Y79499D01*
X240400D01*
X240000Y79899D01*
X239600Y79499D01*
X239200D01*
X239600Y79099D01*
X239200Y78699D01*
X239600D01*
X240000Y78299D01*
X253091Y74243D02*
X253490Y74643D01*
X253890D01*
X253490Y75043D01*
X253890Y75443D01*
X253490D01*
X253091Y75843D01*
X252691Y75443D01*
X252291D01*
X252691Y75043D01*
X252291Y74643D01*
X252691D01*
X253091Y74243D01*
X115000Y74673D02*
X115400Y75072D01*
X115800D01*
X115400Y75472D01*
X115800Y75872D01*
X115400D01*
X115000Y76272D01*
X114600Y75872D01*
X114200D01*
X114600Y75472D01*
X114200Y75072D01*
X114600D01*
X115000Y74673D01*
X114371Y82448D02*
X114771Y82848D01*
X115171D01*
X114771Y83248D01*
X115171Y83648D01*
X114771D01*
X114371Y84048D01*
X113971Y83648D01*
X113571D01*
X113971Y83248D01*
X113571Y82848D01*
X113971D01*
X114371Y82448D01*
X114315Y88354D02*
X114715Y88753D01*
X115115D01*
X114715Y89153D01*
X115115Y89553D01*
X114715D01*
X114315Y89954D01*
X113915Y89553D01*
X113515D01*
X113915Y89153D01*
X113515Y88753D01*
X113915D01*
X114315Y88354D01*
X122241Y86959D02*
X122641Y87359D01*
X123041D01*
X122641Y87759D01*
X123041Y88159D01*
X122641D01*
X122241Y88559D01*
X121841Y88159D01*
X121441D01*
X121841Y87759D01*
X121441Y87359D01*
X121841D01*
X122241Y86959D01*
Y91959D02*
X122641Y92359D01*
X123041D01*
X122641Y92759D01*
X123041Y93159D01*
X122641D01*
X122241Y93559D01*
X121841Y93159D01*
X121441D01*
X121841Y92759D01*
X121441Y92359D01*
X121841D01*
X122241Y91959D01*
X120000Y99200D02*
X120400Y99600D01*
X120800D01*
X120400Y100000D01*
X120800Y100400D01*
X120400D01*
X120000Y100800D01*
X119600Y100400D01*
X119200D01*
X119600Y100000D01*
X119200Y99600D01*
X119600D01*
X120000Y99200D01*
X116670Y108039D02*
X117070Y108439D01*
X117470D01*
X117070Y108839D01*
X117470Y109239D01*
X117070D01*
X116670Y109639D01*
X116270Y109239D01*
X115870D01*
X116270Y108839D01*
X115870Y108439D01*
X116270D01*
X116670Y108039D01*
X125000Y104337D02*
X125400Y104737D01*
X125800D01*
X125400Y105137D01*
X125800Y105537D01*
X125400D01*
X125000Y105937D01*
X124600Y105537D01*
X124200D01*
X124600Y105137D01*
X124200Y104737D01*
X124600D01*
X125000Y104337D01*
X134925Y100165D02*
X135326Y100565D01*
X135725D01*
X135326Y100965D01*
X135725Y101365D01*
X135326D01*
X134925Y101765D01*
X134526Y101365D01*
X134125D01*
X134526Y100965D01*
X134125Y100565D01*
X134526D01*
X134925Y100165D01*
X123235Y68063D02*
X123635Y68463D01*
X124035D01*
X123635Y68863D01*
X124035Y69263D01*
X123635D01*
X123235Y69663D01*
X122835Y69263D01*
X122435D01*
X122835Y68863D01*
X122435Y68463D01*
X122835D01*
X123235Y68063D01*
X249031Y71411D02*
X249431Y71811D01*
X249832D01*
X249431Y72211D01*
X249832Y72611D01*
X249431D01*
X249031Y73011D01*
X248632Y72611D01*
X248232D01*
X248632Y72211D01*
X248232Y71811D01*
X248632D01*
X249031Y71411D01*
X229758Y54857D02*
X230158Y55257D01*
X230558D01*
X230158Y55657D01*
X230558Y56057D01*
X230158D01*
X229758Y56457D01*
X229358Y56057D01*
X228958D01*
X229358Y55657D01*
X228958Y55257D01*
X229358D01*
X229758Y54857D01*
D66*
X14461Y153130D02*
G03*
X14461Y153130I-800J0D01*
G01*
Y25177D02*
G03*
X14461Y25177I-800J0D01*
G01*
M02*
