G04*
G04 #@! TF.GenerationSoftware,Altium Limited,Altium Designer,18.1.6 (161)*
G04*
G04 Layer_Color=65535*
%FSLAX25Y25*%
%MOIN*%
G70*
G01*
G75*
%ADD10C,0.00984*%
%ADD11C,0.00394*%
%ADD12C,0.01575*%
%ADD13C,0.00787*%
%ADD14C,0.03937*%
%ADD15C,0.00600*%
%ADD16C,0.01000*%
%ADD17C,0.00100*%
G36*
X330665Y26576D02*
X330995D01*
Y26247D01*
Y25918D01*
Y25589D01*
X330665D01*
Y25260D01*
X330336D01*
Y25589D01*
X330007D01*
Y25260D01*
X329678D01*
Y25589D01*
X329349D01*
Y25260D01*
X329019D01*
Y25589D01*
X328690D01*
Y25260D01*
X328361D01*
Y25589D01*
X328032D01*
Y25260D01*
X327703D01*
Y25589D01*
X327373D01*
Y25260D01*
X327044D01*
Y25589D01*
X326715D01*
Y25260D01*
X326386D01*
Y25589D01*
X326057D01*
Y25260D01*
X325727D01*
Y24930D01*
Y24601D01*
Y24272D01*
X325398D01*
Y23943D01*
X325727D01*
Y23614D01*
X325398D01*
Y23284D01*
X325727D01*
Y22955D01*
X325398D01*
Y22626D01*
X325727D01*
Y22297D01*
X325398D01*
Y21968D01*
Y21639D01*
Y21309D01*
X325069D01*
Y20980D01*
X325398D01*
Y20651D01*
X325069D01*
Y20322D01*
X325398D01*
Y19993D01*
X325727D01*
Y19663D01*
X326057D01*
Y19993D01*
X326386D01*
Y19663D01*
X326715D01*
Y19993D01*
X327373D01*
Y20322D01*
Y20651D01*
X327703D01*
Y20980D01*
X327373D01*
Y21309D01*
X327703D01*
Y21639D01*
X327373D01*
Y21968D01*
X327044D01*
Y22297D01*
X326715D01*
Y21968D01*
X326386D01*
Y22297D01*
X326057D01*
Y22626D01*
Y22955D01*
Y23284D01*
X328361D01*
Y23614D01*
X328690D01*
Y23284D01*
X330995D01*
Y22955D01*
Y22626D01*
Y22297D01*
X330665D01*
Y21968D01*
X330995D01*
Y21639D01*
X330665D01*
Y21309D01*
X330995D01*
Y20980D01*
X330665D01*
Y20651D01*
Y20322D01*
Y19993D01*
Y19663D01*
Y19334D01*
X330336D01*
Y19005D01*
X330665D01*
Y18676D01*
X330336D01*
Y18347D01*
X322765D01*
Y18676D01*
X322435D01*
Y19005D01*
X322106D01*
Y19334D01*
X322435D01*
Y19663D01*
X322106D01*
Y19993D01*
Y20322D01*
Y20651D01*
Y20980D01*
Y21309D01*
Y21639D01*
Y21968D01*
X322435D01*
Y22297D01*
X322106D01*
Y22626D01*
X322435D01*
Y22955D01*
X322106D01*
Y23284D01*
X322435D01*
Y23614D01*
Y23943D01*
Y24272D01*
Y24601D01*
Y24930D01*
X322765D01*
Y25260D01*
X323094D01*
Y25589D01*
X322765D01*
Y25918D01*
X323094D01*
Y26247D01*
X323423D01*
Y26576D01*
X324411D01*
Y26906D01*
X324740D01*
Y26576D01*
X325069D01*
Y26906D01*
X325398D01*
Y26576D01*
X325727D01*
Y26906D01*
X326057D01*
Y26576D01*
X326386D01*
Y26906D01*
X326715D01*
Y26576D01*
X327044D01*
Y26906D01*
X327373D01*
Y26576D01*
X327703D01*
Y26906D01*
X328032D01*
Y26576D01*
X328361D01*
Y26906D01*
X328690D01*
Y26576D01*
X329019D01*
Y26906D01*
X329349D01*
Y26576D01*
X329678D01*
Y26906D01*
X330007D01*
Y26576D01*
X330336D01*
Y26906D01*
X330665D01*
Y26576D01*
D02*
G37*
G36*
X320790D02*
Y26247D01*
Y25918D01*
X320460D01*
Y25589D01*
Y25260D01*
Y24930D01*
Y24601D01*
Y24272D01*
X320131D01*
Y23943D01*
X320460D01*
Y23614D01*
X320131D01*
Y23284D01*
X320460D01*
Y22955D01*
X320131D01*
Y22626D01*
X320460D01*
Y22297D01*
X320131D01*
Y21968D01*
Y21639D01*
Y21309D01*
X319802D01*
Y20980D01*
X320131D01*
Y20651D01*
X319802D01*
Y20322D01*
Y19993D01*
Y19663D01*
X319473D01*
Y19334D01*
X319802D01*
Y19005D01*
X319473D01*
Y18676D01*
X319802D01*
Y18347D01*
X315523D01*
Y18676D01*
X315193D01*
Y19005D01*
Y19334D01*
Y19663D01*
X314864D01*
Y19993D01*
Y20322D01*
Y20651D01*
X314535D01*
Y20980D01*
Y21309D01*
Y21639D01*
X314206D01*
Y21968D01*
Y22297D01*
X313877D01*
Y22626D01*
Y22955D01*
X313547D01*
Y23284D01*
X313877D01*
Y23614D01*
X313547D01*
Y23943D01*
X313218D01*
Y24272D01*
Y24601D01*
Y24930D01*
X312889D01*
Y24601D01*
Y24272D01*
Y23943D01*
X312560D01*
Y23614D01*
X312889D01*
Y23284D01*
X312560D01*
Y22955D01*
Y22626D01*
Y22297D01*
Y21968D01*
Y21639D01*
X312231D01*
Y21309D01*
X312560D01*
Y20980D01*
X312231D01*
Y20651D01*
X312560D01*
Y20322D01*
X312231D01*
Y19993D01*
Y19663D01*
Y19334D01*
Y19005D01*
Y18676D01*
X311901D01*
Y18347D01*
X310914D01*
Y18676D01*
X310585D01*
Y19005D01*
X310914D01*
Y19334D01*
Y19663D01*
Y19993D01*
Y20322D01*
Y20651D01*
X311243D01*
Y20980D01*
X310914D01*
Y21309D01*
X311243D01*
Y21639D01*
X310914D01*
Y21968D01*
X311243D01*
Y22297D01*
X310914D01*
Y22626D01*
X311243D01*
Y22955D01*
Y23284D01*
Y23614D01*
Y23943D01*
Y24272D01*
X311572D01*
Y24601D01*
Y24930D01*
Y25260D01*
Y25589D01*
Y25918D01*
X311901D01*
Y26247D01*
X311572D01*
Y26576D01*
X311901D01*
Y26906D01*
X312231D01*
Y26576D01*
X312560D01*
Y26906D01*
X312889D01*
Y26576D01*
X313218D01*
Y26906D01*
X313547D01*
Y26576D01*
X313877D01*
Y26906D01*
X314206D01*
Y26576D01*
X314535D01*
Y26906D01*
X314864D01*
Y26576D01*
X315193D01*
Y26906D01*
X315523D01*
Y26576D01*
X315852D01*
Y26247D01*
X316181D01*
Y25918D01*
X316510D01*
Y25589D01*
X316181D01*
Y25260D01*
X316510D01*
Y24930D01*
X316839D01*
Y24601D01*
Y24272D01*
Y23943D01*
X317168D01*
Y23614D01*
X316839D01*
Y23284D01*
X317168D01*
Y22955D01*
X317498D01*
Y22626D01*
Y22297D01*
Y21968D01*
X317827D01*
Y21639D01*
Y21309D01*
Y20980D01*
X318156D01*
Y20651D01*
X318485D01*
Y20980D01*
X318814D01*
Y21309D01*
X318485D01*
Y21639D01*
X318814D01*
Y21968D01*
Y22297D01*
Y22626D01*
Y22955D01*
Y23284D01*
X319144D01*
Y23614D01*
X318814D01*
Y23943D01*
X319144D01*
Y24272D01*
X318814D01*
Y24601D01*
X319144D01*
Y24930D01*
X318814D01*
Y25260D01*
X319144D01*
Y25589D01*
Y25918D01*
Y26247D01*
Y26576D01*
X319802D01*
Y26906D01*
X320131D01*
Y26576D01*
X320460D01*
Y26906D01*
X320790D01*
Y26576D01*
D02*
G37*
G36*
X309597D02*
X309926D01*
Y26247D01*
X309597D01*
Y25918D01*
X309926D01*
Y25589D01*
X309597D01*
Y25260D01*
Y24930D01*
Y24601D01*
Y24272D01*
Y23943D01*
X309268D01*
Y23614D01*
Y23284D01*
Y22955D01*
Y22626D01*
Y22297D01*
X308939D01*
Y21968D01*
X309268D01*
Y21639D01*
X308939D01*
Y21309D01*
X309268D01*
Y20980D01*
X308939D01*
Y20651D01*
X309268D01*
Y20322D01*
X308939D01*
Y19993D01*
Y19663D01*
Y19334D01*
X308610D01*
Y19005D01*
Y18676D01*
Y18347D01*
X305647D01*
Y18676D01*
X305317D01*
Y19005D01*
X305647D01*
Y19334D01*
Y19663D01*
Y19993D01*
X305976D01*
Y20322D01*
X305647D01*
Y20651D01*
X305976D01*
Y20980D01*
X305647D01*
Y21309D01*
X305976D01*
Y21639D01*
Y21968D01*
Y22297D01*
Y22626D01*
Y22955D01*
X306305D01*
Y23284D01*
X305976D01*
Y23614D01*
X306305D01*
Y23943D01*
Y24272D01*
Y24601D01*
X306634D01*
Y24930D01*
X306305D01*
Y25260D01*
X306634D01*
Y25589D01*
X306305D01*
Y25918D01*
X306634D01*
Y26247D01*
X306305D01*
Y26576D01*
X306634D01*
Y26906D01*
X306963D01*
Y26576D01*
X307293D01*
Y26906D01*
X307622D01*
Y26576D01*
X307951D01*
Y26906D01*
X308280D01*
Y26576D01*
X308610D01*
Y26906D01*
X308939D01*
Y26576D01*
X309268D01*
Y26906D01*
X309597D01*
Y26576D01*
D02*
G37*
G36*
X303672D02*
X304001D01*
Y26247D01*
Y25918D01*
Y25589D01*
X303672D01*
Y25260D01*
X303342D01*
Y25589D01*
X303013D01*
Y25260D01*
X302684D01*
Y25589D01*
X302355D01*
Y25260D01*
X302026D01*
Y25589D01*
X301696D01*
Y25260D01*
X301367D01*
Y25589D01*
X301038D01*
Y25260D01*
X300709D01*
Y25589D01*
X300380D01*
Y25260D01*
X300050D01*
Y24930D01*
X299721D01*
Y24601D01*
X300050D01*
Y24272D01*
X299721D01*
Y23943D01*
X300050D01*
Y23614D01*
X299721D01*
Y23284D01*
X300050D01*
Y22955D01*
X299721D01*
Y22626D01*
Y22297D01*
Y21968D01*
X299392D01*
Y21639D01*
Y21309D01*
Y20980D01*
Y20651D01*
Y20322D01*
X299063D01*
Y19993D01*
X300050D01*
Y19663D01*
X300380D01*
Y19993D01*
X300709D01*
Y19663D01*
X301038D01*
Y19993D01*
X301367D01*
Y19663D01*
X301696D01*
Y19993D01*
X302026D01*
Y19663D01*
X302355D01*
Y19993D01*
X302684D01*
Y19663D01*
X303013D01*
Y19993D01*
X303342D01*
Y19663D01*
Y19334D01*
Y19005D01*
X303013D01*
Y18676D01*
X303342D01*
Y18347D01*
X297088D01*
Y18676D01*
X296759D01*
Y19005D01*
X296429D01*
Y19334D01*
X296100D01*
Y19663D01*
Y19993D01*
Y20322D01*
Y20651D01*
Y20980D01*
X296429D01*
Y21309D01*
X296100D01*
Y21639D01*
X296429D01*
Y21968D01*
Y22297D01*
Y22626D01*
X296759D01*
Y22955D01*
X296429D01*
Y23284D01*
X296759D01*
Y23614D01*
X296429D01*
Y23943D01*
X296759D01*
Y24272D01*
X296429D01*
Y24601D01*
X296759D01*
Y24930D01*
Y25260D01*
Y25589D01*
X297088D01*
Y25918D01*
X297417D01*
Y26247D01*
X297746D01*
Y26576D01*
X298734D01*
Y26906D01*
X299063D01*
Y26576D01*
X299392D01*
Y26906D01*
X299721D01*
Y26576D01*
X300050D01*
Y26906D01*
X300380D01*
Y26576D01*
X300709D01*
Y26906D01*
X301038D01*
Y26576D01*
X301367D01*
Y26906D01*
X301696D01*
Y26576D01*
X302026D01*
Y26906D01*
X302355D01*
Y26576D01*
X302684D01*
Y26906D01*
X303013D01*
Y26576D01*
X303342D01*
Y26906D01*
X303672D01*
Y26576D01*
D02*
G37*
G36*
X291162D02*
X291492D01*
Y26247D01*
Y25918D01*
Y25589D01*
X291821D01*
Y25260D01*
Y24930D01*
Y24601D01*
X292150D01*
Y24272D01*
Y23943D01*
Y23614D01*
X292479D01*
Y23284D01*
Y22955D01*
Y22626D01*
X292808D01*
Y22297D01*
X292479D01*
Y21968D01*
X292808D01*
Y21639D01*
Y21309D01*
Y20980D01*
X293137D01*
Y20651D01*
X293467D01*
Y20322D01*
X293137D01*
Y19993D01*
X293467D01*
Y19663D01*
X293137D01*
Y19334D01*
X293467D01*
Y19005D01*
X293796D01*
Y18676D01*
X293467D01*
Y18347D01*
X290504D01*
Y18676D01*
X290175D01*
Y19005D01*
X289845D01*
Y19334D01*
X290175D01*
Y19663D01*
X289845D01*
Y19993D01*
Y20322D01*
Y20651D01*
X289516D01*
Y20980D01*
X289187D01*
Y20651D01*
X289516D01*
Y20322D01*
X289187D01*
Y20651D01*
X288200D01*
Y20322D01*
X287870D01*
Y20651D01*
X286883D01*
Y20980D01*
X286554D01*
Y20651D01*
X286883D01*
Y20322D01*
X286554D01*
Y20651D01*
X286224D01*
Y20322D01*
X285895D01*
Y19993D01*
X285566D01*
Y19663D01*
X285237D01*
Y19334D01*
Y19005D01*
X284908D01*
Y18676D01*
Y18347D01*
X283262D01*
Y18676D01*
X283591D01*
Y19005D01*
Y19334D01*
Y19663D01*
X283920D01*
Y19993D01*
X284249D01*
Y20322D01*
Y20651D01*
X284578D01*
Y20980D01*
Y21309D01*
X284908D01*
Y21639D01*
X285237D01*
Y21968D01*
X285566D01*
Y22297D01*
Y22626D01*
Y22955D01*
X285895D01*
Y23284D01*
X286224D01*
Y23614D01*
X286554D01*
Y23943D01*
Y24272D01*
Y24601D01*
X286883D01*
Y24930D01*
X287212D01*
Y25260D01*
X287541D01*
Y25589D01*
Y25918D01*
X287870D01*
Y26247D01*
Y26576D01*
X288200D01*
Y26906D01*
X288529D01*
Y26576D01*
X288858D01*
Y26906D01*
X289187D01*
Y26576D01*
X289516D01*
Y26906D01*
X289845D01*
Y26576D01*
X290175D01*
Y26906D01*
X290504D01*
Y26576D01*
X290833D01*
Y26906D01*
X291162D01*
Y26576D01*
D02*
G37*
G36*
X280628D02*
X281616D01*
Y26247D01*
X281945D01*
Y25918D01*
Y25589D01*
Y25260D01*
Y24930D01*
Y24601D01*
Y24272D01*
Y23943D01*
X281616D01*
Y23614D01*
Y23284D01*
Y22955D01*
Y22626D01*
Y22297D01*
X280628D01*
Y21968D01*
X280299D01*
Y22297D01*
X279970D01*
Y21968D01*
X280299D01*
Y21639D01*
X280628D01*
Y21309D01*
Y20980D01*
Y20651D01*
X280957D01*
Y20322D01*
X280628D01*
Y19993D01*
X280957D01*
Y19663D01*
X281287D01*
Y19334D01*
X281616D01*
Y19005D01*
X281287D01*
Y18676D01*
X281616D01*
Y18347D01*
X277995D01*
Y18676D01*
Y19005D01*
Y19334D01*
X277665D01*
Y19663D01*
Y19993D01*
Y20322D01*
X277336D01*
Y20651D01*
X277665D01*
Y20980D01*
X277336D01*
Y21309D01*
X277007D01*
Y21639D01*
Y21968D01*
X276349D01*
Y22297D01*
X276020D01*
Y21968D01*
Y21639D01*
Y21309D01*
Y20980D01*
Y20651D01*
X275690D01*
Y20322D01*
Y19993D01*
Y19663D01*
Y19334D01*
Y19005D01*
X275361D01*
Y18676D01*
X275690D01*
Y18347D01*
X272398D01*
Y18676D01*
Y19005D01*
Y19334D01*
Y19663D01*
X272727D01*
Y19993D01*
X272398D01*
Y20322D01*
X272727D01*
Y20651D01*
Y20980D01*
Y21309D01*
X273057D01*
Y21639D01*
X272727D01*
Y21968D01*
X273057D01*
Y22297D01*
X272727D01*
Y22626D01*
X273057D01*
Y22955D01*
X272727D01*
Y23284D01*
X273057D01*
Y23614D01*
Y23943D01*
Y24272D01*
X273386D01*
Y24601D01*
X273057D01*
Y24930D01*
X273386D01*
Y25260D01*
Y25589D01*
Y25918D01*
X273715D01*
Y26247D01*
X273386D01*
Y26576D01*
X273715D01*
Y26906D01*
X274044D01*
Y26576D01*
X274374D01*
Y26906D01*
X274703D01*
Y26576D01*
X275032D01*
Y26906D01*
X275361D01*
Y26576D01*
X275690D01*
Y26906D01*
X276020D01*
Y26576D01*
X276349D01*
Y26906D01*
X276678D01*
Y26576D01*
X277007D01*
Y26906D01*
X277336D01*
Y26576D01*
X277665D01*
Y26906D01*
X277995D01*
Y26576D01*
X278324D01*
Y26906D01*
X278653D01*
Y26576D01*
X278982D01*
Y26906D01*
X279311D01*
Y26576D01*
X279641D01*
Y26906D01*
X279970D01*
Y26576D01*
X280299D01*
Y26906D01*
X280628D01*
Y26576D01*
D02*
G37*
G36*
X272069D02*
X272398D01*
Y26247D01*
X272069D01*
Y25918D01*
X272398D01*
Y25589D01*
X272069D01*
Y25260D01*
Y24930D01*
Y24601D01*
X271740D01*
Y24272D01*
X272069D01*
Y23943D01*
X271740D01*
Y23614D01*
Y23284D01*
Y22955D01*
X271411D01*
Y22626D01*
X271740D01*
Y22297D01*
X271411D01*
Y21968D01*
X271740D01*
Y21639D01*
X271411D01*
Y21309D01*
X271740D01*
Y20980D01*
X271411D01*
Y20651D01*
Y20322D01*
Y19993D01*
X271082D01*
Y19663D01*
X271411D01*
Y19334D01*
X271082D01*
Y19005D01*
Y18676D01*
Y18347D01*
X224336D01*
Y18676D01*
Y19005D01*
X224665D01*
Y19334D01*
X224336D01*
Y19663D01*
X224665D01*
Y19993D01*
Y20322D01*
Y20651D01*
X224995D01*
Y20980D01*
X224665D01*
Y21309D01*
X224995D01*
Y21639D01*
X224665D01*
Y21968D01*
X224995D01*
Y22297D01*
X224665D01*
Y22626D01*
X224995D01*
Y22955D01*
Y23284D01*
Y23614D01*
X225324D01*
Y23943D01*
X224995D01*
Y24272D01*
X225324D01*
Y24601D01*
Y24930D01*
Y25260D01*
X225653D01*
Y25589D01*
X225324D01*
Y25918D01*
X225653D01*
Y26247D01*
X225324D01*
Y26576D01*
X225653D01*
Y26906D01*
X225982D01*
Y26576D01*
X226311D01*
Y26906D01*
X226641D01*
Y26576D01*
X226970D01*
Y26906D01*
X227299D01*
Y26576D01*
X227628D01*
Y26906D01*
X227957D01*
Y26576D01*
X228287D01*
Y26906D01*
X228616D01*
Y26576D01*
X228945D01*
Y26906D01*
X229274D01*
Y26576D01*
X229603D01*
Y26906D01*
X229933D01*
Y26576D01*
X230262D01*
Y26906D01*
X230591D01*
Y26576D01*
X230920D01*
Y26906D01*
X231249D01*
Y26576D01*
X231578D01*
Y26906D01*
X231908D01*
Y26576D01*
X232237D01*
Y26906D01*
X232566D01*
Y26576D01*
X232895D01*
Y26906D01*
X233225D01*
Y26576D01*
X233554D01*
Y26906D01*
X233883D01*
Y26576D01*
X234212D01*
Y26906D01*
X234541D01*
Y26576D01*
X234871D01*
Y26906D01*
X235200D01*
Y26576D01*
X235529D01*
Y26906D01*
X235858D01*
Y26576D01*
X236187D01*
Y26906D01*
X236516D01*
Y26576D01*
X236846D01*
Y26906D01*
X237175D01*
Y26576D01*
X237504D01*
Y26906D01*
X237833D01*
Y26576D01*
X238162D01*
Y26906D01*
X238492D01*
Y26576D01*
X238821D01*
Y26906D01*
X239150D01*
Y26576D01*
X239479D01*
Y26906D01*
X239808D01*
Y26576D01*
X240138D01*
Y26906D01*
X240467D01*
Y26576D01*
X240796D01*
Y26906D01*
X241125D01*
Y26576D01*
X241454D01*
Y26906D01*
X241783D01*
Y26576D01*
X242113D01*
Y26906D01*
X242442D01*
Y26576D01*
X242771D01*
Y26906D01*
X243100D01*
Y26576D01*
X243429D01*
Y26906D01*
X243759D01*
Y26576D01*
X244088D01*
Y26906D01*
X244417D01*
Y26576D01*
X244746D01*
Y26906D01*
X245075D01*
Y26576D01*
X245405D01*
Y26906D01*
X245734D01*
Y26576D01*
X246063D01*
Y26906D01*
X246392D01*
Y26576D01*
X246721D01*
Y26906D01*
X247051D01*
Y26576D01*
X247380D01*
Y26906D01*
X247709D01*
Y26576D01*
X248038D01*
Y26906D01*
X248367D01*
Y26576D01*
X248696D01*
Y26906D01*
X249026D01*
Y26576D01*
X249355D01*
Y26906D01*
X249684D01*
Y26576D01*
X250013D01*
Y26906D01*
X250342D01*
Y26576D01*
X250672D01*
Y26906D01*
X251001D01*
Y26576D01*
X251330D01*
Y26906D01*
X251659D01*
Y26576D01*
X251988D01*
Y26906D01*
X252318D01*
Y26576D01*
X252647D01*
Y26906D01*
X252976D01*
Y26576D01*
X253305D01*
Y26906D01*
X253634D01*
Y26576D01*
X253964D01*
Y26906D01*
X254293D01*
Y26576D01*
X254622D01*
Y26906D01*
X254951D01*
Y26576D01*
X255280D01*
Y26906D01*
X255610D01*
Y26576D01*
X255939D01*
Y26906D01*
X256268D01*
Y26576D01*
X256597D01*
Y26906D01*
X256926D01*
Y26576D01*
X257256D01*
Y26906D01*
X257585D01*
Y26576D01*
X257914D01*
Y26906D01*
X258243D01*
Y26576D01*
X258572D01*
Y26906D01*
X258902D01*
Y26576D01*
X259231D01*
Y26906D01*
X259560D01*
Y26576D01*
X259889D01*
Y26906D01*
X260218D01*
Y26576D01*
X260547D01*
Y26906D01*
X260877D01*
Y26576D01*
X261206D01*
Y26906D01*
X261535D01*
Y26576D01*
X261864D01*
Y26906D01*
X262193D01*
Y26576D01*
X262523D01*
Y26906D01*
X262852D01*
Y26576D01*
X263181D01*
Y26906D01*
X263510D01*
Y26576D01*
X263839D01*
Y26906D01*
X264169D01*
Y26576D01*
X264498D01*
Y26906D01*
X264827D01*
Y26576D01*
X265156D01*
Y26906D01*
X265485D01*
Y26576D01*
X265814D01*
Y26906D01*
X266144D01*
Y26576D01*
X266473D01*
Y26906D01*
X266802D01*
Y26576D01*
X267131D01*
Y26906D01*
X267460D01*
Y26576D01*
X267790D01*
Y26906D01*
X268119D01*
Y26576D01*
X268448D01*
Y26906D01*
X268777D01*
Y26576D01*
X269106D01*
Y26906D01*
X269436D01*
Y26576D01*
X269765D01*
Y26906D01*
X270094D01*
Y26576D01*
X270423D01*
Y26906D01*
X270752D01*
Y26576D01*
X271082D01*
Y26906D01*
X271411D01*
Y26576D01*
X271740D01*
Y26906D01*
X272069D01*
Y26576D01*
D02*
G37*
G36*
X329349Y17359D02*
X330336D01*
Y17030D01*
X330007D01*
Y16701D01*
X330336D01*
Y16371D01*
X330007D01*
Y16042D01*
Y15713D01*
Y15384D01*
Y15055D01*
Y14726D01*
X329678D01*
Y14396D01*
X330007D01*
Y14067D01*
X329678D01*
Y13738D01*
Y13409D01*
Y13080D01*
Y12750D01*
Y12421D01*
X329349D01*
Y12750D01*
X329019D01*
Y12421D01*
X328690D01*
Y12750D01*
X328361D01*
Y12421D01*
X328032D01*
Y12750D01*
X327703D01*
Y12421D01*
X327373D01*
Y12750D01*
X327044D01*
Y12421D01*
X326715D01*
Y12750D01*
X326386D01*
Y12421D01*
X326057D01*
Y12750D01*
X325727D01*
Y12421D01*
X325398D01*
Y12750D01*
X325069D01*
Y12421D01*
X324740D01*
Y12750D01*
X324411D01*
Y12421D01*
X324081D01*
Y12750D01*
X323752D01*
Y12421D01*
X323423D01*
Y12750D01*
X323094D01*
Y12421D01*
X322765D01*
Y12750D01*
X322435D01*
Y12421D01*
X322106D01*
Y12750D01*
X321777D01*
Y12421D01*
X321448D01*
Y12750D01*
X321119D01*
Y12421D01*
X320790D01*
Y12750D01*
X320460D01*
Y12421D01*
X320131D01*
Y12750D01*
X319802D01*
Y12421D01*
X319473D01*
Y12750D01*
X319144D01*
Y12421D01*
X318814D01*
Y12750D01*
X318485D01*
Y12421D01*
X318156D01*
Y12750D01*
X317827D01*
Y12421D01*
X317498D01*
Y12750D01*
X317168D01*
Y12421D01*
X316839D01*
Y12750D01*
X316510D01*
Y12421D01*
X316181D01*
Y12750D01*
X315852D01*
Y12421D01*
X315523D01*
Y12750D01*
X315193D01*
Y12421D01*
X314864D01*
Y12750D01*
X314535D01*
Y12421D01*
X314206D01*
Y12750D01*
X313877D01*
Y12421D01*
X313547D01*
Y12750D01*
X313218D01*
Y12421D01*
X312889D01*
Y12750D01*
X312560D01*
Y12421D01*
X312231D01*
Y12750D01*
X311901D01*
Y12421D01*
X311572D01*
Y12750D01*
X311243D01*
Y12421D01*
X310914D01*
Y12750D01*
X310585D01*
Y12421D01*
X310255D01*
Y12750D01*
X309926D01*
Y12421D01*
X309597D01*
Y12750D01*
X309268D01*
Y12421D01*
X308939D01*
Y12750D01*
X308610D01*
Y12421D01*
X308280D01*
Y12750D01*
X307951D01*
Y12421D01*
X307622D01*
Y12750D01*
X307293D01*
Y12421D01*
X306963D01*
Y12750D01*
X306634D01*
Y12421D01*
X306305D01*
Y12750D01*
X305976D01*
Y12421D01*
X305647D01*
Y12750D01*
X305317D01*
Y12421D01*
X304988D01*
Y12750D01*
X304659D01*
Y12421D01*
X304330D01*
Y12750D01*
X304001D01*
Y12421D01*
X303672D01*
Y12750D01*
X303342D01*
Y12421D01*
X303013D01*
Y12750D01*
X302684D01*
Y12421D01*
X302355D01*
Y12750D01*
X302026D01*
Y12421D01*
X301696D01*
Y12750D01*
X301367D01*
Y12421D01*
X301038D01*
Y12750D01*
X300709D01*
Y12421D01*
X300380D01*
Y12750D01*
X300050D01*
Y12421D01*
X299721D01*
Y12750D01*
X299392D01*
Y12421D01*
X299063D01*
Y12750D01*
X298734D01*
Y12421D01*
X298405D01*
Y12750D01*
X298075D01*
Y12421D01*
X297746D01*
Y12750D01*
X297417D01*
Y12421D01*
X297088D01*
Y12750D01*
X296759D01*
Y12421D01*
X296429D01*
Y12750D01*
X296100D01*
Y12421D01*
X295771D01*
Y12750D01*
X295442D01*
Y12421D01*
X295113D01*
Y12750D01*
X294783D01*
Y12421D01*
X294454D01*
Y12750D01*
X294125D01*
Y12421D01*
X293796D01*
Y12750D01*
X293467D01*
Y12421D01*
X293137D01*
Y12750D01*
X292808D01*
Y12421D01*
X292479D01*
Y12750D01*
X292150D01*
Y12421D01*
X291821D01*
Y12750D01*
X291492D01*
Y12421D01*
X291162D01*
Y12750D01*
X290833D01*
Y12421D01*
X290504D01*
Y12750D01*
X290175D01*
Y12421D01*
X289845D01*
Y12750D01*
X289516D01*
Y12421D01*
X289187D01*
Y12750D01*
X288858D01*
Y12421D01*
X288529D01*
Y12750D01*
X288200D01*
Y12421D01*
X287870D01*
Y12750D01*
X287541D01*
Y12421D01*
X287212D01*
Y12750D01*
X286883D01*
Y12421D01*
X286554D01*
Y12750D01*
X286224D01*
Y12421D01*
X285895D01*
Y12750D01*
X285566D01*
Y12421D01*
X285237D01*
Y12750D01*
X284908D01*
Y12421D01*
X284578D01*
Y12750D01*
X284249D01*
Y12421D01*
X283920D01*
Y12750D01*
X283591D01*
Y12421D01*
X283262D01*
Y12750D01*
X282932D01*
Y12421D01*
X282603D01*
Y12750D01*
X282274D01*
Y12421D01*
X281945D01*
Y12750D01*
X281616D01*
Y12421D01*
X281287D01*
Y12750D01*
X280957D01*
Y12421D01*
X280628D01*
Y12750D01*
X280299D01*
Y12421D01*
X279970D01*
Y12750D01*
X279641D01*
Y12421D01*
X279311D01*
Y12750D01*
X278982D01*
Y12421D01*
X278653D01*
Y12750D01*
X278324D01*
Y12421D01*
X277995D01*
Y12750D01*
X277665D01*
Y12421D01*
X277336D01*
Y12750D01*
X277007D01*
Y12421D01*
X276678D01*
Y12750D01*
X276349D01*
Y12421D01*
X276020D01*
Y12750D01*
X275690D01*
Y12421D01*
X275361D01*
Y12750D01*
X275032D01*
Y12421D01*
X274703D01*
Y12750D01*
X274374D01*
Y12421D01*
X274044D01*
Y12750D01*
X273715D01*
Y12421D01*
X273386D01*
Y12750D01*
X273057D01*
Y12421D01*
X272727D01*
Y12750D01*
X272398D01*
Y12421D01*
X272069D01*
Y12750D01*
X271740D01*
Y13080D01*
X271411D01*
Y13409D01*
X271740D01*
Y13738D01*
Y14067D01*
Y14396D01*
Y14726D01*
Y15055D01*
X272069D01*
Y15384D01*
X271740D01*
Y15713D01*
X272069D01*
Y16042D01*
Y16371D01*
Y16701D01*
X272398D01*
Y17030D01*
X272069D01*
Y17359D01*
X272398D01*
Y17688D01*
X272727D01*
Y17359D01*
X273715D01*
Y17688D01*
X274044D01*
Y17359D01*
X275032D01*
Y17688D01*
X275361D01*
Y17359D01*
X276349D01*
Y17688D01*
X276678D01*
Y17359D01*
X277665D01*
Y17688D01*
X277995D01*
Y17359D01*
X278982D01*
Y17688D01*
X279311D01*
Y17359D01*
X280299D01*
Y17688D01*
X280628D01*
Y17359D01*
X281616D01*
Y17688D01*
X281945D01*
Y17359D01*
X282932D01*
Y17688D01*
X283262D01*
Y17359D01*
X284249D01*
Y17688D01*
X284578D01*
Y17359D01*
X285566D01*
Y17688D01*
X285895D01*
Y17359D01*
X286883D01*
Y17688D01*
X287212D01*
Y17359D01*
X288200D01*
Y17688D01*
X288529D01*
Y17359D01*
X289516D01*
Y17688D01*
X289845D01*
Y17359D01*
X290833D01*
Y17688D01*
X291162D01*
Y17359D01*
X292150D01*
Y17688D01*
X292479D01*
Y17359D01*
X293467D01*
Y17688D01*
X293796D01*
Y17359D01*
X294783D01*
Y17688D01*
X295113D01*
Y17359D01*
X296100D01*
Y17688D01*
X296429D01*
Y17359D01*
X297417D01*
Y17688D01*
X297746D01*
Y17359D01*
X298734D01*
Y17688D01*
X299063D01*
Y17359D01*
X300050D01*
Y17688D01*
X300380D01*
Y17359D01*
X301367D01*
Y17688D01*
X301696D01*
Y17359D01*
X302684D01*
Y17688D01*
X303013D01*
Y17359D01*
X304001D01*
Y17688D01*
X304330D01*
Y17359D01*
X305317D01*
Y17688D01*
X305647D01*
Y17359D01*
X306634D01*
Y17688D01*
X306963D01*
Y17359D01*
X307951D01*
Y17688D01*
X308280D01*
Y17359D01*
X309268D01*
Y17688D01*
X309597D01*
Y17359D01*
X310585D01*
Y17688D01*
X310914D01*
Y17359D01*
X311901D01*
Y17688D01*
X312231D01*
Y17359D01*
X313218D01*
Y17688D01*
X313547D01*
Y17359D01*
X314535D01*
Y17688D01*
X314864D01*
Y17359D01*
X315852D01*
Y17688D01*
X316181D01*
Y17359D01*
X317168D01*
Y17688D01*
X317498D01*
Y17359D01*
X318485D01*
Y17688D01*
X318814D01*
Y17359D01*
X319802D01*
Y17688D01*
X320131D01*
Y17359D01*
X321119D01*
Y17688D01*
X321448D01*
Y17359D01*
X322435D01*
Y17688D01*
X322765D01*
Y17359D01*
X323752D01*
Y17688D01*
X324081D01*
Y17359D01*
X325069D01*
Y17688D01*
X325398D01*
Y17359D01*
X326386D01*
Y17688D01*
X326715D01*
Y17359D01*
X327703D01*
Y17688D01*
X328032D01*
Y17359D01*
X329019D01*
Y17688D01*
X329349D01*
Y17359D01*
D02*
G37*
G36*
X270752D02*
X271082D01*
Y17030D01*
X270752D01*
Y16701D01*
X271082D01*
Y16371D01*
X270752D01*
Y16042D01*
Y15713D01*
Y15384D01*
X270423D01*
Y15055D01*
X268119D01*
Y15384D01*
Y15713D01*
Y16042D01*
X268448D01*
Y16371D01*
X268119D01*
Y16701D01*
X268448D01*
Y17030D01*
X268119D01*
Y17359D01*
X268448D01*
Y17688D01*
X268777D01*
Y17359D01*
X269106D01*
Y17688D01*
X269436D01*
Y17359D01*
X269765D01*
Y17688D01*
X270094D01*
Y17359D01*
X270423D01*
Y17688D01*
X270752D01*
Y17359D01*
D02*
G37*
G36*
X265485D02*
X265814D01*
Y17030D01*
X265485D01*
Y16701D01*
X265814D01*
Y16371D01*
X265485D01*
Y16042D01*
X265814D01*
Y15713D01*
X265485D01*
Y15384D01*
X265814D01*
Y15055D01*
X266802D01*
Y15384D01*
X267131D01*
Y15055D01*
X268119D01*
Y14726D01*
X267790D01*
Y14396D01*
X268119D01*
Y14067D01*
X267790D01*
Y13738D01*
Y13409D01*
Y13080D01*
Y12750D01*
Y12421D01*
X267460D01*
Y12750D01*
X267131D01*
Y12421D01*
X266802D01*
Y12750D01*
X266473D01*
Y12421D01*
X266144D01*
Y12750D01*
X265814D01*
Y12421D01*
X265485D01*
Y12750D01*
X265156D01*
Y13080D01*
Y13409D01*
Y13738D01*
X265485D01*
Y14067D01*
X265156D01*
Y14396D01*
X265485D01*
Y14726D01*
Y15055D01*
X262852D01*
Y15384D01*
X263181D01*
Y15713D01*
X262852D01*
Y16042D01*
X263181D01*
Y16371D01*
X262852D01*
Y16701D01*
X263181D01*
Y17030D01*
X262852D01*
Y17359D01*
X263181D01*
Y17688D01*
X263510D01*
Y17359D01*
X263839D01*
Y17688D01*
X264169D01*
Y17359D01*
X264498D01*
Y17688D01*
X264827D01*
Y17359D01*
X265156D01*
Y17688D01*
X265485D01*
Y17359D01*
D02*
G37*
G36*
X260218D02*
X260547D01*
Y17030D01*
X260218D01*
Y16701D01*
X260547D01*
Y16371D01*
X260218D01*
Y16042D01*
X260547D01*
Y15713D01*
X260218D01*
Y15384D01*
X260547D01*
Y15055D01*
X261535D01*
Y15384D01*
X261864D01*
Y15055D01*
X262852D01*
Y14726D01*
Y14396D01*
Y14067D01*
X262523D01*
Y13738D01*
X262852D01*
Y13409D01*
X262523D01*
Y13080D01*
Y12750D01*
Y12421D01*
X262193D01*
Y12750D01*
X261864D01*
Y12421D01*
X261535D01*
Y12750D01*
X261206D01*
Y12421D01*
X260877D01*
Y12750D01*
X260547D01*
Y12421D01*
X260218D01*
Y12750D01*
X259889D01*
Y13080D01*
Y13409D01*
Y13738D01*
X260218D01*
Y14067D01*
Y14396D01*
Y14726D01*
Y15055D01*
X257585D01*
Y15384D01*
X257914D01*
Y15713D01*
X257585D01*
Y16042D01*
X257914D01*
Y16371D01*
X257585D01*
Y16701D01*
X257914D01*
Y17030D01*
Y17359D01*
Y17688D01*
X258243D01*
Y17359D01*
X258572D01*
Y17688D01*
X258902D01*
Y17359D01*
X259231D01*
Y17688D01*
X259560D01*
Y17359D01*
X259889D01*
Y17688D01*
X260218D01*
Y17359D01*
D02*
G37*
G36*
X254951D02*
X255280D01*
Y17030D01*
Y16701D01*
Y16371D01*
Y16042D01*
Y15713D01*
X254951D01*
Y15384D01*
X255280D01*
Y15055D01*
X256268D01*
Y15384D01*
X256597D01*
Y15055D01*
X257585D01*
Y14726D01*
Y14396D01*
Y14067D01*
Y13738D01*
Y13409D01*
X257256D01*
Y13080D01*
X257585D01*
Y12750D01*
X257256D01*
Y12421D01*
X256926D01*
Y12750D01*
X256597D01*
Y12421D01*
X256268D01*
Y12750D01*
X255939D01*
Y12421D01*
X255610D01*
Y12750D01*
X255280D01*
Y12421D01*
X254951D01*
Y12750D01*
X254622D01*
Y13080D01*
X254951D01*
Y13409D01*
Y13738D01*
Y14067D01*
X255280D01*
Y14396D01*
X254951D01*
Y14726D01*
X255280D01*
Y15055D01*
X252318D01*
Y15384D01*
X252647D01*
Y15713D01*
X252318D01*
Y16042D01*
X252647D01*
Y16371D01*
X252318D01*
Y16701D01*
X252647D01*
Y17030D01*
Y17359D01*
Y17688D01*
X252976D01*
Y17359D01*
X253305D01*
Y17688D01*
X253634D01*
Y17359D01*
X253964D01*
Y17688D01*
X254293D01*
Y17359D01*
X254622D01*
Y17688D01*
X254951D01*
Y17359D01*
D02*
G37*
G36*
X249684D02*
X250013D01*
Y17030D01*
Y16701D01*
Y16371D01*
Y16042D01*
Y15713D01*
X249684D01*
Y15384D01*
X250013D01*
Y15055D01*
X251001D01*
Y15384D01*
X251330D01*
Y15055D01*
X252318D01*
Y14726D01*
X252647D01*
Y14396D01*
X252318D01*
Y14067D01*
X252647D01*
Y13738D01*
X252318D01*
Y13409D01*
Y13080D01*
Y12750D01*
X251988D01*
Y12421D01*
X251659D01*
Y12750D01*
X251330D01*
Y12421D01*
X251001D01*
Y12750D01*
X250672D01*
Y12421D01*
X250342D01*
Y12750D01*
X250013D01*
Y12421D01*
X249684D01*
Y12750D01*
X249355D01*
Y13080D01*
X249684D01*
Y13409D01*
Y13738D01*
Y14067D01*
X250013D01*
Y14396D01*
X249684D01*
Y14726D01*
X250013D01*
Y15055D01*
X247051D01*
Y15384D01*
X247380D01*
Y15713D01*
Y16042D01*
Y16371D01*
Y16701D01*
Y17030D01*
X247709D01*
Y17359D01*
X248038D01*
Y17688D01*
X248367D01*
Y17359D01*
X248696D01*
Y17688D01*
X249026D01*
Y17359D01*
X249355D01*
Y17688D01*
X249684D01*
Y17359D01*
D02*
G37*
G36*
X245075D02*
Y17030D01*
Y16701D01*
X244746D01*
Y16371D01*
Y16042D01*
Y15713D01*
X244417D01*
Y15384D01*
X244746D01*
Y15055D01*
X245734D01*
Y15384D01*
X246063D01*
Y15055D01*
X247051D01*
Y14726D01*
X247380D01*
Y14396D01*
X247051D01*
Y14067D01*
X247380D01*
Y13738D01*
X247051D01*
Y13409D01*
Y13080D01*
Y12750D01*
X246721D01*
Y12421D01*
X246392D01*
Y12750D01*
X246063D01*
Y12421D01*
X245734D01*
Y12750D01*
X245405D01*
Y12421D01*
X245075D01*
Y12750D01*
X244746D01*
Y12421D01*
X244417D01*
Y12750D01*
Y13080D01*
Y13409D01*
Y13738D01*
Y14067D01*
X244746D01*
Y14396D01*
X244417D01*
Y14726D01*
X244746D01*
Y15055D01*
X242113D01*
Y14726D01*
Y14396D01*
X241783D01*
Y14067D01*
X242113D01*
Y13738D01*
X241783D01*
Y13409D01*
Y13080D01*
Y12750D01*
X242113D01*
Y12421D01*
X241783D01*
Y12750D01*
X241454D01*
Y12421D01*
X241125D01*
Y12750D01*
X240796D01*
Y12421D01*
X240467D01*
Y12750D01*
X240138D01*
Y12421D01*
X239808D01*
Y12750D01*
X239479D01*
Y13080D01*
X239150D01*
Y13409D01*
X239479D01*
Y13738D01*
X239150D01*
Y14067D01*
X239479D01*
Y14396D01*
X239150D01*
Y14726D01*
X239479D01*
Y15055D01*
X236846D01*
Y14726D01*
Y14396D01*
X236516D01*
Y14067D01*
X236846D01*
Y13738D01*
X236516D01*
Y13409D01*
X236846D01*
Y13080D01*
X236516D01*
Y12750D01*
X236846D01*
Y12421D01*
X236516D01*
Y12750D01*
X236187D01*
Y12421D01*
X235858D01*
Y12750D01*
X235529D01*
Y12421D01*
X235200D01*
Y12750D01*
X234871D01*
Y12421D01*
X234541D01*
Y12750D01*
X234212D01*
Y13080D01*
X233883D01*
Y13409D01*
X234212D01*
Y13738D01*
X233883D01*
Y14067D01*
X234212D01*
Y14396D01*
Y14726D01*
Y15055D01*
X231908D01*
Y14726D01*
X231578D01*
Y14396D01*
Y14067D01*
Y13738D01*
X231249D01*
Y13409D01*
X231578D01*
Y13080D01*
X231249D01*
Y12750D01*
X231578D01*
Y12421D01*
X231249D01*
Y12750D01*
X230920D01*
Y12421D01*
X230591D01*
Y12750D01*
X230262D01*
Y12421D01*
X229933D01*
Y12750D01*
X229603D01*
Y12421D01*
X229274D01*
Y12750D01*
X228945D01*
Y13080D01*
X228616D01*
Y13409D01*
X228945D01*
Y13738D01*
X228616D01*
Y14067D01*
X228945D01*
Y14396D01*
Y14726D01*
Y15055D01*
X226641D01*
Y15384D01*
Y15713D01*
Y16042D01*
X226970D01*
Y16371D01*
X226641D01*
Y16701D01*
X226970D01*
Y17030D01*
X226641D01*
Y17359D01*
X226970D01*
Y17688D01*
X227299D01*
Y17359D01*
X227628D01*
Y17688D01*
X227957D01*
Y17359D01*
X228287D01*
Y17688D01*
X228616D01*
Y17359D01*
X228945D01*
Y17688D01*
X229274D01*
Y17359D01*
X229603D01*
Y17030D01*
X229274D01*
Y16701D01*
Y16371D01*
Y16042D01*
Y15713D01*
Y15384D01*
Y15055D01*
X229933D01*
Y15384D01*
X230262D01*
Y15055D01*
X231249D01*
Y15384D01*
X231908D01*
Y15713D01*
Y16042D01*
Y16371D01*
Y16701D01*
Y17030D01*
Y17359D01*
X232237D01*
Y17688D01*
X232566D01*
Y17359D01*
X232895D01*
Y17688D01*
X233225D01*
Y17359D01*
X233554D01*
Y17688D01*
X233883D01*
Y17359D01*
X234212D01*
Y17688D01*
X234541D01*
Y17359D01*
X234871D01*
Y17030D01*
X234541D01*
Y16701D01*
Y16371D01*
Y16042D01*
X234212D01*
Y15713D01*
X234541D01*
Y15384D01*
X234212D01*
Y15055D01*
X235200D01*
Y15384D01*
X235529D01*
Y15055D01*
X236516D01*
Y15384D01*
X236846D01*
Y15713D01*
X237175D01*
Y16042D01*
X236846D01*
Y16371D01*
X237175D01*
Y16701D01*
Y17030D01*
Y17359D01*
X237504D01*
Y17688D01*
X237833D01*
Y17359D01*
X238162D01*
Y17688D01*
X238492D01*
Y17359D01*
X238821D01*
Y17688D01*
X239150D01*
Y17359D01*
X239479D01*
Y17688D01*
X239808D01*
Y17359D01*
Y17030D01*
Y16701D01*
Y16371D01*
Y16042D01*
X239479D01*
Y15713D01*
Y15384D01*
Y15055D01*
X240467D01*
Y15384D01*
X240796D01*
Y15055D01*
X241783D01*
Y15384D01*
X242113D01*
Y15713D01*
Y16042D01*
Y16371D01*
X242442D01*
Y16701D01*
Y17030D01*
Y17359D01*
X242771D01*
Y17688D01*
X243100D01*
Y17359D01*
X243429D01*
Y17688D01*
X243759D01*
Y17359D01*
X244088D01*
Y17688D01*
X244417D01*
Y17359D01*
X244746D01*
Y17688D01*
X245075D01*
Y17359D01*
D02*
G37*
G36*
X226311Y15055D02*
X226641D01*
Y14726D01*
X226311D01*
Y14396D01*
Y14067D01*
Y13738D01*
Y13409D01*
Y13080D01*
X225982D01*
Y12750D01*
X226311D01*
Y12421D01*
X225982D01*
Y12750D01*
X225653D01*
Y12421D01*
X225324D01*
Y12750D01*
X224995D01*
Y12421D01*
X224665D01*
Y12750D01*
X224336D01*
Y12421D01*
X224007D01*
Y12750D01*
X223678D01*
Y13080D01*
Y13409D01*
Y13738D01*
Y14067D01*
Y14396D01*
X224007D01*
Y14726D01*
X223678D01*
Y15055D01*
X224665D01*
Y15384D01*
X224995D01*
Y15055D01*
X225982D01*
Y15384D01*
X226311D01*
Y15055D01*
D02*
G37*
G36*
X328690Y10775D02*
Y10446D01*
X327373D01*
Y10117D01*
X327044D01*
Y9788D01*
X326057D01*
Y9458D01*
X325727D01*
Y9129D01*
X324740D01*
Y8800D01*
X323752D01*
Y9129D01*
X323423D01*
Y8800D01*
X322435D01*
Y9129D01*
X322765D01*
Y9458D01*
X323752D01*
Y9788D01*
X324081D01*
Y10117D01*
X324411D01*
Y9788D01*
X324740D01*
Y10117D01*
X325069D01*
Y10446D01*
X326057D01*
Y10775D01*
X327044D01*
Y11104D01*
X327373D01*
Y10775D01*
X327703D01*
Y11104D01*
X328032D01*
Y10775D01*
X328361D01*
Y11104D01*
X328690D01*
Y10775D01*
D02*
G37*
G36*
X323423D02*
X323752D01*
Y10446D01*
X322765D01*
Y10117D01*
X322435D01*
Y9788D01*
X322106D01*
Y10117D01*
X321777D01*
Y9788D01*
X321448D01*
Y9458D01*
X320460D01*
Y9129D01*
X319473D01*
Y8800D01*
X319144D01*
Y9129D01*
X318814D01*
Y8800D01*
X318485D01*
Y9129D01*
X318156D01*
Y8800D01*
X317827D01*
Y9129D01*
X317498D01*
Y9458D01*
X318485D01*
Y9788D01*
X318814D01*
Y9458D01*
X319144D01*
Y9788D01*
X319473D01*
Y10117D01*
X320460D01*
Y10446D01*
X320790D01*
Y10775D01*
X321777D01*
Y11104D01*
X322106D01*
Y10775D01*
X322435D01*
Y11104D01*
X322765D01*
Y10775D01*
X323094D01*
Y11104D01*
X323423D01*
Y10775D01*
D02*
G37*
G36*
X318156D02*
X318485D01*
Y10446D01*
X317498D01*
Y10117D01*
X317168D01*
Y9788D01*
X316181D01*
Y9458D01*
X315193D01*
Y9129D01*
X304330D01*
Y9458D01*
X304001D01*
Y9129D01*
X303013D01*
Y9458D01*
X302684D01*
Y9129D01*
X302355D01*
Y9458D01*
X302026D01*
Y9129D01*
X301696D01*
Y9458D01*
X301367D01*
Y9129D01*
X301038D01*
Y9458D01*
X300709D01*
Y9129D01*
X300380D01*
Y9458D01*
X300050D01*
Y9129D01*
X299721D01*
Y9458D01*
X299392D01*
Y9129D01*
X299063D01*
Y9458D01*
X298734D01*
Y9129D01*
X298405D01*
Y9458D01*
X298075D01*
Y9129D01*
X297746D01*
Y9458D01*
X297417D01*
Y9129D01*
X297088D01*
Y9458D01*
X296759D01*
Y9129D01*
X296429D01*
Y9458D01*
X295442D01*
Y9129D01*
X295113D01*
Y9458D01*
X292808D01*
Y9788D01*
X292479D01*
Y9458D01*
X291492D01*
Y9788D01*
X291162D01*
Y9458D01*
X290175D01*
Y9788D01*
X289845D01*
Y9458D01*
X289516D01*
Y9788D01*
X289187D01*
Y9458D01*
X288858D01*
Y9788D01*
X288529D01*
Y9458D01*
X288200D01*
Y9788D01*
X287870D01*
Y9458D01*
X287541D01*
Y9788D01*
X287212D01*
Y9458D01*
X286883D01*
Y9788D01*
X286554D01*
Y9458D01*
X286224D01*
Y9788D01*
X285895D01*
Y9458D01*
X285566D01*
Y9788D01*
X285237D01*
Y9458D01*
X284908D01*
Y9788D01*
X284578D01*
Y9458D01*
X284249D01*
Y9788D01*
X272069D01*
Y10117D01*
X271740D01*
Y9788D01*
X271411D01*
Y10117D01*
X271082D01*
Y9788D01*
X270752D01*
Y10117D01*
X270423D01*
Y9788D01*
X270094D01*
Y10117D01*
X269765D01*
Y9788D01*
X269436D01*
Y10117D01*
X269106D01*
Y9788D01*
X268777D01*
Y10117D01*
X268448D01*
Y9788D01*
X268119D01*
Y10117D01*
X267790D01*
Y9788D01*
X267460D01*
Y10117D01*
X267131D01*
Y9788D01*
X266802D01*
Y10117D01*
X266473D01*
Y9788D01*
X266144D01*
Y10117D01*
X265814D01*
Y9788D01*
X265485D01*
Y10117D01*
X264498D01*
Y9788D01*
X264169D01*
Y10117D01*
X263181D01*
Y10446D01*
X262852D01*
Y10117D01*
X263181D01*
Y9788D01*
X262852D01*
Y10117D01*
X261864D01*
Y10446D01*
X261535D01*
Y10117D01*
X261206D01*
Y10446D01*
X260877D01*
Y10117D01*
X260547D01*
Y10446D01*
X260218D01*
Y10117D01*
X259889D01*
Y10446D01*
X259560D01*
Y10117D01*
X259231D01*
Y10446D01*
X258902D01*
Y10117D01*
X258572D01*
Y10446D01*
X258243D01*
Y10117D01*
X257914D01*
Y10446D01*
X257585D01*
Y10117D01*
X257256D01*
Y10446D01*
X256926D01*
Y10117D01*
X256597D01*
Y10446D01*
X256268D01*
Y10117D01*
X255939D01*
Y10446D01*
X255610D01*
Y10117D01*
X255280D01*
Y10446D01*
X254951D01*
Y10117D01*
X254622D01*
Y10446D01*
X253634D01*
Y10117D01*
X253305D01*
Y10446D01*
X242442D01*
Y10775D01*
X242113D01*
Y11104D01*
X242442D01*
Y10775D01*
X242771D01*
Y11104D01*
X243100D01*
Y10775D01*
X243429D01*
Y11104D01*
X243759D01*
Y10775D01*
X244088D01*
Y11104D01*
X244417D01*
Y10775D01*
X244746D01*
Y11104D01*
X245075D01*
Y10775D01*
X245405D01*
Y11104D01*
X245734D01*
Y10775D01*
X246063D01*
Y11104D01*
X246392D01*
Y10775D01*
X246721D01*
Y11104D01*
X247051D01*
Y10775D01*
X247380D01*
Y11104D01*
X247709D01*
Y10775D01*
X248038D01*
Y11104D01*
X248367D01*
Y10775D01*
X248696D01*
Y11104D01*
X249026D01*
Y10775D01*
X249355D01*
Y11104D01*
X249684D01*
Y10775D01*
X250013D01*
Y11104D01*
X250342D01*
Y10775D01*
X250672D01*
Y11104D01*
X251001D01*
Y10775D01*
X251330D01*
Y11104D01*
X251659D01*
Y10775D01*
X251988D01*
Y11104D01*
X252318D01*
Y10775D01*
X252647D01*
Y11104D01*
X252976D01*
Y10775D01*
X253305D01*
Y11104D01*
X253634D01*
Y10775D01*
X253964D01*
Y11104D01*
X254293D01*
Y10775D01*
X254622D01*
Y11104D01*
X254951D01*
Y10775D01*
X255280D01*
Y11104D01*
X255610D01*
Y10775D01*
X255939D01*
Y11104D01*
X256268D01*
Y10775D01*
X256597D01*
Y11104D01*
X256926D01*
Y10775D01*
X257256D01*
Y11104D01*
X257585D01*
Y10775D01*
X257914D01*
Y11104D01*
X258243D01*
Y10775D01*
X258572D01*
Y11104D01*
X258902D01*
Y10775D01*
X259231D01*
Y11104D01*
X259560D01*
Y10775D01*
X259889D01*
Y11104D01*
X260218D01*
Y10775D01*
X260547D01*
Y11104D01*
X260877D01*
Y10775D01*
X261206D01*
Y11104D01*
X261535D01*
Y10775D01*
X261864D01*
Y11104D01*
X262193D01*
Y10775D01*
X262523D01*
Y11104D01*
X262852D01*
Y10775D01*
X263181D01*
Y11104D01*
X263510D01*
Y10775D01*
X263839D01*
Y11104D01*
X264169D01*
Y10775D01*
X264498D01*
Y11104D01*
X264827D01*
Y10775D01*
X265156D01*
Y11104D01*
X265485D01*
Y10775D01*
X265814D01*
Y11104D01*
X266144D01*
Y10775D01*
X266473D01*
Y11104D01*
X266802D01*
Y10775D01*
X267131D01*
Y11104D01*
X267460D01*
Y10775D01*
X267790D01*
Y11104D01*
X268119D01*
Y10775D01*
X268448D01*
Y11104D01*
X268777D01*
Y10775D01*
X269106D01*
Y11104D01*
X269436D01*
Y10775D01*
X269765D01*
Y11104D01*
X270094D01*
Y10775D01*
X270423D01*
Y11104D01*
X270752D01*
Y10775D01*
X271082D01*
Y11104D01*
X271411D01*
Y10775D01*
X271740D01*
Y11104D01*
X272069D01*
Y10775D01*
X272398D01*
Y11104D01*
X272727D01*
Y10775D01*
X273057D01*
Y11104D01*
X273386D01*
Y10775D01*
X273715D01*
Y11104D01*
X274044D01*
Y10775D01*
X274374D01*
Y11104D01*
X274703D01*
Y10775D01*
X275032D01*
Y11104D01*
X275361D01*
Y10775D01*
X275690D01*
Y11104D01*
X276020D01*
Y10775D01*
X276349D01*
Y11104D01*
X276678D01*
Y10775D01*
X277007D01*
Y11104D01*
X277336D01*
Y10775D01*
X277665D01*
Y11104D01*
X277995D01*
Y10775D01*
X278324D01*
Y11104D01*
X278653D01*
Y10775D01*
X278982D01*
Y11104D01*
X279311D01*
Y10775D01*
X279641D01*
Y11104D01*
X279970D01*
Y10775D01*
X280299D01*
Y11104D01*
X280628D01*
Y10775D01*
X280957D01*
Y11104D01*
X281287D01*
Y10775D01*
X281616D01*
Y11104D01*
X281945D01*
Y10775D01*
X282274D01*
Y11104D01*
X282603D01*
Y10775D01*
X282932D01*
Y11104D01*
X283262D01*
Y10775D01*
X283591D01*
Y11104D01*
X283920D01*
Y10775D01*
X284249D01*
Y11104D01*
X284578D01*
Y10775D01*
X284908D01*
Y11104D01*
X285237D01*
Y10775D01*
X285566D01*
Y11104D01*
X285895D01*
Y10775D01*
X286224D01*
Y11104D01*
X286554D01*
Y10775D01*
X286883D01*
Y11104D01*
X287212D01*
Y10775D01*
X287541D01*
Y11104D01*
X287870D01*
Y10775D01*
X288200D01*
Y11104D01*
X288529D01*
Y10775D01*
X288858D01*
Y11104D01*
X289187D01*
Y10775D01*
X289516D01*
Y11104D01*
X289845D01*
Y10775D01*
X290175D01*
Y11104D01*
X290504D01*
Y10775D01*
X290833D01*
Y11104D01*
X291162D01*
Y10775D01*
X291492D01*
Y11104D01*
X291821D01*
Y10775D01*
X292150D01*
Y11104D01*
X292479D01*
Y10775D01*
X292808D01*
Y11104D01*
X293137D01*
Y10775D01*
X293467D01*
Y11104D01*
X293796D01*
Y10775D01*
X294125D01*
Y11104D01*
X294454D01*
Y10775D01*
X294783D01*
Y11104D01*
X295113D01*
Y10775D01*
X295442D01*
Y11104D01*
X295771D01*
Y10775D01*
X296100D01*
Y11104D01*
X296429D01*
Y10775D01*
X296759D01*
Y11104D01*
X297088D01*
Y10775D01*
X297417D01*
Y11104D01*
X297746D01*
Y10775D01*
X298075D01*
Y11104D01*
X298405D01*
Y10775D01*
X298734D01*
Y11104D01*
X299063D01*
Y10775D01*
X299392D01*
Y11104D01*
X299721D01*
Y10775D01*
X300050D01*
Y11104D01*
X300380D01*
Y10775D01*
X300709D01*
Y11104D01*
X301038D01*
Y10775D01*
X301367D01*
Y11104D01*
X301696D01*
Y10775D01*
X302026D01*
Y11104D01*
X302355D01*
Y10775D01*
X302684D01*
Y11104D01*
X303013D01*
Y10775D01*
X303342D01*
Y11104D01*
X303672D01*
Y10775D01*
X304001D01*
Y11104D01*
X304330D01*
Y10775D01*
X304659D01*
Y11104D01*
X304988D01*
Y10775D01*
X305317D01*
Y11104D01*
X305647D01*
Y10775D01*
X305976D01*
Y11104D01*
X306305D01*
Y10775D01*
X306634D01*
Y11104D01*
X306963D01*
Y10775D01*
X307293D01*
Y11104D01*
X307622D01*
Y10775D01*
X307951D01*
Y11104D01*
X308280D01*
Y10775D01*
X308610D01*
Y11104D01*
X308939D01*
Y10775D01*
X309268D01*
Y11104D01*
X309597D01*
Y10775D01*
X309926D01*
Y11104D01*
X310255D01*
Y10775D01*
X310585D01*
Y11104D01*
X310914D01*
Y10775D01*
X311243D01*
Y11104D01*
X311572D01*
Y10775D01*
X311901D01*
Y11104D01*
X312231D01*
Y10775D01*
X312560D01*
Y11104D01*
X312889D01*
Y10775D01*
X313218D01*
Y11104D01*
X313547D01*
Y10775D01*
X313877D01*
Y11104D01*
X314206D01*
Y10775D01*
X314535D01*
Y11104D01*
X314864D01*
Y10775D01*
X315193D01*
Y11104D01*
X315523D01*
Y10775D01*
X315852D01*
Y11104D01*
X316181D01*
Y10775D01*
X316510D01*
Y11104D01*
X316839D01*
Y10775D01*
X317168D01*
Y11104D01*
X317498D01*
Y10775D01*
X317827D01*
Y11104D01*
X318156D01*
Y10775D01*
D02*
G37*
G36*
X241783D02*
X242113D01*
Y10446D01*
X241125D01*
Y10775D01*
X240796D01*
Y11104D01*
X241125D01*
Y10775D01*
X241454D01*
Y11104D01*
X241783D01*
Y10775D01*
D02*
G37*
G36*
X240467D02*
X240796D01*
Y10446D01*
X239808D01*
Y10775D01*
X239479D01*
Y11104D01*
X239808D01*
Y10775D01*
X240138D01*
Y11104D01*
X240467D01*
Y10775D01*
D02*
G37*
G36*
X239150D02*
X239479D01*
Y10446D01*
X239150D01*
Y10775D01*
X238821D01*
Y11104D01*
X239150D01*
Y10775D01*
D02*
G37*
G36*
X238492D02*
X238821D01*
Y10446D01*
X238492D01*
Y10775D01*
X238162D01*
Y11104D01*
X238492D01*
Y10775D01*
D02*
G37*
G36*
X237833D02*
X238162D01*
Y10446D01*
X237833D01*
Y10775D01*
X237504D01*
Y11104D01*
X237833D01*
Y10775D01*
D02*
G37*
G36*
X237175D02*
X237504D01*
Y10446D01*
X237175D01*
Y10775D01*
X236846D01*
Y11104D01*
X237175D01*
Y10775D01*
D02*
G37*
G36*
X236516D02*
X236846D01*
Y10446D01*
X236516D01*
Y10775D01*
X236187D01*
Y11104D01*
X236516D01*
Y10775D01*
D02*
G37*
G36*
X235858D02*
X236187D01*
Y10446D01*
X235858D01*
Y10775D01*
X235529D01*
Y11104D01*
X235858D01*
Y10775D01*
D02*
G37*
G36*
X235200D02*
X235529D01*
Y10446D01*
X235200D01*
Y10775D01*
X234871D01*
Y11104D01*
X235200D01*
Y10775D01*
D02*
G37*
G36*
X234541D02*
X234871D01*
Y10446D01*
X234541D01*
Y10775D01*
X234212D01*
Y11104D01*
X234541D01*
Y10775D01*
D02*
G37*
G36*
X233883D02*
X234212D01*
Y10446D01*
X233883D01*
Y10775D01*
X233554D01*
Y11104D01*
X233883D01*
Y10775D01*
D02*
G37*
G36*
X233225D02*
X233554D01*
Y10446D01*
X233225D01*
Y10775D01*
X232895D01*
Y11104D01*
X233225D01*
Y10775D01*
D02*
G37*
G36*
X231908D02*
X232237D01*
Y10446D01*
X231908D01*
Y10775D01*
X231578D01*
Y11104D01*
X231908D01*
Y10775D01*
D02*
G37*
G36*
X230591D02*
X230920D01*
Y10446D01*
X230591D01*
Y10775D01*
X230262D01*
Y11104D01*
X230591D01*
Y10775D01*
D02*
G37*
G36*
X389742Y15938D02*
Y15868D01*
Y15797D01*
Y15726D01*
Y15656D01*
Y15585D01*
Y15515D01*
Y15444D01*
Y15373D01*
Y15303D01*
Y15232D01*
Y15161D01*
Y15091D01*
Y15020D01*
Y14949D01*
Y14879D01*
Y14808D01*
Y14737D01*
Y14667D01*
Y14596D01*
Y14525D01*
Y14455D01*
Y14384D01*
Y14313D01*
Y14243D01*
Y14172D01*
Y14101D01*
Y14031D01*
Y13960D01*
Y13889D01*
Y13819D01*
Y13748D01*
Y13677D01*
Y13607D01*
Y13536D01*
Y13465D01*
Y13395D01*
Y13324D01*
Y13253D01*
Y13183D01*
Y13112D01*
Y13041D01*
Y12971D01*
Y12900D01*
Y12829D01*
Y12759D01*
Y12688D01*
Y12617D01*
Y12547D01*
Y12476D01*
Y12405D01*
Y12335D01*
Y12264D01*
Y12193D01*
Y12123D01*
Y12052D01*
Y11981D01*
Y11911D01*
Y11840D01*
Y11769D01*
Y11699D01*
Y11628D01*
Y11557D01*
Y11487D01*
Y11416D01*
Y11345D01*
Y11275D01*
Y11204D01*
Y11133D01*
Y11063D01*
Y10992D01*
Y10921D01*
Y10851D01*
Y10780D01*
Y10709D01*
Y10639D01*
Y10568D01*
Y10497D01*
Y10427D01*
Y10356D01*
Y10285D01*
Y10215D01*
Y10144D01*
Y10073D01*
Y10003D01*
Y9932D01*
Y9861D01*
Y9791D01*
Y9720D01*
Y9650D01*
Y9579D01*
Y9508D01*
Y9437D01*
Y9367D01*
Y9296D01*
Y9225D01*
Y9155D01*
Y9084D01*
Y9014D01*
Y8943D01*
Y8872D01*
Y8801D01*
Y8731D01*
Y8660D01*
Y8590D01*
Y8519D01*
Y8448D01*
Y8377D01*
Y8307D01*
Y8236D01*
Y8166D01*
Y8095D01*
Y8024D01*
Y7954D01*
Y7883D01*
Y7812D01*
Y7741D01*
Y7671D01*
Y7600D01*
Y7530D01*
Y7459D01*
Y7388D01*
Y7318D01*
Y7247D01*
Y7176D01*
Y7106D01*
Y7035D01*
Y6964D01*
Y6894D01*
Y6823D01*
Y6752D01*
Y6682D01*
Y6611D01*
Y6540D01*
Y6470D01*
Y6399D01*
Y6328D01*
Y6258D01*
Y6187D01*
Y6116D01*
Y6046D01*
Y5975D01*
Y5904D01*
Y5834D01*
Y5763D01*
Y5692D01*
Y5622D01*
Y5551D01*
Y5480D01*
Y5410D01*
Y5339D01*
Y5268D01*
Y5198D01*
Y5127D01*
Y5056D01*
Y4986D01*
X345648D01*
Y5056D01*
Y5127D01*
Y5198D01*
Y5268D01*
Y5339D01*
Y5410D01*
Y5480D01*
Y5551D01*
Y5622D01*
Y5692D01*
Y5763D01*
Y5834D01*
Y5904D01*
Y5975D01*
Y6046D01*
Y6116D01*
Y6187D01*
Y6258D01*
Y6328D01*
Y6399D01*
Y6470D01*
Y6540D01*
Y6611D01*
Y6682D01*
Y6752D01*
Y6823D01*
Y6894D01*
Y6964D01*
Y7035D01*
Y7106D01*
Y7176D01*
Y7247D01*
Y7318D01*
Y7388D01*
Y7459D01*
Y7530D01*
Y7600D01*
Y7671D01*
Y7741D01*
Y7812D01*
Y7883D01*
Y7954D01*
Y8024D01*
Y8095D01*
Y8166D01*
Y8236D01*
Y8307D01*
Y8377D01*
Y8448D01*
Y8519D01*
Y8590D01*
Y8660D01*
Y8731D01*
Y8801D01*
Y8872D01*
Y8943D01*
Y9014D01*
Y9084D01*
Y9155D01*
Y9225D01*
Y9296D01*
Y9367D01*
Y9437D01*
Y9508D01*
Y9579D01*
Y9650D01*
Y9720D01*
Y9791D01*
Y9861D01*
Y9932D01*
Y10003D01*
Y10073D01*
Y10144D01*
Y10215D01*
Y10285D01*
Y10356D01*
Y10427D01*
Y10497D01*
Y10568D01*
Y10639D01*
Y10709D01*
Y10780D01*
Y10851D01*
Y10921D01*
Y10992D01*
Y11063D01*
Y11133D01*
Y11204D01*
Y11275D01*
Y11345D01*
Y11416D01*
Y11487D01*
Y11557D01*
Y11628D01*
Y11699D01*
Y11769D01*
Y11840D01*
Y11911D01*
Y11981D01*
Y12052D01*
Y12123D01*
Y12193D01*
Y12264D01*
Y12335D01*
Y12405D01*
Y12476D01*
Y12547D01*
Y12617D01*
Y12688D01*
Y12759D01*
Y12829D01*
Y12900D01*
Y12971D01*
Y13041D01*
Y13112D01*
Y13183D01*
Y13253D01*
Y13324D01*
Y13395D01*
Y13465D01*
Y13536D01*
Y13607D01*
Y13677D01*
Y13748D01*
Y13819D01*
Y13889D01*
Y13960D01*
Y14031D01*
Y14101D01*
Y14172D01*
Y14243D01*
Y14313D01*
Y14384D01*
Y14455D01*
Y14525D01*
Y14596D01*
Y14667D01*
Y14737D01*
Y14808D01*
Y14879D01*
Y14949D01*
Y15020D01*
Y15091D01*
Y15161D01*
Y15232D01*
Y15303D01*
Y15373D01*
Y15444D01*
Y15515D01*
Y15585D01*
Y15656D01*
Y15726D01*
Y15797D01*
Y15868D01*
Y15938D01*
Y16009D01*
X389742D01*
Y15938D01*
D02*
G37*
%LPC*%
G36*
X327703Y22297D02*
X327373D01*
Y21968D01*
X327703D01*
Y22297D01*
D02*
G37*
G36*
X288529Y24601D02*
X288200D01*
Y24272D01*
X287870D01*
Y23943D01*
Y23614D01*
Y23284D01*
X287541D01*
Y22955D01*
X287212D01*
Y22626D01*
Y22297D01*
Y21968D01*
X289516D01*
Y22297D01*
X289187D01*
Y22626D01*
Y22955D01*
Y23284D01*
X288858D01*
Y23614D01*
X288529D01*
Y23943D01*
X288858D01*
Y24272D01*
X288529D01*
Y24601D01*
D02*
G37*
G36*
X278324Y25589D02*
X277995D01*
Y25260D01*
X277665D01*
Y25589D01*
X277336D01*
Y25260D01*
X277007D01*
Y25589D01*
X276678D01*
Y25260D01*
X276349D01*
Y24930D01*
Y24601D01*
Y24272D01*
Y23943D01*
Y23614D01*
X276020D01*
Y23284D01*
X278324D01*
Y23614D01*
X278653D01*
Y23943D01*
Y24272D01*
Y24601D01*
X278982D01*
Y24930D01*
X278653D01*
Y25260D01*
X278324D01*
Y25589D01*
D02*
G37*
G36*
X270752Y25260D02*
X270423D01*
Y24930D01*
X270752D01*
Y25260D01*
D02*
G37*
G36*
X261535D02*
X261206D01*
Y24930D01*
X260877D01*
Y25260D01*
X260547D01*
Y24930D01*
X260218D01*
Y25260D01*
X259889D01*
Y24930D01*
X259560D01*
Y24601D01*
X259889D01*
Y24272D01*
X259560D01*
Y23943D01*
X259889D01*
Y23614D01*
X259560D01*
Y23284D01*
Y22955D01*
Y22626D01*
Y22297D01*
Y21968D01*
Y21639D01*
Y21309D01*
X259231D01*
Y20980D01*
Y20651D01*
Y20322D01*
Y19993D01*
Y19663D01*
X259560D01*
Y19993D01*
X259889D01*
Y19663D01*
X260877D01*
Y19993D01*
X261206D01*
Y19663D01*
X262193D01*
Y19993D01*
X262523D01*
Y19663D01*
X263510D01*
Y19993D01*
X263839D01*
Y20322D01*
X263510D01*
Y20651D01*
X263181D01*
Y20980D01*
X262852D01*
Y20651D01*
X263181D01*
Y20322D01*
X262852D01*
Y20651D01*
X261864D01*
Y20322D01*
X261535D01*
Y20651D01*
X261206D01*
Y20980D01*
X261535D01*
Y21309D01*
Y21639D01*
Y21968D01*
Y22297D01*
Y22626D01*
Y22955D01*
Y23284D01*
X261864D01*
Y23614D01*
X261535D01*
Y23943D01*
X261864D01*
Y24272D01*
X261535D01*
Y24601D01*
X261864D01*
Y24930D01*
X261535D01*
Y25260D01*
D02*
G37*
G36*
X258243D02*
X257914D01*
Y24930D01*
X257585D01*
Y25260D01*
X257256D01*
Y24930D01*
X256926D01*
Y25260D01*
X256597D01*
Y24930D01*
X256268D01*
Y25260D01*
X255939D01*
Y24930D01*
X255610D01*
Y25260D01*
X255280D01*
Y24930D01*
X254951D01*
Y25260D01*
X254622D01*
Y24930D01*
X254293D01*
Y25260D01*
X253964D01*
Y24930D01*
X253634D01*
Y24601D01*
X253305D01*
Y24272D01*
X252976D01*
Y23943D01*
X253305D01*
Y23614D01*
X252976D01*
Y23284D01*
Y22955D01*
Y22626D01*
X252647D01*
Y22297D01*
X252976D01*
Y21968D01*
X252647D01*
Y21639D01*
Y21309D01*
Y20980D01*
X252318D01*
Y20651D01*
X252647D01*
Y20322D01*
X252976D01*
Y19993D01*
X253305D01*
Y19663D01*
X254293D01*
Y19993D01*
X254622D01*
Y19663D01*
X255610D01*
Y19993D01*
X255939D01*
Y19663D01*
X256926D01*
Y19993D01*
X257256D01*
Y19663D01*
X257585D01*
Y19993D01*
X257914D01*
Y20322D01*
X258243D01*
Y20651D01*
X258572D01*
Y20980D01*
X258243D01*
Y21309D01*
X258572D01*
Y21639D01*
Y21968D01*
Y22297D01*
Y22626D01*
Y22955D01*
X258902D01*
Y23284D01*
Y23614D01*
Y23943D01*
Y24272D01*
Y24601D01*
X258572D01*
Y24930D01*
X258243D01*
Y25260D01*
D02*
G37*
G36*
X251659D02*
X251330D01*
Y24930D01*
X251001D01*
Y25260D01*
X250672D01*
Y24930D01*
X250342D01*
Y25260D01*
X250013D01*
Y24930D01*
X249684D01*
Y25260D01*
X249355D01*
Y24930D01*
X249026D01*
Y25260D01*
X248696D01*
Y24930D01*
X248367D01*
Y25260D01*
X248038D01*
Y24930D01*
X247709D01*
Y25260D01*
X247380D01*
Y24930D01*
X247051D01*
Y24601D01*
X246721D01*
Y24272D01*
Y23943D01*
Y23614D01*
Y23284D01*
Y22955D01*
X246392D01*
Y22626D01*
X246721D01*
Y22297D01*
X246392D01*
Y21968D01*
X246721D01*
Y21639D01*
X246392D01*
Y21309D01*
X246721D01*
Y20980D01*
X246392D01*
Y20651D01*
Y20322D01*
Y19993D01*
X246721D01*
Y19663D01*
X247709D01*
Y19993D01*
X248038D01*
Y19663D01*
X248367D01*
Y19993D01*
Y20322D01*
Y20651D01*
X248696D01*
Y20980D01*
X248367D01*
Y21309D01*
X248696D01*
Y21639D01*
X248367D01*
Y21968D01*
X248696D01*
Y21639D01*
X249026D01*
Y21968D01*
X249355D01*
Y21639D01*
X249684D01*
Y21968D01*
X250013D01*
Y21639D01*
X250342D01*
Y21968D01*
X250672D01*
Y21639D01*
X251001D01*
Y21968D01*
X251330D01*
Y21639D01*
X251659D01*
Y21968D01*
X251988D01*
Y22297D01*
Y22626D01*
X252318D01*
Y22955D01*
Y23284D01*
Y23614D01*
Y23943D01*
Y24272D01*
Y24601D01*
X251988D01*
Y24930D01*
X251659D01*
Y25260D01*
D02*
G37*
G36*
X241125D02*
X240796D01*
Y24930D01*
X240467D01*
Y25260D01*
X240138D01*
Y24930D01*
X239808D01*
Y25260D01*
X239479D01*
Y24930D01*
X239150D01*
Y24601D01*
Y24272D01*
Y23943D01*
Y23614D01*
Y23284D01*
X238821D01*
Y22955D01*
Y22626D01*
Y22297D01*
Y21968D01*
Y21639D01*
X238492D01*
Y21309D01*
X238821D01*
Y20980D01*
X238492D01*
Y20651D01*
X238821D01*
Y20322D01*
X238492D01*
Y19993D01*
X238821D01*
Y19663D01*
X239808D01*
Y19993D01*
X240138D01*
Y19663D01*
X241125D01*
Y19993D01*
X241454D01*
Y19663D01*
X242442D01*
Y19993D01*
X242771D01*
Y19663D01*
X243100D01*
Y19993D01*
Y20322D01*
Y20651D01*
X242113D01*
Y20980D01*
X241783D01*
Y20651D01*
X242113D01*
Y20322D01*
X241783D01*
Y20651D01*
X240796D01*
Y20980D01*
Y21309D01*
Y21639D01*
X240467D01*
Y21968D01*
X240796D01*
Y22297D01*
X241125D01*
Y22626D01*
X240796D01*
Y22955D01*
X241125D01*
Y23284D01*
Y23614D01*
Y23943D01*
Y24272D01*
Y24601D01*
X241454D01*
Y24930D01*
X241125D01*
Y25260D01*
D02*
G37*
G36*
X235858D02*
X235529D01*
Y24930D01*
X235200D01*
Y25260D01*
X234871D01*
Y24930D01*
X234541D01*
Y25260D01*
X234212D01*
Y24930D01*
X233883D01*
Y24601D01*
X233554D01*
Y24272D01*
X233225D01*
Y23943D01*
X233554D01*
Y23614D01*
X232895D01*
Y23284D01*
Y22955D01*
X232566D01*
Y22626D01*
Y22297D01*
X232237D01*
Y21968D01*
Y21639D01*
X231908D01*
Y21309D01*
X231578D01*
Y20980D01*
X231249D01*
Y20651D01*
X231578D01*
Y20322D01*
X230920D01*
Y19993D01*
Y19663D01*
X231908D01*
Y19993D01*
X232237D01*
Y20322D01*
X231908D01*
Y20651D01*
X232237D01*
Y20980D01*
X232566D01*
Y21309D01*
X234871D01*
Y20980D01*
X235200D01*
Y20651D01*
X235529D01*
Y20322D01*
X235200D01*
Y19993D01*
X235529D01*
Y19663D01*
X235858D01*
Y19993D01*
X236187D01*
Y19663D01*
X237175D01*
Y19993D01*
X237504D01*
Y20322D01*
X237175D01*
Y20651D01*
X237504D01*
Y20980D01*
X237175D01*
Y21309D01*
Y21639D01*
Y21968D01*
X236846D01*
Y22297D01*
Y22626D01*
Y22955D01*
X236516D01*
Y23284D01*
X236846D01*
Y23614D01*
X236516D01*
Y23943D01*
Y24272D01*
X236187D01*
Y24601D01*
Y24930D01*
X235858D01*
Y25260D01*
D02*
G37*
G36*
X230591D02*
X230262D01*
Y24930D01*
X229933D01*
Y25260D01*
X229603D01*
Y24930D01*
X229274D01*
Y25260D01*
X228945D01*
Y24930D01*
X228616D01*
Y25260D01*
X228287D01*
Y24930D01*
X227957D01*
Y25260D01*
X227628D01*
Y24930D01*
X226641D01*
Y24601D01*
Y24272D01*
Y23943D01*
X226311D01*
Y23614D01*
X225982D01*
Y23284D01*
X226311D01*
Y22955D01*
X225982D01*
Y22626D01*
X226311D01*
Y22297D01*
X225982D01*
Y21968D01*
X226311D01*
Y21639D01*
X225982D01*
Y21309D01*
Y20980D01*
Y20651D01*
X226311D01*
Y20322D01*
X225982D01*
Y19993D01*
X226311D01*
Y19663D01*
X226641D01*
Y19993D01*
X226970D01*
Y19663D01*
X227957D01*
Y19993D01*
X228287D01*
Y19663D01*
X229274D01*
Y19993D01*
X229603D01*
Y19663D01*
X230591D01*
Y19993D01*
Y20322D01*
Y20651D01*
X230262D01*
Y20322D01*
X229933D01*
Y20651D01*
X228945D01*
Y20980D01*
X228616D01*
Y20651D01*
X228945D01*
Y20322D01*
X228616D01*
Y20651D01*
X228287D01*
Y20980D01*
X227957D01*
Y21309D01*
X228287D01*
Y21639D01*
X227957D01*
Y21968D01*
X228287D01*
Y22297D01*
X227957D01*
Y22626D01*
X228287D01*
Y22955D01*
Y23284D01*
Y23614D01*
Y23943D01*
X228616D01*
Y24272D01*
Y24601D01*
X228945D01*
Y24272D01*
X229933D01*
Y24601D01*
X230262D01*
Y24272D01*
X230920D01*
Y24601D01*
Y24930D01*
X230591D01*
Y25260D01*
D02*
G37*
G36*
X270094D02*
X269765D01*
Y24930D01*
X269436D01*
Y24601D01*
X269106D01*
Y24272D01*
X268777D01*
Y23943D01*
Y23614D01*
X268448D01*
Y23284D01*
Y22955D01*
X268119D01*
Y23284D01*
X267790D01*
Y23614D01*
X267460D01*
Y23943D01*
Y24272D01*
X267131D01*
Y24601D01*
Y24930D01*
X266802D01*
Y25260D01*
X266473D01*
Y24930D01*
X266144D01*
Y25260D01*
X265814D01*
Y24930D01*
X265485D01*
Y25260D01*
X265156D01*
Y24930D01*
X264827D01*
Y25260D01*
X264498D01*
Y24930D01*
X264827D01*
Y24601D01*
X265156D01*
Y24272D01*
X264827D01*
Y23943D01*
X265156D01*
Y23614D01*
X265485D01*
Y23284D01*
X265814D01*
Y22955D01*
X265485D01*
Y22626D01*
X265814D01*
Y22297D01*
X266144D01*
Y21968D01*
X266473D01*
Y21639D01*
X266144D01*
Y21309D01*
Y20980D01*
Y20651D01*
Y20322D01*
Y19993D01*
X266473D01*
Y19663D01*
X267460D01*
Y19993D01*
X267790D01*
Y19663D01*
X268119D01*
Y19993D01*
Y20322D01*
Y20651D01*
X268448D01*
Y20980D01*
X268119D01*
Y21309D01*
X268448D01*
Y21639D01*
X268119D01*
Y21968D01*
X268448D01*
Y22297D01*
X268777D01*
Y22626D01*
X269106D01*
Y22955D01*
X269436D01*
Y23284D01*
X269765D01*
Y23614D01*
Y23943D01*
X270094D01*
Y24272D01*
Y24601D01*
X270423D01*
Y24930D01*
X270094D01*
Y25260D01*
D02*
G37*
G36*
X269765Y20980D02*
X269436D01*
Y20651D01*
X269765D01*
Y20980D01*
D02*
G37*
G36*
X269106D02*
X268777D01*
Y20651D01*
X269106D01*
Y20322D01*
X269436D01*
Y19993D01*
X269765D01*
Y20322D01*
X269436D01*
Y20651D01*
X269106D01*
Y20980D01*
D02*
G37*
G36*
Y20322D02*
X268777D01*
Y19993D01*
X269106D01*
Y20322D01*
D02*
G37*
G36*
X266144Y19993D02*
X265814D01*
Y19663D01*
X266144D01*
Y19993D01*
D02*
G37*
G36*
X246392D02*
X246063D01*
Y19663D01*
X246392D01*
Y19993D01*
D02*
G37*
%LPD*%
G36*
X256597Y24272D02*
X256926D01*
Y23943D01*
X256597D01*
Y23614D01*
Y23284D01*
Y22955D01*
Y22626D01*
Y22297D01*
X256268D01*
Y21968D01*
X256597D01*
Y21639D01*
X256268D01*
Y21309D01*
X256597D01*
Y20980D01*
X256268D01*
Y20651D01*
X255280D01*
Y20980D01*
X254951D01*
Y20651D01*
X255280D01*
Y20322D01*
X254951D01*
Y20651D01*
X254622D01*
Y20980D01*
Y21309D01*
Y21639D01*
X254951D01*
Y21968D01*
X254622D01*
Y22297D01*
X254951D01*
Y22626D01*
Y22955D01*
Y23284D01*
X255280D01*
Y23614D01*
X254951D01*
Y23943D01*
X255280D01*
Y24272D01*
X256268D01*
Y24601D01*
X256597D01*
Y24272D01*
D02*
G37*
G36*
X250013D02*
X250342D01*
Y23943D01*
Y23614D01*
Y23284D01*
Y22955D01*
Y22626D01*
X250013D01*
Y22297D01*
X249684D01*
Y22626D01*
X249355D01*
Y22297D01*
X249026D01*
Y22626D01*
X248696D01*
Y22955D01*
Y23284D01*
Y23614D01*
X249026D01*
Y23943D01*
X248696D01*
Y24272D01*
X249684D01*
Y24601D01*
X250013D01*
Y24272D01*
D02*
G37*
G36*
X234541Y23284D02*
Y22955D01*
Y22626D01*
X234871D01*
Y22297D01*
X234541D01*
Y21968D01*
X234212D01*
Y22297D01*
X233883D01*
Y21968D01*
X233554D01*
Y22297D01*
X233225D01*
Y22626D01*
X233554D01*
Y22955D01*
X233883D01*
Y23284D01*
X234212D01*
Y23614D01*
X234541D01*
Y23284D01*
D02*
G37*
%LPC*%
G36*
X322106Y16701D02*
X321777D01*
Y16371D01*
X321448D01*
Y16701D01*
X321119D01*
Y16371D01*
Y16042D01*
Y15713D01*
X320790D01*
Y15384D01*
X321119D01*
Y15055D01*
X320790D01*
Y14726D01*
X321119D01*
Y14396D01*
X320790D01*
Y14067D01*
X321119D01*
Y13738D01*
X321448D01*
Y14067D01*
Y14396D01*
Y14726D01*
X322435D01*
Y15055D01*
Y15384D01*
Y15713D01*
X322765D01*
Y16042D01*
X322435D01*
Y16371D01*
X322106D01*
Y16701D01*
D02*
G37*
G36*
X311572D02*
X311243D01*
Y16371D01*
X310914D01*
Y16701D01*
X310585D01*
Y16371D01*
X310255D01*
Y16042D01*
Y15713D01*
Y15384D01*
X309926D01*
Y15055D01*
X310255D01*
Y14726D01*
X309926D01*
Y14396D01*
Y14067D01*
Y13738D01*
X311243D01*
Y14067D01*
X311901D01*
Y14396D01*
X311572D01*
Y14726D01*
Y15055D01*
Y15384D01*
X311901D01*
Y15713D01*
X311572D01*
Y16042D01*
X311901D01*
Y16371D01*
X311572D01*
Y16701D01*
D02*
G37*
G36*
X307622D02*
X307293D01*
Y16371D01*
X306963D01*
Y16701D01*
X306634D01*
Y16371D01*
X306305D01*
Y16042D01*
Y15713D01*
Y15384D01*
X305976D01*
Y15055D01*
X306305D01*
Y14726D01*
X306634D01*
Y15055D01*
Y15384D01*
Y15713D01*
Y16042D01*
X307293D01*
Y15713D01*
Y15384D01*
Y15055D01*
X306963D01*
Y14726D01*
X307293D01*
Y14396D01*
X306963D01*
Y14067D01*
X306634D01*
Y14396D01*
X306305D01*
Y14726D01*
X305976D01*
Y14396D01*
Y14067D01*
Y13738D01*
X307293D01*
Y14067D01*
X307622D01*
Y14396D01*
Y14726D01*
Y15055D01*
Y15384D01*
X307951D01*
Y15713D01*
X307622D01*
Y16042D01*
X307951D01*
Y16371D01*
X307622D01*
Y16701D01*
D02*
G37*
G36*
X297746D02*
X297417D01*
Y16371D01*
X297746D01*
Y16701D01*
D02*
G37*
G36*
X293796D02*
X293467D01*
Y16371D01*
X293796D01*
Y16701D01*
D02*
G37*
G36*
X318156D02*
X317827D01*
Y16371D01*
X318156D01*
Y16042D01*
X318485D01*
Y16371D01*
X318156D01*
Y16701D01*
D02*
G37*
G36*
X317827Y16371D02*
X317498D01*
Y16042D01*
X317827D01*
Y16371D01*
D02*
G37*
G36*
X301038Y16701D02*
X300709D01*
Y16371D01*
X301038D01*
Y16042D01*
X301367D01*
Y16371D01*
X301038D01*
Y16701D01*
D02*
G37*
G36*
X300709Y16371D02*
X300380D01*
Y16042D01*
X300709D01*
Y16371D01*
D02*
G37*
G36*
X284908D02*
X284578D01*
Y16042D01*
X284908D01*
Y16371D01*
D02*
G37*
G36*
X276020Y16701D02*
X275690D01*
Y16371D01*
X275361D01*
Y16042D01*
X275032D01*
Y15713D01*
X275361D01*
Y15384D01*
X275690D01*
Y15055D01*
Y14726D01*
X276020D01*
Y14396D01*
Y14067D01*
X276349D01*
Y14396D01*
X276678D01*
Y14726D01*
X276349D01*
Y15055D01*
X276020D01*
Y15384D01*
X275690D01*
Y15713D01*
Y16042D01*
X276349D01*
Y15713D01*
X276678D01*
Y16042D01*
X277007D01*
Y16371D01*
X276020D01*
Y16701D01*
D02*
G37*
G36*
X326057D02*
X325727D01*
Y16371D01*
X325069D01*
Y16042D01*
Y15713D01*
X324740D01*
Y15384D01*
X325069D01*
Y15055D01*
X324740D01*
Y14726D01*
Y14396D01*
Y14067D01*
X325069D01*
Y13738D01*
X325398D01*
Y13409D01*
X325727D01*
Y13738D01*
X326057D01*
Y14067D01*
X326386D01*
Y14396D01*
X326057D01*
Y14726D01*
X326386D01*
Y15055D01*
X326057D01*
Y15384D01*
X325727D01*
Y15055D01*
Y14726D01*
Y14396D01*
X325398D01*
Y14726D01*
Y15055D01*
Y15384D01*
Y15713D01*
Y16042D01*
X326057D01*
Y15713D01*
Y15384D01*
X326386D01*
Y15713D01*
X326715D01*
Y16042D01*
X326386D01*
Y16371D01*
X326057D01*
Y16701D01*
D02*
G37*
G36*
X317498Y16042D02*
X317168D01*
Y15713D01*
Y15384D01*
X317498D01*
Y15055D01*
Y14726D01*
X317827D01*
Y14396D01*
X318156D01*
Y14067D01*
X318485D01*
Y14396D01*
Y14726D01*
Y15055D01*
X318156D01*
Y15384D01*
X317827D01*
Y15713D01*
X317498D01*
Y16042D01*
D02*
G37*
G36*
X314864Y16701D02*
X314535D01*
Y16371D01*
X314206D01*
Y16042D01*
Y15713D01*
Y15384D01*
Y15055D01*
Y14726D01*
Y14396D01*
Y14067D01*
X314535D01*
Y14396D01*
Y14726D01*
Y15055D01*
Y15384D01*
Y15713D01*
X314864D01*
Y16042D01*
Y16371D01*
Y16701D01*
D02*
G37*
G36*
X300380Y16042D02*
X300050D01*
Y15713D01*
X299721D01*
Y15384D01*
X300380D01*
Y15055D01*
Y14726D01*
X300709D01*
Y14396D01*
X301038D01*
Y14067D01*
X301367D01*
Y14396D01*
Y14726D01*
Y15055D01*
X301038D01*
Y15384D01*
X300709D01*
Y15713D01*
X300380D01*
Y16042D01*
D02*
G37*
G36*
X294454Y16701D02*
X294125D01*
Y16371D01*
Y16042D01*
Y15713D01*
Y15384D01*
Y15055D01*
X293796D01*
Y14726D01*
X294125D01*
Y14396D01*
X293796D01*
Y14067D01*
X293467D01*
Y14396D01*
Y14726D01*
Y15055D01*
Y15384D01*
Y15713D01*
X293796D01*
Y16042D01*
X293467D01*
Y16371D01*
X293137D01*
Y16042D01*
Y15713D01*
Y15384D01*
Y15055D01*
Y14726D01*
X292808D01*
Y14396D01*
X293137D01*
Y14067D01*
X293467D01*
Y13738D01*
X294125D01*
Y14067D01*
X294454D01*
Y14396D01*
Y14726D01*
Y15055D01*
Y15384D01*
X294783D01*
Y15713D01*
X294454D01*
Y16042D01*
X294783D01*
Y16371D01*
X294454D01*
Y16701D01*
D02*
G37*
G36*
X290833Y14396D02*
X290504D01*
Y14067D01*
X290833D01*
Y14396D01*
D02*
G37*
G36*
X314206Y14067D02*
X313877D01*
Y13738D01*
X314206D01*
Y14067D01*
D02*
G37*
G36*
X297417Y16371D02*
X297088D01*
Y16042D01*
Y15713D01*
Y15384D01*
Y15055D01*
Y14726D01*
X296759D01*
Y14396D01*
Y14067D01*
Y13738D01*
X297088D01*
Y14067D01*
X297417D01*
Y14396D01*
Y14726D01*
Y15055D01*
Y15384D01*
Y15713D01*
X297746D01*
Y16042D01*
X297417D01*
Y16371D01*
D02*
G37*
G36*
X283920Y16701D02*
X283591D01*
Y16371D01*
X283262D01*
Y16042D01*
Y15713D01*
Y15384D01*
X282932D01*
Y15055D01*
Y14726D01*
Y14396D01*
X282603D01*
Y14067D01*
X282932D01*
Y13738D01*
X283262D01*
Y14067D01*
X283591D01*
Y14396D01*
X283262D01*
Y14726D01*
X283591D01*
Y15055D01*
X283920D01*
Y14726D01*
Y14396D01*
Y14067D01*
X284249D01*
Y13738D01*
X284578D01*
Y14067D01*
Y14396D01*
Y14726D01*
X284908D01*
Y15055D01*
X284578D01*
Y15384D01*
X284908D01*
Y15713D01*
X284578D01*
Y16042D01*
X284249D01*
Y15713D01*
X283920D01*
Y16042D01*
Y16371D01*
Y16701D01*
D02*
G37*
G36*
X279970D02*
X279641D01*
Y16371D01*
X279311D01*
Y16042D01*
X279641D01*
Y15713D01*
X279311D01*
Y15384D01*
Y15055D01*
Y14726D01*
X279641D01*
Y14396D01*
X279970D01*
Y14067D01*
Y13738D01*
X280628D01*
Y14067D01*
X280299D01*
Y14396D01*
X280628D01*
Y14726D01*
X280299D01*
Y15055D01*
Y15384D01*
Y15713D01*
Y16042D01*
Y16371D01*
X279970D01*
Y16701D01*
D02*
G37*
G36*
X279311Y14726D02*
X278982D01*
Y14396D01*
X278653D01*
Y14067D01*
X278982D01*
Y13738D01*
X279311D01*
Y14067D01*
X279641D01*
Y14396D01*
X279311D01*
Y14726D01*
D02*
G37*
G36*
X317498Y14396D02*
X316839D01*
Y14067D01*
X317168D01*
Y13738D01*
X317498D01*
Y13409D01*
X317827D01*
Y13738D01*
X318156D01*
Y14067D01*
X317498D01*
Y14396D01*
D02*
G37*
G36*
X300380D02*
X299721D01*
Y14067D01*
X300050D01*
Y13738D01*
X300380D01*
Y13409D01*
X300709D01*
Y13738D01*
X301038D01*
Y14067D01*
X300380D01*
Y14396D01*
D02*
G37*
G36*
X289845Y16701D02*
X289516D01*
Y16371D01*
Y16042D01*
Y15713D01*
X289187D01*
Y15384D01*
X289516D01*
Y15055D01*
X289187D01*
Y14726D01*
X289516D01*
Y14396D01*
X289187D01*
Y14067D01*
X289516D01*
Y13738D01*
X289845D01*
Y13409D01*
X290175D01*
Y13738D01*
X290504D01*
Y14067D01*
X290175D01*
Y14396D01*
X289845D01*
Y14726D01*
Y15055D01*
Y15384D01*
X290175D01*
Y15713D01*
X289845D01*
Y16042D01*
X290175D01*
Y16371D01*
X289845D01*
Y16701D01*
D02*
G37*
G36*
X275690Y14396D02*
X274703D01*
Y14067D01*
X275032D01*
Y13738D01*
X275361D01*
Y13409D01*
X275690D01*
Y13738D01*
X276020D01*
Y14067D01*
X275690D01*
Y14396D01*
D02*
G37*
%LPD*%
G36*
X322106Y15713D02*
Y15384D01*
X321777D01*
Y15713D01*
X321448D01*
Y16042D01*
X322106D01*
Y15713D01*
D02*
G37*
G36*
X310914Y14726D02*
X311243D01*
Y14396D01*
X310914D01*
Y14067D01*
X310585D01*
Y14396D01*
Y14726D01*
Y15055D01*
X310914D01*
Y14726D01*
D02*
G37*
G36*
X279970Y15055D02*
Y14726D01*
X279641D01*
Y15055D01*
Y15384D01*
X279970D01*
Y15055D01*
D02*
G37*
%LPC*%
G36*
X362183Y15161D02*
X362113D01*
Y15091D01*
X362183D01*
Y15161D01*
D02*
G37*
G36*
X360841D02*
X360770D01*
Y15091D01*
X360841D01*
Y15161D01*
D02*
G37*
G36*
X355117D02*
X355047D01*
Y15091D01*
X355117D01*
Y15161D01*
D02*
G37*
G36*
X353421D02*
X353350D01*
Y15091D01*
X353421D01*
Y15161D01*
D02*
G37*
G36*
X362325Y15091D02*
X362254D01*
Y15020D01*
X362325D01*
Y15091D01*
D02*
G37*
G36*
X360982Y15161D02*
X360911D01*
Y15091D01*
X360982D01*
Y15020D01*
X361053D01*
Y15091D01*
X360982D01*
Y15161D01*
D02*
G37*
G36*
X355329Y15091D02*
X355258D01*
Y15020D01*
X355329D01*
Y15091D01*
D02*
G37*
G36*
X353068D02*
X352997D01*
Y15020D01*
X353068D01*
Y15091D01*
D02*
G37*
G36*
X352926D02*
X352856D01*
Y15020D01*
X352926D01*
Y15091D01*
D02*
G37*
G36*
X352573D02*
X352503D01*
Y15020D01*
X352573D01*
Y15091D01*
D02*
G37*
G36*
X352503Y15020D02*
X352432D01*
Y14949D01*
X352503D01*
Y14879D01*
X352573D01*
Y14949D01*
X352503D01*
Y15020D01*
D02*
G37*
G36*
X360982Y14808D02*
X360911D01*
Y14737D01*
X360982D01*
Y14808D01*
D02*
G37*
G36*
X361053Y14667D02*
X360982D01*
Y14596D01*
X361053D01*
Y14667D01*
D02*
G37*
G36*
X358085D02*
X358014D01*
Y14596D01*
X358085D01*
Y14667D01*
D02*
G37*
G36*
X352079D02*
X352008D01*
Y14596D01*
X352079D01*
Y14667D01*
D02*
G37*
G36*
X351796D02*
X351655D01*
Y14596D01*
X351796D01*
Y14667D01*
D02*
G37*
G36*
X361689D02*
X361547D01*
Y14596D01*
X361618D01*
Y14525D01*
X361689D01*
Y14596D01*
Y14667D01*
D02*
G37*
G36*
X351513Y14596D02*
X351443D01*
Y14525D01*
X351513D01*
Y14596D01*
D02*
G37*
G36*
X361053Y14525D02*
X360982D01*
Y14455D01*
X361053D01*
Y14525D01*
D02*
G37*
G36*
X361618D02*
X361547D01*
Y14455D01*
X361618D01*
Y14384D01*
X361689D01*
Y14455D01*
X361618D01*
Y14525D01*
D02*
G37*
G36*
X360982Y14455D02*
X360911D01*
Y14384D01*
X360982D01*
Y14455D01*
D02*
G37*
G36*
X351584D02*
X351513D01*
Y14384D01*
X351584D01*
Y14455D01*
D02*
G37*
G36*
X361618Y14384D02*
X361547D01*
Y14313D01*
X361618D01*
Y14384D01*
D02*
G37*
G36*
X355258Y15020D02*
X353280D01*
Y14949D01*
X352997D01*
Y14879D01*
X352785D01*
Y14808D01*
X352573D01*
Y14737D01*
X352361D01*
Y14667D01*
X352291D01*
Y14596D01*
X352149D01*
Y14525D01*
X352008D01*
Y14455D01*
X351937D01*
Y14384D01*
X351796D01*
Y14313D01*
X351725D01*
Y14243D01*
X351584D01*
Y14313D01*
X351513D01*
Y14243D01*
X351584D01*
Y14172D01*
X351513D01*
Y14101D01*
X351443D01*
Y14031D01*
X351372D01*
Y13960D01*
X351301D01*
Y13889D01*
X351231D01*
Y13960D01*
X351160D01*
Y13889D01*
X351231D01*
Y13819D01*
Y13748D01*
X351160D01*
Y13677D01*
X351089D01*
Y13607D01*
X351019D01*
Y13536D01*
X350948D01*
Y13465D01*
Y13395D01*
X350877D01*
Y13324D01*
Y13253D01*
X350807D01*
Y13183D01*
X350736D01*
Y13112D01*
Y13041D01*
X350665D01*
Y12971D01*
Y12900D01*
X350595D01*
Y12829D01*
Y12759D01*
X350524D01*
Y12688D01*
Y12617D01*
X350453D01*
Y12688D01*
X350383D01*
Y12617D01*
X350453D01*
Y12547D01*
X350383D01*
Y12476D01*
Y12405D01*
Y12335D01*
X350312D01*
Y12264D01*
X350241D01*
Y12193D01*
Y12123D01*
X350171D01*
Y12052D01*
Y11981D01*
X350100D01*
Y11911D01*
Y11840D01*
X350029D01*
Y11769D01*
Y11699D01*
X349959D01*
Y11628D01*
X349888D01*
Y11557D01*
Y11487D01*
Y11416D01*
X349817D01*
Y11345D01*
Y11275D01*
X349747D01*
Y11204D01*
X349676D01*
Y11133D01*
Y11063D01*
X349605D01*
Y10992D01*
Y10921D01*
X349535D01*
Y10851D01*
Y10780D01*
X349464D01*
Y10709D01*
X349393D01*
Y10780D01*
X349323D01*
Y10709D01*
X349393D01*
Y10639D01*
Y10568D01*
Y10497D01*
X349323D01*
Y10427D01*
Y10356D01*
X349252D01*
Y10285D01*
X349181D01*
Y10215D01*
Y10144D01*
X349111D01*
Y10073D01*
Y10003D01*
X349040D01*
Y9932D01*
Y9861D01*
X348969D01*
Y9791D01*
Y9720D01*
X348899D01*
Y9650D01*
Y9579D01*
X348828D01*
Y9508D01*
Y9437D01*
X348757D01*
Y9367D01*
X348687D01*
Y9296D01*
Y9225D01*
X348616D01*
Y9155D01*
Y9084D01*
X348545D01*
Y9014D01*
Y8943D01*
X348475D01*
Y8872D01*
Y8801D01*
X348404D01*
Y8731D01*
Y8660D01*
X348333D01*
Y8590D01*
Y8519D01*
X348263D01*
Y8448D01*
X348192D01*
Y8377D01*
Y8307D01*
X348121D01*
Y8236D01*
Y8166D01*
X348051D01*
Y8095D01*
Y8024D01*
X347980D01*
Y7954D01*
Y7883D01*
X347909D01*
Y7812D01*
Y7741D01*
X347839D01*
Y7671D01*
Y7600D01*
X347768D01*
Y7530D01*
Y7459D01*
X347697D01*
Y7388D01*
X347627D01*
Y7318D01*
Y7247D01*
Y7176D01*
X347556D01*
Y7106D01*
X347485D01*
Y7035D01*
Y6964D01*
X347415D01*
Y6894D01*
Y6823D01*
X347344D01*
Y6752D01*
Y6682D01*
X347273D01*
Y6611D01*
Y6540D01*
X347203D01*
Y6470D01*
X347132D01*
Y6399D01*
Y6328D01*
Y6258D01*
X347061D01*
Y6187D01*
X346991D01*
Y6116D01*
Y6046D01*
Y5975D01*
X349959D01*
Y6046D01*
Y6116D01*
X350029D01*
Y6187D01*
Y6258D01*
X350100D01*
Y6328D01*
Y6399D01*
X350171D01*
Y6470D01*
Y6540D01*
X350241D01*
Y6611D01*
Y6682D01*
Y6752D01*
X350312D01*
Y6823D01*
Y6894D01*
X350383D01*
Y6964D01*
Y7035D01*
X350453D01*
Y7106D01*
Y7176D01*
Y7247D01*
X350524D01*
Y7318D01*
Y7388D01*
X350595D01*
Y7459D01*
Y7530D01*
X352715D01*
Y7459D01*
X352644D01*
Y7388D01*
Y7318D01*
Y7247D01*
Y7176D01*
Y7106D01*
Y7035D01*
Y6964D01*
Y6894D01*
Y6823D01*
Y6752D01*
Y6682D01*
Y6611D01*
Y6540D01*
Y6470D01*
Y6399D01*
Y6328D01*
Y6258D01*
Y6187D01*
Y6116D01*
X352573D01*
Y6046D01*
X352644D01*
Y5975D01*
X355682D01*
Y5904D01*
Y5834D01*
X355753D01*
Y5904D01*
Y5975D01*
X355682D01*
Y6046D01*
X355612D01*
Y6116D01*
Y6187D01*
Y6258D01*
Y6328D01*
Y6399D01*
Y6470D01*
Y6540D01*
Y6611D01*
Y6682D01*
Y6752D01*
Y6823D01*
Y6894D01*
Y6964D01*
Y7035D01*
Y7106D01*
X355541D01*
Y7176D01*
Y7247D01*
Y7318D01*
Y7388D01*
Y7459D01*
Y7530D01*
Y7600D01*
Y7671D01*
Y7741D01*
Y7812D01*
Y7883D01*
Y7954D01*
Y8024D01*
Y8095D01*
Y8166D01*
Y8236D01*
Y8307D01*
Y8377D01*
Y8448D01*
Y8519D01*
Y8590D01*
Y8660D01*
Y8731D01*
X355470D01*
Y8801D01*
Y8872D01*
Y8943D01*
Y9014D01*
Y9084D01*
Y9155D01*
Y9225D01*
Y9296D01*
Y9367D01*
Y9437D01*
Y9508D01*
Y9579D01*
Y9650D01*
Y9720D01*
Y9791D01*
Y9861D01*
Y9932D01*
Y10003D01*
Y10073D01*
Y10144D01*
Y10215D01*
Y10285D01*
Y10356D01*
Y10427D01*
Y10497D01*
Y10568D01*
Y10639D01*
Y10709D01*
Y10780D01*
Y10851D01*
Y10921D01*
Y10992D01*
Y11063D01*
Y11133D01*
X355400D01*
Y11204D01*
Y11275D01*
Y11345D01*
Y11416D01*
Y11487D01*
Y11557D01*
Y11628D01*
Y11699D01*
Y11769D01*
Y11840D01*
Y11911D01*
Y11981D01*
Y12052D01*
Y12123D01*
Y12193D01*
Y12264D01*
Y12335D01*
Y12405D01*
Y12476D01*
Y12547D01*
Y12617D01*
Y12688D01*
Y12759D01*
Y12829D01*
X355329D01*
Y12900D01*
Y12971D01*
Y13041D01*
Y13112D01*
Y13183D01*
Y13253D01*
Y13324D01*
Y13395D01*
Y13465D01*
Y13536D01*
Y13607D01*
Y13677D01*
Y13748D01*
Y13819D01*
Y13889D01*
Y13960D01*
Y14031D01*
Y14101D01*
Y14172D01*
Y14243D01*
Y14313D01*
Y14384D01*
Y14455D01*
X355258D01*
Y14525D01*
Y14596D01*
Y14667D01*
Y14737D01*
Y14808D01*
Y14879D01*
Y14949D01*
Y15020D01*
D02*
G37*
G36*
X360841Y14172D02*
X360770D01*
Y14101D01*
X360841D01*
Y14172D01*
D02*
G37*
G36*
X351089Y14243D02*
X351019D01*
Y14172D01*
X351089D01*
Y14101D01*
X351160D01*
Y14172D01*
X351089D01*
Y14243D01*
D02*
G37*
G36*
X364586Y14949D02*
X361971D01*
Y14879D01*
X361901D01*
Y14808D01*
Y14737D01*
Y14667D01*
Y14596D01*
Y14525D01*
X361830D01*
Y14455D01*
Y14384D01*
Y14313D01*
Y14243D01*
X361759D01*
Y14172D01*
Y14101D01*
Y14031D01*
X361689D01*
Y14101D01*
Y14172D01*
X361618D01*
Y14101D01*
Y14031D01*
X361689D01*
Y13960D01*
Y13889D01*
Y13819D01*
Y13748D01*
X361618D01*
Y13677D01*
Y13607D01*
Y13536D01*
Y13465D01*
Y13395D01*
X361547D01*
Y13324D01*
Y13253D01*
Y13183D01*
Y13112D01*
X361477D01*
Y13041D01*
Y12971D01*
Y12900D01*
X361406D01*
Y12829D01*
Y12759D01*
Y12688D01*
Y12617D01*
Y12547D01*
X361335D01*
Y12476D01*
Y12405D01*
Y12335D01*
Y12264D01*
X361265D01*
Y12193D01*
Y12123D01*
Y12052D01*
X361194D01*
Y11981D01*
Y11911D01*
Y11840D01*
Y11769D01*
X361123D01*
Y11699D01*
Y11628D01*
Y11557D01*
Y11487D01*
Y11416D01*
X361053D01*
Y11345D01*
Y11275D01*
Y11204D01*
Y11133D01*
X360982D01*
Y11063D01*
Y10992D01*
Y10921D01*
X360911D01*
Y10851D01*
Y10780D01*
Y10709D01*
Y10639D01*
Y10568D01*
X360841D01*
Y10497D01*
Y10427D01*
Y10356D01*
Y10285D01*
X360770D01*
Y10215D01*
Y10144D01*
Y10073D01*
X360700D01*
Y10003D01*
Y9932D01*
Y9861D01*
Y9791D01*
X360629D01*
Y9720D01*
Y9650D01*
Y9579D01*
Y9508D01*
Y9437D01*
X360558D01*
Y9367D01*
Y9296D01*
Y9225D01*
X360488D01*
Y9155D01*
Y9084D01*
Y9014D01*
Y8943D01*
X360417D01*
Y8872D01*
Y8801D01*
Y8731D01*
Y8660D01*
X360346D01*
Y8590D01*
Y8519D01*
Y8448D01*
Y8377D01*
Y8307D01*
X360276D01*
Y8236D01*
Y8166D01*
Y8095D01*
X360205D01*
Y8024D01*
Y7954D01*
Y7883D01*
Y7812D01*
X360134D01*
Y7741D01*
Y7671D01*
Y7600D01*
Y7530D01*
Y7459D01*
X360064D01*
Y7388D01*
Y7318D01*
Y7247D01*
Y7176D01*
Y7106D01*
Y7035D01*
Y6964D01*
Y6894D01*
Y6823D01*
Y6752D01*
Y6682D01*
Y6611D01*
Y6540D01*
X360134D01*
Y6470D01*
Y6399D01*
X360205D01*
Y6328D01*
X360276D01*
Y6258D01*
X360346D01*
Y6187D01*
X360488D01*
Y6116D01*
X360629D01*
Y6046D01*
X360841D01*
Y5975D01*
X361194D01*
Y5904D01*
X362961D01*
Y5975D01*
X363385D01*
Y5904D01*
X363455D01*
Y5975D01*
X363385D01*
Y6046D01*
X363455D01*
Y6116D01*
Y6187D01*
Y6258D01*
Y6328D01*
X363526D01*
Y6399D01*
Y6470D01*
Y6540D01*
Y6611D01*
Y6682D01*
X363597D01*
Y6752D01*
Y6823D01*
Y6894D01*
X363667D01*
Y6964D01*
Y7035D01*
Y7106D01*
Y7176D01*
X363738D01*
Y7247D01*
Y7318D01*
Y7388D01*
Y7459D01*
Y7530D01*
Y7600D01*
X362961D01*
Y7671D01*
X362890D01*
Y7741D01*
Y7812D01*
X362820D01*
Y7883D01*
Y7954D01*
Y8024D01*
X362890D01*
Y8095D01*
Y8166D01*
Y8236D01*
X362961D01*
Y8307D01*
Y8377D01*
Y8448D01*
Y8519D01*
Y8590D01*
X363031D01*
Y8660D01*
Y8731D01*
Y8801D01*
Y8872D01*
X363102D01*
Y8943D01*
Y9014D01*
Y9084D01*
Y9155D01*
X363173D01*
Y9225D01*
Y9296D01*
Y9367D01*
X363243D01*
Y9437D01*
Y9508D01*
Y9579D01*
Y9650D01*
Y9720D01*
X363314D01*
Y9791D01*
Y9861D01*
Y9932D01*
Y10003D01*
X363385D01*
Y10073D01*
Y10144D01*
Y10215D01*
Y10285D01*
X363455D01*
Y10356D01*
Y10427D01*
Y10497D01*
Y10568D01*
X363526D01*
Y10639D01*
Y10709D01*
Y10780D01*
Y10851D01*
X363597D01*
Y10921D01*
Y10992D01*
Y11063D01*
Y11133D01*
X363667D01*
Y11204D01*
X364727D01*
Y11275D01*
Y11345D01*
Y11416D01*
Y11487D01*
X364798D01*
Y11557D01*
Y11628D01*
Y11699D01*
Y11769D01*
X364869D01*
Y11840D01*
Y11911D01*
Y11981D01*
Y12052D01*
X364939D01*
Y12123D01*
Y12193D01*
Y12264D01*
X365010D01*
Y12335D01*
Y12405D01*
Y12476D01*
Y12547D01*
Y12617D01*
X365081D01*
Y12688D01*
Y12759D01*
Y12829D01*
X364021D01*
Y12900D01*
X364091D01*
Y12971D01*
Y13041D01*
Y13112D01*
X364162D01*
Y13183D01*
Y13253D01*
Y13324D01*
X364233D01*
Y13395D01*
Y13465D01*
Y13536D01*
Y13607D01*
Y13677D01*
X364303D01*
Y13748D01*
Y13819D01*
Y13889D01*
Y13960D01*
X364374D01*
Y14031D01*
Y14101D01*
Y14172D01*
X364445D01*
Y14243D01*
Y14313D01*
Y14384D01*
Y14455D01*
X364515D01*
Y14525D01*
Y14596D01*
Y14667D01*
Y14737D01*
X364586D01*
Y14808D01*
Y14879D01*
Y14949D01*
D02*
G37*
G36*
X351301Y14101D02*
X351231D01*
Y14031D01*
X351301D01*
Y14101D01*
D02*
G37*
G36*
X351089D02*
X351019D01*
Y14031D01*
X351089D01*
Y14101D01*
D02*
G37*
G36*
X364515Y14031D02*
X364445D01*
Y13960D01*
X364515D01*
Y14031D01*
D02*
G37*
G36*
X351019D02*
X350948D01*
Y13960D01*
X351019D01*
Y14031D01*
D02*
G37*
G36*
X361618Y13960D02*
X361547D01*
Y13889D01*
X361618D01*
Y13960D01*
D02*
G37*
G36*
X364586Y13889D02*
X364515D01*
Y13819D01*
X364586D01*
Y13889D01*
D02*
G37*
G36*
X351019D02*
X350948D01*
Y13819D01*
X351019D01*
Y13889D01*
D02*
G37*
G36*
X357802Y13819D02*
X357732D01*
Y13748D01*
X357802D01*
Y13677D01*
X357873D01*
Y13748D01*
X357802D01*
Y13819D01*
D02*
G37*
G36*
X351019Y13748D02*
X350948D01*
Y13677D01*
X351019D01*
Y13748D01*
D02*
G37*
G36*
X357802Y13677D02*
X357732D01*
Y13607D01*
X357802D01*
Y13677D01*
D02*
G37*
G36*
X357732Y13607D02*
X357661D01*
Y13536D01*
X357732D01*
Y13607D01*
D02*
G37*
G36*
X364586Y13677D02*
X364515D01*
Y13607D01*
Y13536D01*
X364445D01*
Y13465D01*
X364586D01*
Y13536D01*
Y13607D01*
Y13677D01*
D02*
G37*
G36*
X386633Y13395D02*
X386562D01*
Y13324D01*
X386633D01*
Y13395D01*
D02*
G37*
G36*
X385361D02*
X385291D01*
Y13324D01*
X385361D01*
Y13395D01*
D02*
G37*
G36*
X382676D02*
X382605D01*
Y13324D01*
X382676D01*
Y13395D01*
D02*
G37*
G36*
X364445D02*
X364374D01*
Y13324D01*
X364445D01*
Y13395D01*
D02*
G37*
G36*
X386492Y13324D02*
X386421D01*
Y13253D01*
X386492D01*
Y13324D01*
D02*
G37*
G36*
X385785Y13395D02*
X385715D01*
Y13324D01*
X385785D01*
Y13253D01*
X385856D01*
Y13324D01*
X385785D01*
Y13395D01*
D02*
G37*
G36*
X385715Y13324D02*
X385644D01*
Y13253D01*
X385715D01*
Y13324D01*
D02*
G37*
G36*
X385291D02*
X385220D01*
Y13253D01*
X385291D01*
Y13324D01*
D02*
G37*
G36*
X384937D02*
X384866D01*
Y13253D01*
X384937D01*
Y13324D01*
D02*
G37*
G36*
X382605D02*
X382535D01*
Y13253D01*
X382605D01*
Y13324D01*
D02*
G37*
G36*
X382181D02*
X381969D01*
Y13253D01*
X382181D01*
Y13324D01*
D02*
G37*
G36*
X381192D02*
X381121D01*
Y13253D01*
X381192D01*
Y13324D01*
D02*
G37*
G36*
X350736D02*
X350665D01*
Y13253D01*
X350736D01*
Y13324D01*
D02*
G37*
G36*
X386280Y13253D02*
X386209D01*
Y13183D01*
X386280D01*
Y13253D01*
D02*
G37*
G36*
X385644D02*
X385573D01*
Y13183D01*
X385644D01*
Y13253D01*
D02*
G37*
G36*
X385432D02*
X385361D01*
Y13183D01*
X385432D01*
Y13253D01*
D02*
G37*
G36*
X382393D02*
X382323D01*
Y13183D01*
X382393D01*
Y13253D01*
D02*
G37*
G36*
X381969D02*
X381899D01*
Y13183D01*
X381969D01*
Y13253D01*
D02*
G37*
G36*
X381687D02*
X381616D01*
Y13183D01*
X381687D01*
Y13253D01*
D02*
G37*
G36*
X357732D02*
X357661D01*
Y13183D01*
X357732D01*
Y13253D01*
D02*
G37*
G36*
X350665D02*
X350595D01*
Y13183D01*
X350665D01*
Y13253D01*
D02*
G37*
G36*
X386139Y13183D02*
X385997D01*
Y13112D01*
X386139D01*
Y13183D01*
D02*
G37*
G36*
X385149Y13253D02*
X385079D01*
Y13183D01*
Y13112D01*
X385149D01*
Y13183D01*
Y13253D01*
D02*
G37*
G36*
X381404Y13183D02*
X381333D01*
Y13112D01*
X381404D01*
Y13183D01*
D02*
G37*
G36*
X381121D02*
X381051D01*
Y13112D01*
X381121D01*
Y13183D01*
D02*
G37*
G36*
X361335D02*
X361265D01*
Y13112D01*
X361335D01*
Y13183D01*
D02*
G37*
G36*
X386633Y13112D02*
X386562D01*
Y13041D01*
X386633D01*
Y13112D01*
D02*
G37*
G36*
X384301Y12900D02*
X384230D01*
Y12829D01*
X384301D01*
Y12900D01*
D02*
G37*
G36*
X383453D02*
X383383D01*
Y12829D01*
X383453D01*
Y12900D01*
D02*
G37*
G36*
X383241D02*
X383171D01*
Y12829D01*
X383241D01*
Y12900D01*
D02*
G37*
G36*
X379920D02*
X379849D01*
Y12829D01*
X379920D01*
Y12900D01*
D02*
G37*
G36*
X372500D02*
X372430D01*
Y12829D01*
X372500D01*
Y12900D01*
D02*
G37*
G36*
X365646D02*
X365505D01*
Y12829D01*
X365646D01*
Y12900D01*
D02*
G37*
G36*
X361123D02*
X361053D01*
Y12829D01*
X361123D01*
Y12900D01*
D02*
G37*
G36*
X360558D02*
X360488D01*
Y12829D01*
X360558D01*
Y12900D01*
D02*
G37*
G36*
X387481Y12829D02*
X387410D01*
Y12759D01*
X387481D01*
Y12829D01*
D02*
G37*
G36*
X384230D02*
X384160D01*
Y12759D01*
X384230D01*
Y12829D01*
D02*
G37*
G36*
X361335Y12900D02*
X361265D01*
Y12829D01*
Y12759D01*
X361335D01*
Y12829D01*
Y12900D01*
D02*
G37*
G36*
X350312D02*
X350100D01*
Y12829D01*
Y12759D01*
X350171D01*
Y12688D01*
X350241D01*
Y12617D01*
Y12547D01*
X350312D01*
Y12617D01*
Y12688D01*
X350241D01*
Y12759D01*
X350171D01*
Y12829D01*
X350312D01*
Y12759D01*
X350383D01*
Y12829D01*
X350312D01*
Y12900D01*
D02*
G37*
G36*
X387410Y12759D02*
X387340D01*
Y12688D01*
X387410D01*
Y12759D01*
D02*
G37*
G36*
X387198Y12900D02*
X387128D01*
Y12829D01*
Y12759D01*
X387198D01*
Y12688D01*
X387269D01*
Y12759D01*
X387198D01*
Y12829D01*
Y12900D01*
D02*
G37*
G36*
X384160Y12759D02*
X384089D01*
Y12688D01*
X384160D01*
Y12759D01*
D02*
G37*
G36*
X383241D02*
X383171D01*
Y12688D01*
X383241D01*
Y12759D01*
D02*
G37*
G36*
X380132D02*
X380061D01*
Y12688D01*
X380132D01*
Y12759D01*
D02*
G37*
G36*
X360558D02*
X360488D01*
Y12688D01*
X360558D01*
Y12759D01*
D02*
G37*
G36*
X377094Y12688D02*
X377023D01*
Y12617D01*
X377094D01*
Y12688D01*
D02*
G37*
G36*
X372288Y12900D02*
X372218D01*
Y12829D01*
X372288D01*
Y12759D01*
X372430D01*
Y12688D01*
X372500D01*
Y12617D01*
X372571D01*
Y12688D01*
X372500D01*
Y12759D01*
X372430D01*
Y12829D01*
X372288D01*
Y12900D01*
D02*
G37*
G36*
X372359Y12688D02*
X372288D01*
Y12617D01*
X372359D01*
Y12688D01*
D02*
G37*
G36*
X361265D02*
X361194D01*
Y12617D01*
X361265D01*
Y12688D01*
D02*
G37*
G36*
X380061Y12617D02*
X379991D01*
Y12547D01*
X380061D01*
Y12617D01*
D02*
G37*
G36*
X361194D02*
X361123D01*
Y12547D01*
X361194D01*
Y12617D01*
D02*
G37*
G36*
X387410D02*
X387340D01*
Y12547D01*
X387410D01*
Y12476D01*
X387481D01*
Y12547D01*
X387410D01*
Y12617D01*
D02*
G37*
G36*
X372500D02*
X372430D01*
Y12547D01*
X372500D01*
Y12476D01*
X372571D01*
Y12547D01*
X372500D01*
Y12617D01*
D02*
G37*
G36*
X361123Y12547D02*
X361053D01*
Y12476D01*
X361123D01*
Y12547D01*
D02*
G37*
G36*
X373278Y12476D02*
X373207D01*
Y12405D01*
X373278D01*
Y12476D01*
D02*
G37*
G36*
X360417D02*
X360346D01*
Y12405D01*
X360417D01*
Y12476D01*
D02*
G37*
G36*
X383524D02*
X383453D01*
Y12405D01*
X383524D01*
Y12335D01*
X383595D01*
Y12405D01*
X383524D01*
Y12476D01*
D02*
G37*
G36*
X373207Y12405D02*
X373136D01*
Y12335D01*
X373207D01*
Y12405D01*
D02*
G37*
G36*
X369250D02*
X369179D01*
Y12335D01*
X369250D01*
Y12405D01*
D02*
G37*
G36*
X361194D02*
X361123D01*
Y12335D01*
X361194D01*
Y12405D01*
D02*
G37*
G36*
X350241D02*
X350171D01*
Y12335D01*
X350241D01*
Y12405D01*
D02*
G37*
G36*
X368543Y12900D02*
X368473D01*
Y12829D01*
X365858D01*
Y12759D01*
Y12688D01*
Y12617D01*
Y12547D01*
Y12476D01*
X365787D01*
Y12405D01*
Y12335D01*
Y12264D01*
X365717D01*
Y12335D01*
X365646D01*
Y12264D01*
X365717D01*
Y12193D01*
Y12123D01*
Y12052D01*
Y11981D01*
X365646D01*
Y11911D01*
Y11840D01*
Y11769D01*
Y11699D01*
Y11628D01*
X365575D01*
Y11557D01*
Y11487D01*
Y11416D01*
Y11345D01*
X365505D01*
Y11275D01*
Y11204D01*
Y11133D01*
X365434D01*
Y11063D01*
Y10992D01*
Y10921D01*
Y10851D01*
X365363D01*
Y10780D01*
Y10709D01*
Y10639D01*
Y10568D01*
Y10497D01*
X365293D01*
Y10427D01*
Y10356D01*
Y10285D01*
Y10215D01*
X365222D01*
Y10144D01*
Y10073D01*
Y10003D01*
X365151D01*
Y9932D01*
Y9861D01*
Y9791D01*
Y9720D01*
Y9650D01*
X365081D01*
Y9579D01*
Y9508D01*
Y9437D01*
Y9367D01*
X365010D01*
Y9296D01*
Y9225D01*
Y9155D01*
X364939D01*
Y9084D01*
Y9014D01*
Y8943D01*
Y8872D01*
X364869D01*
Y8801D01*
Y8731D01*
Y8660D01*
Y8590D01*
Y8519D01*
X364798D01*
Y8448D01*
Y8377D01*
Y8307D01*
Y8236D01*
X364727D01*
Y8166D01*
Y8095D01*
Y8024D01*
X364657D01*
Y7954D01*
Y7883D01*
Y7812D01*
Y7741D01*
Y7671D01*
X364586D01*
Y7600D01*
Y7530D01*
Y7459D01*
Y7388D01*
X364515D01*
Y7318D01*
Y7247D01*
Y7176D01*
Y7106D01*
X364445D01*
Y7035D01*
Y6964D01*
Y6894D01*
X364374D01*
Y6823D01*
Y6752D01*
Y6682D01*
Y6611D01*
Y6540D01*
X364303D01*
Y6470D01*
Y6399D01*
Y6328D01*
Y6258D01*
X364233D01*
Y6187D01*
Y6116D01*
Y6046D01*
Y5975D01*
X366847D01*
Y6046D01*
Y6116D01*
Y6187D01*
X366918D01*
Y6258D01*
Y6328D01*
Y6399D01*
Y6470D01*
X366989D01*
Y6540D01*
Y6611D01*
Y6682D01*
Y6752D01*
Y6823D01*
X367059D01*
Y6894D01*
Y6964D01*
Y7035D01*
X367130D01*
Y7106D01*
Y7176D01*
Y7247D01*
Y7318D01*
X367201D01*
Y7388D01*
Y7459D01*
Y7530D01*
Y7600D01*
X367271D01*
Y7671D01*
Y7741D01*
Y7812D01*
Y7883D01*
Y7954D01*
X367342D01*
Y8024D01*
Y8095D01*
Y8166D01*
X367413D01*
Y8236D01*
Y8307D01*
Y8377D01*
Y8448D01*
X367483D01*
Y8519D01*
Y8590D01*
Y8660D01*
Y8731D01*
Y8801D01*
X367554D01*
Y8872D01*
Y8943D01*
Y9014D01*
Y9084D01*
X367625D01*
Y9155D01*
Y9225D01*
Y9296D01*
X367695D01*
Y9367D01*
Y9437D01*
Y9508D01*
Y9579D01*
X367766D01*
Y9650D01*
Y9720D01*
Y9791D01*
Y9861D01*
Y9932D01*
X367837D01*
Y10003D01*
Y10073D01*
Y10144D01*
Y10215D01*
X367907D01*
Y10285D01*
Y10356D01*
Y10427D01*
X367978D01*
Y10497D01*
Y10568D01*
Y10639D01*
Y10709D01*
Y10780D01*
X368049D01*
Y10851D01*
Y10921D01*
Y10992D01*
Y11063D01*
X368119D01*
Y11133D01*
Y11204D01*
Y11275D01*
X368190D01*
Y11345D01*
Y11416D01*
Y11487D01*
Y11557D01*
X368261D01*
Y11628D01*
Y11699D01*
Y11769D01*
Y11840D01*
Y11911D01*
X368331D01*
Y11981D01*
Y12052D01*
Y12123D01*
Y12193D01*
X368402D01*
Y12264D01*
Y12335D01*
Y12405D01*
X368473D01*
Y12335D01*
X368543D01*
Y12264D01*
X368614D01*
Y12335D01*
X368543D01*
Y12405D01*
X368473D01*
Y12476D01*
Y12547D01*
Y12617D01*
Y12688D01*
X368543D01*
Y12759D01*
Y12829D01*
Y12900D01*
D02*
G37*
G36*
X350171Y12335D02*
X350100D01*
Y12264D01*
X350171D01*
Y12335D01*
D02*
G37*
G36*
X387552Y12264D02*
X387481D01*
Y12193D01*
X387552D01*
Y12264D01*
D02*
G37*
G36*
X368543D02*
X368473D01*
Y12193D01*
X368543D01*
Y12264D01*
D02*
G37*
G36*
X386280Y13041D02*
X385149D01*
Y12971D01*
X384866D01*
Y12900D01*
X384654D01*
Y12829D01*
X384442D01*
Y12759D01*
X384301D01*
Y12688D01*
X384230D01*
Y12617D01*
X384089D01*
Y12547D01*
X383948D01*
Y12476D01*
X383877D01*
Y12405D01*
X383807D01*
Y12335D01*
X383736D01*
Y12264D01*
X383665D01*
Y12193D01*
X383595D01*
Y12123D01*
X383524D01*
Y12193D01*
X383453D01*
Y12264D01*
Y12335D01*
X383383D01*
Y12405D01*
Y12476D01*
X383312D01*
Y12547D01*
X383241D01*
Y12617D01*
X383171D01*
Y12688D01*
X383100D01*
Y12759D01*
X383029D01*
Y12829D01*
X382888D01*
Y12900D01*
X382676D01*
Y12971D01*
X382393D01*
Y13041D01*
X381263D01*
Y12971D01*
X380980D01*
Y12900D01*
X380768D01*
Y12829D01*
X380556D01*
Y12759D01*
X380415D01*
Y12688D01*
X380344D01*
Y12617D01*
X380203D01*
Y12547D01*
X380132D01*
Y12476D01*
X379991D01*
Y12405D01*
X379920D01*
Y12335D01*
X379849D01*
Y12264D01*
X379779D01*
Y12335D01*
Y12405D01*
Y12476D01*
Y12547D01*
X379849D01*
Y12617D01*
Y12688D01*
Y12759D01*
Y12829D01*
X377235D01*
Y12759D01*
Y12688D01*
X377164D01*
Y12617D01*
Y12547D01*
Y12476D01*
Y12405D01*
Y12335D01*
X377094D01*
Y12264D01*
Y12193D01*
Y12123D01*
Y12052D01*
X377023D01*
Y11981D01*
Y11911D01*
Y11840D01*
X376952D01*
Y11769D01*
Y11699D01*
Y11628D01*
Y11557D01*
X376882D01*
Y11487D01*
Y11416D01*
Y11345D01*
Y11275D01*
Y11204D01*
X376811D01*
Y11133D01*
Y11063D01*
Y10992D01*
X376740D01*
Y11063D01*
X376670D01*
Y10992D01*
X376740D01*
Y10921D01*
Y10851D01*
Y10780D01*
Y10709D01*
X376670D01*
Y10639D01*
Y10568D01*
Y10497D01*
Y10427D01*
Y10356D01*
X376599D01*
Y10285D01*
Y10215D01*
Y10144D01*
Y10073D01*
X376528D01*
Y10003D01*
Y9932D01*
Y9861D01*
X376458D01*
Y9791D01*
Y9720D01*
Y9650D01*
Y9579D01*
X376387D01*
Y9508D01*
Y9437D01*
Y9367D01*
Y9296D01*
Y9225D01*
X376316D01*
Y9155D01*
Y9084D01*
Y9014D01*
X376246D01*
Y8943D01*
Y8872D01*
Y8801D01*
Y8731D01*
X376175D01*
Y8660D01*
Y8590D01*
Y8519D01*
Y8448D01*
Y8377D01*
X376104D01*
Y8307D01*
Y8236D01*
Y8166D01*
Y8095D01*
X376034D01*
Y8024D01*
Y7954D01*
Y7883D01*
X375963D01*
Y7812D01*
Y7741D01*
Y7671D01*
Y7600D01*
X375892D01*
Y7530D01*
Y7459D01*
Y7388D01*
Y7318D01*
Y7247D01*
X375822D01*
Y7176D01*
Y7106D01*
Y7035D01*
Y6964D01*
X375751D01*
Y6894D01*
Y6823D01*
Y6752D01*
X375680D01*
Y6682D01*
Y6611D01*
Y6540D01*
Y6470D01*
Y6399D01*
X375610D01*
Y6328D01*
Y6258D01*
Y6187D01*
Y6116D01*
X375539D01*
Y6046D01*
Y5975D01*
X378153D01*
Y6046D01*
X378224D01*
Y6116D01*
Y6187D01*
Y6258D01*
Y6328D01*
X378295D01*
Y6399D01*
Y6470D01*
Y6540D01*
Y6611D01*
Y6682D01*
X378365D01*
Y6752D01*
Y6823D01*
Y6894D01*
X378436D01*
Y6964D01*
Y7035D01*
Y7106D01*
Y7176D01*
X378507D01*
Y7247D01*
Y7318D01*
Y7388D01*
Y7459D01*
Y7530D01*
X378577D01*
Y7600D01*
Y7671D01*
Y7741D01*
X378648D01*
Y7812D01*
Y7883D01*
Y7954D01*
Y8024D01*
X378719D01*
Y8095D01*
Y8166D01*
Y8236D01*
Y8307D01*
X378789D01*
Y8377D01*
Y8448D01*
Y8519D01*
Y8590D01*
Y8660D01*
X378860D01*
Y8731D01*
Y8801D01*
Y8872D01*
X378931D01*
Y8943D01*
Y9014D01*
Y9084D01*
Y9155D01*
X379001D01*
Y9225D01*
Y9296D01*
Y9367D01*
Y9437D01*
Y9508D01*
X379072D01*
Y9579D01*
Y9650D01*
Y9720D01*
X379143D01*
Y9791D01*
Y9861D01*
Y9932D01*
Y10003D01*
X379213D01*
Y10073D01*
Y10144D01*
Y10215D01*
Y10285D01*
X379284D01*
Y10356D01*
Y10427D01*
Y10497D01*
Y10568D01*
X379355D01*
Y10639D01*
Y10709D01*
Y10780D01*
X379425D01*
Y10851D01*
X379496D01*
Y10921D01*
Y10992D01*
X379567D01*
Y11063D01*
X379637D01*
Y11133D01*
X379779D01*
Y11204D01*
X380556D01*
Y11133D01*
X380627D01*
Y11063D01*
Y10992D01*
Y10921D01*
Y10851D01*
Y10780D01*
Y10709D01*
Y10639D01*
Y10568D01*
Y10497D01*
Y10427D01*
X380556D01*
Y10356D01*
Y10285D01*
Y10215D01*
Y10144D01*
X380485D01*
Y10073D01*
Y10003D01*
Y9932D01*
Y9861D01*
X380415D01*
Y9791D01*
Y9720D01*
Y9650D01*
Y9579D01*
Y9508D01*
X380344D01*
Y9437D01*
Y9367D01*
Y9296D01*
X380273D01*
Y9225D01*
Y9155D01*
Y9084D01*
Y9014D01*
X380203D01*
Y8943D01*
Y8872D01*
Y8801D01*
Y8731D01*
X380132D01*
Y8660D01*
Y8590D01*
Y8519D01*
Y8448D01*
X380061D01*
Y8377D01*
Y8307D01*
Y8236D01*
Y8166D01*
X379991D01*
Y8095D01*
Y8024D01*
Y7954D01*
Y7883D01*
X379920D01*
Y7812D01*
Y7741D01*
Y7671D01*
Y7600D01*
Y7530D01*
X379849D01*
Y7459D01*
Y7388D01*
Y7318D01*
X379779D01*
Y7247D01*
Y7176D01*
Y7106D01*
Y7035D01*
X379708D01*
Y6964D01*
Y6894D01*
Y6823D01*
Y6752D01*
X379637D01*
Y6682D01*
Y6611D01*
Y6540D01*
Y6470D01*
X379567D01*
Y6399D01*
Y6328D01*
Y6258D01*
Y6187D01*
X379496D01*
Y6116D01*
Y6046D01*
Y5975D01*
X382111D01*
Y6046D01*
Y6116D01*
X382181D01*
Y6187D01*
Y6258D01*
Y6328D01*
Y6399D01*
X382252D01*
Y6470D01*
Y6540D01*
Y6611D01*
Y6682D01*
X382323D01*
Y6752D01*
Y6823D01*
Y6894D01*
Y6964D01*
X382393D01*
Y7035D01*
Y7106D01*
Y7176D01*
Y7247D01*
X382464D01*
Y7318D01*
Y7388D01*
Y7459D01*
Y7530D01*
X382535D01*
Y7600D01*
Y7671D01*
Y7741D01*
Y7812D01*
Y7883D01*
X382605D01*
Y7954D01*
Y8024D01*
Y8095D01*
X382676D01*
Y8166D01*
Y8236D01*
Y8307D01*
Y8377D01*
X382747D01*
Y8448D01*
Y8519D01*
Y8590D01*
Y8660D01*
X382817D01*
Y8731D01*
Y8801D01*
Y8872D01*
Y8943D01*
X382888D01*
Y9014D01*
Y9084D01*
Y9155D01*
Y9225D01*
X382959D01*
Y9296D01*
Y9367D01*
Y9437D01*
Y9508D01*
X383029D01*
Y9579D01*
Y9650D01*
Y9720D01*
Y9791D01*
Y9861D01*
X383100D01*
Y9932D01*
Y10003D01*
Y10073D01*
X383171D01*
Y10144D01*
Y10215D01*
Y10285D01*
Y10356D01*
X383241D01*
Y10427D01*
Y10497D01*
Y10568D01*
Y10639D01*
X383312D01*
Y10709D01*
Y10780D01*
X383383D01*
Y10851D01*
Y10921D01*
X383453D01*
Y10992D01*
X383524D01*
Y11063D01*
X383595D01*
Y10992D01*
X383665D01*
Y11063D01*
X383595D01*
Y11133D01*
X383736D01*
Y11204D01*
X384513D01*
Y11133D01*
X384584D01*
Y11063D01*
Y10992D01*
X384654D01*
Y10921D01*
Y10851D01*
Y10780D01*
Y10709D01*
Y10639D01*
X384584D01*
Y10568D01*
Y10497D01*
Y10427D01*
X384513D01*
Y10356D01*
Y10285D01*
Y10215D01*
Y10144D01*
X384442D01*
Y10073D01*
Y10003D01*
Y9932D01*
Y9861D01*
Y9791D01*
X384372D01*
Y9720D01*
Y9650D01*
Y9579D01*
Y9508D01*
X384301D01*
Y9437D01*
Y9367D01*
Y9296D01*
X384230D01*
Y9225D01*
Y9155D01*
Y9084D01*
Y9014D01*
X384160D01*
Y8943D01*
Y8872D01*
Y8801D01*
Y8731D01*
Y8660D01*
X384089D01*
Y8590D01*
Y8519D01*
Y8448D01*
Y8377D01*
X384019D01*
Y8307D01*
Y8236D01*
Y8166D01*
X383948D01*
Y8095D01*
Y8024D01*
Y7954D01*
Y7883D01*
Y7812D01*
X383877D01*
Y7741D01*
Y7671D01*
Y7600D01*
Y7530D01*
X383807D01*
Y7459D01*
Y7388D01*
Y7318D01*
Y7247D01*
X383736D01*
Y7176D01*
Y7106D01*
Y7035D01*
Y6964D01*
X383665D01*
Y6894D01*
Y6823D01*
Y6752D01*
Y6682D01*
X383595D01*
Y6611D01*
Y6540D01*
Y6470D01*
Y6399D01*
X383524D01*
Y6328D01*
Y6258D01*
Y6187D01*
X383453D01*
Y6116D01*
Y6046D01*
Y5975D01*
X385008D01*
Y6046D01*
X385220D01*
Y6116D01*
X385432D01*
Y6187D01*
X385573D01*
Y6258D01*
X385644D01*
Y6328D01*
X385785D01*
Y6399D01*
X385856D01*
Y6470D01*
X385927D01*
Y6540D01*
X385997D01*
Y6611D01*
X386068D01*
Y6682D01*
X386139D01*
Y6752D01*
X386209D01*
Y6823D01*
Y6894D01*
X386280D01*
Y6964D01*
Y7035D01*
X386350D01*
Y7106D01*
Y7176D01*
Y7247D01*
X386421D01*
Y7318D01*
Y7388D01*
Y7459D01*
X386492D01*
Y7530D01*
Y7600D01*
Y7671D01*
Y7741D01*
X386562D01*
Y7812D01*
Y7883D01*
Y7954D01*
Y8024D01*
Y8095D01*
X386633D01*
Y8166D01*
Y8236D01*
Y8307D01*
X386704D01*
Y8377D01*
Y8448D01*
Y8519D01*
Y8590D01*
X386774D01*
Y8660D01*
Y8731D01*
Y8801D01*
Y8872D01*
Y8943D01*
X386845D01*
Y9014D01*
Y9084D01*
Y9155D01*
Y9225D01*
X386916D01*
Y9296D01*
Y9367D01*
Y9437D01*
X386986D01*
Y9508D01*
Y9579D01*
Y9650D01*
Y9720D01*
X387057D01*
Y9791D01*
Y9861D01*
Y9932D01*
Y10003D01*
Y10073D01*
X387128D01*
Y10144D01*
Y10215D01*
Y10285D01*
X387198D01*
Y10356D01*
Y10427D01*
Y10497D01*
Y10568D01*
X387269D01*
Y10639D01*
Y10709D01*
Y10780D01*
Y10851D01*
Y10921D01*
X387340D01*
Y10992D01*
Y11063D01*
Y11133D01*
Y11204D01*
X387410D01*
Y11275D01*
Y11345D01*
Y11416D01*
Y11487D01*
Y11557D01*
X387481D01*
Y11628D01*
Y11699D01*
Y11769D01*
Y11840D01*
Y11911D01*
Y11981D01*
X387410D01*
Y12052D01*
Y12123D01*
Y12193D01*
Y12264D01*
X387340D01*
Y12335D01*
Y12405D01*
Y12476D01*
X387269D01*
Y12547D01*
X387198D01*
Y12617D01*
X387128D01*
Y12688D01*
X387057D01*
Y12759D01*
X386916D01*
Y12829D01*
X386774D01*
Y12900D01*
X386562D01*
Y12971D01*
X386280D01*
Y13041D01*
D02*
G37*
G36*
X377023Y12193D02*
X376952D01*
Y12123D01*
X377023D01*
Y12193D01*
D02*
G37*
G36*
X373207D02*
X373066D01*
Y12123D01*
X373207D01*
Y12193D01*
D02*
G37*
G36*
X369250D02*
X369179D01*
Y12123D01*
X369250D01*
Y12193D01*
D02*
G37*
G36*
X373066Y12123D02*
X372995D01*
Y12052D01*
Y11981D01*
X373066D01*
Y12052D01*
Y12123D01*
D02*
G37*
G36*
X376104Y11981D02*
X376034D01*
Y11911D01*
X376104D01*
Y11981D01*
D02*
G37*
G36*
X349888D02*
X349817D01*
Y11911D01*
X349888D01*
Y11981D01*
D02*
G37*
G36*
X369179Y12052D02*
X369038D01*
Y11981D01*
Y11911D01*
X369109D01*
Y11840D01*
X369250D01*
Y11911D01*
X369109D01*
Y11981D01*
X369179D01*
Y12052D01*
D02*
G37*
G36*
X368473Y11911D02*
X368402D01*
Y11840D01*
X368473D01*
Y11911D01*
D02*
G37*
G36*
X357237Y11981D02*
X357166D01*
Y11911D01*
X357237D01*
Y11840D01*
X357308D01*
Y11911D01*
X357237D01*
Y11981D01*
D02*
G37*
G36*
X355541Y11911D02*
X355470D01*
Y11840D01*
X355541D01*
Y11911D01*
D02*
G37*
G36*
X376034D02*
X375963D01*
Y11840D01*
Y11769D01*
X376034D01*
Y11840D01*
Y11911D01*
D02*
G37*
G36*
X373136D02*
X372995D01*
Y11840D01*
X373066D01*
Y11769D01*
X373136D01*
Y11840D01*
Y11911D01*
D02*
G37*
G36*
X372076Y11840D02*
X372006D01*
Y11769D01*
X372076D01*
Y11840D01*
D02*
G37*
G36*
X357166Y11911D02*
X357096D01*
Y11840D01*
X357166D01*
Y11769D01*
X357237D01*
Y11840D01*
X357166D01*
Y11911D01*
D02*
G37*
G36*
X355682D02*
X355612D01*
Y11840D01*
X355682D01*
Y11769D01*
X355753D01*
Y11840D01*
X355682D01*
Y11911D01*
D02*
G37*
G36*
X349817D02*
X349676D01*
Y11840D01*
X349747D01*
Y11769D01*
X349817D01*
Y11840D01*
Y11911D01*
D02*
G37*
G36*
X369109Y11769D02*
X369038D01*
Y11699D01*
X369109D01*
Y11769D01*
D02*
G37*
G36*
X368543D02*
X368473D01*
Y11699D01*
X368543D01*
Y11769D01*
D02*
G37*
G36*
X357166D02*
X357096D01*
Y11699D01*
X357166D01*
Y11769D01*
D02*
G37*
G36*
X355612D02*
X355541D01*
Y11699D01*
X355612D01*
Y11769D01*
D02*
G37*
G36*
X349676D02*
X349605D01*
Y11699D01*
X349676D01*
Y11769D01*
D02*
G37*
G36*
X357308Y11699D02*
X357237D01*
Y11628D01*
X357308D01*
Y11699D01*
D02*
G37*
G36*
X355541D02*
X355470D01*
Y11628D01*
X355541D01*
Y11699D01*
D02*
G37*
G36*
X375963Y11628D02*
X375892D01*
Y11557D01*
X375963D01*
Y11628D01*
D02*
G37*
G36*
X376104Y11557D02*
X376034D01*
Y11487D01*
X376104D01*
Y11557D01*
D02*
G37*
G36*
X372076D02*
X372006D01*
Y11487D01*
X372076D01*
Y11557D01*
D02*
G37*
G36*
X360205D02*
X360134D01*
Y11487D01*
X360205D01*
Y11557D01*
D02*
G37*
G36*
X349676D02*
X349605D01*
Y11487D01*
X349676D01*
Y11557D01*
D02*
G37*
G36*
X376811Y11487D02*
X376740D01*
Y11416D01*
X376811D01*
Y11487D01*
D02*
G37*
G36*
X365081D02*
X365010D01*
Y11416D01*
X365081D01*
Y11487D01*
D02*
G37*
G36*
X376670D02*
X376599D01*
Y11416D01*
Y11345D01*
X376670D01*
Y11416D01*
Y11487D01*
D02*
G37*
G36*
X376034D02*
X375892D01*
Y11416D01*
X376034D01*
Y11345D01*
X376104D01*
Y11416D01*
X376034D01*
Y11487D01*
D02*
G37*
G36*
X369109Y11416D02*
X369038D01*
Y11345D01*
X369109D01*
Y11416D01*
D02*
G37*
G36*
X364939D02*
X364869D01*
Y11345D01*
X364939D01*
Y11416D01*
D02*
G37*
G36*
X355824D02*
X355612D01*
Y11345D01*
X355824D01*
Y11416D01*
D02*
G37*
G36*
X349676D02*
X349605D01*
Y11345D01*
X349676D01*
Y11416D01*
D02*
G37*
G36*
X372076Y11345D02*
X372006D01*
Y11275D01*
X372076D01*
Y11345D01*
D02*
G37*
G36*
X365081D02*
X365010D01*
Y11275D01*
X365081D01*
Y11345D01*
D02*
G37*
G36*
X357237Y11416D02*
X357166D01*
Y11345D01*
Y11275D01*
X357237D01*
Y11345D01*
Y11416D01*
D02*
G37*
G36*
X376740Y11275D02*
X376670D01*
Y11204D01*
X376740D01*
Y11275D01*
D02*
G37*
G36*
X376599D02*
X376528D01*
Y11204D01*
X376599D01*
Y11275D01*
D02*
G37*
G36*
X372006D02*
X371935D01*
Y11204D01*
X372006D01*
Y11275D01*
D02*
G37*
G36*
X360134D02*
X360064D01*
Y11204D01*
X360134D01*
Y11275D01*
D02*
G37*
G36*
X375963Y11204D02*
X375892D01*
Y11133D01*
X375963D01*
Y11204D01*
D02*
G37*
G36*
X371935D02*
X371864D01*
Y11133D01*
X371935D01*
Y11204D01*
D02*
G37*
G36*
X368331D02*
X368261D01*
Y11133D01*
X368331D01*
Y11204D01*
D02*
G37*
G36*
X360911Y11275D02*
X360841D01*
Y11204D01*
Y11133D01*
X360911D01*
Y11204D01*
Y11275D01*
D02*
G37*
G36*
X387552Y11133D02*
X387481D01*
Y11063D01*
X387552D01*
Y11133D01*
D02*
G37*
G36*
X349535D02*
X349464D01*
Y11063D01*
X349535D01*
Y11133D01*
D02*
G37*
G36*
X387481Y11063D02*
X387410D01*
Y10992D01*
X387481D01*
Y11063D01*
D02*
G37*
G36*
X379849D02*
X379779D01*
Y10992D01*
X379849D01*
Y11063D01*
D02*
G37*
G36*
X375892Y11133D02*
X375822D01*
Y11063D01*
X375892D01*
Y10992D01*
X375963D01*
Y11063D01*
X375892D01*
Y11133D01*
D02*
G37*
G36*
X355682Y11063D02*
X355612D01*
Y10992D01*
X355682D01*
Y11063D01*
D02*
G37*
G36*
X349393D02*
X349323D01*
Y10992D01*
X349393D01*
Y11063D01*
D02*
G37*
G36*
X376670Y10992D02*
X376599D01*
Y10921D01*
X376670D01*
Y10992D01*
D02*
G37*
G36*
X372006D02*
X371935D01*
Y10921D01*
X372006D01*
Y10992D01*
D02*
G37*
G36*
X365363D02*
X365293D01*
Y10921D01*
X365363D01*
Y10992D01*
D02*
G37*
G36*
X357166D02*
X357096D01*
Y10921D01*
X357166D01*
Y10992D01*
D02*
G37*
G36*
X383877Y11063D02*
X383807D01*
Y10992D01*
X383877D01*
Y10921D01*
X383948D01*
Y10851D01*
X384019D01*
Y10921D01*
X383948D01*
Y10992D01*
X383877D01*
Y11063D01*
D02*
G37*
G36*
X380556Y10921D02*
X380485D01*
Y10851D01*
X380556D01*
Y10921D01*
D02*
G37*
G36*
X379779Y10992D02*
X379708D01*
Y10921D01*
X379779D01*
Y10851D01*
X379991D01*
Y10921D01*
X379779D01*
Y10992D01*
D02*
G37*
G36*
X379637Y10921D02*
X379567D01*
Y10851D01*
X379637D01*
Y10921D01*
D02*
G37*
G36*
X375892D02*
X375822D01*
Y10851D01*
X375892D01*
Y10921D01*
D02*
G37*
G36*
X371935D02*
X371794D01*
Y10851D01*
X371935D01*
Y10921D01*
D02*
G37*
G36*
X355753D02*
X355682D01*
Y10851D01*
X355753D01*
Y10921D01*
D02*
G37*
G36*
X349323Y10992D02*
X349252D01*
Y10921D01*
X349323D01*
Y10851D01*
X349393D01*
Y10921D01*
X349323D01*
Y10992D01*
D02*
G37*
G36*
X349252Y10921D02*
X349181D01*
Y10851D01*
X349252D01*
Y10921D01*
D02*
G37*
G36*
X387552D02*
X387481D01*
Y10851D01*
Y10780D01*
X387552D01*
Y10851D01*
Y10921D01*
D02*
G37*
G36*
X383948Y10851D02*
X383877D01*
Y10780D01*
X383948D01*
Y10851D01*
D02*
G37*
G36*
X383524D02*
X383453D01*
Y10780D01*
X383524D01*
Y10851D01*
D02*
G37*
G36*
X376599Y10921D02*
X376528D01*
Y10851D01*
X376599D01*
Y10780D01*
X376670D01*
Y10851D01*
X376599D01*
Y10921D01*
D02*
G37*
G36*
X365293Y10851D02*
X365222D01*
Y10780D01*
X365293D01*
Y10851D01*
D02*
G37*
G36*
X365081D02*
X365010D01*
Y10780D01*
X365081D01*
Y10851D01*
D02*
G37*
G36*
X360841Y10921D02*
X360770D01*
Y10851D01*
Y10780D01*
X360841D01*
Y10851D01*
Y10921D01*
D02*
G37*
G36*
X387481Y10780D02*
X387410D01*
Y10709D01*
X387481D01*
Y10780D01*
D02*
G37*
G36*
X384513D02*
X384442D01*
Y10709D01*
X384513D01*
Y10780D01*
D02*
G37*
G36*
X383736Y10921D02*
X383665D01*
Y10851D01*
X383736D01*
Y10780D01*
X383807D01*
Y10709D01*
X383877D01*
Y10780D01*
X383807D01*
Y10851D01*
X383736D01*
Y10921D01*
D02*
G37*
G36*
X380556Y10780D02*
X380485D01*
Y10709D01*
X380556D01*
Y10780D01*
D02*
G37*
G36*
X375892D02*
X375822D01*
Y10709D01*
X375892D01*
Y10780D01*
D02*
G37*
G36*
X360134D02*
X360064D01*
Y10709D01*
X360134D01*
Y10780D01*
D02*
G37*
G36*
X355682D02*
X355612D01*
Y10709D01*
X355682D01*
Y10780D01*
D02*
G37*
G36*
X383453Y10709D02*
X383383D01*
Y10639D01*
X383453D01*
Y10709D01*
D02*
G37*
G36*
X368614D02*
X368543D01*
Y10639D01*
X368614D01*
Y10709D01*
D02*
G37*
G36*
X365293D02*
X365222D01*
Y10639D01*
X365293D01*
Y10709D01*
D02*
G37*
G36*
X372854Y10639D02*
X372783D01*
Y10568D01*
X372854D01*
Y10639D01*
D02*
G37*
G36*
X365222D02*
X365151D01*
Y10568D01*
X365222D01*
Y10639D01*
D02*
G37*
G36*
X360770D02*
X360700D01*
Y10568D01*
X360770D01*
Y10639D01*
D02*
G37*
G36*
X387481D02*
X387340D01*
Y10568D01*
X387481D01*
Y10497D01*
X387552D01*
Y10568D01*
X387481D01*
Y10639D01*
D02*
G37*
G36*
X379567D02*
X379496D01*
Y10568D01*
X379567D01*
Y10497D01*
X379637D01*
Y10568D01*
X379567D01*
Y10639D01*
D02*
G37*
G36*
X372642D02*
X372571D01*
Y10568D01*
X372642D01*
Y10497D01*
X372712D01*
Y10568D01*
X372642D01*
Y10639D01*
D02*
G37*
G36*
X383595Y10497D02*
X383524D01*
Y10427D01*
X383595D01*
Y10497D01*
D02*
G37*
G36*
X379496Y10568D02*
X379425D01*
Y10497D01*
X379496D01*
Y10427D01*
X379567D01*
Y10497D01*
X379496D01*
Y10568D01*
D02*
G37*
G36*
X365222Y10497D02*
X365151D01*
Y10427D01*
X365222D01*
Y10497D01*
D02*
G37*
G36*
X387552Y10427D02*
X387481D01*
Y10356D01*
X387552D01*
Y10427D01*
D02*
G37*
G36*
X383524D02*
X383453D01*
Y10356D01*
X383524D01*
Y10427D01*
D02*
G37*
G36*
X383383D02*
X383312D01*
Y10356D01*
X383383D01*
Y10427D01*
D02*
G37*
G36*
X379425D02*
X379355D01*
Y10356D01*
X379425D01*
Y10427D01*
D02*
G37*
G36*
X372783D02*
X372712D01*
Y10356D01*
X372642D01*
Y10427D01*
X372571D01*
Y10356D01*
X372642D01*
Y10285D01*
X372783D01*
Y10356D01*
Y10427D01*
D02*
G37*
G36*
X368119D02*
X368049D01*
Y10356D01*
X368119D01*
Y10427D01*
D02*
G37*
G36*
X363738D02*
X363667D01*
Y10356D01*
X363738D01*
Y10427D01*
D02*
G37*
G36*
X363597D02*
X363526D01*
Y10356D01*
X363597D01*
Y10427D01*
D02*
G37*
G36*
X360700D02*
X360629D01*
Y10356D01*
X360700D01*
Y10427D01*
D02*
G37*
G36*
X387410D02*
X387340D01*
Y10356D01*
X387410D01*
Y10285D01*
X387481D01*
Y10356D01*
X387410D01*
Y10427D01*
D02*
G37*
G36*
X379567Y10356D02*
X379496D01*
Y10285D01*
X379567D01*
Y10356D01*
D02*
G37*
G36*
X356813Y10285D02*
X356742D01*
Y10215D01*
X356813D01*
Y10285D01*
D02*
G37*
G36*
X349040D02*
X348969D01*
Y10215D01*
X349040D01*
Y10285D01*
D02*
G37*
G36*
X379637Y10215D02*
X379567D01*
Y10144D01*
X379637D01*
Y10215D01*
D02*
G37*
G36*
X372642Y10285D02*
X372571D01*
Y10215D01*
X372642D01*
Y10144D01*
X372712D01*
Y10215D01*
X372642D01*
Y10285D01*
D02*
G37*
G36*
X368755Y10215D02*
X368685D01*
Y10144D01*
X368755D01*
Y10215D01*
D02*
G37*
G36*
X368119D02*
X368049D01*
Y10144D01*
X368119D01*
Y10215D01*
D02*
G37*
G36*
X363597Y10285D02*
X363526D01*
Y10215D01*
Y10144D01*
X363597D01*
Y10215D01*
Y10285D01*
D02*
G37*
G36*
X356742Y10215D02*
X356672D01*
Y10144D01*
X356742D01*
Y10215D01*
D02*
G37*
G36*
X348969D02*
X348899D01*
Y10144D01*
X348969D01*
Y10215D01*
D02*
G37*
G36*
X379567Y10144D02*
X379496D01*
Y10073D01*
X379567D01*
Y10144D01*
D02*
G37*
G36*
X375610D02*
X375539D01*
Y10073D01*
X375610D01*
Y10144D01*
D02*
G37*
G36*
X368049D02*
X367978D01*
Y10073D01*
X368049D01*
Y10144D01*
D02*
G37*
G36*
X363738Y10215D02*
X363667D01*
Y10144D01*
Y10073D01*
X363738D01*
Y10144D01*
Y10215D01*
D02*
G37*
G36*
X363526Y10144D02*
X363455D01*
Y10073D01*
X363526D01*
Y10144D01*
D02*
G37*
G36*
X355612Y10215D02*
X355541D01*
Y10144D01*
X355612D01*
Y10073D01*
X355682D01*
Y10144D01*
X355612D01*
Y10215D01*
D02*
G37*
G36*
X348899Y10144D02*
X348757D01*
Y10073D01*
X348899D01*
Y10144D01*
D02*
G37*
G36*
X379355D02*
X379284D01*
Y10073D01*
X379355D01*
Y10003D01*
X379425D01*
Y10073D01*
X379355D01*
Y10144D01*
D02*
G37*
G36*
X372642Y10073D02*
X372571D01*
Y10003D01*
X372642D01*
Y10073D01*
D02*
G37*
G36*
X363667D02*
X363597D01*
Y10003D01*
X363667D01*
Y10073D01*
D02*
G37*
G36*
X368685Y10003D02*
X368614D01*
Y9932D01*
X368685D01*
Y10003D01*
D02*
G37*
G36*
X363526D02*
X363455D01*
Y9932D01*
X363526D01*
Y10003D01*
D02*
G37*
G36*
X379496Y9932D02*
X379425D01*
Y9861D01*
X379496D01*
Y9932D01*
D02*
G37*
G36*
X368614D02*
X368543D01*
Y9861D01*
X368614D01*
Y9932D01*
D02*
G37*
G36*
X368119Y10003D02*
X368049D01*
Y9932D01*
Y9861D01*
X368119D01*
Y9932D01*
Y10003D01*
D02*
G37*
G36*
X367978Y9932D02*
X367907D01*
Y9861D01*
X367978D01*
Y9932D01*
D02*
G37*
G36*
X380344Y9861D02*
X380273D01*
Y9791D01*
X380344D01*
Y9861D01*
D02*
G37*
G36*
X384089D02*
X384019D01*
Y9791D01*
X384089D01*
Y9720D01*
X384160D01*
Y9791D01*
X384089D01*
Y9861D01*
D02*
G37*
G36*
X376104Y9791D02*
X376034D01*
Y9720D01*
X376104D01*
Y9791D01*
D02*
G37*
G36*
X375610D02*
X375539D01*
Y9720D01*
X375610D01*
Y9791D01*
D02*
G37*
G36*
X372642D02*
X372571D01*
Y9720D01*
X372642D01*
Y9791D01*
D02*
G37*
G36*
X368685D02*
X368614D01*
Y9720D01*
X368685D01*
Y9791D01*
D02*
G37*
G36*
X356813Y9861D02*
X356742D01*
Y9791D01*
X356813D01*
Y9720D01*
X356884D01*
Y9791D01*
X356813D01*
Y9861D01*
D02*
G37*
G36*
X376387Y9720D02*
X376316D01*
Y9650D01*
X376387D01*
Y9720D01*
D02*
G37*
G36*
X359710D02*
X359640D01*
Y9650D01*
X359710D01*
Y9720D01*
D02*
G37*
G36*
X348828Y9791D02*
X348757D01*
Y9720D01*
Y9650D01*
X348828D01*
Y9720D01*
Y9791D01*
D02*
G37*
G36*
X387128Y9650D02*
X387057D01*
Y9579D01*
X387128D01*
Y9650D01*
D02*
G37*
G36*
X384160D02*
X384089D01*
Y9579D01*
X384160D01*
Y9650D01*
D02*
G37*
G36*
X376175D02*
X376104D01*
Y9579D01*
X376175D01*
Y9650D01*
D02*
G37*
G36*
X375610D02*
X375539D01*
Y9579D01*
X375610D01*
Y9650D01*
D02*
G37*
G36*
X371582D02*
X371511D01*
Y9579D01*
X371582D01*
Y9650D01*
D02*
G37*
G36*
X368614D02*
X368543D01*
Y9579D01*
X368614D01*
Y9650D01*
D02*
G37*
G36*
X368119D02*
X368049D01*
Y9579D01*
X368119D01*
Y9650D01*
D02*
G37*
G36*
X367978D02*
X367907D01*
Y9579D01*
X367978D01*
Y9650D01*
D02*
G37*
G36*
X356813Y9720D02*
X356742D01*
Y9650D01*
Y9579D01*
X356813D01*
Y9650D01*
Y9720D01*
D02*
G37*
G36*
X380132Y9791D02*
X380061D01*
Y9720D01*
Y9650D01*
Y9579D01*
X380132D01*
Y9508D01*
X380203D01*
Y9579D01*
Y9650D01*
X380132D01*
Y9720D01*
Y9791D01*
D02*
G37*
G36*
X375468Y9579D02*
X375398D01*
Y9508D01*
X375468D01*
Y9579D01*
D02*
G37*
G36*
X371511D02*
X371440D01*
Y9508D01*
X371511D01*
Y9579D01*
D02*
G37*
G36*
X387128Y9508D02*
X387057D01*
Y9437D01*
X387128D01*
Y9508D01*
D02*
G37*
G36*
X384230D02*
X384160D01*
Y9437D01*
X384230D01*
Y9508D01*
D02*
G37*
G36*
X376316D02*
X376246D01*
Y9437D01*
X376316D01*
Y9508D01*
D02*
G37*
G36*
X375610D02*
X375539D01*
Y9437D01*
X375610D01*
Y9508D01*
D02*
G37*
G36*
X367907D02*
X367837D01*
Y9437D01*
X367907D01*
Y9508D01*
D02*
G37*
G36*
X368119Y9437D02*
X368049D01*
Y9367D01*
X368119D01*
Y9437D01*
D02*
G37*
G36*
X367837D02*
X367766D01*
Y9367D01*
X367837D01*
Y9437D01*
D02*
G37*
G36*
X359710Y9508D02*
X359640D01*
Y9437D01*
X359710D01*
Y9367D01*
X359781D01*
Y9437D01*
X359710D01*
Y9508D01*
D02*
G37*
G36*
X384160Y9437D02*
X384019D01*
Y9367D01*
X384089D01*
Y9296D01*
X384160D01*
Y9367D01*
Y9437D01*
D02*
G37*
G36*
X375468D02*
X375398D01*
Y9367D01*
Y9296D01*
X375468D01*
Y9367D01*
Y9437D01*
D02*
G37*
G36*
X371582Y9367D02*
X371511D01*
Y9296D01*
X371582D01*
Y9367D01*
D02*
G37*
G36*
X359640D02*
X359569D01*
Y9296D01*
X359640D01*
Y9367D01*
D02*
G37*
G36*
X355753D02*
X355682D01*
Y9296D01*
X355753D01*
Y9367D01*
D02*
G37*
G36*
X348545D02*
X348475D01*
Y9296D01*
X348545D01*
Y9367D01*
D02*
G37*
G36*
X348404D02*
X348333D01*
Y9296D01*
X348404D01*
Y9367D01*
D02*
G37*
G36*
X380132Y9296D02*
X380061D01*
Y9225D01*
X380132D01*
Y9296D01*
D02*
G37*
G36*
X376104D02*
X376034D01*
Y9225D01*
X376104D01*
Y9296D01*
D02*
G37*
G36*
X371440D02*
X371370D01*
Y9225D01*
X371440D01*
Y9296D01*
D02*
G37*
G36*
X364869D02*
X364798D01*
Y9225D01*
X364869D01*
Y9296D01*
D02*
G37*
G36*
X360276Y9367D02*
X360205D01*
Y9296D01*
X360276D01*
Y9225D01*
X360346D01*
Y9296D01*
X360276D01*
Y9367D01*
D02*
G37*
G36*
X371652Y9225D02*
X371511D01*
Y9155D01*
X371652D01*
Y9225D01*
D02*
G37*
G36*
X364798D02*
X364727D01*
Y9155D01*
X364798D01*
Y9225D01*
D02*
G37*
G36*
X359640D02*
X359569D01*
Y9155D01*
X359640D01*
Y9225D01*
D02*
G37*
G36*
X356742D02*
X356672D01*
Y9155D01*
X356742D01*
Y9225D01*
D02*
G37*
G36*
X387057Y9155D02*
X386986D01*
Y9084D01*
X387057D01*
Y9155D01*
D02*
G37*
G36*
X384160D02*
X384089D01*
Y9084D01*
X384160D01*
Y9155D01*
D02*
G37*
G36*
X383100D02*
X382959D01*
Y9084D01*
X383100D01*
Y9155D01*
D02*
G37*
G36*
X364727D02*
X364657D01*
Y9084D01*
X364727D01*
Y9155D01*
D02*
G37*
G36*
X360276D02*
X360205D01*
Y9084D01*
X360276D01*
Y9155D01*
D02*
G37*
G36*
X348475Y9225D02*
X348404D01*
Y9155D01*
Y9084D01*
X348475D01*
Y9155D01*
Y9225D01*
D02*
G37*
G36*
X379143Y9084D02*
X379072D01*
Y9014D01*
X379143D01*
Y9084D01*
D02*
G37*
G36*
X375468Y9155D02*
X375398D01*
Y9084D01*
X375468D01*
Y9014D01*
X375539D01*
Y9084D01*
X375468D01*
Y9155D01*
D02*
G37*
G36*
X375327Y9084D02*
X375256D01*
Y9014D01*
X375327D01*
Y9084D01*
D02*
G37*
G36*
X363243D02*
X363173D01*
Y9014D01*
X363243D01*
Y9084D01*
D02*
G37*
G36*
X386986D02*
X386916D01*
Y9014D01*
X386986D01*
Y8943D01*
X387057D01*
Y9014D01*
X386986D01*
Y9084D01*
D02*
G37*
G36*
X383029Y9014D02*
X382959D01*
Y8943D01*
X383029D01*
Y9014D01*
D02*
G37*
G36*
X359710D02*
X359640D01*
Y8943D01*
X359710D01*
Y9014D01*
D02*
G37*
G36*
X380132Y8943D02*
X380061D01*
Y8872D01*
X380132D01*
Y8943D01*
D02*
G37*
G36*
X368190D02*
X368119D01*
Y8872D01*
X368190D01*
Y8943D01*
D02*
G37*
G36*
X387057Y8872D02*
X386986D01*
Y8801D01*
X387057D01*
Y8872D01*
D02*
G37*
G36*
X372359D02*
X372288D01*
Y8801D01*
X372359D01*
Y8872D01*
D02*
G37*
G36*
X360346D02*
X360276D01*
Y8801D01*
X360346D01*
Y8872D01*
D02*
G37*
G36*
X359498D02*
X359428D01*
Y8801D01*
X359498D01*
Y8872D01*
D02*
G37*
G36*
X355824D02*
X355753D01*
Y8801D01*
X355824D01*
Y8872D01*
D02*
G37*
G36*
X379143Y8801D02*
X379072D01*
Y8731D01*
X379143D01*
Y8801D01*
D02*
G37*
G36*
X368402D02*
X368331D01*
Y8731D01*
X368402D01*
Y8801D01*
D02*
G37*
G36*
X382959Y8731D02*
X382888D01*
Y8660D01*
X382959D01*
Y8731D01*
D02*
G37*
G36*
X379072D02*
X379001D01*
Y8660D01*
X379072D01*
Y8731D01*
D02*
G37*
G36*
X376104D02*
X376034D01*
Y8660D01*
X376104D01*
Y8731D01*
D02*
G37*
G36*
X372359D02*
X372288D01*
Y8660D01*
X372359D01*
Y8731D01*
D02*
G37*
G36*
X372218D02*
X372147D01*
Y8660D01*
X372218D01*
Y8731D01*
D02*
G37*
G36*
X386916D02*
X386845D01*
Y8660D01*
X386916D01*
Y8590D01*
X386986D01*
Y8660D01*
X386916D01*
Y8731D01*
D02*
G37*
G36*
X383100D02*
X383029D01*
Y8660D01*
Y8590D01*
X383100D01*
Y8660D01*
Y8731D01*
D02*
G37*
G36*
X379001Y8660D02*
X378931D01*
Y8590D01*
X379001D01*
Y8660D01*
D02*
G37*
G36*
X367695Y8731D02*
X367625D01*
Y8660D01*
Y8590D01*
X367695D01*
Y8660D01*
Y8731D01*
D02*
G37*
G36*
X363173Y8660D02*
X363102D01*
Y8590D01*
X363173D01*
Y8660D01*
D02*
G37*
G36*
X355824Y8731D02*
X355753D01*
Y8660D01*
Y8590D01*
X355824D01*
Y8660D01*
Y8731D01*
D02*
G37*
G36*
X387128Y8590D02*
X387057D01*
Y8519D01*
X387128D01*
Y8590D01*
D02*
G37*
G36*
X383029D02*
X382959D01*
Y8519D01*
X383029D01*
Y8590D01*
D02*
G37*
G36*
X355753D02*
X355682D01*
Y8519D01*
X355753D01*
Y8590D01*
D02*
G37*
G36*
X379143Y8448D02*
X379072D01*
Y8377D01*
X379143D01*
Y8448D01*
D02*
G37*
G36*
X375186D02*
X375115D01*
Y8377D01*
X375186D01*
Y8448D01*
D02*
G37*
G36*
X372147Y8519D02*
X372076D01*
Y8448D01*
X372147D01*
Y8377D01*
X372218D01*
Y8448D01*
X372147D01*
Y8519D01*
D02*
G37*
G36*
X368331Y8448D02*
X368261D01*
Y8377D01*
X368331D01*
Y8448D01*
D02*
G37*
G36*
X367625D02*
X367554D01*
Y8377D01*
X367625D01*
Y8448D01*
D02*
G37*
G36*
X364727D02*
X364657D01*
Y8377D01*
X364727D01*
Y8448D01*
D02*
G37*
G36*
X363243Y8519D02*
X363173D01*
Y8448D01*
X363243D01*
Y8377D01*
X363314D01*
Y8448D01*
X363243D01*
Y8519D01*
D02*
G37*
G36*
X363173Y8448D02*
X363102D01*
Y8377D01*
X363173D01*
Y8448D01*
D02*
G37*
G36*
X356460D02*
X356389D01*
Y8377D01*
X356460D01*
Y8448D01*
D02*
G37*
G36*
X348051D02*
X347980D01*
Y8377D01*
X348051D01*
Y8448D01*
D02*
G37*
G36*
X378931Y8377D02*
X378860D01*
Y8307D01*
X378931D01*
Y8236D01*
X379001D01*
Y8307D01*
X378931D01*
Y8377D01*
D02*
G37*
G36*
X368261D02*
X368190D01*
Y8307D01*
X368261D01*
Y8236D01*
X368331D01*
Y8307D01*
X368261D01*
Y8377D01*
D02*
G37*
G36*
X363314Y8307D02*
X363243D01*
Y8236D01*
X363314D01*
Y8307D01*
D02*
G37*
G36*
X356318Y8448D02*
X356248D01*
Y8377D01*
Y8307D01*
Y8236D01*
X356318D01*
Y8307D01*
Y8377D01*
Y8448D01*
D02*
G37*
G36*
X379143Y8236D02*
X379072D01*
Y8166D01*
X379143D01*
Y8236D01*
D02*
G37*
G36*
X378931D02*
X378860D01*
Y8166D01*
X378931D01*
Y8236D01*
D02*
G37*
G36*
X367625D02*
X367554D01*
Y8166D01*
X367625D01*
Y8236D01*
D02*
G37*
G36*
X379072Y8166D02*
X379001D01*
Y8095D01*
X379072D01*
Y8166D01*
D02*
G37*
G36*
X372218D02*
X372147D01*
Y8095D01*
X372218D01*
Y8166D01*
D02*
G37*
G36*
X367554D02*
X367483D01*
Y8095D01*
X367554D01*
Y8166D01*
D02*
G37*
G36*
X363031D02*
X362961D01*
Y8095D01*
X363031D01*
Y8166D01*
D02*
G37*
G36*
X356389D02*
X356318D01*
Y8095D01*
X356389D01*
Y8166D01*
D02*
G37*
G36*
X347980Y8236D02*
X347909D01*
Y8166D01*
Y8095D01*
X347980D01*
Y8166D01*
Y8236D01*
D02*
G37*
G36*
X379920Y8095D02*
X379849D01*
Y8024D01*
X379920D01*
Y8095D01*
D02*
G37*
G36*
X375892D02*
X375822D01*
Y8024D01*
X375892D01*
Y8095D01*
D02*
G37*
G36*
X371935D02*
X371864D01*
Y8024D01*
X371935D01*
Y8095D01*
D02*
G37*
G36*
X383665Y8024D02*
X383595D01*
Y7954D01*
X383665D01*
Y8024D01*
D02*
G37*
G36*
X360064D02*
X359993D01*
Y7954D01*
X360064D01*
Y8024D01*
D02*
G37*
G36*
X375044Y7954D02*
X374974D01*
Y7883D01*
X375044D01*
Y7954D01*
D02*
G37*
G36*
X359922D02*
X359852D01*
Y7883D01*
X359922D01*
Y7954D01*
D02*
G37*
G36*
X383807Y7883D02*
X383736D01*
Y7812D01*
X383807D01*
Y7883D01*
D02*
G37*
G36*
X379779D02*
X379708D01*
Y7812D01*
X379779D01*
Y7883D01*
D02*
G37*
G36*
X360064D02*
X359993D01*
Y7812D01*
X360064D01*
Y7883D01*
D02*
G37*
G36*
X359852D02*
X359781D01*
Y7812D01*
X359852D01*
Y7883D01*
D02*
G37*
G36*
X356389Y7954D02*
X356318D01*
Y7883D01*
Y7812D01*
X356389D01*
Y7883D01*
Y7954D01*
D02*
G37*
G36*
X355753D02*
X355682D01*
Y7883D01*
Y7812D01*
X355824D01*
Y7883D01*
X355753D01*
Y7954D01*
D02*
G37*
G36*
X371864D02*
X371794D01*
Y7883D01*
X371723D01*
Y7812D01*
Y7741D01*
X371864D01*
Y7812D01*
Y7883D01*
Y7954D01*
D02*
G37*
G36*
X363102D02*
X362961D01*
Y7883D01*
X363031D01*
Y7812D01*
X363102D01*
Y7741D01*
X363173D01*
Y7812D01*
X363102D01*
Y7883D01*
Y7954D01*
D02*
G37*
G36*
X359993Y7812D02*
X359922D01*
Y7741D01*
X359993D01*
Y7812D01*
D02*
G37*
G36*
X360841Y15020D02*
X358156D01*
Y14949D01*
X358226D01*
Y14879D01*
Y14808D01*
Y14737D01*
X358156D01*
Y14667D01*
Y14596D01*
Y14525D01*
Y14455D01*
X358085D01*
Y14384D01*
Y14313D01*
Y14243D01*
Y14172D01*
Y14101D01*
X358014D01*
Y14031D01*
Y13960D01*
Y13889D01*
X357944D01*
Y13819D01*
Y13748D01*
Y13677D01*
Y13607D01*
X357873D01*
Y13536D01*
Y13465D01*
Y13395D01*
Y13324D01*
Y13253D01*
X357802D01*
Y13183D01*
Y13112D01*
Y13041D01*
X357732D01*
Y12971D01*
Y12900D01*
Y12829D01*
Y12759D01*
X357661D01*
Y12688D01*
Y12617D01*
Y12547D01*
Y12476D01*
X357590D01*
Y12405D01*
Y12335D01*
Y12264D01*
Y12193D01*
Y12123D01*
X357520D01*
Y12052D01*
Y11981D01*
Y11911D01*
X357449D01*
Y11840D01*
Y11769D01*
Y11699D01*
Y11628D01*
X357378D01*
Y11557D01*
Y11487D01*
Y11416D01*
Y11345D01*
Y11275D01*
X357308D01*
Y11204D01*
Y11133D01*
Y11063D01*
Y10992D01*
X357237D01*
Y10921D01*
Y10851D01*
Y10780D01*
X357166D01*
Y10709D01*
Y10639D01*
Y10568D01*
Y10497D01*
X357096D01*
Y10427D01*
Y10356D01*
Y10285D01*
Y10215D01*
Y10144D01*
X357025D01*
Y10073D01*
Y10003D01*
Y9932D01*
X356954D01*
Y9861D01*
Y9791D01*
Y9720D01*
Y9650D01*
X356884D01*
Y9579D01*
Y9508D01*
Y9437D01*
Y9367D01*
Y9296D01*
X356813D01*
Y9225D01*
Y9155D01*
Y9084D01*
Y9014D01*
X356742D01*
Y8943D01*
Y8872D01*
Y8801D01*
X356672D01*
Y8731D01*
Y8660D01*
Y8590D01*
Y8519D01*
X356601D01*
Y8448D01*
Y8377D01*
Y8307D01*
Y8236D01*
Y8166D01*
X356530D01*
Y8095D01*
Y8024D01*
Y7954D01*
Y7883D01*
X356460D01*
Y7812D01*
Y7741D01*
Y7671D01*
X356389D01*
Y7600D01*
Y7530D01*
Y7459D01*
Y7388D01*
Y7318D01*
X356318D01*
Y7247D01*
Y7176D01*
Y7106D01*
Y7035D01*
X356248D01*
Y6964D01*
Y6894D01*
Y6823D01*
Y6752D01*
X356177D01*
Y6682D01*
Y6611D01*
Y6540D01*
X356106D01*
Y6470D01*
Y6399D01*
Y6328D01*
Y6258D01*
Y6187D01*
X356036D01*
Y6116D01*
Y6046D01*
X355965D01*
Y5975D01*
X358650D01*
Y6046D01*
Y6116D01*
X358721D01*
Y6187D01*
Y6258D01*
Y6328D01*
Y6399D01*
Y6470D01*
X358792D01*
Y6540D01*
Y6611D01*
Y6682D01*
Y6752D01*
X358862D01*
Y6823D01*
Y6894D01*
Y6964D01*
X358933D01*
Y7035D01*
Y7106D01*
Y7176D01*
Y7247D01*
X359004D01*
Y7318D01*
Y7388D01*
Y7459D01*
Y7530D01*
Y7600D01*
X359074D01*
Y7671D01*
Y7741D01*
Y7812D01*
X359145D01*
Y7741D01*
X359216D01*
Y7812D01*
X359145D01*
Y7883D01*
Y7954D01*
Y8024D01*
Y8095D01*
X359216D01*
Y8166D01*
Y8236D01*
Y8307D01*
Y8377D01*
Y8448D01*
X359286D01*
Y8519D01*
Y8590D01*
Y8660D01*
Y8731D01*
X359357D01*
Y8801D01*
Y8872D01*
Y8943D01*
X359428D01*
Y9014D01*
Y9084D01*
Y9155D01*
Y9225D01*
X359498D01*
Y9296D01*
Y9367D01*
Y9437D01*
Y9508D01*
Y9579D01*
X359569D01*
Y9650D01*
Y9720D01*
Y9791D01*
X359640D01*
Y9861D01*
Y9932D01*
Y10003D01*
Y10073D01*
X359710D01*
Y10144D01*
Y10215D01*
Y10285D01*
Y10356D01*
Y10427D01*
X359781D01*
Y10497D01*
Y10568D01*
Y10639D01*
Y10709D01*
X359852D01*
Y10780D01*
Y10851D01*
Y10921D01*
Y10992D01*
X359922D01*
Y11063D01*
Y11133D01*
Y11204D01*
X359993D01*
Y11275D01*
Y11345D01*
Y11416D01*
Y11487D01*
Y11557D01*
X360064D01*
Y11628D01*
Y11699D01*
Y11769D01*
Y11840D01*
X360134D01*
Y11911D01*
Y11981D01*
Y12052D01*
X360205D01*
Y12123D01*
Y12193D01*
Y12264D01*
Y12335D01*
Y12405D01*
X360276D01*
Y12476D01*
Y12547D01*
Y12617D01*
Y12688D01*
X360346D01*
Y12759D01*
Y12829D01*
Y12900D01*
Y12971D01*
X360417D01*
Y13041D01*
Y13112D01*
Y13183D01*
X360488D01*
Y13253D01*
Y13324D01*
Y13395D01*
Y13465D01*
Y13536D01*
X360558D01*
Y13607D01*
Y13677D01*
Y13748D01*
Y13819D01*
X360629D01*
Y13889D01*
Y13960D01*
Y14031D01*
X360700D01*
Y14101D01*
Y14172D01*
Y14243D01*
Y14313D01*
Y14384D01*
X360770D01*
Y14455D01*
Y14525D01*
Y14596D01*
Y14667D01*
X360841D01*
Y14737D01*
Y14808D01*
Y14879D01*
Y14949D01*
Y15020D01*
D02*
G37*
G36*
X375751Y7812D02*
X375680D01*
Y7741D01*
X375751D01*
Y7671D01*
X375822D01*
Y7741D01*
X375751D01*
Y7812D01*
D02*
G37*
G36*
X363314Y7741D02*
X363243D01*
Y7671D01*
X363314D01*
Y7741D01*
D02*
G37*
G36*
X388400Y7671D02*
X388329D01*
Y7600D01*
X388400D01*
Y7671D01*
D02*
G37*
G36*
X379637Y7741D02*
X379567D01*
Y7671D01*
X379637D01*
Y7600D01*
X379708D01*
Y7671D01*
X379637D01*
Y7741D01*
D02*
G37*
G36*
X375680Y7671D02*
X375610D01*
Y7600D01*
X375680D01*
Y7671D01*
D02*
G37*
G36*
X375186D02*
X375115D01*
Y7600D01*
X375186D01*
Y7671D01*
D02*
G37*
G36*
X376104Y12829D02*
X373490D01*
Y12759D01*
Y12688D01*
X373419D01*
Y12617D01*
Y12547D01*
Y12476D01*
Y12405D01*
Y12335D01*
X373348D01*
Y12264D01*
Y12193D01*
Y12123D01*
Y12052D01*
X373278D01*
Y11981D01*
Y11911D01*
Y11840D01*
X373207D01*
Y11769D01*
Y11699D01*
Y11628D01*
Y11557D01*
X373136D01*
Y11487D01*
Y11416D01*
Y11345D01*
Y11275D01*
Y11204D01*
X373066D01*
Y11133D01*
Y11063D01*
Y10992D01*
X372995D01*
Y10921D01*
Y10851D01*
Y10780D01*
Y10709D01*
X372924D01*
Y10639D01*
Y10568D01*
Y10497D01*
Y10427D01*
Y10356D01*
X372854D01*
Y10285D01*
Y10215D01*
Y10144D01*
Y10073D01*
X372783D01*
Y10003D01*
Y9932D01*
Y9861D01*
X372712D01*
Y9791D01*
Y9720D01*
Y9650D01*
Y9579D01*
X372642D01*
Y9508D01*
Y9437D01*
Y9367D01*
Y9296D01*
Y9225D01*
X372571D01*
Y9155D01*
Y9084D01*
Y9014D01*
Y8943D01*
X372500D01*
Y8872D01*
Y8801D01*
Y8731D01*
X372430D01*
Y8660D01*
Y8590D01*
Y8519D01*
Y8448D01*
Y8377D01*
X372359D01*
Y8307D01*
Y8236D01*
Y8166D01*
X372288D01*
Y8095D01*
Y8024D01*
X372218D01*
Y7954D01*
Y7883D01*
X372147D01*
Y7812D01*
X372076D01*
Y7741D01*
X372006D01*
Y7671D01*
X371864D01*
Y7600D01*
X371228D01*
Y7671D01*
X371087D01*
Y7741D01*
X371016D01*
Y7812D01*
Y7883D01*
Y7954D01*
Y8024D01*
Y8095D01*
Y8166D01*
Y8236D01*
Y8307D01*
X371087D01*
Y8377D01*
Y8448D01*
Y8519D01*
Y8590D01*
X371158D01*
Y8660D01*
Y8731D01*
Y8801D01*
X371228D01*
Y8872D01*
Y8943D01*
Y9014D01*
Y9084D01*
Y9155D01*
X371299D01*
Y9225D01*
Y9296D01*
Y9367D01*
Y9437D01*
X371370D01*
Y9508D01*
Y9579D01*
Y9650D01*
Y9720D01*
X371440D01*
Y9791D01*
Y9861D01*
Y9932D01*
X371511D01*
Y10003D01*
Y10073D01*
Y10144D01*
Y10215D01*
Y10285D01*
X371582D01*
Y10356D01*
Y10427D01*
Y10497D01*
Y10568D01*
X371652D01*
Y10639D01*
Y10709D01*
Y10780D01*
X371723D01*
Y10851D01*
Y10921D01*
Y10992D01*
Y11063D01*
Y11133D01*
X371794D01*
Y11204D01*
Y11275D01*
Y11345D01*
Y11416D01*
X371864D01*
Y11487D01*
Y11557D01*
Y11628D01*
Y11699D01*
X371935D01*
Y11769D01*
Y11840D01*
Y11911D01*
X372006D01*
Y11981D01*
Y12052D01*
Y12123D01*
Y12193D01*
Y12264D01*
X372076D01*
Y12335D01*
Y12405D01*
Y12476D01*
Y12547D01*
X372147D01*
Y12617D01*
Y12688D01*
Y12759D01*
Y12829D01*
X369532D01*
Y12759D01*
Y12688D01*
Y12617D01*
X369462D01*
Y12547D01*
Y12476D01*
Y12405D01*
Y12335D01*
X369391D01*
Y12264D01*
Y12193D01*
Y12123D01*
Y12052D01*
Y11981D01*
X369321D01*
Y11911D01*
Y11840D01*
Y11769D01*
X369250D01*
Y11699D01*
Y11628D01*
Y11557D01*
Y11487D01*
X369179D01*
Y11416D01*
Y11345D01*
Y11275D01*
Y11204D01*
X369109D01*
Y11133D01*
Y11063D01*
Y10992D01*
Y10921D01*
X369038D01*
Y10851D01*
Y10780D01*
Y10709D01*
Y10639D01*
X368967D01*
Y10568D01*
Y10497D01*
Y10427D01*
Y10356D01*
X368897D01*
Y10285D01*
Y10215D01*
Y10144D01*
Y10073D01*
Y10003D01*
X368826D01*
Y9932D01*
Y9861D01*
Y9791D01*
X368755D01*
Y9720D01*
Y9650D01*
Y9579D01*
Y9508D01*
X368685D01*
Y9437D01*
Y9367D01*
Y9296D01*
Y9225D01*
X368614D01*
Y9155D01*
Y9084D01*
Y9014D01*
Y8943D01*
Y8872D01*
X368543D01*
Y8801D01*
Y8731D01*
Y8660D01*
X368473D01*
Y8590D01*
Y8519D01*
Y8448D01*
Y8377D01*
X368402D01*
Y8307D01*
Y8236D01*
Y8166D01*
Y8095D01*
Y8024D01*
X368331D01*
Y7954D01*
Y7883D01*
Y7812D01*
Y7741D01*
X368261D01*
Y7671D01*
Y7600D01*
Y7530D01*
Y7459D01*
X368190D01*
Y7388D01*
Y7318D01*
Y7247D01*
Y7176D01*
Y7106D01*
Y7035D01*
Y6964D01*
Y6894D01*
Y6823D01*
Y6752D01*
X368261D01*
Y6682D01*
Y6611D01*
Y6540D01*
X368331D01*
Y6470D01*
Y6399D01*
X368402D01*
Y6328D01*
X368473D01*
Y6258D01*
X368543D01*
Y6187D01*
X368614D01*
Y6116D01*
X368755D01*
Y6046D01*
X368826D01*
Y5975D01*
X369038D01*
Y5904D01*
X369321D01*
Y5834D01*
X370522D01*
Y5904D01*
X370875D01*
Y5975D01*
X371016D01*
Y6046D01*
X371158D01*
Y6116D01*
X371299D01*
Y6187D01*
X371440D01*
Y6258D01*
X371582D01*
Y6187D01*
X371652D01*
Y6258D01*
X371582D01*
Y6328D01*
X371652D01*
Y6399D01*
X371723D01*
Y6470D01*
X371794D01*
Y6540D01*
X371864D01*
Y6611D01*
X371935D01*
Y6540D01*
Y6470D01*
Y6399D01*
X371864D01*
Y6328D01*
Y6258D01*
Y6187D01*
Y6116D01*
Y6046D01*
X371794D01*
Y5975D01*
X374479D01*
Y6046D01*
Y6116D01*
Y6187D01*
Y6258D01*
Y6328D01*
X374550D01*
Y6399D01*
Y6470D01*
Y6540D01*
Y6611D01*
X374620D01*
Y6682D01*
Y6752D01*
Y6823D01*
Y6894D01*
X374691D01*
Y6964D01*
Y7035D01*
Y7106D01*
Y7176D01*
X374762D01*
Y7247D01*
Y7318D01*
Y7388D01*
Y7459D01*
Y7530D01*
X374832D01*
Y7600D01*
Y7671D01*
Y7741D01*
X374903D01*
Y7812D01*
Y7883D01*
Y7954D01*
Y8024D01*
X374974D01*
Y8095D01*
Y8166D01*
Y8236D01*
Y8307D01*
X375044D01*
Y8377D01*
Y8448D01*
Y8519D01*
Y8590D01*
Y8660D01*
X375115D01*
Y8731D01*
Y8801D01*
Y8872D01*
X375186D01*
Y8943D01*
Y9014D01*
Y9084D01*
Y9155D01*
X375256D01*
Y9225D01*
Y9296D01*
Y9367D01*
Y9437D01*
Y9508D01*
X375327D01*
Y9579D01*
Y9650D01*
Y9720D01*
X375398D01*
Y9650D01*
X375468D01*
Y9720D01*
X375398D01*
Y9791D01*
Y9861D01*
Y9932D01*
Y10003D01*
X375468D01*
Y10073D01*
Y10144D01*
Y10215D01*
Y10285D01*
X375539D01*
Y10356D01*
Y10427D01*
Y10497D01*
Y10568D01*
Y10639D01*
X375610D01*
Y10709D01*
Y10780D01*
Y10851D01*
X375680D01*
Y10780D01*
X375751D01*
Y10851D01*
X375680D01*
Y10921D01*
Y10992D01*
Y11063D01*
Y11133D01*
X375751D01*
Y11204D01*
Y11275D01*
Y11345D01*
Y11416D01*
Y11487D01*
X375822D01*
Y11557D01*
Y11628D01*
Y11699D01*
Y11769D01*
X375892D01*
Y11840D01*
Y11911D01*
Y11981D01*
X375963D01*
Y12052D01*
Y12123D01*
Y12193D01*
Y12264D01*
X376034D01*
Y12335D01*
Y12405D01*
Y12476D01*
Y12547D01*
Y12617D01*
X376104D01*
Y12688D01*
Y12759D01*
Y12829D01*
D02*
G37*
G36*
X388612Y7600D02*
X388541D01*
Y7530D01*
X388612D01*
Y7600D01*
D02*
G37*
G36*
X388046Y7671D02*
X387976D01*
Y7600D01*
X388046D01*
Y7530D01*
X388117D01*
Y7600D01*
X388046D01*
Y7671D01*
D02*
G37*
G36*
X387905Y7600D02*
X387834D01*
Y7530D01*
X387905D01*
Y7600D01*
D02*
G37*
G36*
X387269D02*
X387198D01*
Y7530D01*
X387269D01*
Y7600D01*
D02*
G37*
G36*
X383665Y7741D02*
X383595D01*
Y7671D01*
X383665D01*
Y7600D01*
Y7530D01*
X383736D01*
Y7600D01*
Y7671D01*
X383665D01*
Y7741D01*
D02*
G37*
G36*
X382676Y7600D02*
X382605D01*
Y7530D01*
X382676D01*
Y7600D01*
D02*
G37*
G36*
X368190D02*
X368119D01*
Y7530D01*
X368190D01*
Y7600D01*
D02*
G37*
G36*
X355753Y7671D02*
X355612D01*
Y7600D01*
Y7530D01*
X355682D01*
Y7600D01*
X355753D01*
Y7671D01*
D02*
G37*
G36*
X388753Y7600D02*
X388682D01*
Y7530D01*
X388753D01*
Y7459D01*
X388824D01*
Y7530D01*
X388753D01*
Y7600D01*
D02*
G37*
G36*
X387481D02*
X387410D01*
Y7530D01*
X387481D01*
Y7459D01*
X387552D01*
Y7530D01*
X387481D01*
Y7600D01*
D02*
G37*
G36*
X387198Y7530D02*
X387128D01*
Y7459D01*
X387198D01*
Y7530D01*
D02*
G37*
G36*
X383665D02*
X383595D01*
Y7459D01*
X383665D01*
Y7530D01*
D02*
G37*
G36*
X375680D02*
X375610D01*
Y7459D01*
X375680D01*
Y7530D01*
D02*
G37*
G36*
X359993D02*
X359922D01*
Y7459D01*
X359993D01*
Y7530D01*
D02*
G37*
G36*
X359852Y7600D02*
X359781D01*
Y7530D01*
Y7459D01*
X359852D01*
Y7530D01*
Y7600D01*
D02*
G37*
G36*
X388541Y7459D02*
X388470D01*
Y7388D01*
X388541D01*
Y7459D01*
D02*
G37*
G36*
X379708Y7530D02*
X379637D01*
Y7459D01*
X379708D01*
Y7388D01*
X379779D01*
Y7459D01*
X379708D01*
Y7530D01*
D02*
G37*
G36*
X375115Y7600D02*
X375044D01*
Y7530D01*
Y7459D01*
X375115D01*
Y7388D01*
X375186D01*
Y7459D01*
X375115D01*
Y7530D01*
Y7600D01*
D02*
G37*
G36*
X359216Y7459D02*
X359145D01*
Y7388D01*
X359216D01*
Y7459D01*
D02*
G37*
G36*
X355753D02*
X355682D01*
Y7388D01*
X355753D01*
Y7459D01*
D02*
G37*
G36*
X350807D02*
X350736D01*
Y7388D01*
X350807D01*
Y7459D01*
D02*
G37*
G36*
X347485D02*
X347415D01*
Y7388D01*
X347485D01*
Y7459D01*
D02*
G37*
G36*
X388894Y7388D02*
X388682D01*
Y7318D01*
X388894D01*
Y7388D01*
D02*
G37*
G36*
X387340Y7459D02*
X387269D01*
Y7388D01*
X387340D01*
Y7318D01*
X387410D01*
Y7388D01*
X387340D01*
Y7459D01*
D02*
G37*
G36*
X387198Y7388D02*
X387057D01*
Y7318D01*
X387198D01*
Y7388D01*
D02*
G37*
G36*
X383665D02*
X383595D01*
Y7318D01*
X383665D01*
Y7388D01*
D02*
G37*
G36*
X379708D02*
X379567D01*
Y7318D01*
X379708D01*
Y7388D01*
D02*
G37*
G36*
X364445Y7459D02*
X364374D01*
Y7388D01*
Y7318D01*
X364445D01*
Y7388D01*
Y7459D01*
D02*
G37*
G36*
X364233Y7388D02*
X364162D01*
Y7318D01*
X364233D01*
Y7388D01*
D02*
G37*
G36*
X359145D02*
X359074D01*
Y7318D01*
X359145D01*
Y7388D01*
D02*
G37*
G36*
X388682Y7318D02*
X388612D01*
Y7247D01*
X388682D01*
Y7318D01*
D02*
G37*
G36*
X382676D02*
X382605D01*
Y7247D01*
X382676D01*
Y7318D01*
D02*
G37*
G36*
X375044Y7388D02*
X374974D01*
Y7318D01*
X375044D01*
Y7247D01*
X375186D01*
Y7318D01*
X375044D01*
Y7388D01*
D02*
G37*
G36*
X359993Y7318D02*
X359922D01*
Y7247D01*
X359993D01*
Y7318D01*
D02*
G37*
G36*
X355682Y7388D02*
X355612D01*
Y7318D01*
X355682D01*
Y7247D01*
X355753D01*
Y7318D01*
X355682D01*
Y7388D01*
D02*
G37*
G36*
X350736Y7318D02*
X350665D01*
Y7247D01*
X350736D01*
Y7318D01*
D02*
G37*
G36*
X386562D02*
X386492D01*
Y7247D01*
X386562D01*
Y7176D01*
X386633D01*
Y7247D01*
X386562D01*
Y7318D01*
D02*
G37*
G36*
X382605Y7247D02*
X382535D01*
Y7176D01*
X382605D01*
Y7247D01*
D02*
G37*
G36*
X378648Y7318D02*
X378577D01*
Y7247D01*
X378648D01*
Y7176D01*
X378719D01*
Y7247D01*
X378648D01*
Y7318D01*
D02*
G37*
G36*
X359357Y7247D02*
X359286D01*
Y7176D01*
X359357D01*
Y7247D01*
D02*
G37*
G36*
X387128Y7176D02*
X387057D01*
Y7106D01*
X387128D01*
Y7176D01*
D02*
G37*
G36*
X359922D02*
X359852D01*
Y7106D01*
X359922D01*
Y7176D01*
D02*
G37*
G36*
X388824Y7106D02*
X388753D01*
Y7035D01*
X388824D01*
Y7106D01*
D02*
G37*
G36*
X382535D02*
X382464D01*
Y7035D01*
X382535D01*
Y7106D01*
D02*
G37*
G36*
X359074D02*
X359004D01*
Y7035D01*
X359074D01*
Y7106D01*
D02*
G37*
G36*
X386562Y7035D02*
X386492D01*
Y6964D01*
X386562D01*
Y7035D01*
D02*
G37*
G36*
X378719D02*
X378648D01*
Y6964D01*
X378719D01*
Y7035D01*
D02*
G37*
G36*
X375680D02*
X375610D01*
Y6964D01*
X375680D01*
Y7035D01*
D02*
G37*
G36*
X364303D02*
X364233D01*
Y6964D01*
X364303D01*
Y7035D01*
D02*
G37*
G36*
X347203D02*
X347132D01*
Y6964D01*
X347203D01*
Y7035D01*
D02*
G37*
G36*
X382535Y6964D02*
X382464D01*
Y6894D01*
X382535D01*
Y6964D01*
D02*
G37*
G36*
X378577Y7035D02*
X378507D01*
Y6964D01*
X378577D01*
Y6894D01*
X378648D01*
Y6964D01*
X378577D01*
Y7035D01*
D02*
G37*
G36*
X359852D02*
X359781D01*
Y6964D01*
Y6894D01*
X359852D01*
Y6964D01*
Y7035D01*
D02*
G37*
G36*
X386492Y6964D02*
X386421D01*
Y6894D01*
X386492D01*
Y6823D01*
X386633D01*
Y6894D01*
X386492D01*
Y6964D01*
D02*
G37*
G36*
X367201D02*
X367130D01*
Y6894D01*
X367201D01*
Y6823D01*
X367271D01*
Y6894D01*
X367201D01*
Y6964D01*
D02*
G37*
G36*
X359993Y6894D02*
X359922D01*
Y6823D01*
X359993D01*
Y6894D01*
D02*
G37*
G36*
X355753D02*
X355682D01*
Y6823D01*
X355753D01*
Y6894D01*
D02*
G37*
G36*
X386421D02*
X386350D01*
Y6823D01*
X386421D01*
Y6752D01*
X386492D01*
Y6823D01*
X386421D01*
Y6894D01*
D02*
G37*
G36*
X382676D02*
X382605D01*
Y6823D01*
Y6752D01*
X382676D01*
Y6823D01*
Y6894D01*
D02*
G37*
G36*
X382464Y6823D02*
X382393D01*
Y6752D01*
X382464D01*
Y6823D01*
D02*
G37*
G36*
X378577Y6894D02*
X378507D01*
Y6823D01*
X378577D01*
Y6752D01*
Y6682D01*
X378648D01*
Y6752D01*
Y6823D01*
X378577D01*
Y6894D01*
D02*
G37*
G36*
X367271Y6752D02*
X367201D01*
Y6682D01*
X367271D01*
Y6752D01*
D02*
G37*
G36*
X364303D02*
X364233D01*
Y6682D01*
X364303D01*
Y6752D01*
D02*
G37*
G36*
X378577Y6682D02*
X378507D01*
Y6611D01*
X378577D01*
Y6682D01*
D02*
G37*
G36*
X350524D02*
X350453D01*
Y6611D01*
X350524D01*
Y6682D01*
D02*
G37*
G36*
X356036D02*
X355965D01*
Y6611D01*
Y6540D01*
X356036D01*
Y6611D01*
Y6682D01*
D02*
G37*
G36*
X350383Y6611D02*
X350312D01*
Y6540D01*
X350383D01*
Y6611D01*
D02*
G37*
G36*
X347132D02*
X347061D01*
Y6540D01*
X347132D01*
Y6611D01*
D02*
G37*
G36*
X388894Y6540D02*
X388824D01*
Y6470D01*
X388894D01*
Y6540D01*
D02*
G37*
G36*
X387128D02*
X387057D01*
Y6470D01*
X387128D01*
Y6540D01*
D02*
G37*
G36*
X378577D02*
X378507D01*
Y6470D01*
X378577D01*
Y6540D01*
D02*
G37*
G36*
X367201Y6682D02*
X367130D01*
Y6611D01*
X367059D01*
Y6540D01*
X367201D01*
Y6470D01*
X367271D01*
Y6540D01*
X367201D01*
Y6611D01*
Y6682D01*
D02*
G37*
G36*
X388824Y6470D02*
X388753D01*
Y6399D01*
X388824D01*
Y6470D01*
D02*
G37*
G36*
X359852D02*
X359781D01*
Y6399D01*
X359852D01*
Y6470D01*
D02*
G37*
G36*
X355965Y6540D02*
X355894D01*
Y6470D01*
X355965D01*
Y6399D01*
X356036D01*
Y6470D01*
X355965D01*
Y6540D01*
D02*
G37*
G36*
X355824Y6470D02*
X355753D01*
Y6399D01*
X355824D01*
Y6470D01*
D02*
G37*
G36*
X350453D02*
X350383D01*
Y6399D01*
X350453D01*
Y6470D01*
D02*
G37*
G36*
X388753Y6399D02*
X388682D01*
Y6328D01*
X388753D01*
Y6399D01*
D02*
G37*
G36*
X386068D02*
X385997D01*
Y6328D01*
X386068D01*
Y6399D01*
D02*
G37*
G36*
X378648D02*
X378577D01*
Y6328D01*
X378648D01*
Y6399D01*
D02*
G37*
G36*
X374691Y6470D02*
X374620D01*
Y6399D01*
Y6328D01*
X374691D01*
Y6399D01*
Y6470D01*
D02*
G37*
G36*
X367201Y6399D02*
X367130D01*
Y6328D01*
X367201D01*
Y6399D01*
D02*
G37*
G36*
X360134D02*
X359993D01*
Y6328D01*
X360134D01*
Y6399D01*
D02*
G37*
G36*
X355965D02*
X355894D01*
Y6328D01*
X355965D01*
Y6399D01*
D02*
G37*
G36*
X350312Y6470D02*
X350241D01*
Y6399D01*
Y6328D01*
X350312D01*
Y6399D01*
Y6470D01*
D02*
G37*
G36*
X347061Y6399D02*
X346991D01*
Y6328D01*
X347061D01*
Y6399D01*
D02*
G37*
G36*
X375539Y6328D02*
X375468D01*
Y6258D01*
X375539D01*
Y6328D01*
D02*
G37*
G36*
X387269Y6258D02*
X387198D01*
Y6187D01*
X387269D01*
Y6258D01*
D02*
G37*
G36*
X383383D02*
X383312D01*
Y6187D01*
X383383D01*
Y6258D01*
D02*
G37*
G36*
X383241D02*
X383171D01*
Y6187D01*
X383241D01*
Y6258D01*
D02*
G37*
G36*
X375398D02*
X375327D01*
Y6187D01*
X375398D01*
Y6258D01*
D02*
G37*
G36*
X355965D02*
X355894D01*
Y6187D01*
X355965D01*
Y6258D01*
D02*
G37*
G36*
X352361D02*
X352291D01*
Y6187D01*
X352361D01*
Y6258D01*
D02*
G37*
G36*
X388753Y6187D02*
X388682D01*
Y6116D01*
X388753D01*
Y6187D01*
D02*
G37*
G36*
X379284D02*
X379213D01*
Y6116D01*
X379284D01*
Y6187D01*
D02*
G37*
G36*
X368190D02*
X368119D01*
Y6116D01*
X368190D01*
Y6187D01*
D02*
G37*
G36*
X355894D02*
X355824D01*
Y6116D01*
X355894D01*
Y6187D01*
D02*
G37*
G36*
X387410Y6116D02*
X387269D01*
Y6046D01*
X387410D01*
Y6116D01*
D02*
G37*
G36*
X383383D02*
X383312D01*
Y6046D01*
X383383D01*
Y6116D01*
D02*
G37*
G36*
X375468D02*
X375398D01*
Y6046D01*
X375468D01*
Y6116D01*
D02*
G37*
G36*
X371652D02*
X371582D01*
Y6046D01*
X371652D01*
Y6116D01*
D02*
G37*
G36*
X368543D02*
X368473D01*
Y6046D01*
X368543D01*
Y6116D01*
D02*
G37*
G36*
X366989D02*
X366918D01*
Y6046D01*
X366989D01*
Y6116D01*
D02*
G37*
G36*
X363597D02*
X363526D01*
Y6046D01*
X363597D01*
Y6116D01*
D02*
G37*
G36*
X358862D02*
X358792D01*
Y6046D01*
X358862D01*
Y6116D01*
D02*
G37*
G36*
X352503D02*
X352432D01*
Y6046D01*
X352503D01*
Y6116D01*
D02*
G37*
G36*
X388117Y7459D02*
X387764D01*
Y7388D01*
X387622D01*
Y7318D01*
X387481D01*
Y7247D01*
X387410D01*
Y7176D01*
X387340D01*
Y7106D01*
X387269D01*
Y7035D01*
Y6964D01*
X387198D01*
Y6894D01*
Y6823D01*
Y6752D01*
Y6682D01*
Y6611D01*
Y6540D01*
Y6470D01*
X387269D01*
Y6399D01*
Y6328D01*
X387340D01*
Y6258D01*
X387410D01*
Y6187D01*
X387481D01*
Y6116D01*
X387552D01*
Y6046D01*
X387764D01*
Y5975D01*
X388188D01*
Y6046D01*
X388329D01*
Y6116D01*
X388400D01*
Y6187D01*
X388470D01*
Y6258D01*
X388541D01*
Y6328D01*
X388612D01*
Y6399D01*
Y6470D01*
X388682D01*
Y6540D01*
Y6611D01*
Y6682D01*
Y6752D01*
Y6823D01*
Y6894D01*
Y6964D01*
X388612D01*
Y7035D01*
Y7106D01*
X388541D01*
Y7176D01*
X388470D01*
Y7247D01*
X388400D01*
Y7318D01*
X388329D01*
Y7388D01*
X388117D01*
Y7459D01*
D02*
G37*
G36*
X387198Y6046D02*
X387128D01*
Y5975D01*
X387198D01*
Y6046D01*
D02*
G37*
G36*
X368685D02*
X368614D01*
Y5975D01*
X368685D01*
Y6046D01*
D02*
G37*
G36*
X358792D02*
X358721D01*
Y5975D01*
X358792D01*
Y6046D01*
D02*
G37*
G36*
X355753Y6116D02*
X355682D01*
Y6046D01*
X355753D01*
Y5975D01*
X355824D01*
Y6046D01*
X355753D01*
Y6116D01*
D02*
G37*
G36*
X352361Y6046D02*
X352291D01*
Y5975D01*
X352361D01*
Y6046D01*
D02*
G37*
G36*
X388682D02*
X388612D01*
Y5975D01*
X388682D01*
Y5904D01*
X388753D01*
Y5975D01*
X388682D01*
Y6046D01*
D02*
G37*
G36*
X388329Y5975D02*
X388258D01*
Y5904D01*
X388329D01*
Y5975D01*
D02*
G37*
G36*
X387693D02*
X387622D01*
Y5904D01*
X387693D01*
Y5975D01*
D02*
G37*
G36*
X387410D02*
X387340D01*
Y5904D01*
X387410D01*
Y5975D01*
D02*
G37*
G36*
X385644Y6046D02*
X385573D01*
Y5975D01*
Y5904D01*
X385644D01*
Y5975D01*
Y6046D01*
D02*
G37*
G36*
X379425Y5975D02*
X379355D01*
Y5904D01*
X379425D01*
Y5975D01*
D02*
G37*
G36*
X375398D02*
X375256D01*
Y5904D01*
X375398D01*
Y5975D01*
D02*
G37*
G36*
X374762D02*
X374691D01*
Y5904D01*
X374762D01*
Y5975D01*
D02*
G37*
G36*
X374620Y6187D02*
X374550D01*
Y6116D01*
Y6046D01*
Y5975D01*
Y5904D01*
X374620D01*
Y5975D01*
Y6046D01*
Y6116D01*
Y6187D01*
D02*
G37*
G36*
X371440Y6046D02*
X371299D01*
Y5975D01*
Y5904D01*
X371370D01*
Y5975D01*
X371440D01*
Y6046D01*
D02*
G37*
G36*
X368826Y5975D02*
X368755D01*
Y5904D01*
X368826D01*
Y5975D01*
D02*
G37*
G36*
X368261Y6046D02*
X368190D01*
Y5975D01*
X368261D01*
Y5904D01*
X368331D01*
Y5975D01*
X368261D01*
Y6046D01*
D02*
G37*
G36*
X367059Y5975D02*
X366989D01*
Y5904D01*
X367059D01*
Y5975D01*
D02*
G37*
G36*
X363667D02*
X363597D01*
Y5904D01*
X363667D01*
Y5975D01*
D02*
G37*
G36*
X360276Y6046D02*
X360205D01*
Y5975D01*
X360276D01*
Y5904D01*
X360346D01*
Y5975D01*
X360276D01*
Y6046D01*
D02*
G37*
G36*
X387128Y5975D02*
X387057D01*
Y5904D01*
X387128D01*
Y5834D01*
X387198D01*
Y5904D01*
X387128D01*
Y5975D01*
D02*
G37*
G36*
X385361Y6046D02*
X385291D01*
Y5975D01*
X385361D01*
Y5904D01*
X385432D01*
Y5834D01*
X385503D01*
Y5904D01*
X385432D01*
Y5975D01*
X385361D01*
Y6046D01*
D02*
G37*
G36*
X384654Y5904D02*
X384584D01*
Y5834D01*
X384654D01*
Y5904D01*
D02*
G37*
G36*
X383595D02*
X383524D01*
Y5834D01*
X383595D01*
Y5904D01*
D02*
G37*
G36*
X383241D02*
X383171D01*
Y5834D01*
X383241D01*
Y5904D01*
D02*
G37*
G36*
X379567D02*
X379496D01*
Y5834D01*
X379567D01*
Y5904D01*
D02*
G37*
G36*
X376104D02*
X376034D01*
Y5834D01*
X376104D01*
Y5904D01*
D02*
G37*
G36*
X371794Y5975D02*
X371723D01*
Y5904D01*
X371794D01*
Y5834D01*
X371864D01*
Y5904D01*
X371794D01*
Y5975D01*
D02*
G37*
G36*
X371582Y5904D02*
X371511D01*
Y5834D01*
X371582D01*
Y5904D01*
D02*
G37*
G36*
X371299D02*
X371228D01*
Y5834D01*
X371299D01*
Y5904D01*
D02*
G37*
G36*
X368473D02*
X368402D01*
Y5834D01*
X368473D01*
Y5904D01*
D02*
G37*
G36*
X368190Y5975D02*
X368119D01*
Y5904D01*
X368190D01*
Y5834D01*
X368261D01*
Y5904D01*
X368190D01*
Y5975D01*
D02*
G37*
G36*
X364586Y5904D02*
X364515D01*
Y5834D01*
X364586D01*
Y5904D01*
D02*
G37*
G36*
X364445D02*
X364374D01*
Y5834D01*
X364445D01*
Y5904D01*
D02*
G37*
G36*
X358580D02*
X358509D01*
Y5834D01*
X358580D01*
Y5904D01*
D02*
G37*
G36*
X356036D02*
X355965D01*
Y5834D01*
X356036D01*
Y5904D01*
D02*
G37*
G36*
X355894D02*
X355824D01*
Y5834D01*
X355894D01*
Y5904D01*
D02*
G37*
G36*
X352573Y5975D02*
X352503D01*
Y5904D01*
X352573D01*
Y5834D01*
X352644D01*
Y5904D01*
X352573D01*
Y5975D01*
D02*
G37*
%LPD*%
G36*
X352997Y12688D02*
Y12617D01*
Y12547D01*
X352926D01*
Y12617D01*
Y12688D01*
Y12759D01*
X352997D01*
Y12688D01*
D02*
G37*
G36*
X352926Y12476D02*
Y12405D01*
Y12335D01*
Y12264D01*
Y12193D01*
Y12123D01*
Y12052D01*
Y11981D01*
Y11911D01*
Y11840D01*
Y11769D01*
Y11699D01*
Y11628D01*
Y11557D01*
Y11487D01*
Y11416D01*
Y11345D01*
X352856D01*
Y11275D01*
Y11204D01*
Y11133D01*
Y11063D01*
Y10992D01*
Y10921D01*
Y10851D01*
Y10780D01*
Y10709D01*
Y10639D01*
Y10568D01*
Y10497D01*
Y10427D01*
Y10356D01*
Y10285D01*
Y10215D01*
Y10144D01*
Y10073D01*
Y10003D01*
Y9932D01*
Y9861D01*
Y9791D01*
Y9720D01*
X352785D01*
Y9650D01*
Y9579D01*
Y9508D01*
Y9437D01*
Y9367D01*
X351443D01*
Y9437D01*
Y9508D01*
X351513D01*
Y9579D01*
Y9650D01*
X351584D01*
Y9720D01*
X351655D01*
Y9791D01*
Y9861D01*
Y9932D01*
X351725D01*
Y10003D01*
Y10073D01*
X351796D01*
Y10144D01*
Y10215D01*
X351867D01*
Y10285D01*
Y10356D01*
X351937D01*
Y10427D01*
Y10497D01*
Y10568D01*
X352008D01*
Y10639D01*
Y10709D01*
X352079D01*
Y10780D01*
Y10851D01*
X352149D01*
Y10921D01*
Y10992D01*
X352220D01*
Y11063D01*
Y11133D01*
X352291D01*
Y11204D01*
Y11275D01*
X352361D01*
Y11204D01*
X352432D01*
Y11275D01*
X352361D01*
Y11345D01*
Y11416D01*
Y11487D01*
X352432D01*
Y11557D01*
Y11628D01*
X352503D01*
Y11699D01*
Y11769D01*
X352573D01*
Y11840D01*
Y11911D01*
X352644D01*
Y11981D01*
Y12052D01*
X352715D01*
Y12123D01*
Y12193D01*
Y12264D01*
X352785D01*
Y12335D01*
Y12405D01*
X352856D01*
Y12476D01*
Y12547D01*
X352926D01*
Y12476D01*
D02*
G37*
%LPC*%
G36*
X352856Y11981D02*
X352785D01*
Y11911D01*
X352856D01*
Y11981D01*
D02*
G37*
G36*
X352785Y11911D02*
X352715D01*
Y11840D01*
X352785D01*
Y11911D01*
D02*
G37*
G36*
X352644Y11487D02*
X352573D01*
Y11416D01*
X352644D01*
Y11487D01*
D02*
G37*
G36*
X352573Y11416D02*
X352503D01*
Y11345D01*
X352573D01*
Y11416D01*
D02*
G37*
G36*
Y11275D02*
X352503D01*
Y11204D01*
X352573D01*
Y11275D01*
D02*
G37*
G36*
X352149Y10639D02*
X352079D01*
Y10568D01*
X352149D01*
Y10639D01*
D02*
G37*
G36*
Y10497D02*
X352079D01*
Y10427D01*
X352149D01*
Y10356D01*
X352220D01*
Y10427D01*
X352149D01*
Y10497D01*
D02*
G37*
G36*
X352079Y10427D02*
X352008D01*
Y10356D01*
X352079D01*
Y10427D01*
D02*
G37*
G36*
X351796Y9579D02*
X351725D01*
Y9508D01*
X351796D01*
Y9579D01*
D02*
G37*
%LPD*%
G36*
X388188Y7106D02*
X388258D01*
Y7035D01*
X388329D01*
Y6964D01*
X388400D01*
Y6894D01*
Y6823D01*
Y6752D01*
Y6682D01*
Y6611D01*
Y6540D01*
Y6470D01*
X388258D01*
Y6540D01*
Y6611D01*
Y6682D01*
Y6752D01*
X388329D01*
Y6823D01*
Y6894D01*
Y6964D01*
X388258D01*
Y7035D01*
X388188D01*
Y7106D01*
X387693D01*
Y7176D01*
X388188D01*
Y7106D01*
D02*
G37*
G36*
X387622Y6964D02*
Y6894D01*
Y6823D01*
Y6752D01*
Y6682D01*
Y6611D01*
Y6540D01*
Y6470D01*
Y6399D01*
X387552D01*
Y6470D01*
Y6540D01*
Y6611D01*
X387481D01*
Y6682D01*
Y6752D01*
Y6823D01*
X387552D01*
Y6894D01*
Y6964D01*
Y7035D01*
X387622D01*
Y6964D01*
D02*
G37*
G36*
X387976Y6540D02*
Y6470D01*
X388046D01*
Y6399D01*
Y6328D01*
X388188D01*
Y6258D01*
X387693D01*
Y6328D01*
X387905D01*
Y6399D01*
Y6470D01*
Y6540D01*
Y6611D01*
X387976D01*
Y6540D01*
D02*
G37*
D10*
X134303Y9630D02*
G03*
X134303Y9630I-492J0D01*
G01*
X300059Y82641D02*
G03*
X300059Y82641I-492J0D01*
G01*
X162013Y116689D02*
G03*
X162013Y116689I-492J0D01*
G01*
X121555Y136734D02*
G03*
X121555Y136734I-492J0D01*
G01*
X192303Y139880D02*
G03*
X192303Y139880I-492J0D01*
G01*
D11*
X174441Y31756D02*
G03*
X174441Y31756I-197J0D01*
G01*
X234291Y161533D02*
G03*
X234291Y161533I-197J0D01*
G01*
D12*
X153253Y120843D02*
G03*
X153253Y120843I-787J0D01*
G01*
D13*
X133811Y14846D02*
X160189D01*
X133811Y29413D02*
X160189D01*
X133811Y14846D02*
Y29413D01*
X160189Y14846D02*
Y29413D01*
X179777Y21165D02*
X180171D01*
X179777Y16441D02*
X180171D01*
X284803Y76244D02*
X285197D01*
X284803Y71520D02*
X285197D01*
X112362Y129057D02*
Y129451D01*
X107638Y129057D02*
Y129451D01*
X239803Y151592D02*
X240197D01*
X239803Y146868D02*
X240197D01*
X155615Y117693D02*
Y137378D01*
X148529Y117693D02*
Y137378D01*
Y117693D02*
X155615D01*
X148529Y137378D02*
X155615D01*
X127559Y123506D02*
Y126104D01*
X124350Y123506D02*
X127559D01*
Y132403D02*
Y135002D01*
X124350D02*
X127559D01*
X191811Y145096D02*
X218189D01*
X191811Y159663D02*
X218189D01*
X191811Y145096D02*
Y159663D01*
X218189Y145096D02*
Y159663D01*
D14*
X7756Y10413D02*
X86496D01*
Y25177D01*
X7756Y167894D02*
X86496D01*
Y153130D02*
Y167894D01*
Y26161D02*
Y152146D01*
D15*
X230200Y106430D02*
Y110007D01*
X189800Y106430D02*
Y110007D01*
Y69607D02*
X193376D01*
X230200D02*
Y73183D01*
X226624Y110007D02*
X230200D01*
X189800D02*
X193376D01*
X189800Y69607D02*
Y73183D01*
X226624Y69607D02*
X230200D01*
D16*
X272000Y169557D02*
Y164558D01*
Y166225D01*
X275332Y169557D01*
X272833Y167058D01*
X275332Y164558D01*
X276998D02*
X278664D01*
X277831D01*
Y167891D01*
X276998D01*
X281164Y164558D02*
Y167891D01*
X283663D01*
X284496Y167058D01*
Y164558D01*
X288661D02*
X286995D01*
X286162Y165392D01*
Y167058D01*
X286995Y167891D01*
X288661D01*
X289494Y167058D01*
Y166225D01*
X286162D01*
X291993Y168724D02*
Y167891D01*
X291160D01*
X292827D01*
X291993D01*
Y165392D01*
X292827Y164558D01*
X295326D02*
X296992D01*
X296159D01*
Y167891D01*
X295326D01*
X299491Y164558D02*
X301990D01*
X302823Y165392D01*
X301990Y166225D01*
X300324D01*
X299491Y167058D01*
X300324Y167891D01*
X302823D01*
X312820Y168724D02*
X311987Y169557D01*
X310321D01*
X309488Y168724D01*
Y165392D01*
X310321Y164558D01*
X311987D01*
X312820Y165392D01*
X314486Y164558D02*
Y167891D01*
X316152Y169557D01*
X317818Y167891D01*
Y164558D01*
Y167058D01*
X314486D01*
X319485Y164558D02*
Y169557D01*
X322817Y164558D01*
Y169557D01*
X329481D02*
Y164558D01*
X331981D01*
X332814Y165392D01*
Y166225D01*
X331981Y167058D01*
X329481D01*
X331981D01*
X332814Y167891D01*
Y168724D01*
X331981Y169557D01*
X329481D01*
X335313Y164558D02*
X336979D01*
X337812Y165392D01*
Y167058D01*
X336979Y167891D01*
X335313D01*
X334480Y167058D01*
Y165392D01*
X335313Y164558D01*
X340311Y167891D02*
X341977D01*
X342810Y167058D01*
Y164558D01*
X340311D01*
X339478Y165392D01*
X340311Y166225D01*
X342810D01*
X344477Y167891D02*
Y164558D01*
Y166225D01*
X345310Y167058D01*
X346143Y167891D01*
X346976D01*
X352807Y169557D02*
Y164558D01*
X350308D01*
X349475Y165392D01*
Y167058D01*
X350308Y167891D01*
X352807D01*
X275332Y160326D02*
X274499Y161159D01*
X272833D01*
X272000Y160326D01*
Y159493D01*
X272833Y158660D01*
X274499D01*
X275332Y157827D01*
Y156993D01*
X274499Y156160D01*
X272833D01*
X272000Y156993D01*
X280331Y159493D02*
X277831D01*
X276998Y158660D01*
Y156993D01*
X277831Y156160D01*
X280331D01*
X281997Y161159D02*
Y156160D01*
Y158660D01*
X282830Y159493D01*
X284496D01*
X285329Y158660D01*
Y156160D01*
X289494D02*
X287828D01*
X286995Y156993D01*
Y158660D01*
X287828Y159493D01*
X289494D01*
X290327Y158660D01*
Y157827D01*
X286995D01*
X291993Y156160D02*
Y159493D01*
X292827D01*
X293660Y158660D01*
Y156160D01*
Y158660D01*
X294493Y159493D01*
X295326Y158660D01*
Y156160D01*
X297825Y159493D02*
X299491D01*
X300324Y158660D01*
Y156160D01*
X297825D01*
X296992Y156993D01*
X297825Y157827D01*
X300324D01*
X302823Y160326D02*
Y159493D01*
X301990D01*
X303656D01*
X302823D01*
Y156993D01*
X303656Y156160D01*
X306156D02*
X307822D01*
X306989D01*
Y159493D01*
X306156D01*
X313653D02*
X311154D01*
X310321Y158660D01*
Y156993D01*
X311154Y156160D01*
X313653D01*
X315319Y159493D02*
X316152D01*
Y158660D01*
X315319D01*
Y159493D01*
Y156993D02*
X316152D01*
Y156160D01*
X315319D01*
Y156993D01*
X324483Y156160D02*
Y159493D01*
X326149Y161159D01*
X327815Y159493D01*
Y156160D01*
Y158660D01*
X324483D01*
X329481Y156160D02*
X331148D01*
X330314D01*
Y161159D01*
X329481D01*
X333647Y159493D02*
X335313Y156160D01*
X336979Y159493D01*
X338645Y156160D02*
X340311D01*
X339478D01*
Y159493D01*
X338645D01*
X342810Y156160D02*
Y159493D01*
X345310D01*
X346143Y158660D01*
Y156160D01*
X352807Y161159D02*
Y156160D01*
Y158660D01*
X356139D01*
Y161159D01*
Y156160D01*
X358639Y159493D02*
X360305D01*
X361138Y158660D01*
Y156160D01*
X358639D01*
X357805Y156993D01*
X358639Y157827D01*
X361138D01*
X272000Y152761D02*
Y147762D01*
X275332D01*
X277831Y151095D02*
X279498D01*
X280331Y150262D01*
Y147762D01*
X277831D01*
X276998Y148595D01*
X277831Y149428D01*
X280331D01*
X281997Y151095D02*
Y148595D01*
X282830Y147762D01*
X285329D01*
Y146929D01*
X284496Y146096D01*
X283663D01*
X285329Y147762D02*
Y151095D01*
X287828Y147762D02*
X289494D01*
X290327Y148595D01*
Y150262D01*
X289494Y151095D01*
X287828D01*
X286995Y150262D01*
Y148595D01*
X287828Y147762D01*
X291993Y151095D02*
Y148595D01*
X292827Y147762D01*
X295326D01*
Y151095D01*
X297825Y151928D02*
Y151095D01*
X296992D01*
X298658D01*
X297825D01*
Y148595D01*
X298658Y147762D01*
X301157Y151095D02*
X301990D01*
Y150262D01*
X301157D01*
Y151095D01*
Y148595D02*
X301990D01*
Y147762D01*
X301157D01*
Y148595D01*
X310321Y147762D02*
Y152761D01*
X313653Y147762D01*
Y152761D01*
X315319Y147762D02*
X316985D01*
X316152D01*
Y151095D01*
X315319D01*
X322817D02*
X320318D01*
X319485Y150262D01*
Y148595D01*
X320318Y147762D01*
X322817D01*
X324483D02*
Y152761D01*
Y149428D02*
X326982Y151095D01*
X324483Y149428D02*
X326982Y147762D01*
X334480D02*
Y152761D01*
X336146Y151095D01*
X337812Y152761D01*
Y147762D01*
X340311Y151095D02*
X341977D01*
X342810Y150262D01*
Y147762D01*
X340311D01*
X339478Y148595D01*
X340311Y149428D01*
X342810D01*
X344477Y152761D02*
Y147762D01*
Y150262D01*
X345310Y151095D01*
X346976D01*
X347809Y150262D01*
Y147762D01*
X235165Y111807D02*
X231833Y115139D01*
Y111807D02*
X235165Y115139D01*
X233499Y111807D02*
Y115139D01*
X231833Y113473D02*
X235165D01*
X186000Y52332D02*
X186667Y52999D01*
X187999D01*
X188666Y52332D01*
Y51666D01*
X187999Y50999D01*
X187333D01*
X187999D01*
X188666Y50333D01*
Y49666D01*
X187999Y49000D01*
X186667D01*
X186000Y49666D01*
X192665Y52999D02*
X191332Y52332D01*
X189999Y50999D01*
Y49666D01*
X190665Y49000D01*
X191998D01*
X192665Y49666D01*
Y50333D01*
X191998Y50999D01*
X189999D01*
X174000Y59332D02*
X174667Y59999D01*
X175999D01*
X176666Y59332D01*
Y58666D01*
X175999Y57999D01*
X175333D01*
X175999D01*
X176666Y57333D01*
Y56666D01*
X175999Y56000D01*
X174667D01*
X174000Y56666D01*
X180665Y59999D02*
X177999D01*
Y57999D01*
X179332Y58666D01*
X179998D01*
X180665Y57999D01*
Y56666D01*
X179998Y56000D01*
X178665D01*
X177999Y56666D01*
X135366Y57053D02*
X134699Y57719D01*
X133367D01*
X132700Y57053D01*
Y56386D01*
X133367Y55720D01*
X134699D01*
X135366Y55053D01*
Y54387D01*
X134699Y53720D01*
X133367D01*
X132700Y54387D01*
X139365Y57719D02*
X136699D01*
Y53720D01*
X139365D01*
X136699Y55720D02*
X138032D01*
X140697Y57053D02*
X141364Y57719D01*
X142697D01*
X143363Y57053D01*
Y56386D01*
X142697Y55720D01*
X142030D01*
X142697D01*
X143363Y55053D01*
Y54387D01*
X142697Y53720D01*
X141364D01*
X140697Y54387D01*
X129666Y70332D02*
X128999Y70999D01*
X127666D01*
X127000Y70332D01*
Y69666D01*
X127666Y68999D01*
X128999D01*
X129666Y68333D01*
Y67666D01*
X128999Y67000D01*
X127666D01*
X127000Y67666D01*
X133665Y70999D02*
X130999D01*
Y67000D01*
X133665D01*
X130999Y68999D02*
X132332D01*
X136997Y67000D02*
Y70999D01*
X134997Y68999D01*
X137663D01*
X103666Y78805D02*
X102999Y79471D01*
X101666D01*
X101000Y78805D01*
Y78138D01*
X101666Y77472D01*
X102999D01*
X103666Y76805D01*
Y76139D01*
X102999Y75472D01*
X101666D01*
X101000Y76139D01*
X107665Y79471D02*
X104999D01*
Y75472D01*
X107665D01*
X104999Y77472D02*
X106332D01*
X111663Y79471D02*
X108997D01*
Y77472D01*
X110330Y78138D01*
X110997D01*
X111663Y77472D01*
Y76139D01*
X110997Y75472D01*
X109664D01*
X108997Y76139D01*
X103666Y85332D02*
X102999Y85999D01*
X101666D01*
X101000Y85332D01*
Y84666D01*
X101666Y83999D01*
X102999D01*
X103666Y83333D01*
Y82666D01*
X102999Y82000D01*
X101666D01*
X101000Y82666D01*
X107665Y85999D02*
X104999D01*
Y82000D01*
X107665D01*
X104999Y83999D02*
X106332D01*
X111663Y85999D02*
X110330Y85332D01*
X108997Y83999D01*
Y82666D01*
X109664Y82000D01*
X110997D01*
X111663Y82666D01*
Y83333D01*
X110997Y83999D01*
X108997D01*
X103666Y91092D02*
X102999Y91758D01*
X101666D01*
X101000Y91092D01*
Y90425D01*
X101666Y89759D01*
X102999D01*
X103666Y89092D01*
Y88426D01*
X102999Y87759D01*
X101666D01*
X101000Y88426D01*
X107665Y91758D02*
X104999D01*
Y87759D01*
X107665D01*
X104999Y89759D02*
X106332D01*
X108997Y91758D02*
X111663D01*
Y91092D01*
X108997Y88426D01*
Y87759D01*
X127666Y88332D02*
X126999Y88999D01*
X125666D01*
X125000Y88332D01*
Y87666D01*
X125666Y86999D01*
X126999D01*
X127666Y86333D01*
Y85666D01*
X126999Y85000D01*
X125666D01*
X125000Y85666D01*
X131665Y88999D02*
X128999D01*
Y85000D01*
X131665D01*
X128999Y86999D02*
X130332D01*
X132997Y85000D02*
X134330D01*
X133664D01*
Y88999D01*
X132997Y88332D01*
X136330Y85000D02*
X137663D01*
X136996D01*
Y88999D01*
X136330Y88332D01*
X127666Y94332D02*
X126999Y94999D01*
X125666D01*
X125000Y94332D01*
Y93666D01*
X125666Y92999D01*
X126999D01*
X127666Y92333D01*
Y91666D01*
X126999Y91000D01*
X125666D01*
X125000Y91666D01*
X131665Y94999D02*
X128999D01*
Y91000D01*
X131665D01*
X128999Y92999D02*
X130332D01*
X132997Y91000D02*
X134330D01*
X133664D01*
Y94999D01*
X132997Y94332D01*
X136330D02*
X136996Y94999D01*
X138329D01*
X138996Y94332D01*
Y93666D01*
X138329Y92999D01*
X137663D01*
X138329D01*
X138996Y92333D01*
Y91666D01*
X138329Y91000D01*
X136996D01*
X136330Y91666D01*
X105666Y101332D02*
X104999Y101999D01*
X103666D01*
X103000Y101332D01*
Y100666D01*
X103666Y99999D01*
X104999D01*
X105666Y99333D01*
Y98666D01*
X104999Y98000D01*
X103666D01*
X103000Y98666D01*
X109664Y101999D02*
X106999D01*
Y98000D01*
X109664D01*
X106999Y99999D02*
X108332D01*
X110997Y98000D02*
X112330D01*
X111664D01*
Y101999D01*
X110997Y101332D01*
X116329Y98000D02*
Y101999D01*
X114330Y99999D01*
X116996D01*
X120666Y114332D02*
X119999Y114999D01*
X118667D01*
X118000Y114332D01*
Y113666D01*
X118667Y112999D01*
X119999D01*
X120666Y112333D01*
Y111667D01*
X119999Y111000D01*
X118667D01*
X118000Y111667D01*
X124664Y114999D02*
X121999D01*
Y111000D01*
X124664D01*
X121999Y112999D02*
X123332D01*
X125997Y111000D02*
X127330D01*
X126664D01*
Y114999D01*
X125997Y114332D01*
X129330D02*
X129996Y114999D01*
X131329D01*
X131995Y114332D01*
Y111667D01*
X131329Y111000D01*
X129996D01*
X129330Y111667D01*
Y114332D01*
X130666Y108332D02*
X129999Y108999D01*
X128666D01*
X128000Y108332D01*
Y107666D01*
X128666Y106999D01*
X129999D01*
X130666Y106333D01*
Y105666D01*
X129999Y105000D01*
X128666D01*
X128000Y105666D01*
X134664Y108999D02*
X131999D01*
Y105000D01*
X134664D01*
X131999Y106999D02*
X133332D01*
X135997Y108332D02*
X136664Y108999D01*
X137997D01*
X138663Y108332D01*
Y107666D01*
X137997Y106999D01*
X138663Y106333D01*
Y105666D01*
X137997Y105000D01*
X136664D01*
X135997Y105666D01*
Y106333D01*
X136664Y106999D01*
X135997Y107666D01*
Y108332D01*
X136664Y106999D02*
X137997D01*
X140666Y102332D02*
X139999Y102999D01*
X138666D01*
X138000Y102332D01*
Y101666D01*
X138666Y100999D01*
X139999D01*
X140666Y100333D01*
Y99666D01*
X139999Y99000D01*
X138666D01*
X138000Y99666D01*
X144665Y102999D02*
X141999D01*
Y99000D01*
X144665D01*
X141999Y100999D02*
X143332D01*
X145997Y99666D02*
X146664Y99000D01*
X147997D01*
X148663Y99666D01*
Y102332D01*
X147997Y102999D01*
X146664D01*
X145997Y102332D01*
Y101666D01*
X146664Y100999D01*
X148663D01*
X245999Y96999D02*
X244000D01*
Y95499D01*
X245000Y95999D01*
X245499D01*
X245999Y95499D01*
Y94500D01*
X245499Y94000D01*
X244500D01*
X244000Y94500D01*
X246999D02*
X247499Y94000D01*
X248499D01*
X248998Y94500D01*
Y96499D01*
X248499Y96999D01*
X247499D01*
X246999Y96499D01*
Y95999D01*
X247499Y95499D01*
X248998D01*
X245999Y89776D02*
X244000D01*
Y88276D01*
X245000Y88776D01*
X245499D01*
X245999Y88276D01*
Y87276D01*
X245499Y86776D01*
X244500D01*
X244000Y87276D01*
X248998Y89776D02*
X246999D01*
Y88276D01*
X247999Y88776D01*
X248499D01*
X248998Y88276D01*
Y87276D01*
X248499Y86776D01*
X247499D01*
X246999Y87276D01*
X251999Y83999D02*
X250000D01*
Y82499D01*
X251000Y82999D01*
X251500D01*
X251999Y82499D01*
Y81500D01*
X251500Y81000D01*
X250500D01*
X250000Y81500D01*
X252999Y83499D02*
X253499Y83999D01*
X254499D01*
X254998Y83499D01*
Y82999D01*
X254499Y82499D01*
X253999D01*
X254499D01*
X254998Y82000D01*
Y81500D01*
X254499Y81000D01*
X253499D01*
X252999Y81500D01*
X246499Y75000D02*
Y77999D01*
X245000Y76499D01*
X246999D01*
X247999Y75500D02*
X248499Y75000D01*
X249499D01*
X249998Y75500D01*
Y77499D01*
X249499Y77999D01*
X248499D01*
X247999Y77499D01*
Y76999D01*
X248499Y76499D01*
X249998D01*
X240000Y68999D02*
Y66500D01*
X240500Y66000D01*
X241499D01*
X241999Y66500D01*
Y68999D01*
X242999Y66000D02*
Y67999D01*
X243999Y68999D01*
X244998Y67999D01*
Y66000D01*
Y67500D01*
X242999D01*
X245998Y66000D02*
Y68999D01*
X247498D01*
X247997Y68499D01*
Y67500D01*
X247498Y67000D01*
X245998D01*
X246998D02*
X247997Y66000D01*
X248997Y68999D02*
X250996D01*
X249997D01*
Y66000D01*
X254995D02*
Y68999D01*
X256495D01*
X256995Y68499D01*
Y67500D01*
X256495Y67000D01*
X254995D01*
X255995D02*
X256995Y66000D01*
X257994Y68999D02*
X259994Y66000D01*
Y68999D02*
X257994Y66000D01*
X263000Y88999D02*
X264999D01*
X264000D01*
Y86000D01*
X265999D02*
Y88999D01*
X266999Y87999D01*
X267998Y88999D01*
Y86000D01*
X270997Y88499D02*
X270498Y88999D01*
X269498D01*
X268998Y88499D01*
Y87999D01*
X269498Y87499D01*
X270498D01*
X270997Y87000D01*
Y86500D01*
X270498Y86000D01*
X269498D01*
X268998Y86500D01*
X260000Y83999D02*
X261999D01*
X261000D01*
Y81000D01*
X264998Y83499D02*
X264498Y83999D01*
X263499D01*
X262999Y83499D01*
Y81500D01*
X263499Y81000D01*
X264498D01*
X264998Y81500D01*
X265998Y83999D02*
Y81000D01*
X267997D01*
X268997Y83999D02*
Y81000D01*
Y82000D01*
X270996Y83999D01*
X269497Y82499D01*
X270996Y81000D01*
X260000Y93790D02*
X261999D01*
X261000D01*
Y90791D01*
X262999Y93790D02*
Y90791D01*
X264498D01*
X264998Y91291D01*
Y93290D01*
X264498Y93790D01*
X262999D01*
X267498D02*
X266498D01*
X265998Y93290D01*
Y91291D01*
X266498Y90791D01*
X267498D01*
X267997Y91291D01*
Y93290D01*
X267498Y93790D01*
X260000Y99695D02*
X261999D01*
X261000D01*
Y96696D01*
X262999Y99695D02*
Y96696D01*
X264498D01*
X264998Y97196D01*
Y99196D01*
X264498Y99695D01*
X262999D01*
X265998D02*
X266998D01*
X266498D01*
Y96696D01*
X265998D01*
X266998D01*
X260000Y102602D02*
Y105601D01*
X261500D01*
X261999Y105101D01*
Y104102D01*
X261500Y103602D01*
X260000D01*
X261000D02*
X261999Y102602D01*
X264998Y105101D02*
X264498Y105601D01*
X263499D01*
X262999Y105101D01*
Y104601D01*
X263499Y104102D01*
X264498D01*
X264998Y103602D01*
Y103102D01*
X264498Y102602D01*
X263499D01*
X262999Y103102D01*
X265998Y105601D02*
X267997D01*
X266998D01*
Y102602D01*
X90000Y13998D02*
X93999Y8000D01*
Y13998D02*
X90000Y8000D01*
X95998D02*
X97997D01*
X96998D01*
Y13998D01*
X95998Y12998D01*
X176000Y115998D02*
Y111000D01*
X177000Y110000D01*
X178999D01*
X179999Y111000D01*
Y115998D01*
X181998D02*
X185997D01*
Y114998D01*
X181998Y111000D01*
Y110000D01*
X132700Y49707D02*
Y44708D01*
X133700Y43709D01*
X135699D01*
X136699Y44708D01*
Y49707D01*
X138698Y43709D02*
X140697D01*
X139698D01*
Y49707D01*
X138698Y48707D01*
X143696D02*
X144696Y49707D01*
X146695D01*
X147695Y48707D01*
Y44708D01*
X146695Y43709D01*
X144696D01*
X143696Y44708D01*
Y48707D01*
X185500Y168998D02*
Y164000D01*
X186500Y163000D01*
X188499D01*
X189499Y164000D01*
Y168998D01*
X191498Y164000D02*
X192498Y163000D01*
X194497D01*
X195497Y164000D01*
Y167998D01*
X194497Y168998D01*
X192498D01*
X191498Y167998D01*
Y166999D01*
X192498Y165999D01*
X195497D01*
X147000Y145378D02*
Y140379D01*
X148000Y139380D01*
X149999D01*
X150999Y140379D01*
Y145378D01*
X152998Y144378D02*
X153998Y145378D01*
X155997D01*
X156997Y144378D01*
Y143378D01*
X155997Y142379D01*
X156997Y141379D01*
Y140379D01*
X155997Y139380D01*
X153998D01*
X152998Y140379D01*
Y141379D01*
X153998Y142379D01*
X152998Y143378D01*
Y144378D01*
X153998Y142379D02*
X155997D01*
X175000Y5000D02*
Y10998D01*
X177999D01*
X178999Y9998D01*
Y7999D01*
X177999Y6999D01*
X175000D01*
X176999D02*
X178999Y5000D01*
X180998D02*
X182997D01*
X181998D01*
Y10998D01*
X180998Y9998D01*
X189995Y5000D02*
X185996D01*
X189995Y8999D01*
Y9998D01*
X188996Y10998D01*
X186996D01*
X185996Y9998D01*
X234000Y138000D02*
Y143998D01*
X236999D01*
X237999Y142998D01*
Y140999D01*
X236999Y139999D01*
X234000D01*
X235999D02*
X237999Y138000D01*
X239998D02*
X241997D01*
X240998D01*
Y143998D01*
X239998Y142998D01*
X244996Y138000D02*
X246996D01*
X245996D01*
Y143998D01*
X244996Y142998D01*
X99000Y138000D02*
Y143998D01*
X101999D01*
X102999Y142998D01*
Y140999D01*
X101999Y139999D01*
X99000D01*
X100999D02*
X102999Y138000D01*
X104998D02*
X106997D01*
X105998D01*
Y143998D01*
X104998Y142998D01*
X109996D02*
X110996Y143998D01*
X112996D01*
X113995Y142998D01*
Y139000D01*
X112996Y138000D01*
X110996D01*
X109996Y139000D01*
Y142998D01*
X280000Y62882D02*
Y68880D01*
X282999D01*
X283999Y67880D01*
Y65881D01*
X282999Y64881D01*
X280000D01*
X281999D02*
X283999Y62882D01*
X285998Y63882D02*
X286998Y62882D01*
X288997D01*
X289997Y63882D01*
Y67880D01*
X288997Y68880D01*
X286998D01*
X285998Y67880D01*
Y66881D01*
X286998Y65881D01*
X289997D01*
X283999Y112880D02*
X281999D01*
X282999D01*
Y107882D01*
X281999Y106882D01*
X281000D01*
X280000Y107882D01*
X285998Y111880D02*
X286998Y112880D01*
X288997D01*
X289997Y111880D01*
Y110881D01*
X288997Y109881D01*
X287997D01*
X288997D01*
X289997Y108881D01*
Y107882D01*
X288997Y106882D01*
X286998D01*
X285998Y107882D01*
X190000Y31175D02*
Y25177D01*
X192999D01*
X193999Y26177D01*
Y30176D01*
X192999Y31175D01*
X190000D01*
X199997Y30176D02*
X198997Y31175D01*
X196998D01*
X195998Y30176D01*
Y29176D01*
X196998Y28176D01*
X198997D01*
X199997Y27176D01*
Y26177D01*
X198997Y25177D01*
X196998D01*
X195998Y26177D01*
X204995Y25177D02*
Y31175D01*
X201996Y28176D01*
X205995D01*
X232000Y168998D02*
Y163000D01*
X234999D01*
X235999Y164000D01*
Y167998D01*
X234999Y168998D01*
X232000D01*
X241997Y167998D02*
X240997Y168998D01*
X238998D01*
X237998Y167998D01*
Y166999D01*
X238998Y165999D01*
X240997D01*
X241997Y164999D01*
Y164000D01*
X240997Y163000D01*
X238998D01*
X237998Y164000D01*
X243996Y167998D02*
X244996Y168998D01*
X246995D01*
X247995Y167998D01*
Y166999D01*
X246995Y165999D01*
X245995D01*
X246995D01*
X247995Y164999D01*
Y164000D01*
X246995Y163000D01*
X244996D01*
X243996Y164000D01*
X124000Y143998D02*
Y138000D01*
X126999D01*
X127999Y139000D01*
Y142998D01*
X126999Y143998D01*
X124000D01*
X129998Y138000D02*
X131997D01*
X130998D01*
Y143998D01*
X129998Y142998D01*
X165002Y33999D02*
X164002Y32999D01*
Y31000D01*
X165002Y30000D01*
X169000D01*
X170000Y31000D01*
Y32999D01*
X169000Y33999D01*
X170000Y39997D02*
Y35998D01*
X166001Y39997D01*
X165002D01*
X164002Y38997D01*
Y36998D01*
X165002Y35998D01*
Y41996D02*
X164002Y42996D01*
Y44995D01*
X165002Y45995D01*
X169000D01*
X170000Y44995D01*
Y42996D01*
X169000Y41996D01*
X165002D01*
X115002Y18999D02*
X114002Y17999D01*
Y16000D01*
X115002Y15000D01*
X119000D01*
X120000Y16000D01*
Y17999D01*
X119000Y18999D01*
X120000Y20998D02*
Y22997D01*
Y21998D01*
X114002D01*
X115002Y20998D01*
X119000Y25996D02*
X120000Y26996D01*
Y28995D01*
X119000Y29995D01*
X115002D01*
X114002Y28995D01*
Y26996D01*
X115002Y25996D01*
X116001D01*
X117001Y26996D01*
Y29995D01*
X226897Y168668D02*
X227730Y169501D01*
Y171167D01*
X226897Y172000D01*
X223565D01*
X222732Y171167D01*
Y169501D01*
X223565Y168668D01*
X222732Y167002D02*
Y165336D01*
Y166169D01*
X227730D01*
X226897Y167002D01*
Y162836D02*
X227730Y162003D01*
Y160337D01*
X226897Y159504D01*
X226064D01*
X225231Y160337D01*
X224398Y159504D01*
X223565D01*
X222732Y160337D01*
Y162003D01*
X223565Y162836D01*
X224398D01*
X225231Y162003D01*
X226064Y162836D01*
X226897D01*
X225231Y162003D02*
Y160337D01*
X176002Y149095D02*
X175002Y148095D01*
Y146096D01*
X176002Y145096D01*
X180000D01*
X181000Y146096D01*
Y148095D01*
X180000Y149095D01*
X181000Y151094D02*
Y153094D01*
Y152094D01*
X175002D01*
X176002Y151094D01*
X175002Y156093D02*
Y160091D01*
X176002D01*
X180000Y156093D01*
X181000D01*
X221164Y130306D02*
X220331Y131139D01*
X218665D01*
X217832Y130306D01*
Y126973D01*
X218665Y126140D01*
X220331D01*
X221164Y126973D01*
X222830Y126140D02*
X224496D01*
X223663D01*
Y131139D01*
X222830Y130306D01*
X230328Y131139D02*
X228662Y130306D01*
X226995Y128640D01*
Y126973D01*
X227829Y126140D01*
X229495D01*
X230328Y126973D01*
Y127806D01*
X229495Y128640D01*
X226995D01*
X190278Y130421D02*
X189278Y131421D01*
X187279D01*
X186279Y130421D01*
Y126422D01*
X187279Y125423D01*
X189278D01*
X190278Y126422D01*
X192277Y125423D02*
X194276D01*
X193277D01*
Y131421D01*
X192277Y130421D01*
X201274Y131421D02*
X197275D01*
Y128422D01*
X199275Y129421D01*
X200274D01*
X201274Y128422D01*
Y126422D01*
X200274Y125423D01*
X198275D01*
X197275Y126422D01*
X206999Y46998D02*
X205999Y47998D01*
X204000D01*
X203000Y46998D01*
Y43000D01*
X204000Y42000D01*
X205999D01*
X206999Y43000D01*
X208998Y42000D02*
X210997D01*
X209998D01*
Y47998D01*
X208998Y46998D01*
X216996Y42000D02*
Y47998D01*
X213996Y44999D01*
X217995D01*
X310802Y86758D02*
X309802Y85759D01*
Y83759D01*
X310802Y82759D01*
X314801D01*
X315800Y83759D01*
Y85759D01*
X314801Y86758D01*
X315800Y88757D02*
Y90757D01*
Y89757D01*
X309802D01*
X310802Y88757D01*
Y93756D02*
X309802Y94756D01*
Y96755D01*
X310802Y97755D01*
X311802D01*
X312801Y96755D01*
Y95755D01*
Y96755D01*
X313801Y97755D01*
X314801D01*
X315800Y96755D01*
Y94756D01*
X314801Y93756D01*
D17*
X0Y0D02*
Y175000D01*
X393000D01*
Y0D02*
Y175000D01*
X0Y0D02*
X393000D01*
M02*
