G04*
G04 #@! TF.GenerationSoftware,Altium Limited,Altium Designer,18.1.6 (161)*
G04*
G04 Layer_Physical_Order=2*
G04 Layer_Color=16711680*
%FSLAX25Y25*%
%MOIN*%
G70*
G01*
G75*
%ADD16C,0.01000*%
%ADD17C,0.00100*%
%ADD20R,0.03150X0.03150*%
%ADD21R,0.03937X0.05512*%
%ADD29R,0.04134X0.04134*%
%ADD47C,0.04000*%
%ADD48C,0.08661*%
%ADD49C,0.03000*%
%ADD50C,0.05000*%
%ADD51R,0.07480X0.04724*%
%ADD52R,0.07480X0.06299*%
%ADD53R,0.07874X0.08268*%
%ADD54R,0.05315X0.01575*%
G04:AMPARAMS|DCode=55|XSize=10mil|YSize=19mil|CornerRadius=2.5mil|HoleSize=0mil|Usage=FLASHONLY|Rotation=270.000|XOffset=0mil|YOffset=0mil|HoleType=Round|Shape=RoundedRectangle|*
%AMROUNDEDRECTD55*
21,1,0.01000,0.01400,0,0,270.0*
21,1,0.00500,0.01900,0,0,270.0*
1,1,0.00500,-0.00700,-0.00250*
1,1,0.00500,-0.00700,0.00250*
1,1,0.00500,0.00700,0.00250*
1,1,0.00500,0.00700,-0.00250*
%
%ADD55ROUNDEDRECTD55*%
%ADD56O,0.07087X0.01378*%
%ADD57C,0.01500*%
G36*
X390000Y114891D02*
X382926D01*
Y112241D01*
X382551Y111939D01*
X382426Y111939D01*
X373477D01*
Y102471D01*
X382551D01*
Y107090D01*
X382926Y107392D01*
X383051Y107392D01*
X390000D01*
Y101309D01*
X382926D01*
Y95384D01*
X390000D01*
Y94616D01*
X382926D01*
Y88691D01*
X390000D01*
Y82608D01*
X383051D01*
X382926Y82608D01*
X382551Y82910D01*
Y87529D01*
X373477D01*
Y78061D01*
X382426D01*
X382551Y78061D01*
X382926Y77759D01*
Y75109D01*
X390000D01*
Y5000D01*
X82279Y5000D01*
Y17378D01*
X93325D01*
X93437Y17292D01*
X94191Y16980D01*
X95000Y16873D01*
X95809Y16980D01*
X96563Y17292D01*
X97211Y17789D01*
X97708Y18437D01*
X98020Y19191D01*
X98127Y20000D01*
X98020Y20809D01*
X97708Y21563D01*
X97211Y22211D01*
X96563Y22708D01*
X95809Y23020D01*
X95000Y23127D01*
X94191Y23020D01*
X93437Y22708D01*
X93325Y22622D01*
X82279D01*
Y145000D01*
X390000Y145000D01*
Y114891D01*
D02*
G37*
%LPC*%
G36*
X153500Y127450D02*
Y125500D01*
X155449D01*
X155355Y125976D01*
X154802Y126802D01*
X153975Y127355D01*
X153500Y127450D01*
D02*
G37*
G36*
X155449Y124500D02*
X153500D01*
Y122550D01*
X153975Y122645D01*
X154802Y123198D01*
X155355Y124024D01*
X155449Y124500D01*
D02*
G37*
G36*
X235500Y123699D02*
Y121749D01*
X237450D01*
X237355Y122225D01*
X236802Y123052D01*
X235976Y123604D01*
X235500Y123699D01*
D02*
G37*
G36*
X234500D02*
X234025Y123604D01*
X233198Y123052D01*
X232645Y122225D01*
X232551Y121749D01*
X234500D01*
Y123699D01*
D02*
G37*
G36*
X237450Y120749D02*
X235500D01*
Y118800D01*
X235976Y118895D01*
X236802Y119447D01*
X237355Y120274D01*
X237450Y120749D01*
D02*
G37*
G36*
X234500D02*
X232551D01*
X232645Y120274D01*
X233198Y119447D01*
X234025Y118895D01*
X234500Y118800D01*
Y120749D01*
D02*
G37*
G36*
X116670Y110980D02*
X115851Y110817D01*
X115156Y110353D01*
X114692Y109658D01*
X114529Y108839D01*
X114692Y108019D01*
X115156Y107325D01*
X115851Y106860D01*
X116670Y106697D01*
X117490Y106860D01*
X118184Y107325D01*
X118649Y108019D01*
X118812Y108839D01*
X118649Y109658D01*
X118184Y110353D01*
X117490Y110817D01*
X116670Y110980D01*
D02*
G37*
G36*
X298555Y109118D02*
X295988D01*
Y106552D01*
X298555D01*
Y109118D01*
D02*
G37*
G36*
X322104D02*
X319537D01*
Y106552D01*
X322104D01*
Y109118D01*
D02*
G37*
G36*
X125000Y107279D02*
X124181Y107116D01*
X123486Y106651D01*
X123022Y105957D01*
X122859Y105137D01*
X123022Y104318D01*
X123486Y103623D01*
X124181Y103159D01*
X125000Y102996D01*
X125819Y103159D01*
X126514Y103623D01*
X126978Y104318D01*
X127141Y105137D01*
X126978Y105957D01*
X126514Y106651D01*
X125819Y107116D01*
X125000Y107279D01*
D02*
G37*
G36*
X322104Y105552D02*
X319537D01*
Y102985D01*
X322104D01*
Y105552D01*
D02*
G37*
G36*
X150000Y131965D02*
X149181Y131802D01*
X148486Y131338D01*
X148022Y130643D01*
X147859Y129824D01*
X148022Y129004D01*
X148486Y128310D01*
X148878Y128048D01*
Y31000D01*
X148878Y31000D01*
X148964Y30571D01*
X149207Y30207D01*
X164951Y14463D01*
X164859Y14000D01*
X165022Y13181D01*
X165486Y12486D01*
X166181Y12022D01*
X167000Y11859D01*
X167463Y11951D01*
X170207Y9207D01*
X170207Y9207D01*
X170571Y8964D01*
X171000Y8878D01*
X200000D01*
X200000Y8878D01*
X200429Y8964D01*
X200793Y9207D01*
X212953Y21367D01*
X224113Y10207D01*
X224476Y9964D01*
X224905Y9878D01*
X224906Y9878D01*
X271430D01*
X271430Y9878D01*
X271860Y9964D01*
X272223Y10207D01*
X316552Y54536D01*
X350660D01*
X350660Y54536D01*
X351090Y54621D01*
X351453Y54864D01*
X356821Y60232D01*
X361159D01*
Y66943D01*
X359712D01*
Y69818D01*
X361159D01*
Y76530D01*
X359712D01*
Y81535D01*
X366937Y88760D01*
X373477D01*
Y88494D01*
X379992D01*
Y91053D01*
Y93613D01*
Y98331D01*
X380392D01*
Y99618D01*
X376734D01*
X373077D01*
Y98331D01*
X373477D01*
Y96376D01*
X349553D01*
X347973Y97956D01*
X347527Y98255D01*
X347000Y98360D01*
X325828D01*
X325679Y98389D01*
X321386D01*
X321073Y98327D01*
X318531D01*
X318029Y98227D01*
X317602Y97942D01*
X317317Y97516D01*
X317217Y97013D01*
X317317Y96510D01*
X317602Y96083D01*
X317676Y96034D01*
Y95432D01*
X317602Y95383D01*
X317317Y94956D01*
X317217Y94454D01*
X317317Y93951D01*
X317602Y93524D01*
X317615Y93516D01*
X317463Y93016D01*
X316505D01*
X314056Y95465D01*
Y103385D01*
X315470D01*
X315602Y103385D01*
X315970Y103067D01*
Y102985D01*
X318537D01*
Y106052D01*
Y109118D01*
X315970D01*
Y109036D01*
X315602Y108719D01*
X315470Y108719D01*
X310268D01*
Y103385D01*
X311813D01*
Y95000D01*
X311813Y95000D01*
X311899Y94571D01*
X312142Y94207D01*
X315247Y91101D01*
X315247Y91101D01*
X315611Y90858D01*
X316040Y90773D01*
X316040Y90773D01*
X316859D01*
X317127Y90273D01*
X316940Y89995D01*
X316909Y89836D01*
X321386D01*
X325863D01*
X325831Y89995D01*
X325458Y90553D01*
X325421Y90578D01*
X325346Y91229D01*
X325454Y91392D01*
X325554Y91895D01*
X325454Y92397D01*
X325334Y92577D01*
X325602Y93077D01*
X325679D01*
X325828Y93107D01*
X345394D01*
X347033Y91468D01*
X347033Y91468D01*
X347480Y91169D01*
X348007Y91065D01*
X348007Y91065D01*
X365384D01*
X365433Y91000D01*
X365569Y90565D01*
X357798Y82793D01*
X357554Y82429D01*
X357469Y82000D01*
X357469Y82000D01*
Y76530D01*
X356022D01*
Y69818D01*
X357469D01*
Y66943D01*
X356022D01*
Y62605D01*
X354141Y60724D01*
X353679Y60915D01*
Y66943D01*
X349339D01*
X348980Y67183D01*
X348551Y67268D01*
X348551Y67268D01*
X340175D01*
Y68321D01*
X335825D01*
Y63972D01*
X340175D01*
Y65025D01*
X348087D01*
X348542Y64570D01*
Y60232D01*
X352995D01*
X353187Y59770D01*
X350196Y56779D01*
X316552D01*
X301909Y71422D01*
X313583Y83096D01*
X316859D01*
X317127Y82596D01*
X316940Y82317D01*
X316909Y82158D01*
X321386D01*
X325863D01*
X325831Y82317D01*
X325458Y82876D01*
X325421Y82901D01*
X325346Y83552D01*
X325454Y83714D01*
X325554Y84217D01*
X325454Y84720D01*
X325169Y85147D01*
X325095Y85196D01*
Y85798D01*
X325169Y85847D01*
X325454Y86273D01*
X325554Y86776D01*
X325454Y87279D01*
X325346Y87442D01*
X325421Y88093D01*
X325458Y88118D01*
X325831Y88677D01*
X325863Y88836D01*
X321386D01*
X316909D01*
X316940Y88677D01*
X317127Y88398D01*
X316859Y87898D01*
X313992D01*
X306279Y95611D01*
Y103385D01*
X307824D01*
Y108719D01*
X302622D01*
X302490Y108719D01*
X302122Y109036D01*
Y109118D01*
X299555D01*
Y106052D01*
Y102985D01*
X302122D01*
Y103067D01*
X302490Y103385D01*
X302622Y103385D01*
X304036D01*
Y95146D01*
X304036Y95146D01*
X304121Y94717D01*
X304364Y94353D01*
X312734Y85983D01*
X312734Y85983D01*
X312978Y85821D01*
X312935Y85327D01*
X312925Y85300D01*
X312689Y85254D01*
X312325Y85010D01*
X312325Y85010D01*
X305971Y78656D01*
X305510Y78902D01*
X305549Y79099D01*
X305355Y80075D01*
X304802Y80902D01*
X303976Y81454D01*
X303500Y81549D01*
Y79099D01*
X303000D01*
Y78599D01*
X300551D01*
X300645Y78124D01*
X301198Y77297D01*
X302025Y76744D01*
X303000Y76550D01*
X303197Y76590D01*
X303443Y76129D01*
X299858Y72544D01*
X298537D01*
X298386Y73044D01*
X298398Y73052D01*
X298683Y73478D01*
X298783Y73981D01*
X298683Y74484D01*
X298398Y74910D01*
X298324Y74960D01*
Y75561D01*
X298398Y75611D01*
X298683Y76037D01*
X298783Y76540D01*
X298683Y77043D01*
X298574Y77205D01*
X298649Y77857D01*
X298686Y77882D01*
X299060Y78440D01*
X299091Y78599D01*
X294614D01*
X290137D01*
X290169Y78440D01*
X290542Y77882D01*
X290579Y77857D01*
X290654Y77205D01*
X290546Y77043D01*
X290446Y76540D01*
X290546Y76037D01*
X290831Y75611D01*
X290843Y75603D01*
X290691Y75103D01*
X269734D01*
Y77356D01*
X265218D01*
Y96234D01*
X267529Y98545D01*
X267989Y98298D01*
X267859Y97641D01*
X268022Y96822D01*
X268486Y96127D01*
X269181Y95663D01*
X270000Y95500D01*
X270819Y95663D01*
X271514Y96127D01*
X271978Y96822D01*
X272141Y97641D01*
X271978Y98461D01*
X271514Y99155D01*
X270819Y99620D01*
X270000Y99782D01*
X269343Y99652D01*
X269097Y100113D01*
X269537Y100553D01*
X270000Y100461D01*
X270819Y100624D01*
X271514Y101088D01*
X271978Y101783D01*
X272141Y102602D01*
X271978Y103421D01*
X271514Y104116D01*
X270819Y104580D01*
X270000Y104743D01*
X269181Y104580D01*
X268486Y104116D01*
X268022Y103421D01*
X267859Y102602D01*
X267951Y102139D01*
X263304Y97492D01*
X263061Y97128D01*
X262975Y96699D01*
X262975Y96699D01*
Y70789D01*
X262975Y70789D01*
X263061Y70359D01*
X263304Y69995D01*
X264516Y68783D01*
Y66412D01*
X262971D01*
Y61078D01*
X268305D01*
Y66412D01*
X266759D01*
Y69248D01*
X266759Y69248D01*
X266674Y69677D01*
X266431Y70041D01*
X266431Y70041D01*
X266289Y70182D01*
X266481Y70644D01*
X269734D01*
Y72860D01*
X290691D01*
X290843Y72360D01*
X290831Y72351D01*
X290546Y71925D01*
X290446Y71422D01*
X290546Y70919D01*
X290831Y70493D01*
X290905Y70443D01*
Y69842D01*
X290831Y69792D01*
X290546Y69366D01*
X290446Y68863D01*
X290546Y68360D01*
X290831Y67934D01*
X290843Y67926D01*
X290691Y67426D01*
X274299D01*
X274299Y67426D01*
X273870Y67340D01*
X273506Y67097D01*
X273506Y67097D01*
X272821Y66412D01*
X269073D01*
Y61078D01*
X274407D01*
Y64826D01*
X274764Y65182D01*
X282475D01*
X282627Y64682D01*
X282410Y64538D01*
X282410Y64538D01*
X274809Y56936D01*
X274309Y57143D01*
Y59013D01*
X269172D01*
Y52301D01*
X274309D01*
Y54536D01*
X275116D01*
X275116Y54536D01*
X275545Y54621D01*
X275909Y54864D01*
X283668Y62623D01*
X291118D01*
X291257Y62531D01*
X291760Y62431D01*
X297468D01*
X297971Y62531D01*
X298398Y62816D01*
X298683Y63242D01*
X298783Y63745D01*
X298683Y64248D01*
X298398Y64674D01*
X298324Y64724D01*
Y65325D01*
X298398Y65375D01*
X298683Y65801D01*
X298783Y66304D01*
X298683Y66807D01*
X298398Y67233D01*
X298324Y67283D01*
Y67884D01*
X298398Y67934D01*
X298683Y68360D01*
X298783Y68863D01*
X298683Y69366D01*
X298398Y69792D01*
X298386Y69801D01*
X298537Y70301D01*
X299858D01*
X314502Y55657D01*
X270966Y12122D01*
X225370D01*
X214074Y23417D01*
Y38027D01*
X214467Y38289D01*
X214931Y38984D01*
X215094Y39803D01*
X214931Y40622D01*
X214467Y41317D01*
X214074Y41579D01*
Y120089D01*
X214110Y120118D01*
X214929Y120281D01*
X215624Y120745D01*
X216088Y121440D01*
X216251Y122259D01*
X216088Y123079D01*
X215624Y123773D01*
X214929Y124237D01*
X214110Y124400D01*
X213290Y124237D01*
X212596Y123773D01*
X212132Y123079D01*
X211968Y122259D01*
X212068Y121758D01*
X211917Y121532D01*
X211831Y121102D01*
X211831Y121102D01*
Y41579D01*
X211439Y41317D01*
X210975Y40622D01*
X210812Y39803D01*
X210975Y38984D01*
X211439Y38289D01*
X211831Y38027D01*
Y23417D01*
X199535Y11122D01*
X171465D01*
X169049Y13537D01*
X169141Y14000D01*
X168978Y14819D01*
X168514Y15514D01*
X167819Y15978D01*
X167000Y16141D01*
X166537Y16049D01*
X151122Y31465D01*
Y122647D01*
X151622Y122914D01*
X152024Y122645D01*
X152500Y122550D01*
Y125000D01*
Y127450D01*
X152024Y127355D01*
X151622Y127086D01*
X151122Y127353D01*
Y128048D01*
X151514Y128310D01*
X151978Y129004D01*
X152141Y129824D01*
X151978Y130643D01*
X151514Y131338D01*
X150819Y131802D01*
X150000Y131965D01*
D02*
G37*
G36*
X298555Y105552D02*
X295988D01*
Y102985D01*
X298555D01*
Y105552D01*
D02*
G37*
G36*
X380392Y101906D02*
X377234D01*
Y100618D01*
X380392D01*
Y101906D01*
D02*
G37*
G36*
X376234D02*
X373077D01*
Y100618D01*
X376234D01*
Y101906D01*
D02*
G37*
G36*
X369500Y102450D02*
Y100500D01*
X371449D01*
X371355Y100976D01*
X370802Y101802D01*
X369975Y102355D01*
X369500Y102450D01*
D02*
G37*
G36*
X368500D02*
X368024Y102355D01*
X367198Y101802D01*
X366645Y100976D01*
X366550Y100500D01*
X368500D01*
Y102450D01*
D02*
G37*
G36*
X134925Y103106D02*
X134106Y102943D01*
X133412Y102479D01*
X132947Y101784D01*
X132784Y100965D01*
X132947Y100145D01*
X133412Y99451D01*
X134106Y98986D01*
X134925Y98823D01*
X135745Y98986D01*
X136440Y99451D01*
X136904Y100145D01*
X137067Y100965D01*
X136904Y101784D01*
X136440Y102479D01*
X135745Y102943D01*
X134925Y103106D01*
D02*
G37*
G36*
X120000Y102141D02*
X119181Y101978D01*
X118486Y101514D01*
X118022Y100819D01*
X117859Y100000D01*
X118022Y99181D01*
X118486Y98486D01*
X119181Y98022D01*
X120000Y97859D01*
X120819Y98022D01*
X121514Y98486D01*
X121978Y99181D01*
X122141Y100000D01*
X121978Y100819D01*
X121514Y101514D01*
X120819Y101978D01*
X120000Y102141D01*
D02*
G37*
G36*
X371449Y99500D02*
X369500D01*
Y97550D01*
X369975Y97645D01*
X370802Y98198D01*
X371355Y99024D01*
X371449Y99500D01*
D02*
G37*
G36*
X368500D02*
X366550D01*
X366645Y99024D01*
X367198Y98198D01*
X368024Y97645D01*
X368500Y97550D01*
Y99500D01*
D02*
G37*
G36*
X285000Y103135D02*
X284225Y103033D01*
X283503Y102734D01*
X282883Y102259D01*
X282407Y101638D01*
X282108Y100916D01*
X282006Y100141D01*
X282108Y99366D01*
X282407Y98644D01*
X282883Y98024D01*
X283503Y97548D01*
X284225Y97249D01*
X285000Y97147D01*
X285775Y97249D01*
X286497Y97548D01*
X287117Y98024D01*
X287593Y98644D01*
X287892Y99366D01*
X287994Y100141D01*
X287892Y100916D01*
X287593Y101638D01*
X287117Y102259D01*
X286497Y102734D01*
X285775Y103033D01*
X285000Y103135D01*
D02*
G37*
G36*
X225000Y98838D02*
X224181Y98675D01*
X223486Y98210D01*
X223022Y97516D01*
X222859Y96696D01*
X223022Y95877D01*
X223486Y95182D01*
X224181Y94718D01*
X225000Y94555D01*
X225819Y94718D01*
X226514Y95182D01*
X226978Y95877D01*
X227141Y96696D01*
X226978Y97516D01*
X226514Y98210D01*
X225819Y98675D01*
X225000Y98838D01*
D02*
G37*
G36*
X240500Y97944D02*
X239681Y97781D01*
X238986Y97317D01*
X238522Y96623D01*
X238359Y95803D01*
X238522Y94984D01*
X238986Y94289D01*
X239681Y93825D01*
X240500Y93662D01*
X241320Y93825D01*
X242014Y94289D01*
X242479Y94984D01*
X242642Y95803D01*
X242479Y96623D01*
X242014Y97317D01*
X241320Y97781D01*
X240500Y97944D01*
D02*
G37*
G36*
X122241Y94901D02*
X121421Y94738D01*
X120727Y94273D01*
X120262Y93579D01*
X120099Y92759D01*
X120262Y91940D01*
X120727Y91245D01*
X121421Y90781D01*
X122241Y90618D01*
X123060Y90781D01*
X123755Y91245D01*
X124219Y91940D01*
X124382Y92759D01*
X124219Y93579D01*
X123755Y94273D01*
X123060Y94738D01*
X122241Y94901D01*
D02*
G37*
G36*
X270000Y94782D02*
X269181Y94620D01*
X268486Y94155D01*
X268022Y93461D01*
X267859Y92641D01*
X268022Y91822D01*
X268486Y91127D01*
X269181Y90663D01*
X270000Y90500D01*
X270819Y90663D01*
X271514Y91127D01*
X271978Y91822D01*
X272141Y92641D01*
X271978Y93461D01*
X271514Y94155D01*
X270819Y94620D01*
X270000Y94782D01*
D02*
G37*
G36*
X330500Y91785D02*
Y89836D01*
X332450D01*
X332355Y90311D01*
X331802Y91138D01*
X330976Y91690D01*
X330500Y91785D01*
D02*
G37*
G36*
X329500D02*
X329025Y91690D01*
X328198Y91138D01*
X327645Y90311D01*
X327551Y89836D01*
X329500D01*
Y91785D01*
D02*
G37*
G36*
X218315Y92932D02*
X217496Y92769D01*
X216801Y92305D01*
X216337Y91610D01*
X216174Y90791D01*
X216337Y89972D01*
X216801Y89277D01*
X217496Y88813D01*
X218315Y88650D01*
X219134Y88813D01*
X219829Y89277D01*
X220293Y89972D01*
X220456Y90791D01*
X220293Y91610D01*
X219829Y92305D01*
X219134Y92769D01*
X218315Y92932D01*
D02*
G37*
G36*
X114315Y91295D02*
X113496Y91132D01*
X112801Y90668D01*
X112337Y89973D01*
X112174Y89153D01*
X112337Y88334D01*
X112801Y87639D01*
X113496Y87175D01*
X114315Y87012D01*
X115134Y87175D01*
X115829Y87639D01*
X116293Y88334D01*
X116456Y89153D01*
X116293Y89973D01*
X115829Y90668D01*
X115134Y91132D01*
X114315Y91295D01*
D02*
G37*
G36*
X332450Y88836D02*
X330500D01*
Y86886D01*
X330976Y86980D01*
X331802Y87533D01*
X332355Y88360D01*
X332450Y88836D01*
D02*
G37*
G36*
X329500D02*
X327551D01*
X327645Y88360D01*
X328198Y87533D01*
X329025Y86980D01*
X329500Y86886D01*
Y88836D01*
D02*
G37*
G36*
X250374Y102775D02*
X249555Y102612D01*
X248860Y102147D01*
X248396Y101453D01*
X248233Y100633D01*
X248396Y99814D01*
X248860Y99119D01*
X249253Y98857D01*
Y91754D01*
X249252Y91754D01*
X249338Y91325D01*
X249581Y90961D01*
X253575Y86966D01*
X253575Y86966D01*
X253939Y86723D01*
X254368Y86638D01*
X258224D01*
X258486Y86245D01*
X259181Y85781D01*
X260000Y85618D01*
X260819Y85781D01*
X261514Y86245D01*
X261978Y86940D01*
X262141Y87759D01*
X261978Y88579D01*
X261514Y89273D01*
X260819Y89738D01*
X260000Y89901D01*
X259181Y89738D01*
X258486Y89273D01*
X258224Y88881D01*
X254833D01*
X251496Y92218D01*
Y98857D01*
X251888Y99119D01*
X252352Y99814D01*
X252515Y100633D01*
X252352Y101453D01*
X251888Y102147D01*
X251193Y102612D01*
X250374Y102775D01*
D02*
G37*
G36*
X122241Y89901D02*
X121421Y89738D01*
X120727Y89273D01*
X120262Y88579D01*
X120099Y87759D01*
X120262Y86940D01*
X120727Y86245D01*
X121421Y85781D01*
X122241Y85618D01*
X123060Y85781D01*
X123755Y86245D01*
X124219Y86940D01*
X124382Y87759D01*
X124219Y88579D01*
X123755Y89273D01*
X123060Y89738D01*
X122241Y89901D01*
D02*
G37*
G36*
X244783Y108521D02*
X243964Y108358D01*
X243269Y107894D01*
X242805Y107199D01*
X242642Y106380D01*
X242805Y105560D01*
X243269Y104866D01*
X243662Y104604D01*
Y90476D01*
X243662Y90476D01*
X243747Y90047D01*
X243990Y89683D01*
X248204Y85469D01*
X247958Y85009D01*
X247709Y85058D01*
X246890Y84895D01*
X246195Y84431D01*
X245731Y83736D01*
X245568Y82917D01*
X245731Y82098D01*
X246195Y81403D01*
X246890Y80939D01*
X247709Y80776D01*
X248529Y80939D01*
X249223Y81403D01*
X249687Y82098D01*
X249850Y82917D01*
X249801Y83165D01*
X250262Y83412D01*
X251825Y81848D01*
X251825Y81848D01*
X252189Y81605D01*
X252618Y81520D01*
X252618Y81520D01*
X256224D01*
X256486Y81127D01*
X257181Y80663D01*
X258000Y80500D01*
X258819Y80663D01*
X259514Y81127D01*
X259978Y81822D01*
X260141Y82641D01*
X259978Y83461D01*
X259514Y84155D01*
X258819Y84619D01*
X258000Y84782D01*
X257181Y84619D01*
X256486Y84155D01*
X256224Y83763D01*
X253083D01*
X245905Y90940D01*
Y104604D01*
X246298Y104866D01*
X246762Y105560D01*
X246925Y106380D01*
X246762Y107199D01*
X246298Y107894D01*
X245603Y108358D01*
X244783Y108521D01*
D02*
G37*
G36*
X223178Y89141D02*
X222358Y88978D01*
X221664Y88514D01*
X221199Y87819D01*
X221037Y87000D01*
X221199Y86181D01*
X221664Y85486D01*
X222358Y85022D01*
X223178Y84859D01*
X223997Y85022D01*
X224692Y85486D01*
X225156Y86181D01*
X225319Y87000D01*
X225156Y87819D01*
X224692Y88514D01*
X223997Y88978D01*
X223178Y89141D01*
D02*
G37*
G36*
X241075Y88141D02*
X240255Y87978D01*
X239561Y87514D01*
X239097Y86819D01*
X238934Y86000D01*
X239097Y85181D01*
X239561Y84486D01*
X240255Y84022D01*
X241075Y83859D01*
X241894Y84022D01*
X242589Y84486D01*
X243053Y85181D01*
X243216Y86000D01*
X243053Y86819D01*
X242589Y87514D01*
X241894Y87978D01*
X241075Y88141D01*
D02*
G37*
G36*
X285000Y88135D02*
X284225Y88033D01*
X283503Y87734D01*
X282883Y87258D01*
X282407Y86638D01*
X282108Y85916D01*
X282006Y85141D01*
X282108Y84366D01*
X282407Y83644D01*
X282883Y83024D01*
X283503Y82548D01*
X284225Y82249D01*
X285000Y82147D01*
X285775Y82249D01*
X286497Y82548D01*
X287117Y83024D01*
X287593Y83644D01*
X287892Y84366D01*
X287994Y85141D01*
X287892Y85916D01*
X287593Y86638D01*
X287117Y87258D01*
X286497Y87734D01*
X285775Y88033D01*
X285000Y88135D01*
D02*
G37*
G36*
X218315Y85389D02*
X217496Y85226D01*
X216801Y84762D01*
X216337Y84067D01*
X216174Y83248D01*
X216337Y82429D01*
X216801Y81734D01*
X217496Y81270D01*
X218315Y81107D01*
X219134Y81270D01*
X219829Y81734D01*
X220293Y82429D01*
X220456Y83248D01*
X220293Y84067D01*
X219829Y84762D01*
X219134Y85226D01*
X218315Y85389D01*
D02*
G37*
G36*
X114371D02*
X113551Y85226D01*
X112857Y84762D01*
X112392Y84067D01*
X112230Y83248D01*
X112392Y82429D01*
X112857Y81734D01*
X113551Y81270D01*
X114371Y81107D01*
X115190Y81270D01*
X115885Y81734D01*
X116349Y82429D01*
X116512Y83248D01*
X116349Y84067D01*
X115885Y84762D01*
X115190Y85226D01*
X114371Y85389D01*
D02*
G37*
G36*
X302500Y81549D02*
X302025Y81454D01*
X301198Y80902D01*
X300645Y80075D01*
X300551Y79599D01*
X302500D01*
Y81549D01*
D02*
G37*
G36*
X297468Y98327D02*
X291760D01*
X291257Y98227D01*
X290831Y97942D01*
X290546Y97516D01*
X290446Y97013D01*
X290546Y96510D01*
X290831Y96083D01*
X290905Y96034D01*
Y95432D01*
X290831Y95383D01*
X290546Y94956D01*
X290446Y94454D01*
X290546Y93951D01*
X290831Y93524D01*
X290905Y93475D01*
Y92873D01*
X290831Y92824D01*
X290546Y92397D01*
X290446Y91895D01*
X290546Y91392D01*
X290831Y90965D01*
X290905Y90916D01*
Y90314D01*
X290831Y90265D01*
X290546Y89838D01*
X290446Y89336D01*
X290546Y88833D01*
X290831Y88406D01*
X290905Y88357D01*
Y87755D01*
X290831Y87706D01*
X290546Y87279D01*
X290446Y86776D01*
X290546Y86273D01*
X290831Y85847D01*
X290905Y85798D01*
Y85196D01*
X290831Y85147D01*
X290546Y84720D01*
X290446Y84217D01*
X290546Y83714D01*
X290831Y83288D01*
X290905Y83239D01*
Y82637D01*
X290831Y82588D01*
X290546Y82161D01*
X290446Y81658D01*
X290546Y81155D01*
X290654Y80993D01*
X290579Y80342D01*
X290542Y80317D01*
X290169Y79758D01*
X290137Y79599D01*
X294614D01*
X299091D01*
X299060Y79758D01*
X298686Y80317D01*
X298649Y80342D01*
X298574Y80993D01*
X298683Y81155D01*
X298783Y81658D01*
X298683Y82161D01*
X298398Y82588D01*
X298324Y82637D01*
Y83239D01*
X298398Y83288D01*
X298683Y83714D01*
X298783Y84217D01*
X298683Y84720D01*
X298398Y85147D01*
X298324Y85196D01*
Y85798D01*
X298398Y85847D01*
X298683Y86273D01*
X298783Y86776D01*
X298683Y87279D01*
X298398Y87706D01*
X298324Y87755D01*
Y88357D01*
X298398Y88406D01*
X298683Y88833D01*
X298783Y89336D01*
X298683Y89838D01*
X298398Y90265D01*
X298324Y90314D01*
Y90916D01*
X298398Y90965D01*
X298683Y91392D01*
X298783Y91895D01*
X298683Y92397D01*
X298398Y92824D01*
X298324Y92873D01*
Y93475D01*
X298398Y93524D01*
X298683Y93951D01*
X298783Y94454D01*
X298683Y94956D01*
X298398Y95383D01*
X298324Y95432D01*
Y96034D01*
X298398Y96083D01*
X298683Y96510D01*
X298783Y97013D01*
X298683Y97516D01*
X298398Y97942D01*
X297971Y98227D01*
X297468Y98327D01*
D02*
G37*
G36*
X240000Y81240D02*
X239181Y81077D01*
X238486Y80613D01*
X238022Y79919D01*
X237859Y79099D01*
X238022Y78280D01*
X238486Y77585D01*
X239181Y77121D01*
X240000Y76958D01*
X240819Y77121D01*
X241514Y77585D01*
X241978Y78280D01*
X242141Y79099D01*
X241978Y79919D01*
X241514Y80613D01*
X240819Y81077D01*
X240000Y81240D01*
D02*
G37*
G36*
X353679Y76530D02*
X348542D01*
Y74296D01*
X340175D01*
Y75349D01*
X335825D01*
Y70999D01*
X340175D01*
Y72053D01*
X348542D01*
Y69818D01*
X353679D01*
Y76530D01*
D02*
G37*
G36*
X262253Y77356D02*
X257117D01*
Y73333D01*
X255075D01*
X254808Y73833D01*
X255069Y74224D01*
X255232Y75043D01*
X255069Y75862D01*
X254605Y76557D01*
X253910Y77021D01*
X253091Y77184D01*
X252271Y77021D01*
X251576Y76557D01*
X251112Y75862D01*
X250949Y75043D01*
X251112Y74224D01*
X251217Y74067D01*
X250955Y73559D01*
X250663Y73549D01*
X250546Y73725D01*
X249851Y74190D01*
X249031Y74353D01*
X248212Y74190D01*
X247517Y73725D01*
X247053Y73031D01*
X246890Y72211D01*
X247053Y71392D01*
X247517Y70697D01*
X248212Y70233D01*
X249031Y70070D01*
X249851Y70233D01*
X250546Y70697D01*
X250808Y71090D01*
X257117D01*
Y70644D01*
X262253D01*
Y77356D01*
D02*
G37*
G36*
X223570Y82141D02*
X222750Y81978D01*
X222056Y81514D01*
X221591Y80819D01*
X221428Y80000D01*
X221591Y79181D01*
X222056Y78486D01*
X222691Y78062D01*
X222703Y77821D01*
X222638Y77542D01*
X222181Y77451D01*
X221486Y76986D01*
X221022Y76292D01*
X220859Y75472D01*
X221022Y74653D01*
X221486Y73958D01*
X222181Y73494D01*
X223000Y73331D01*
X223819Y73494D01*
X224514Y73958D01*
X224978Y74653D01*
X225141Y75472D01*
X224978Y76292D01*
X224514Y76986D01*
X223879Y77411D01*
X223866Y77651D01*
X223932Y77931D01*
X224389Y78022D01*
X225084Y78486D01*
X225548Y79181D01*
X225711Y80000D01*
X225548Y80819D01*
X225084Y81514D01*
X224389Y81978D01*
X223570Y82141D01*
D02*
G37*
G36*
X115000Y77614D02*
X114181Y77451D01*
X113486Y76986D01*
X113022Y76292D01*
X112859Y75472D01*
X113022Y74653D01*
X113486Y73958D01*
X114181Y73494D01*
X115000Y73331D01*
X115819Y73494D01*
X116514Y73958D01*
X116978Y74653D01*
X117141Y75472D01*
X116978Y76292D01*
X116514Y76986D01*
X115819Y77451D01*
X115000Y77614D01*
D02*
G37*
G36*
X205000Y75872D02*
X204181Y75709D01*
X203486Y75245D01*
X203022Y74550D01*
X202859Y73731D01*
X203022Y72912D01*
X203486Y72217D01*
X204181Y71753D01*
X205000Y71590D01*
X205819Y71753D01*
X206514Y72217D01*
X206978Y72912D01*
X207141Y73731D01*
X206978Y74550D01*
X206514Y75245D01*
X205819Y75709D01*
X205000Y75872D01*
D02*
G37*
G36*
X325863Y70922D02*
X321386D01*
X316909D01*
X316940Y70763D01*
X317314Y70204D01*
Y70081D01*
X316940Y69522D01*
X316909Y69363D01*
X321386D01*
X325863D01*
X325831Y69522D01*
X325458Y70081D01*
Y70204D01*
X325831Y70763D01*
X325863Y70922D01*
D02*
G37*
G36*
X123235Y71004D02*
X122416Y70841D01*
X121721Y70377D01*
X121257Y69682D01*
X121094Y68863D01*
X121257Y68044D01*
X121721Y67349D01*
X122416Y66885D01*
X123235Y66722D01*
X124055Y66885D01*
X124749Y67349D01*
X125213Y68044D01*
X125376Y68863D01*
X125213Y69682D01*
X124749Y70377D01*
X124055Y70841D01*
X123235Y71004D01*
D02*
G37*
G36*
X325863Y81158D02*
X321386D01*
X316909D01*
X316940Y80999D01*
X317314Y80441D01*
X317351Y80416D01*
X317426Y79764D01*
X317317Y79602D01*
X317217Y79099D01*
X317317Y78596D01*
X317602Y78170D01*
X317676Y78120D01*
Y77519D01*
X317602Y77469D01*
X317317Y77043D01*
X317217Y76540D01*
X317317Y76037D01*
X317602Y75611D01*
X317676Y75561D01*
Y74960D01*
X317602Y74910D01*
X317317Y74484D01*
X317217Y73981D01*
X317317Y73478D01*
X317426Y73316D01*
X317351Y72664D01*
X317314Y72640D01*
X316940Y72081D01*
X316909Y71922D01*
X321386D01*
X325863D01*
X325831Y72081D01*
X325458Y72640D01*
X325421Y72664D01*
X325346Y73316D01*
X325454Y73478D01*
X325554Y73981D01*
X325454Y74484D01*
X325169Y74910D01*
X325157Y74919D01*
X325309Y75419D01*
X326250D01*
X326878Y74790D01*
Y69847D01*
X326878Y69847D01*
X326964Y69418D01*
X327207Y69054D01*
X329526Y66735D01*
Y63972D01*
X333876D01*
Y68321D01*
X331112D01*
X329130Y70304D01*
X329166Y70794D01*
X329526Y70999D01*
X333876D01*
Y75349D01*
X333303D01*
X332822Y75398D01*
X332737Y75828D01*
X332494Y76192D01*
X332494Y76192D01*
X328793Y79892D01*
X328429Y80136D01*
X328000Y80221D01*
X328000Y80221D01*
X325912D01*
X325645Y80721D01*
X325831Y80999D01*
X325863Y81158D01*
D02*
G37*
G36*
Y68363D02*
X321386D01*
X316909D01*
X316940Y68204D01*
X317314Y67645D01*
X317351Y67621D01*
X317426Y66969D01*
X317317Y66807D01*
X317217Y66304D01*
X317317Y65801D01*
X317602Y65375D01*
X317676Y65325D01*
Y64724D01*
X317602Y64674D01*
X317317Y64248D01*
X317217Y63745D01*
X317317Y63242D01*
X317602Y62816D01*
X318029Y62531D01*
X318531Y62431D01*
X324240D01*
X324743Y62531D01*
X325169Y62816D01*
X325454Y63242D01*
X325554Y63745D01*
X325454Y64248D01*
X325169Y64674D01*
X325095Y64724D01*
Y65325D01*
X325169Y65375D01*
X325454Y65801D01*
X325554Y66304D01*
X325454Y66807D01*
X325346Y66969D01*
X325421Y67621D01*
X325458Y67645D01*
X325831Y68204D01*
X325863Y68363D01*
D02*
G37*
G36*
X266828Y59013D02*
X261691D01*
Y56779D01*
X231534D01*
X231272Y57171D01*
X230577Y57635D01*
X229758Y57798D01*
X228938Y57635D01*
X228244Y57171D01*
X227780Y56477D01*
X227617Y55657D01*
X227780Y54838D01*
X228244Y54143D01*
X228938Y53679D01*
X229758Y53516D01*
X230577Y53679D01*
X231272Y54143D01*
X231534Y54536D01*
X261691D01*
Y52301D01*
X266828D01*
Y59013D01*
D02*
G37*
G36*
X184500Y60141D02*
X183681Y59978D01*
X182986Y59514D01*
X182522Y58819D01*
X182359Y58000D01*
X182522Y57181D01*
X182986Y56486D01*
X183681Y56022D01*
X184500Y55859D01*
X185319Y56022D01*
X186014Y56486D01*
X186478Y57181D01*
X186641Y58000D01*
X186478Y58819D01*
X186014Y59514D01*
X185319Y59978D01*
X184500Y60141D01*
D02*
G37*
G36*
X190000Y58141D02*
X189181Y57978D01*
X188486Y57514D01*
X188022Y56819D01*
X187859Y56000D01*
X188022Y55181D01*
X188486Y54486D01*
X189181Y54022D01*
X190000Y53859D01*
X190819Y54022D01*
X191514Y54486D01*
X191978Y55181D01*
X192141Y56000D01*
X191978Y56819D01*
X191514Y57514D01*
X190819Y57978D01*
X190000Y58141D01*
D02*
G37*
G36*
X129000Y56141D02*
X128181Y55978D01*
X127486Y55514D01*
X127022Y54819D01*
X126859Y54000D01*
X127022Y53181D01*
X127486Y52486D01*
X128181Y52022D01*
X129000Y51859D01*
X129819Y52022D01*
X130514Y52486D01*
X130978Y53181D01*
X131141Y54000D01*
X130978Y54819D01*
X130514Y55514D01*
X129819Y55978D01*
X129000Y56141D01*
D02*
G37*
G36*
X196000Y53141D02*
X195181Y52978D01*
X194486Y52514D01*
X194022Y51819D01*
X193859Y51000D01*
X194022Y50181D01*
X194486Y49486D01*
X195181Y49022D01*
X196000Y48859D01*
X196819Y49022D01*
X197514Y49486D01*
X197978Y50181D01*
X198141Y51000D01*
X197978Y51819D01*
X197514Y52514D01*
X196819Y52978D01*
X196000Y53141D01*
D02*
G37*
G36*
X147500Y26449D02*
Y24500D01*
X149450D01*
X149355Y24975D01*
X148802Y25802D01*
X147976Y26355D01*
X147500Y26449D01*
D02*
G37*
G36*
X146500D02*
X146025Y26355D01*
X145198Y25802D01*
X144645Y24975D01*
X144551Y24500D01*
X146500D01*
Y26449D01*
D02*
G37*
G36*
X149450Y23500D02*
X144551D01*
X144645Y23024D01*
X145198Y22198D01*
Y21802D01*
X144645Y20976D01*
X144551Y20500D01*
X149450D01*
X149355Y20976D01*
X148802Y21802D01*
Y22198D01*
X149355Y23024D01*
X149450Y23500D01*
D02*
G37*
G36*
Y19500D02*
X147500D01*
Y17550D01*
X147976Y17645D01*
X148802Y18198D01*
X149355Y19025D01*
X149450Y19500D01*
D02*
G37*
G36*
X146500D02*
X144551D01*
X144645Y19025D01*
X145198Y18198D01*
X146025Y17645D01*
X146500Y17550D01*
Y19500D01*
D02*
G37*
%LPD*%
D16*
X271430Y11000D02*
X316088Y55657D01*
X224905Y11000D02*
X271430D01*
X264097Y96699D02*
X270000Y102602D01*
X264097Y70789D02*
Y96699D01*
Y70789D02*
X265638Y69248D01*
Y63745D02*
Y69248D01*
X254368Y87759D02*
X260000D01*
X252618Y82641D02*
X258000D01*
X250374Y91754D02*
X254368Y87759D01*
X244783Y90476D02*
X252618Y82641D01*
X250374Y91754D02*
Y100633D01*
X244783Y90476D02*
Y106380D01*
X270000Y101606D02*
Y102602D01*
X212953Y121102D02*
X214110Y122259D01*
X212953Y39803D02*
Y121102D01*
X214110Y122259D02*
Y122796D01*
X212953Y22953D02*
X224905Y11000D01*
X150000Y31000D02*
Y129824D01*
Y31000D02*
X167000Y14000D01*
X350660Y55657D02*
X358591Y63587D01*
X316088Y55657D02*
X350660D01*
X300323Y71422D02*
X316088Y55657D01*
X212953Y22953D02*
Y39803D01*
X200000Y10000D02*
X212953Y22953D01*
X171000Y10000D02*
X200000D01*
X167000Y14000D02*
X171000Y10000D01*
X25000Y98524D02*
X39252Y112776D01*
X25000Y83750D02*
Y98524D01*
Y67972D02*
Y81750D01*
Y67972D02*
X39252Y53720D01*
X25000Y81750D02*
Y83750D01*
X267165Y74000D02*
X267184Y73981D01*
X249031Y72211D02*
X257896D01*
X259685Y74000D01*
X229758Y55657D02*
X264260D01*
X358591Y82000D02*
X366472Y89882D01*
X305157Y95146D02*
X313527Y86776D01*
X275116Y55657D02*
X283203Y63745D01*
X321386Y79099D02*
X328000D01*
X313527Y86776D02*
X321386D01*
X300323Y71422D02*
X313118Y84217D01*
X366472Y89882D02*
X376734D01*
X338000Y66146D02*
X348551D01*
X351110Y63587D01*
X338000Y73174D02*
X351110D01*
X321386Y76540D02*
X326714D01*
X313118Y84217D02*
X321386D01*
X316040Y91895D02*
X321386D01*
X274299Y66304D02*
X294614D01*
X283203Y63745D02*
X294614D01*
X267184Y73981D02*
X294614D01*
X358591Y73174D02*
Y82000D01*
Y63587D02*
Y73174D01*
X328000Y79099D02*
X331701Y75398D01*
X328000Y69847D02*
Y75255D01*
X321386Y84217D02*
Y86776D01*
X312935Y95000D02*
X316040Y91895D01*
X312935Y95000D02*
Y106052D01*
X305157Y95146D02*
Y106052D01*
X294614Y71422D02*
X300323D01*
X328000Y69847D02*
X331701Y66146D01*
Y73174D02*
Y75398D01*
X326714Y76540D02*
X328000Y75255D01*
X271740Y55657D02*
X275116D01*
X271740Y63745D02*
X274299Y66304D01*
D17*
X0Y0D02*
Y175000D01*
X393000D01*
Y0D02*
Y175000D01*
X0Y0D02*
X393000D01*
D20*
X338000Y66146D02*
D03*
X331701D02*
D03*
Y73174D02*
D03*
X338000D02*
D03*
D21*
X351110D02*
D03*
X358591D02*
D03*
X351110Y63587D02*
D03*
X358591D02*
D03*
X267165Y74000D02*
D03*
X259685D02*
D03*
X271740Y55657D02*
D03*
X264260D02*
D03*
D29*
X265638Y63745D02*
D03*
X271740D02*
D03*
X305157Y106052D02*
D03*
X299055D02*
D03*
X312935D02*
D03*
X319037D02*
D03*
D47*
X67795Y25177D02*
X105000D01*
X39252Y53720D02*
X67795Y25177D01*
X40000Y20000D02*
X95000D01*
X15000Y45000D02*
X40000Y20000D01*
X15000Y45000D02*
Y100335D01*
X39252Y124587D01*
X64665Y150000D02*
X166965D01*
X39252Y124587D02*
X64665Y150000D01*
D48*
X39252Y53720D02*
D03*
Y65531D02*
D03*
Y77342D02*
D03*
Y89153D02*
D03*
Y100965D02*
D03*
Y112776D02*
D03*
Y124587D02*
D03*
X60905Y59626D02*
D03*
Y71437D02*
D03*
Y83248D02*
D03*
Y95059D02*
D03*
Y106870D02*
D03*
Y118681D02*
D03*
X70748Y53720D02*
D03*
Y65531D02*
D03*
Y77342D02*
D03*
Y89153D02*
D03*
Y100965D02*
D03*
Y112776D02*
D03*
Y124587D02*
D03*
X49095Y118681D02*
D03*
Y106870D02*
D03*
Y95059D02*
D03*
Y83248D02*
D03*
Y71437D02*
D03*
Y59626D02*
D03*
D49*
X270000Y92641D02*
D03*
X260000Y87759D02*
D03*
X258000Y82641D02*
D03*
X270000Y97641D02*
D03*
X247709Y82917D02*
D03*
X250374Y100633D02*
D03*
X244783Y106380D02*
D03*
X270000Y102602D02*
D03*
X240500Y95803D02*
D03*
X205000Y73731D02*
D03*
X214110Y122259D02*
D03*
X235000Y121249D02*
D03*
X150000Y129824D02*
D03*
X153000Y125000D02*
D03*
X147000Y20000D02*
D03*
Y24000D02*
D03*
X369000Y100000D02*
D03*
X330000Y89336D02*
D03*
X303000Y79099D02*
D03*
X212953Y39803D02*
D03*
X167000Y14000D02*
D03*
X196000Y51000D02*
D03*
X190000Y56000D02*
D03*
X129000Y54000D02*
D03*
X184500Y58000D02*
D03*
X223570Y80000D02*
D03*
X223000Y75472D02*
D03*
X218315Y83248D02*
D03*
X223178Y87000D02*
D03*
X218315Y90791D02*
D03*
X241075Y86000D02*
D03*
X225000Y96696D02*
D03*
X240000Y79099D02*
D03*
X253091Y75043D02*
D03*
X115000Y75472D02*
D03*
X114371Y83248D02*
D03*
X114315Y89153D02*
D03*
X122241Y87759D02*
D03*
Y92759D02*
D03*
X120000Y100000D02*
D03*
X116670Y108839D02*
D03*
X125000Y105137D02*
D03*
X134925Y100965D02*
D03*
X123235Y68863D02*
D03*
X249031Y72211D02*
D03*
X229758Y55657D02*
D03*
D50*
X95000Y20000D02*
D03*
X166965Y150000D02*
D03*
D51*
X387266Y98347D02*
D03*
Y91654D02*
D03*
D52*
Y111142D02*
D03*
Y78858D02*
D03*
D53*
X378014Y107205D02*
D03*
Y82795D02*
D03*
D54*
X376734Y100118D02*
D03*
Y97559D02*
D03*
Y95000D02*
D03*
Y92441D02*
D03*
Y89882D02*
D03*
D55*
X25000Y81750D02*
D03*
Y83750D02*
D03*
D56*
X294614Y63745D02*
D03*
Y66304D02*
D03*
Y68863D02*
D03*
Y71422D02*
D03*
Y73981D02*
D03*
Y76540D02*
D03*
Y79099D02*
D03*
Y81658D02*
D03*
Y84217D02*
D03*
Y86776D02*
D03*
Y89336D02*
D03*
Y91895D02*
D03*
Y94454D02*
D03*
Y97013D02*
D03*
X321386Y63745D02*
D03*
Y66304D02*
D03*
Y68863D02*
D03*
Y71422D02*
D03*
Y73981D02*
D03*
Y76540D02*
D03*
Y79099D02*
D03*
Y81658D02*
D03*
Y84217D02*
D03*
Y86776D02*
D03*
Y89336D02*
D03*
Y91895D02*
D03*
Y94454D02*
D03*
Y97013D02*
D03*
D57*
X325709Y94483D02*
X345965D01*
X325709Y96983D02*
X347000D01*
X348983Y95000D02*
X376734D01*
X348007Y92441D02*
X376734D01*
X347000Y96983D02*
X348983Y95000D01*
X321386Y94454D02*
X325679D01*
X325709Y94483D01*
X321386Y97013D02*
X325679D01*
X325709Y96983D01*
X345965Y94483D02*
X348007Y92441D01*
M02*
