G04*
G04 #@! TF.GenerationSoftware,Altium Limited,Altium Designer,18.1.6 (161)*
G04*
G04 Layer_Color=8388736*
%FSLAX25Y25*%
%MOIN*%
G70*
G01*
G75*
%ADD17C,0.00100*%
G04:AMPARAMS|DCode=30|XSize=49.37mil|YSize=90.71mil|CornerRadius=6.97mil|HoleSize=0mil|Usage=FLASHONLY|Rotation=180.000|XOffset=0mil|YOffset=0mil|HoleType=Round|Shape=RoundedRectangle|*
%AMROUNDEDRECTD30*
21,1,0.04937,0.07677,0,0,180.0*
21,1,0.03543,0.09071,0,0,180.0*
1,1,0.01394,-0.01772,0.03839*
1,1,0.01394,0.01772,0.03839*
1,1,0.01394,0.01772,-0.03839*
1,1,0.01394,-0.01772,-0.03839*
%
%ADD30ROUNDEDRECTD30*%
G04:AMPARAMS|DCode=31|XSize=137.95mil|YSize=90.71mil|CornerRadius=7.02mil|HoleSize=0mil|Usage=FLASHONLY|Rotation=180.000|XOffset=0mil|YOffset=0mil|HoleType=Round|Shape=RoundedRectangle|*
%AMROUNDEDRECTD31*
21,1,0.13795,0.07667,0,0,180.0*
21,1,0.12392,0.09071,0,0,180.0*
1,1,0.01404,-0.06196,0.03834*
1,1,0.01404,0.06196,0.03834*
1,1,0.01404,0.06196,-0.03834*
1,1,0.01404,-0.06196,-0.03834*
%
%ADD31ROUNDEDRECTD31*%
%ADD32R,0.04150X0.04150*%
%ADD33R,0.04937X0.06512*%
%ADD34R,0.05134X0.05134*%
%ADD35R,0.02100X0.06800*%
%ADD36R,0.06800X0.02100*%
%ADD37R,0.06512X0.04937*%
%ADD38R,0.10449X0.03992*%
%ADD39O,0.09661X0.03362*%
%ADD40R,0.04543X0.04150*%
%ADD41R,0.05134X0.05134*%
%ADD42C,0.09661*%
%ADD43C,0.01000*%
%ADD44C,0.04000*%
%ADD45C,0.06000*%
D17*
X0Y0D02*
Y175000D01*
X393000D01*
Y0D02*
Y175000D01*
X0Y0D02*
X393000D01*
D30*
X137945Y9630D02*
D03*
X147000D02*
D03*
X156055D02*
D03*
X195945Y139880D02*
D03*
X205000D02*
D03*
X214055D02*
D03*
D31*
X147000Y34630D02*
D03*
X205000Y164880D02*
D03*
D32*
X183299Y29000D02*
D03*
X177000D02*
D03*
X243150Y158777D02*
D03*
X236850D02*
D03*
D33*
X176234Y18803D02*
D03*
X183714D02*
D03*
X281260Y73882D02*
D03*
X288740D02*
D03*
X236260Y149230D02*
D03*
X243740D02*
D03*
D34*
X127000Y25102D02*
D03*
Y19000D02*
D03*
X167000Y25102D02*
D03*
Y19000D02*
D03*
X225000Y149230D02*
D03*
Y155333D02*
D03*
X304800Y85898D02*
D03*
Y92000D02*
D03*
X185000Y149230D02*
D03*
Y155333D02*
D03*
D35*
X224764Y111907D02*
D03*
X222795D02*
D03*
X220827D02*
D03*
X218858D02*
D03*
X216890D02*
D03*
X214921D02*
D03*
X212953D02*
D03*
X210984D02*
D03*
X209016D02*
D03*
X207047D02*
D03*
X205079D02*
D03*
X203110D02*
D03*
X201142D02*
D03*
X199173D02*
D03*
X197205D02*
D03*
X195236D02*
D03*
Y67707D02*
D03*
X197205D02*
D03*
X199173D02*
D03*
X201142D02*
D03*
X203110D02*
D03*
X205079D02*
D03*
X207047D02*
D03*
X209016D02*
D03*
X210984D02*
D03*
X212953D02*
D03*
X214921D02*
D03*
X216890D02*
D03*
X218858D02*
D03*
X220827D02*
D03*
X222795D02*
D03*
X224764D02*
D03*
D36*
X187900Y104570D02*
D03*
Y102602D02*
D03*
Y100633D02*
D03*
Y98665D02*
D03*
Y96696D02*
D03*
Y94728D02*
D03*
Y92759D02*
D03*
Y90791D02*
D03*
Y88822D02*
D03*
Y86854D02*
D03*
Y84885D02*
D03*
Y82917D02*
D03*
Y80948D02*
D03*
Y78980D02*
D03*
Y77011D02*
D03*
Y75043D02*
D03*
X232100D02*
D03*
Y77011D02*
D03*
Y78980D02*
D03*
Y80948D02*
D03*
Y82917D02*
D03*
Y84885D02*
D03*
Y86854D02*
D03*
Y88822D02*
D03*
Y90791D02*
D03*
Y92759D02*
D03*
Y94728D02*
D03*
Y96696D02*
D03*
Y98665D02*
D03*
Y100633D02*
D03*
Y102602D02*
D03*
Y104570D02*
D03*
D37*
X110000Y132994D02*
D03*
Y125514D02*
D03*
D38*
X277323Y102641D02*
D03*
X292677D02*
D03*
X277323Y97641D02*
D03*
X292677D02*
D03*
X277323Y92641D02*
D03*
X292677D02*
D03*
X277323Y87641D02*
D03*
X292677D02*
D03*
X277323Y82641D02*
D03*
X292677D02*
D03*
D39*
X161521Y120035D02*
D03*
Y125035D02*
D03*
Y130035D02*
D03*
Y135035D02*
D03*
X142623Y120035D02*
D03*
Y125035D02*
D03*
Y130035D02*
D03*
Y135035D02*
D03*
D40*
X128937Y129254D02*
D03*
X121063Y125514D02*
D03*
Y132994D02*
D03*
D41*
X220898Y121749D02*
D03*
X227000D02*
D03*
X211279Y128571D02*
D03*
X205177D02*
D03*
X213150Y51734D02*
D03*
X207047D02*
D03*
D42*
X39252Y53720D02*
D03*
Y65531D02*
D03*
Y77342D02*
D03*
Y89153D02*
D03*
Y100965D02*
D03*
Y112776D02*
D03*
Y124587D02*
D03*
X60905Y59626D02*
D03*
Y71437D02*
D03*
Y83248D02*
D03*
Y95059D02*
D03*
Y106870D02*
D03*
Y118681D02*
D03*
X70748Y53720D02*
D03*
Y65531D02*
D03*
Y77342D02*
D03*
Y89153D02*
D03*
Y100965D02*
D03*
Y112776D02*
D03*
Y124587D02*
D03*
X49095Y118681D02*
D03*
Y106870D02*
D03*
Y95059D02*
D03*
Y83248D02*
D03*
Y71437D02*
D03*
Y59626D02*
D03*
D43*
X13661Y153130D02*
D03*
Y25177D02*
D03*
D44*
X270000Y92641D02*
D03*
X260000Y87759D02*
D03*
X258000Y82641D02*
D03*
X270000Y97641D02*
D03*
X247709Y82917D02*
D03*
X250374Y100633D02*
D03*
X244783Y106380D02*
D03*
X270000Y102602D02*
D03*
X240500Y95803D02*
D03*
X205000Y73731D02*
D03*
X214110Y122259D02*
D03*
X235000Y121249D02*
D03*
X150000Y129824D02*
D03*
X153000Y125000D02*
D03*
X147000Y20000D02*
D03*
Y24000D02*
D03*
X369000Y100000D02*
D03*
X330000Y89336D02*
D03*
X303000Y79099D02*
D03*
X212953Y39803D02*
D03*
X167000Y14000D02*
D03*
X196000Y51000D02*
D03*
X190000Y56000D02*
D03*
X129000Y54000D02*
D03*
X184500Y58000D02*
D03*
X223570Y80000D02*
D03*
X223000Y75472D02*
D03*
X218315Y83248D02*
D03*
X223178Y87000D02*
D03*
X218315Y90791D02*
D03*
X241075Y86000D02*
D03*
X225000Y96696D02*
D03*
X240000Y79099D02*
D03*
X253091Y75043D02*
D03*
X115000Y75472D02*
D03*
X114371Y83248D02*
D03*
X114315Y89153D02*
D03*
X122241Y87759D02*
D03*
Y92759D02*
D03*
X120000Y100000D02*
D03*
X116670Y108839D02*
D03*
X125000Y105137D02*
D03*
X134925Y100965D02*
D03*
X123235Y68863D02*
D03*
X249031Y72211D02*
D03*
X229758Y55657D02*
D03*
D45*
X95000Y20000D02*
D03*
X166965Y150000D02*
D03*
M02*
