M48
;Layer_Color=9474304
;FILE_FORMAT=2:5
INCH,LZ
;TYPE=PLATED
T1F00S00C0.01500
T2F00S00C0.03000
T3F00S00C0.05512
;TYPE=NON_PLATED
T4F00S00C0.03937
T5F00S00C0.12992
%
T01
X0147Y002
Y0024
X0167Y0014
X019Y0056
X0196Y0051
X0129Y0054
X0212953Y0039803
X0229758Y0055657
X0369Y01
X033Y0089336
X0303Y0079099
X027Y0092641
Y0097641
Y0102602
X0250374Y0100633
X0244783Y010638
X02405Y0095803
X0241075Y0086
X024Y0079099
X0247709Y0082917
X0258Y0082641
X026Y0087759
X0253091Y0075043
X0249031Y0072211
X0223Y0075472
X022357Y008
X0223178Y0087
X0218315Y0083248
Y0090791
X0225Y0096696
X0235Y0121249
X021411Y0122259
X0205Y0073731
X01845Y0058
X0123235Y0068863
X0115Y0075472
X0114371Y0083248
X0114315Y0089153
X0122241Y0087759
Y0092759
X012Y01
X0125Y0105137
X011667Y0108839
X0134925Y0100965
X0153Y0125
X015Y0129824
T02
X0095Y002
X0166965Y015
T03
X0039252Y005372
X0070748
Y0065531
Y0077342
Y0089153
Y0100965
Y0112776
Y0124587
X0060905Y0118681
Y010687
Y0095059
Y0083248
Y0071437
Y0059626
X0049095
Y0071437
Y0083248
Y0095059
Y010687
Y0118681
X0039252Y0112776
Y0124587
Y0100965
Y0089153
Y0077342
Y0065531
T04
X0285Y0085141
Y0100141
T05
X0013661Y0025177
Y015313
M30
